<?xml version="1.0" encoding="utf-8"?>
<svg xmlns="http://www.w3.org/2000/svg" xmlns:xlink="http://www.w3.org/1999/xlink" width="600" height="400" viewBox="0 0 2400 1600">
<defs>
  <clipPath id="clip060">
    <rect x="0" y="0" width="2400" height="1600"/>
  </clipPath>
</defs>
<path clip-path="url(#clip060)" d="
M0 1600 L2400 1600 L2400 0 L0 0  Z
  " fill="#ffffff" fill-rule="evenodd" fill-opacity="1"/>
<defs>
  <clipPath id="clip061">
    <rect x="480" y="0" width="1681" height="1600"/>
  </clipPath>
</defs>
<path clip-path="url(#clip060)" d="
M233.987 1410.9 L2352.76 1410.9 L2352.76 47.2441 L233.987 47.2441  Z
  " fill="#ffffff" fill-rule="evenodd" fill-opacity="1"/>
<defs>
  <clipPath id="clip062">
    <rect x="233" y="47" width="2120" height="1365"/>
  </clipPath>
</defs>
<polyline clip-path="url(#clip062)" style="stroke:#000000; stroke-linecap:butt; stroke-linejoin:round; stroke-width:2; stroke-opacity:0.1; fill:none" points="
  292.988,1410.9 292.988,47.2441 
  "/>
<polyline clip-path="url(#clip062)" style="stroke:#000000; stroke-linecap:butt; stroke-linejoin:round; stroke-width:2; stroke-opacity:0.1; fill:none" points="
  895.266,1410.9 895.266,47.2441 
  "/>
<polyline clip-path="url(#clip062)" style="stroke:#000000; stroke-linecap:butt; stroke-linejoin:round; stroke-width:2; stroke-opacity:0.1; fill:none" points="
  1497.54,1410.9 1497.54,47.2441 
  "/>
<polyline clip-path="url(#clip062)" style="stroke:#000000; stroke-linecap:butt; stroke-linejoin:round; stroke-width:2; stroke-opacity:0.1; fill:none" points="
  2099.82,1410.9 2099.82,47.2441 
  "/>
<polyline clip-path="url(#clip060)" style="stroke:#000000; stroke-linecap:butt; stroke-linejoin:round; stroke-width:4; stroke-opacity:1; fill:none" points="
  233.987,1410.9 2352.76,1410.9 
  "/>
<polyline clip-path="url(#clip060)" style="stroke:#000000; stroke-linecap:butt; stroke-linejoin:round; stroke-width:4; stroke-opacity:1; fill:none" points="
  292.988,1410.9 292.988,1392 
  "/>
<polyline clip-path="url(#clip060)" style="stroke:#000000; stroke-linecap:butt; stroke-linejoin:round; stroke-width:4; stroke-opacity:1; fill:none" points="
  895.266,1410.9 895.266,1392 
  "/>
<polyline clip-path="url(#clip060)" style="stroke:#000000; stroke-linecap:butt; stroke-linejoin:round; stroke-width:4; stroke-opacity:1; fill:none" points="
  1497.54,1410.9 1497.54,1392 
  "/>
<polyline clip-path="url(#clip060)" style="stroke:#000000; stroke-linecap:butt; stroke-linejoin:round; stroke-width:4; stroke-opacity:1; fill:none" points="
  2099.82,1410.9 2099.82,1392 
  "/>
<path clip-path="url(#clip060)" d="M292.988 1441.82 Q289.377 1441.82 287.548 1445.38 Q285.743 1448.92 285.743 1456.05 Q285.743 1463.16 287.548 1466.72 Q289.377 1470.26 292.988 1470.26 Q296.622 1470.26 298.428 1466.72 Q300.257 1463.16 300.257 1456.05 Q300.257 1448.92 298.428 1445.38 Q296.622 1441.82 292.988 1441.82 M292.988 1438.11 Q298.798 1438.11 301.854 1442.72 Q304.932 1447.3 304.932 1456.05 Q304.932 1464.78 301.854 1469.38 Q298.798 1473.97 292.988 1473.97 Q287.178 1473.97 284.099 1469.38 Q281.044 1464.78 281.044 1456.05 Q281.044 1447.3 284.099 1442.72 Q287.178 1438.11 292.988 1438.11 Z" fill="#000000" fill-rule="evenodd" fill-opacity="1" /><path clip-path="url(#clip060)" d="M802.164 1485.02 L809.803 1485.02 L809.803 1458.66 L801.493 1460.32 L801.493 1456.06 L809.757 1454.4 L814.433 1454.4 L814.433 1485.02 L822.072 1485.02 L822.072 1488.96 L802.164 1488.96 L802.164 1485.02 Z" fill="#000000" fill-rule="evenodd" fill-opacity="1" /><path clip-path="url(#clip060)" d="M831.516 1483.08 L836.4 1483.08 L836.4 1488.96 L831.516 1488.96 L831.516 1483.08 Z" fill="#000000" fill-rule="evenodd" fill-opacity="1" /><path clip-path="url(#clip060)" d="M856.585 1457.48 Q852.974 1457.48 851.146 1461.04 Q849.34 1464.58 849.34 1471.71 Q849.34 1478.82 851.146 1482.38 Q852.974 1485.92 856.585 1485.92 Q860.22 1485.92 862.025 1482.38 Q863.854 1478.82 863.854 1471.71 Q863.854 1464.58 862.025 1461.04 Q860.22 1457.48 856.585 1457.48 M856.585 1453.77 Q862.396 1453.77 865.451 1458.38 Q868.53 1462.96 868.53 1471.71 Q868.53 1480.44 865.451 1485.04 Q862.396 1489.63 856.585 1489.63 Q850.775 1489.63 847.697 1485.04 Q844.641 1480.44 844.641 1471.71 Q844.641 1462.96 847.697 1458.38 Q850.775 1453.77 856.585 1453.77 Z" fill="#000000" fill-rule="evenodd" fill-opacity="1" /><path clip-path="url(#clip060)" d="M904.918 1463.49 L894.34 1474.12 L904.918 1484.7 L902.164 1487.5 L891.539 1476.87 L880.914 1487.5 L878.182 1484.7 L888.738 1474.12 L878.182 1463.49 L880.914 1460.69 L891.539 1471.32 L902.164 1460.69 L904.918 1463.49 Z" fill="#000000" fill-rule="evenodd" fill-opacity="1" /><path clip-path="url(#clip060)" d="M917.279 1485.02 L924.918 1485.02 L924.918 1458.66 L916.608 1460.32 L916.608 1456.06 L924.872 1454.4 L929.548 1454.4 L929.548 1485.02 L937.187 1485.02 L937.187 1488.96 L917.279 1488.96 L917.279 1485.02 Z" fill="#000000" fill-rule="evenodd" fill-opacity="1" /><path clip-path="url(#clip060)" d="M956.631 1457.48 Q953.02 1457.48 951.191 1461.04 Q949.386 1464.58 949.386 1471.71 Q949.386 1478.82 951.191 1482.38 Q953.02 1485.92 956.631 1485.92 Q960.265 1485.92 962.071 1482.38 Q963.9 1478.82 963.9 1471.71 Q963.9 1464.58 962.071 1461.04 Q960.265 1457.48 956.631 1457.48 M956.631 1453.77 Q962.441 1453.77 965.497 1458.38 Q968.576 1462.96 968.576 1471.71 Q968.576 1480.44 965.497 1485.04 Q962.441 1489.63 956.631 1489.63 Q950.821 1489.63 947.742 1485.04 Q944.687 1480.44 944.687 1471.71 Q944.687 1462.96 947.742 1458.38 Q950.821 1453.77 956.631 1453.77 Z" fill="#000000" fill-rule="evenodd" fill-opacity="1" /><path clip-path="url(#clip060)" d="M981.252 1436.78 L971.66 1451.77 L981.252 1451.77 L981.252 1436.78 M980.255 1433.47 L985.032 1433.47 L985.032 1451.77 L989.038 1451.77 L989.038 1454.93 L985.032 1454.93 L985.032 1461.55 L981.252 1461.55 L981.252 1454.93 L968.576 1454.93 L968.576 1451.26 L980.255 1433.47 Z" fill="#000000" fill-rule="evenodd" fill-opacity="1" /><path clip-path="url(#clip060)" d="M1408.53 1485.02 L1424.85 1485.02 L1424.85 1488.96 L1402.9 1488.96 L1402.9 1485.02 Q1405.56 1482.27 1410.15 1477.64 Q1414.75 1472.98 1415.93 1471.64 Q1418.18 1469.12 1419.06 1467.38 Q1419.96 1465.62 1419.96 1463.93 Q1419.96 1461.18 1418.02 1459.44 Q1416.1 1457.71 1413 1457.71 Q1410.8 1457.71 1408.34 1458.47 Q1405.91 1459.23 1403.13 1460.79 L1403.13 1456.06 Q1405.96 1454.93 1408.41 1454.35 Q1410.87 1453.77 1412.9 1453.77 Q1418.27 1453.77 1421.47 1456.46 Q1424.66 1459.14 1424.66 1463.63 Q1424.66 1465.76 1423.85 1467.68 Q1423.06 1469.58 1420.96 1472.17 Q1420.38 1472.85 1417.28 1476.06 Q1414.18 1479.26 1408.53 1485.02 Z" fill="#000000" fill-rule="evenodd" fill-opacity="1" /><path clip-path="url(#clip060)" d="M1434.66 1483.08 L1439.55 1483.08 L1439.55 1488.96 L1434.66 1488.96 L1434.66 1483.08 Z" fill="#000000" fill-rule="evenodd" fill-opacity="1" /><path clip-path="url(#clip060)" d="M1459.73 1457.48 Q1456.12 1457.48 1454.29 1461.04 Q1452.49 1464.58 1452.49 1471.71 Q1452.49 1478.82 1454.29 1482.38 Q1456.12 1485.92 1459.73 1485.92 Q1463.37 1485.92 1465.17 1482.38 Q1467 1478.82 1467 1471.71 Q1467 1464.58 1465.17 1461.04 Q1463.37 1457.48 1459.73 1457.48 M1459.73 1453.77 Q1465.54 1453.77 1468.6 1458.38 Q1471.68 1462.96 1471.68 1471.71 Q1471.68 1480.44 1468.6 1485.04 Q1465.54 1489.63 1459.73 1489.63 Q1453.92 1489.63 1450.84 1485.04 Q1447.79 1480.44 1447.79 1471.71 Q1447.79 1462.96 1450.84 1458.38 Q1453.92 1453.77 1459.73 1453.77 Z" fill="#000000" fill-rule="evenodd" fill-opacity="1" /><path clip-path="url(#clip060)" d="M1508.06 1463.49 L1497.49 1474.12 L1508.06 1484.7 L1505.31 1487.5 L1494.68 1476.87 L1484.06 1487.5 L1481.33 1484.7 L1491.88 1474.12 L1481.33 1463.49 L1484.06 1460.69 L1494.68 1471.32 L1505.31 1460.69 L1508.06 1463.49 Z" fill="#000000" fill-rule="evenodd" fill-opacity="1" /><path clip-path="url(#clip060)" d="M1520.43 1485.02 L1528.06 1485.02 L1528.06 1458.66 L1519.75 1460.32 L1519.75 1456.06 L1528.02 1454.4 L1532.69 1454.4 L1532.69 1485.02 L1540.33 1485.02 L1540.33 1488.96 L1520.43 1488.96 L1520.43 1485.02 Z" fill="#000000" fill-rule="evenodd" fill-opacity="1" /><path clip-path="url(#clip060)" d="M1559.78 1457.48 Q1556.17 1457.48 1554.34 1461.04 Q1552.53 1464.58 1552.53 1471.71 Q1552.53 1478.82 1554.34 1482.38 Q1556.17 1485.92 1559.78 1485.92 Q1563.41 1485.92 1565.22 1482.38 Q1567.05 1478.82 1567.05 1471.71 Q1567.05 1464.58 1565.22 1461.04 Q1563.41 1457.48 1559.78 1457.48 M1559.78 1453.77 Q1565.59 1453.77 1568.64 1458.38 Q1571.72 1462.96 1571.72 1471.71 Q1571.72 1480.44 1568.64 1485.04 Q1565.59 1489.63 1559.78 1489.63 Q1553.97 1489.63 1550.89 1485.04 Q1547.83 1480.44 1547.83 1471.71 Q1547.83 1462.96 1550.89 1458.38 Q1553.97 1453.77 1559.78 1453.77 Z" fill="#000000" fill-rule="evenodd" fill-opacity="1" /><path clip-path="url(#clip060)" d="M1584.4 1436.78 L1574.81 1451.77 L1584.4 1451.77 L1584.4 1436.78 M1583.4 1433.47 L1588.18 1433.47 L1588.18 1451.77 L1592.18 1451.77 L1592.18 1454.93 L1588.18 1454.93 L1588.18 1461.55 L1584.4 1461.55 L1584.4 1454.93 L1571.72 1454.93 L1571.72 1451.26 L1583.4 1433.47 Z" fill="#000000" fill-rule="evenodd" fill-opacity="1" /><path clip-path="url(#clip060)" d="M2020.87 1470.32 Q2024.23 1471.04 2026.11 1473.31 Q2028 1475.58 2028 1478.91 Q2028 1484.03 2024.49 1486.83 Q2020.97 1489.63 2014.49 1489.63 Q2012.31 1489.63 2010 1489.19 Q2007.7 1488.77 2005.25 1487.91 L2005.25 1483.4 Q2007.19 1484.54 2009.51 1485.11 Q2011.82 1485.69 2014.35 1485.69 Q2018.75 1485.69 2021.04 1483.96 Q2023.35 1482.22 2023.35 1478.91 Q2023.35 1475.85 2021.2 1474.14 Q2019.07 1472.41 2015.25 1472.41 L2011.22 1472.41 L2011.22 1468.56 L2015.43 1468.56 Q2018.88 1468.56 2020.71 1467.2 Q2022.54 1465.81 2022.54 1463.22 Q2022.54 1460.55 2020.64 1459.14 Q2018.77 1457.71 2015.25 1457.71 Q2013.33 1457.71 2011.13 1458.12 Q2008.93 1458.54 2006.29 1459.42 L2006.29 1455.25 Q2008.95 1454.51 2011.27 1454.14 Q2013.61 1453.77 2015.67 1453.77 Q2020.99 1453.77 2024.09 1456.2 Q2027.19 1458.61 2027.19 1462.73 Q2027.19 1465.6 2025.55 1467.59 Q2023.91 1469.56 2020.87 1470.32 Z" fill="#000000" fill-rule="evenodd" fill-opacity="1" /><path clip-path="url(#clip060)" d="M2036.87 1483.08 L2041.75 1483.08 L2041.75 1488.96 L2036.87 1488.96 L2036.87 1483.08 Z" fill="#000000" fill-rule="evenodd" fill-opacity="1" /><path clip-path="url(#clip060)" d="M2061.94 1457.48 Q2058.33 1457.48 2056.5 1461.04 Q2054.69 1464.58 2054.69 1471.71 Q2054.69 1478.82 2056.5 1482.38 Q2058.33 1485.92 2061.94 1485.92 Q2065.57 1485.92 2067.38 1482.38 Q2069.21 1478.82 2069.21 1471.71 Q2069.21 1464.58 2067.38 1461.04 Q2065.57 1457.48 2061.94 1457.48 M2061.94 1453.77 Q2067.75 1453.77 2070.8 1458.38 Q2073.88 1462.96 2073.88 1471.71 Q2073.88 1480.44 2070.8 1485.04 Q2067.75 1489.63 2061.94 1489.63 Q2056.13 1489.63 2053.05 1485.04 Q2049.99 1480.44 2049.99 1471.71 Q2049.99 1462.96 2053.05 1458.38 Q2056.13 1453.77 2061.94 1453.77 Z" fill="#000000" fill-rule="evenodd" fill-opacity="1" /><path clip-path="url(#clip060)" d="M2110.27 1463.49 L2099.69 1474.12 L2110.27 1484.7 L2107.52 1487.5 L2096.89 1476.87 L2086.27 1487.5 L2083.54 1484.7 L2094.09 1474.12 L2083.54 1463.49 L2086.27 1460.69 L2096.89 1471.32 L2107.52 1460.69 L2110.27 1463.49 Z" fill="#000000" fill-rule="evenodd" fill-opacity="1" /><path clip-path="url(#clip060)" d="M2122.63 1485.02 L2130.27 1485.02 L2130.27 1458.66 L2121.96 1460.32 L2121.96 1456.06 L2130.23 1454.4 L2134.9 1454.4 L2134.9 1485.02 L2142.54 1485.02 L2142.54 1488.96 L2122.63 1488.96 L2122.63 1485.02 Z" fill="#000000" fill-rule="evenodd" fill-opacity="1" /><path clip-path="url(#clip060)" d="M2161.99 1457.48 Q2158.37 1457.48 2156.55 1461.04 Q2154.74 1464.58 2154.74 1471.71 Q2154.74 1478.82 2156.55 1482.38 Q2158.37 1485.92 2161.99 1485.92 Q2165.62 1485.92 2167.42 1482.38 Q2169.25 1478.82 2169.25 1471.71 Q2169.25 1464.58 2167.42 1461.04 Q2165.62 1457.48 2161.99 1457.48 M2161.99 1453.77 Q2167.8 1453.77 2170.85 1458.38 Q2173.93 1462.96 2173.93 1471.71 Q2173.93 1480.44 2170.85 1485.04 Q2167.8 1489.63 2161.99 1489.63 Q2156.17 1489.63 2153.1 1485.04 Q2150.04 1480.44 2150.04 1471.71 Q2150.04 1462.96 2153.1 1458.38 Q2156.17 1453.77 2161.99 1453.77 Z" fill="#000000" fill-rule="evenodd" fill-opacity="1" /><path clip-path="url(#clip060)" d="M2186.61 1436.78 L2177.01 1451.77 L2186.61 1451.77 L2186.61 1436.78 M2185.61 1433.47 L2190.39 1433.47 L2190.39 1451.77 L2194.39 1451.77 L2194.39 1454.93 L2190.39 1454.93 L2190.39 1461.55 L2186.61 1461.55 L2186.61 1454.93 L2173.93 1454.93 L2173.93 1451.26 L2185.61 1433.47 Z" fill="#000000" fill-rule="evenodd" fill-opacity="1" /><path clip-path="url(#clip060)" d="M931.799 1551.91 Q933.868 1552.61 935.809 1554.9 Q937.783 1557.19 939.756 1561.2 L946.281 1574.19 L939.374 1574.19 L933.295 1562 Q930.94 1557.22 928.712 1555.66 Q926.516 1554.1 922.696 1554.1 L915.694 1554.1 L915.694 1574.19 L909.264 1574.19 L909.264 1526.67 L923.778 1526.67 Q931.926 1526.67 935.937 1530.07 Q939.947 1533.48 939.947 1540.35 Q939.947 1544.84 937.847 1547.8 Q935.778 1550.76 931.799 1551.91 M915.694 1531.95 L915.694 1548.82 L923.778 1548.82 Q928.425 1548.82 930.781 1546.69 Q933.168 1544.52 933.168 1540.35 Q933.168 1536.18 930.781 1534.08 Q928.425 1531.95 923.778 1531.95 L915.694 1531.95 Z" fill="#000000" fill-rule="evenodd" fill-opacity="1" /><path clip-path="url(#clip060)" d="M965.187 1542.64 Q960.477 1542.64 957.739 1546.34 Q955.002 1550 955.002 1556.39 Q955.002 1562.79 957.708 1566.48 Q960.445 1570.14 965.187 1570.14 Q969.866 1570.14 972.603 1566.45 Q975.341 1562.76 975.341 1556.39 Q975.341 1550.06 972.603 1546.37 Q969.866 1542.64 965.187 1542.64 M965.187 1537.68 Q972.826 1537.68 977.187 1542.64 Q981.547 1547.61 981.547 1556.39 Q981.547 1565.15 977.187 1570.14 Q972.826 1575.11 965.187 1575.11 Q957.517 1575.11 953.156 1570.14 Q948.827 1565.15 948.827 1556.39 Q948.827 1547.61 953.156 1542.64 Q957.517 1537.68 965.187 1537.68 Z" fill="#000000" fill-rule="evenodd" fill-opacity="1" /><path clip-path="url(#clip060)" d="M988.709 1538.54 L1016.53 1538.54 L1016.53 1543.88 L994.501 1569.51 L1016.53 1569.51 L1016.53 1574.19 L987.913 1574.19 L987.913 1568.84 L1009.94 1543.22 L988.709 1543.22 L988.709 1538.54 Z" fill="#000000" fill-rule="evenodd" fill-opacity="1" /><path clip-path="url(#clip060)" d="M1053.22 1545.38 Q1055.42 1541.43 1058.48 1539.56 Q1061.53 1537.68 1065.67 1537.68 Q1071.24 1537.68 1074.26 1541.59 Q1077.29 1545.48 1077.29 1552.67 L1077.29 1574.19 L1071.4 1574.19 L1071.4 1552.86 Q1071.4 1547.74 1069.58 1545.25 Q1067.77 1542.77 1064.05 1542.77 Q1059.5 1542.77 1056.85 1545.79 Q1054.21 1548.82 1054.21 1554.04 L1054.21 1574.19 L1048.32 1574.19 L1048.32 1552.86 Q1048.32 1547.7 1046.51 1545.25 Q1044.69 1542.77 1040.91 1542.77 Q1036.42 1542.77 1033.78 1545.83 Q1031.14 1548.85 1031.14 1554.04 L1031.14 1574.19 L1025.25 1574.19 L1025.25 1538.54 L1031.14 1538.54 L1031.14 1544.08 Q1033.14 1540.8 1035.94 1539.24 Q1038.74 1537.68 1042.59 1537.68 Q1046.48 1537.68 1049.18 1539.65 Q1051.92 1541.62 1053.22 1545.38 Z" fill="#000000" fill-rule="evenodd" fill-opacity="1" /><path clip-path="url(#clip060)" d="M1088.97 1538.54 L1094.82 1538.54 L1094.82 1574.19 L1088.97 1574.19 L1088.97 1538.54 M1088.97 1524.66 L1094.82 1524.66 L1094.82 1532.08 L1088.97 1532.08 L1088.97 1524.66 Z" fill="#000000" fill-rule="evenodd" fill-opacity="1" /><path clip-path="url(#clip060)" d="M1123.28 1556.27 Q1116.18 1556.27 1113.44 1557.89 Q1110.71 1559.51 1110.71 1563.43 Q1110.71 1566.55 1112.74 1568.39 Q1114.81 1570.21 1118.35 1570.21 Q1123.22 1570.21 1126.14 1566.77 Q1129.1 1563.3 1129.1 1557.57 L1129.1 1556.27 L1123.28 1556.27 M1134.96 1553.85 L1134.96 1574.19 L1129.1 1574.19 L1129.1 1568.77 Q1127.1 1572.02 1124.11 1573.58 Q1121.12 1575.11 1116.79 1575.11 Q1111.31 1575.11 1108.07 1572.05 Q1104.85 1568.97 1104.85 1563.81 Q1104.85 1557.79 1108.86 1554.74 Q1112.9 1551.68 1120.89 1551.68 L1129.1 1551.68 L1129.1 1551.11 Q1129.1 1547.07 1126.43 1544.87 Q1123.79 1542.64 1118.98 1542.64 Q1115.93 1542.64 1113.03 1543.38 Q1110.13 1544.11 1107.46 1545.57 L1107.46 1540.16 Q1110.68 1538.92 1113.7 1538.31 Q1116.72 1537.68 1119.59 1537.68 Q1127.32 1537.68 1131.14 1541.69 Q1134.96 1545.7 1134.96 1553.85 Z" fill="#000000" fill-rule="evenodd" fill-opacity="1" /><path clip-path="url(#clip060)" d="M1167.68 1544.01 Q1166.69 1543.44 1165.52 1543.18 Q1164.37 1542.9 1162.97 1542.9 Q1158 1542.9 1155.33 1546.14 Q1152.69 1549.36 1152.69 1555.41 L1152.69 1574.19 L1146.8 1574.19 L1146.8 1538.54 L1152.69 1538.54 L1152.69 1544.08 Q1154.54 1540.83 1157.5 1539.27 Q1160.46 1537.68 1164.69 1537.68 Q1165.29 1537.68 1166.03 1537.77 Q1166.76 1537.84 1167.65 1538 L1167.68 1544.01 Z" fill="#000000" fill-rule="evenodd" fill-opacity="1" /><path clip-path="url(#clip060)" d="M1194.73 1524.66 L1200.59 1524.66 L1200.59 1543.82 L1204.57 1540.96 L1206.99 1544.33 L1200.59 1548.82 L1200.59 1574.19 L1194.73 1574.19 L1194.73 1552.99 L1190.82 1555.79 L1188.46 1552.41 L1194.73 1547.93 L1194.73 1524.66 Z" fill="#000000" fill-rule="evenodd" fill-opacity="1" /><path clip-path="url(#clip060)" d="M1229.27 1556.27 Q1222.17 1556.27 1219.43 1557.89 Q1216.7 1559.51 1216.7 1563.43 Q1216.7 1566.55 1218.73 1568.39 Q1220.8 1570.21 1224.34 1570.21 Q1229.2 1570.21 1232.13 1566.77 Q1235.09 1563.3 1235.09 1557.57 L1235.09 1556.27 L1229.27 1556.27 M1240.95 1553.85 L1240.95 1574.19 L1235.09 1574.19 L1235.09 1568.77 Q1233.09 1572.02 1230.1 1573.58 Q1227.1 1575.11 1222.78 1575.11 Q1217.3 1575.11 1214.05 1572.05 Q1210.84 1568.97 1210.84 1563.81 Q1210.84 1557.79 1214.85 1554.74 Q1218.89 1551.68 1226.88 1551.68 L1235.09 1551.68 L1235.09 1551.11 Q1235.09 1547.07 1232.42 1544.87 Q1229.78 1542.64 1224.97 1542.64 Q1221.92 1542.64 1219.02 1543.38 Q1216.12 1544.11 1213.45 1545.57 L1213.45 1540.16 Q1216.66 1538.92 1219.69 1538.31 Q1222.71 1537.68 1225.58 1537.68 Q1233.31 1537.68 1237.13 1541.69 Q1240.95 1545.7 1240.95 1553.85 Z" fill="#000000" fill-rule="evenodd" fill-opacity="1" /><path clip-path="url(#clip060)" d="M1276.47 1543.95 L1276.47 1524.66 L1282.33 1524.66 L1282.33 1574.19 L1276.47 1574.19 L1276.47 1568.84 Q1274.62 1572.02 1271.79 1573.58 Q1268.99 1575.11 1265.04 1575.11 Q1258.58 1575.11 1254.51 1569.95 Q1250.47 1564.8 1250.47 1556.39 Q1250.47 1547.99 1254.51 1542.83 Q1258.58 1537.68 1265.04 1537.68 Q1268.99 1537.68 1271.79 1539.24 Q1274.62 1540.77 1276.47 1543.95 M1256.51 1556.39 Q1256.51 1562.85 1259.16 1566.55 Q1261.83 1570.21 1266.48 1570.21 Q1271.12 1570.21 1273.8 1566.55 Q1276.47 1562.85 1276.47 1556.39 Q1276.47 1549.93 1273.8 1546.27 Q1271.12 1542.58 1266.48 1542.58 Q1261.83 1542.58 1259.16 1546.27 Q1256.51 1549.93 1256.51 1556.39 Z" fill="#000000" fill-rule="evenodd" fill-opacity="1" /><path clip-path="url(#clip060)" d="M1293.79 1560.12 L1293.79 1538.54 L1299.64 1538.54 L1299.64 1559.89 Q1299.64 1564.96 1301.61 1567.5 Q1303.59 1570.02 1307.53 1570.02 Q1312.28 1570.02 1315.01 1566.99 Q1317.78 1563.97 1317.78 1558.75 L1317.78 1538.54 L1323.64 1538.54 L1323.64 1574.19 L1317.78 1574.19 L1317.78 1568.71 Q1315.65 1571.96 1312.82 1573.55 Q1310.02 1575.11 1306.29 1575.11 Q1300.15 1575.11 1296.97 1571.29 Q1293.79 1567.47 1293.79 1560.12 M1308.52 1537.68 L1308.52 1537.68 Z" fill="#000000" fill-rule="evenodd" fill-opacity="1" /><path clip-path="url(#clip060)" d="M1365.34 1552.67 L1365.34 1574.19 L1359.48 1574.19 L1359.48 1552.86 Q1359.48 1547.8 1357.51 1545.29 Q1355.53 1542.77 1351.59 1542.77 Q1346.84 1542.77 1344.11 1545.79 Q1341.37 1548.82 1341.37 1554.04 L1341.37 1574.19 L1335.48 1574.19 L1335.48 1538.54 L1341.37 1538.54 L1341.37 1544.08 Q1343.47 1540.86 1346.3 1539.27 Q1349.17 1537.68 1352.89 1537.68 Q1359.03 1537.68 1362.18 1541.5 Q1365.34 1545.29 1365.34 1552.67 Z" fill="#000000" fill-rule="evenodd" fill-opacity="1" /><path clip-path="url(#clip060)" d="M1376.79 1524.66 L1382.68 1524.66 L1382.68 1553.91 L1400.16 1538.54 L1407.64 1538.54 L1388.73 1555.22 L1408.43 1574.19 L1400.79 1574.19 L1382.68 1556.78 L1382.68 1574.19 L1376.79 1574.19 L1376.79 1524.66 Z" fill="#000000" fill-rule="evenodd" fill-opacity="1" /><path clip-path="url(#clip060)" d="M1412.16 1560.12 L1412.16 1538.54 L1418.01 1538.54 L1418.01 1559.89 Q1418.01 1564.96 1419.99 1567.5 Q1421.96 1570.02 1425.91 1570.02 Q1430.65 1570.02 1433.38 1566.99 Q1436.15 1563.97 1436.15 1558.75 L1436.15 1538.54 L1442.01 1538.54 L1442.01 1574.19 L1436.15 1574.19 L1436.15 1568.71 Q1434.02 1571.96 1431.19 1573.55 Q1428.39 1575.11 1424.66 1575.11 Q1418.52 1575.11 1415.34 1571.29 Q1412.16 1567.47 1412.16 1560.12 M1426.89 1537.68 L1426.89 1537.68 Z" fill="#000000" fill-rule="evenodd" fill-opacity="1" /><path clip-path="url(#clip060)" d="M1474.25 1524.66 L1487.75 1524.66 L1487.75 1529.21 L1480.11 1529.21 L1480.11 1578.23 L1487.75 1578.23 L1487.75 1582.78 L1474.25 1582.78 L1474.25 1524.66 Z" fill="#000000" fill-rule="evenodd" fill-opacity="1" /><path clip-path="url(#clip060)" d="M1525.82 1556.39 Q1525.82 1549.93 1523.14 1546.27 Q1520.5 1542.58 1515.85 1542.58 Q1511.21 1542.58 1508.53 1546.27 Q1505.89 1549.93 1505.89 1556.39 Q1505.89 1562.85 1508.53 1566.55 Q1511.21 1570.21 1515.85 1570.21 Q1520.5 1570.21 1523.14 1566.55 Q1525.82 1562.85 1525.82 1556.39 M1505.89 1543.95 Q1507.74 1540.77 1510.54 1539.24 Q1513.37 1537.68 1517.28 1537.68 Q1523.78 1537.68 1527.82 1542.83 Q1531.89 1547.99 1531.89 1556.39 Q1531.89 1564.8 1527.82 1569.95 Q1523.78 1575.11 1517.28 1575.11 Q1513.37 1575.11 1510.54 1573.58 Q1507.74 1572.02 1505.89 1568.84 L1505.89 1574.19 L1500 1574.19 L1500 1524.66 L1505.89 1524.66 L1505.89 1543.95 Z" fill="#000000" fill-rule="evenodd" fill-opacity="1" /><path clip-path="url(#clip060)" d="M1557.8 1556.27 Q1550.7 1556.27 1547.97 1557.89 Q1545.23 1559.51 1545.23 1563.43 Q1545.23 1566.55 1547.27 1568.39 Q1549.34 1570.21 1552.87 1570.21 Q1557.74 1570.21 1560.67 1566.77 Q1563.63 1563.3 1563.63 1557.57 L1563.63 1556.27 L1557.8 1556.27 M1569.48 1553.85 L1569.48 1574.19 L1563.63 1574.19 L1563.63 1568.77 Q1561.62 1572.02 1558.63 1573.58 Q1555.64 1575.11 1551.31 1575.11 Q1545.84 1575.11 1542.59 1572.05 Q1539.37 1568.97 1539.37 1563.81 Q1539.37 1557.79 1543.38 1554.74 Q1547.43 1551.68 1555.42 1551.68 L1563.63 1551.68 L1563.63 1551.11 Q1563.63 1547.07 1560.95 1544.87 Q1558.31 1542.64 1553.51 1542.64 Q1550.45 1542.64 1547.55 1543.38 Q1544.66 1544.11 1541.98 1545.57 L1541.98 1540.16 Q1545.2 1538.92 1548.22 1538.31 Q1551.25 1537.68 1554.11 1537.68 Q1561.84 1537.68 1565.66 1541.69 Q1569.48 1545.7 1569.48 1553.85 Z" fill="#000000" fill-rule="evenodd" fill-opacity="1" /><path clip-path="url(#clip060)" d="M1581.55 1538.54 L1587.4 1538.54 L1587.4 1574.82 Q1587.4 1581.63 1584.79 1584.69 Q1582.22 1587.74 1576.45 1587.74 L1574.23 1587.74 L1574.23 1582.78 L1575.79 1582.78 Q1579.13 1582.78 1580.34 1581.22 Q1581.55 1579.69 1581.55 1574.82 L1581.55 1538.54 M1581.55 1524.66 L1587.4 1524.66 L1587.4 1532.08 L1581.55 1532.08 L1581.55 1524.66 Z" fill="#000000" fill-rule="evenodd" fill-opacity="1" /><path clip-path="url(#clip060)" d="M1605.45 1528.42 L1605.45 1538.54 L1617.51 1538.54 L1617.51 1543.09 L1605.45 1543.09 L1605.45 1562.44 Q1605.45 1566.8 1606.63 1568.04 Q1607.84 1569.28 1611.5 1569.28 L1617.51 1569.28 L1617.51 1574.19 L1611.5 1574.19 Q1604.72 1574.19 1602.14 1571.67 Q1599.56 1569.12 1599.56 1562.44 L1599.56 1543.09 L1595.26 1543.09 L1595.26 1538.54 L1599.56 1538.54 L1599.56 1528.42 L1605.45 1528.42 Z" fill="#000000" fill-rule="evenodd" fill-opacity="1" /><path clip-path="url(#clip060)" d="M1640.05 1577.5 Q1637.56 1583.86 1635.21 1585.8 Q1632.85 1587.74 1628.91 1587.74 L1624.23 1587.74 L1624.23 1582.84 L1627.67 1582.84 Q1630.09 1582.84 1631.42 1581.7 Q1632.76 1580.55 1634.38 1576.29 L1635.43 1573.61 L1621.01 1538.54 L1627.22 1538.54 L1638.36 1566.42 L1649.5 1538.54 L1655.71 1538.54 L1640.05 1577.5 Z" fill="#000000" fill-rule="evenodd" fill-opacity="1" /><path clip-path="url(#clip060)" d="M1677.48 1524.66 L1677.48 1582.78 L1663.98 1582.78 L1663.98 1578.23 L1671.59 1578.23 L1671.59 1529.21 L1663.98 1529.21 L1663.98 1524.66 L1677.48 1524.66 Z" fill="#000000" fill-rule="evenodd" fill-opacity="1" /><polyline clip-path="url(#clip062)" style="stroke:#000000; stroke-linecap:butt; stroke-linejoin:round; stroke-width:2; stroke-opacity:0.1; fill:none" points="
  233.987,1311.04 2352.76,1311.04 
  "/>
<polyline clip-path="url(#clip062)" style="stroke:#000000; stroke-linecap:butt; stroke-linejoin:round; stroke-width:2; stroke-opacity:0.1; fill:none" points="
  233.987,1004.74 2352.76,1004.74 
  "/>
<polyline clip-path="url(#clip062)" style="stroke:#000000; stroke-linecap:butt; stroke-linejoin:round; stroke-width:2; stroke-opacity:0.1; fill:none" points="
  233.987,698.44 2352.76,698.44 
  "/>
<polyline clip-path="url(#clip062)" style="stroke:#000000; stroke-linecap:butt; stroke-linejoin:round; stroke-width:2; stroke-opacity:0.1; fill:none" points="
  233.987,392.139 2352.76,392.139 
  "/>
<polyline clip-path="url(#clip062)" style="stroke:#000000; stroke-linecap:butt; stroke-linejoin:round; stroke-width:2; stroke-opacity:0.1; fill:none" points="
  233.987,85.838 2352.76,85.838 
  "/>
<polyline clip-path="url(#clip060)" style="stroke:#000000; stroke-linecap:butt; stroke-linejoin:round; stroke-width:4; stroke-opacity:1; fill:none" points="
  233.987,1410.9 233.987,47.2441 
  "/>
<polyline clip-path="url(#clip060)" style="stroke:#000000; stroke-linecap:butt; stroke-linejoin:round; stroke-width:4; stroke-opacity:1; fill:none" points="
  233.987,1311.04 252.884,1311.04 
  "/>
<polyline clip-path="url(#clip060)" style="stroke:#000000; stroke-linecap:butt; stroke-linejoin:round; stroke-width:4; stroke-opacity:1; fill:none" points="
  233.987,1004.74 252.884,1004.74 
  "/>
<polyline clip-path="url(#clip060)" style="stroke:#000000; stroke-linecap:butt; stroke-linejoin:round; stroke-width:4; stroke-opacity:1; fill:none" points="
  233.987,698.44 252.884,698.44 
  "/>
<polyline clip-path="url(#clip060)" style="stroke:#000000; stroke-linecap:butt; stroke-linejoin:round; stroke-width:4; stroke-opacity:1; fill:none" points="
  233.987,392.139 252.884,392.139 
  "/>
<polyline clip-path="url(#clip060)" style="stroke:#000000; stroke-linecap:butt; stroke-linejoin:round; stroke-width:4; stroke-opacity:1; fill:none" points="
  233.987,85.838 252.884,85.838 
  "/>
<path clip-path="url(#clip060)" d="M120.742 1324.39 L137.061 1324.39 L137.061 1328.32 L115.117 1328.32 L115.117 1324.39 Q117.779 1321.63 122.362 1317 Q126.968 1312.35 128.149 1311.01 Q130.394 1308.48 131.274 1306.75 Q132.177 1304.99 132.177 1303.3 Q132.177 1300.54 130.232 1298.81 Q128.311 1297.07 125.209 1297.07 Q123.01 1297.07 120.556 1297.84 Q118.126 1298.6 115.348 1300.15 L115.348 1295.43 Q118.172 1294.29 120.626 1293.72 Q123.08 1293.14 125.117 1293.14 Q130.487 1293.14 133.681 1295.82 Q136.876 1298.51 136.876 1303 Q136.876 1305.13 136.066 1307.05 Q135.279 1308.95 133.172 1311.54 Q132.593 1312.21 129.492 1315.43 Q126.39 1318.62 120.742 1324.39 Z" fill="#000000" fill-rule="evenodd" fill-opacity="1" /><path clip-path="url(#clip060)" d="M147.015 1327.6 L147.015 1323.35 Q148.774 1324.18 150.579 1324.62 Q152.385 1325.06 154.121 1325.06 Q158.751 1325.06 161.181 1321.96 Q163.635 1318.83 163.982 1312.49 Q162.64 1314.48 160.579 1315.54 Q158.519 1316.61 156.019 1316.61 Q150.834 1316.61 147.802 1313.48 Q144.792 1310.34 144.792 1304.9 Q144.792 1299.57 147.941 1296.36 Q151.089 1293.14 156.32 1293.14 Q162.315 1293.14 165.464 1297.74 Q168.635 1302.33 168.635 1311.08 Q168.635 1319.25 164.746 1324.13 Q160.88 1328.99 154.329 1328.99 Q152.57 1328.99 150.765 1328.65 Q148.959 1328.3 147.015 1327.6 M156.32 1312.95 Q159.468 1312.95 161.297 1310.8 Q163.149 1308.65 163.149 1304.9 Q163.149 1301.17 161.297 1299.02 Q159.468 1296.84 156.32 1296.84 Q153.172 1296.84 151.32 1299.02 Q149.491 1301.17 149.491 1304.9 Q149.491 1308.65 151.32 1310.8 Q153.172 1312.95 156.32 1312.95 Z" fill="#000000" fill-rule="evenodd" fill-opacity="1" /><path clip-path="url(#clip060)" d="M177.084 1293.76 L195.44 1293.76 L195.44 1297.7 L181.366 1297.7 L181.366 1306.17 Q182.385 1305.82 183.403 1305.66 Q184.422 1305.48 185.44 1305.48 Q191.227 1305.48 194.607 1308.65 Q197.987 1311.82 197.987 1317.23 Q197.987 1322.81 194.514 1325.92 Q191.042 1328.99 184.723 1328.99 Q182.547 1328.99 180.278 1328.62 Q178.033 1328.25 175.626 1327.51 L175.626 1322.81 Q177.709 1323.95 179.931 1324.5 Q182.153 1325.06 184.63 1325.06 Q188.635 1325.06 190.973 1322.95 Q193.311 1320.85 193.311 1317.23 Q193.311 1313.62 190.973 1311.52 Q188.635 1309.41 184.63 1309.41 Q182.755 1309.41 180.88 1309.83 Q179.028 1310.24 177.084 1311.12 L177.084 1293.76 Z" fill="#000000" fill-rule="evenodd" fill-opacity="1" /><path clip-path="url(#clip060)" d="M129.885 1003.39 Q133.242 1004.1 135.117 1006.37 Q137.015 1008.64 137.015 1011.98 Q137.015 1017.09 133.496 1019.89 Q129.978 1022.69 123.496 1022.69 Q121.32 1022.69 119.006 1022.25 Q116.714 1021.84 114.26 1020.98 L114.26 1016.47 Q116.205 1017.6 118.519 1018.18 Q120.834 1018.76 123.357 1018.76 Q127.755 1018.76 130.047 1017.02 Q132.362 1015.29 132.362 1011.98 Q132.362 1008.92 130.209 1007.21 Q128.08 1005.47 124.26 1005.47 L120.232 1005.47 L120.232 1001.63 L124.445 1001.63 Q127.894 1001.63 129.723 1000.26 Q131.552 998.873 131.552 996.281 Q131.552 993.619 129.654 992.207 Q127.779 990.772 124.26 990.772 Q122.339 990.772 120.14 991.188 Q117.941 991.605 115.302 992.484 L115.302 988.318 Q117.964 987.577 120.279 987.207 Q122.617 986.836 124.677 986.836 Q130.001 986.836 133.103 989.267 Q136.204 991.674 136.204 995.795 Q136.204 998.665 134.561 1000.66 Q132.917 1002.62 129.885 1003.39 Z" fill="#000000" fill-rule="evenodd" fill-opacity="1" /><path clip-path="url(#clip060)" d="M155.88 990.54 Q152.269 990.54 150.441 994.105 Q148.635 997.646 148.635 1004.78 Q148.635 1011.88 150.441 1015.45 Q152.269 1018.99 155.88 1018.99 Q159.515 1018.99 161.32 1015.45 Q163.149 1011.88 163.149 1004.78 Q163.149 997.646 161.32 994.105 Q159.515 990.54 155.88 990.54 M155.88 986.836 Q161.69 986.836 164.746 991.443 Q167.825 996.026 167.825 1004.78 Q167.825 1013.5 164.746 1018.11 Q161.69 1022.69 155.88 1022.69 Q150.07 1022.69 146.991 1018.11 Q143.936 1013.5 143.936 1004.78 Q143.936 996.026 146.991 991.443 Q150.07 986.836 155.88 986.836 Z" fill="#000000" fill-rule="evenodd" fill-opacity="1" /><path clip-path="url(#clip060)" d="M186.042 990.54 Q182.431 990.54 180.602 994.105 Q178.797 997.646 178.797 1004.78 Q178.797 1011.88 180.602 1015.45 Q182.431 1018.99 186.042 1018.99 Q189.676 1018.99 191.482 1015.45 Q193.311 1011.88 193.311 1004.78 Q193.311 997.646 191.482 994.105 Q189.676 990.54 186.042 990.54 M186.042 986.836 Q191.852 986.836 194.908 991.443 Q197.987 996.026 197.987 1004.78 Q197.987 1013.5 194.908 1018.11 Q191.852 1022.69 186.042 1022.69 Q180.232 1022.69 177.153 1018.11 Q174.098 1013.5 174.098 1004.78 Q174.098 996.026 177.153 991.443 Q180.232 986.836 186.042 986.836 Z" fill="#000000" fill-rule="evenodd" fill-opacity="1" /><path clip-path="url(#clip060)" d="M130.88 697.086 Q134.237 697.804 136.112 700.072 Q138.01 702.341 138.01 705.674 Q138.01 710.79 134.492 713.591 Q130.973 716.392 124.492 716.392 Q122.316 716.392 120.001 715.952 Q117.709 715.535 115.256 714.679 L115.256 710.165 Q117.2 711.299 119.515 711.878 Q121.83 712.456 124.353 712.456 Q128.751 712.456 131.042 710.72 Q133.357 708.984 133.357 705.674 Q133.357 702.618 131.205 700.906 Q129.075 699.169 125.255 699.169 L121.228 699.169 L121.228 695.327 L125.441 695.327 Q128.89 695.327 130.718 693.961 Q132.547 692.572 132.547 689.98 Q132.547 687.318 130.649 685.906 Q128.774 684.47 125.255 684.47 Q123.334 684.47 121.135 684.887 Q118.936 685.304 116.297 686.183 L116.297 682.017 Q118.959 681.276 121.274 680.906 Q123.612 680.535 125.672 680.535 Q130.996 680.535 134.098 682.966 Q137.2 685.373 137.2 689.494 Q137.2 692.364 135.556 694.355 Q133.913 696.322 130.88 697.086 Z" fill="#000000" fill-rule="evenodd" fill-opacity="1" /><path clip-path="url(#clip060)" d="M156.876 684.239 Q153.265 684.239 151.436 687.804 Q149.63 691.345 149.63 698.475 Q149.63 705.581 151.436 709.146 Q153.265 712.688 156.876 712.688 Q160.51 712.688 162.315 709.146 Q164.144 705.581 164.144 698.475 Q164.144 691.345 162.315 687.804 Q160.51 684.239 156.876 684.239 M156.876 680.535 Q162.686 680.535 165.741 685.142 Q168.82 689.725 168.82 698.475 Q168.82 707.202 165.741 711.808 Q162.686 716.392 156.876 716.392 Q151.066 716.392 147.987 711.808 Q144.931 707.202 144.931 698.475 Q144.931 689.725 147.987 685.142 Q151.066 680.535 156.876 680.535 Z" fill="#000000" fill-rule="evenodd" fill-opacity="1" /><path clip-path="url(#clip060)" d="M177.084 681.16 L195.44 681.16 L195.44 685.095 L181.366 685.095 L181.366 693.568 Q182.385 693.22 183.403 693.058 Q184.422 692.873 185.44 692.873 Q191.227 692.873 194.607 696.044 Q197.987 699.216 197.987 704.632 Q197.987 710.211 194.514 713.313 Q191.042 716.392 184.723 716.392 Q182.547 716.392 180.278 716.021 Q178.033 715.651 175.626 714.91 L175.626 710.211 Q177.709 711.345 179.931 711.901 Q182.153 712.456 184.63 712.456 Q188.635 712.456 190.973 710.35 Q193.311 708.243 193.311 704.632 Q193.311 701.021 190.973 698.915 Q188.635 696.808 184.63 696.808 Q182.755 696.808 180.88 697.225 Q179.028 697.642 177.084 698.521 L177.084 681.16 Z" fill="#000000" fill-rule="evenodd" fill-opacity="1" /><path clip-path="url(#clip060)" d="M129.885 390.785 Q133.242 391.503 135.117 393.771 Q137.015 396.04 137.015 399.373 Q137.015 404.489 133.496 407.29 Q129.978 410.09 123.496 410.09 Q121.32 410.09 119.006 409.651 Q116.714 409.234 114.26 408.377 L114.26 403.864 Q116.205 404.998 118.519 405.577 Q120.834 406.155 123.357 406.155 Q127.755 406.155 130.047 404.419 Q132.362 402.683 132.362 399.373 Q132.362 396.317 130.209 394.604 Q128.08 392.868 124.26 392.868 L120.232 392.868 L120.232 389.026 L124.445 389.026 Q127.894 389.026 129.723 387.66 Q131.552 386.271 131.552 383.679 Q131.552 381.017 129.654 379.604 Q127.779 378.169 124.26 378.169 Q122.339 378.169 120.14 378.586 Q117.941 379.003 115.302 379.882 L115.302 375.716 Q117.964 374.975 120.279 374.605 Q122.617 374.234 124.677 374.234 Q130.001 374.234 133.103 376.665 Q136.204 379.072 136.204 383.192 Q136.204 386.063 134.561 388.054 Q132.917 390.021 129.885 390.785 Z" fill="#000000" fill-rule="evenodd" fill-opacity="1" /><path clip-path="url(#clip060)" d="M146.691 405.484 L154.329 405.484 L154.329 379.118 L146.019 380.785 L146.019 376.526 L154.283 374.859 L158.959 374.859 L158.959 405.484 L166.598 405.484 L166.598 409.419 L146.691 409.419 L146.691 405.484 Z" fill="#000000" fill-rule="evenodd" fill-opacity="1" /><path clip-path="url(#clip060)" d="M186.042 377.938 Q182.431 377.938 180.602 381.503 Q178.797 385.044 178.797 392.174 Q178.797 399.28 180.602 402.845 Q182.431 406.387 186.042 406.387 Q189.676 406.387 191.482 402.845 Q193.311 399.28 193.311 392.174 Q193.311 385.044 191.482 381.503 Q189.676 377.938 186.042 377.938 M186.042 374.234 Q191.852 374.234 194.908 378.841 Q197.987 383.424 197.987 392.174 Q197.987 400.901 194.908 405.507 Q191.852 410.09 186.042 410.09 Q180.232 410.09 177.153 405.507 Q174.098 400.901 174.098 392.174 Q174.098 383.424 177.153 378.841 Q180.232 374.234 186.042 374.234 Z" fill="#000000" fill-rule="evenodd" fill-opacity="1" /><path clip-path="url(#clip060)" d="M130.88 84.4839 Q134.237 85.2015 136.112 87.47 Q138.01 89.7385 138.01 93.0718 Q138.01 98.1875 134.492 100.988 Q130.973 103.789 124.492 103.789 Q122.316 103.789 120.001 103.35 Q117.709 102.933 115.256 102.076 L115.256 97.5625 Q117.2 98.6968 119.515 99.2755 Q121.83 99.8542 124.353 99.8542 Q128.751 99.8542 131.042 98.1181 Q133.357 96.382 133.357 93.0718 Q133.357 90.0163 131.205 88.3033 Q129.075 86.5672 125.255 86.5672 L121.228 86.5672 L121.228 82.7246 L125.441 82.7246 Q128.89 82.7246 130.718 81.3589 Q132.547 79.97 132.547 77.3774 Q132.547 74.7154 130.649 73.3034 Q128.774 71.8682 125.255 71.8682 Q123.334 71.8682 121.135 72.2849 Q118.936 72.7015 116.297 73.5812 L116.297 69.4145 Q118.959 68.6738 121.274 68.3034 Q123.612 67.933 125.672 67.933 Q130.996 67.933 134.098 70.3636 Q137.2 72.771 137.2 76.8913 Q137.2 79.7617 135.556 81.7524 Q133.913 83.72 130.88 84.4839 Z" fill="#000000" fill-rule="evenodd" fill-opacity="1" /><path clip-path="url(#clip060)" d="M147.686 99.1829 L155.325 99.1829 L155.325 72.8173 L147.015 74.4839 L147.015 70.2247 L155.278 68.558 L159.954 68.558 L159.954 99.1829 L167.593 99.1829 L167.593 103.118 L147.686 103.118 L147.686 99.1829 Z" fill="#000000" fill-rule="evenodd" fill-opacity="1" /><path clip-path="url(#clip060)" d="M177.084 68.558 L195.44 68.558 L195.44 72.4932 L181.366 72.4932 L181.366 80.9654 Q182.385 80.6182 183.403 80.4561 Q184.422 80.2709 185.44 80.2709 Q191.227 80.2709 194.607 83.4422 Q197.987 86.6135 197.987 92.0301 Q197.987 97.6088 194.514 100.711 Q191.042 103.789 184.723 103.789 Q182.547 103.789 180.278 103.419 Q178.033 103.049 175.626 102.308 L175.626 97.6088 Q177.709 98.7431 179.931 99.2986 Q182.153 99.8542 184.63 99.8542 Q188.635 99.8542 190.973 97.7477 Q193.311 95.6412 193.311 92.0301 Q193.311 88.419 190.973 86.3126 Q188.635 84.2061 184.63 84.2061 Q182.755 84.2061 180.88 84.6228 Q179.028 85.0394 177.084 85.9191 L177.084 68.558 Z" fill="#000000" fill-rule="evenodd" fill-opacity="1" /><path clip-path="url(#clip060)" d="M20.1444 847.457 L26.9239 847.457 Q23.9002 850.703 22.4043 854.395 Q20.9083 858.055 20.9083 862.193 Q20.9083 870.341 25.9054 874.67 Q30.8707 878.999 40.2919 878.999 Q49.6813 878.999 54.6784 874.67 Q59.6436 870.341 59.6436 862.193 Q59.6436 858.055 58.1477 854.395 Q56.6518 850.703 53.6281 847.457 L60.3439 847.457 Q62.6355 850.83 63.7814 854.618 Q64.9272 858.374 64.9272 862.575 Q64.9272 873.365 58.3387 879.572 Q51.7183 885.778 40.2919 885.778 Q28.8336 885.778 22.2451 879.572 Q15.6248 873.365 15.6248 862.575 Q15.6248 858.31 16.7706 854.554 Q17.8846 850.767 20.1444 847.457 Z" fill="#000000" fill-rule="evenodd" fill-opacity="1" /><path clip-path="url(#clip060)" d="M28.3562 840.327 L28.3562 812.509 L33.7034 812.509 L59.3254 834.534 L59.3254 812.509 L64.0042 812.509 L64.0042 841.123 L58.657 841.123 L33.035 819.097 L33.035 840.327 L28.3562 840.327 Z" fill="#000000" fill-rule="evenodd" fill-opacity="1" /><path clip-path="url(#clip060)" d="M46.0847 787.364 Q46.0847 794.462 47.7079 797.199 Q49.3312 799.937 53.2461 799.937 Q56.3653 799.937 58.2114 797.9 Q60.0256 795.831 60.0256 792.298 Q60.0256 787.428 56.5881 784.5 Q53.1188 781.54 47.3897 781.54 L46.0847 781.54 L46.0847 787.364 M43.6657 775.683 L64.0042 775.683 L64.0042 781.54 L58.5933 781.54 Q61.8398 783.545 63.3994 786.537 Q64.9272 789.529 64.9272 793.857 Q64.9272 799.332 61.8716 802.578 Q58.7843 805.793 53.6281 805.793 Q47.6125 805.793 44.5569 801.783 Q41.5014 797.74 41.5014 789.751 L41.5014 781.54 L40.9285 781.54 Q36.8862 781.54 34.6901 784.213 Q32.4621 786.855 32.4621 791.661 Q32.4621 794.717 33.1941 797.613 Q33.9262 800.51 35.3903 803.183 L29.9795 803.183 Q28.7381 799.968 28.1334 796.945 Q27.4968 793.921 27.4968 791.056 Q27.4968 783.322 31.5072 779.503 Q35.5176 775.683 43.6657 775.683 Z" fill="#000000" fill-rule="evenodd" fill-opacity="1" /><path clip-path="url(#clip060)" d="M29.4065 740.895 L34.9447 740.895 Q33.6716 743.377 33.035 746.051 Q32.3984 748.724 32.3984 751.589 Q32.3984 755.95 33.7352 758.146 Q35.072 760.31 37.7456 760.31 Q39.7826 760.31 40.9603 758.75 Q42.1061 757.191 43.1565 752.48 L43.6021 750.475 Q44.9389 744.237 47.3897 741.627 Q49.8086 738.985 54.1691 738.985 Q59.1344 738.985 62.0308 742.932 Q64.9272 746.847 64.9272 753.722 Q64.9272 756.586 64.3543 759.705 Q63.8132 762.793 62.6992 766.23 L56.6518 766.23 Q58.3387 762.984 59.198 759.833 Q60.0256 756.682 60.0256 753.594 Q60.0256 749.457 58.6251 747.229 Q57.1929 745.001 54.6147 745.001 Q52.2276 745.001 50.9545 746.624 Q49.6813 748.215 48.5037 753.658 L48.0262 755.695 Q46.8804 761.138 44.5251 763.557 Q42.138 765.976 38.0002 765.976 Q32.9713 765.976 30.2341 762.411 Q27.4968 758.846 27.4968 752.289 Q27.4968 749.043 27.9743 746.178 Q28.4517 743.314 29.4065 740.895 Z" fill="#000000" fill-rule="evenodd" fill-opacity="1" /><path clip-path="url(#clip060)" d="M14.479 709.48 L14.479 695.985 L19.0304 695.985 L19.0304 703.623 L68.0464 703.623 L68.0464 695.985 L72.5979 695.985 L72.5979 709.48 L14.479 709.48 Z" fill="#000000" fill-rule="evenodd" fill-opacity="1" /><path clip-path="url(#clip060)" d="M35.1993 655.753 Q31.2526 653.557 29.3747 650.502 Q27.4968 647.446 27.4968 643.308 Q27.4968 637.738 31.4117 634.715 Q35.2948 631.691 42.4881 631.691 L64.0042 631.691 L64.0042 637.579 L42.679 637.579 Q37.5546 637.579 35.072 639.393 Q32.5894 641.208 32.5894 644.932 Q32.5894 649.483 35.6131 652.125 Q38.6368 654.767 43.8567 654.767 L64.0042 654.767 L64.0042 660.655 L42.679 660.655 Q37.5228 660.655 35.072 662.469 Q32.5894 664.283 32.5894 668.071 Q32.5894 672.559 35.6449 675.201 Q38.6686 677.842 43.8567 677.842 L64.0042 677.842 L64.0042 683.731 L28.3562 683.731 L28.3562 677.842 L33.8944 677.842 Q30.616 675.837 29.0564 673.036 Q27.4968 670.235 27.4968 666.384 Q27.4968 662.501 29.4702 659.796 Q31.4436 657.058 35.1993 655.753 Z" fill="#000000" fill-rule="evenodd" fill-opacity="1" /><path clip-path="url(#clip060)" d="M29.4065 597.284 L34.9447 597.284 Q33.6716 599.767 33.035 602.441 Q32.3984 605.114 32.3984 607.979 Q32.3984 612.339 33.7352 614.535 Q35.072 616.7 37.7456 616.7 Q39.7826 616.7 40.9603 615.14 Q42.1061 613.581 43.1565 608.87 L43.6021 606.865 Q44.9389 600.626 47.3897 598.016 Q49.8086 595.375 54.1691 595.375 Q59.1344 595.375 62.0308 599.321 Q64.9272 603.236 64.9272 610.111 Q64.9272 612.976 64.3543 616.095 Q63.8132 619.182 62.6992 622.62 L56.6518 622.62 Q58.3387 619.373 59.198 616.222 Q60.0256 613.071 60.0256 609.984 Q60.0256 605.846 58.6251 603.618 Q57.1929 601.39 54.6147 601.39 Q52.2276 601.39 50.9545 603.013 Q49.6813 604.605 48.5037 610.048 L48.0262 612.085 Q46.8804 617.527 44.5251 619.946 Q42.138 622.365 38.0002 622.365 Q32.9713 622.365 30.2341 618.8 Q27.4968 615.236 27.4968 608.679 Q27.4968 605.432 27.9743 602.568 Q28.4517 599.703 29.4065 597.284 Z" fill="#000000" fill-rule="evenodd" fill-opacity="1" /><path clip-path="url(#clip060)" d="M14.479 572.363 L72.5979 572.363 L72.5979 585.858 L68.0464 585.858 L68.0464 578.251 L19.0304 578.251 L19.0304 585.858 L14.479 585.858 L14.479 572.363 Z" fill="#000000" fill-rule="evenodd" fill-opacity="1" /><circle clip-path="url(#clip062)" cx="293.952" cy="1372.3" r="14" fill="#009af9" fill-rule="evenodd" fill-opacity="1" stroke="#000000" stroke-opacity="1" stroke-width="3.2"/>
<circle clip-path="url(#clip062)" cx="294.072" cy="1311.04" r="14" fill="#009af9" fill-rule="evenodd" fill-opacity="1" stroke="#000000" stroke-opacity="1" stroke-width="3.2"/>
<circle clip-path="url(#clip062)" cx="294.193" cy="1311.04" r="14" fill="#009af9" fill-rule="evenodd" fill-opacity="1" stroke="#000000" stroke-opacity="1" stroke-width="3.2"/>
<circle clip-path="url(#clip062)" cx="294.313" cy="1311.04" r="14" fill="#009af9" fill-rule="evenodd" fill-opacity="1" stroke="#000000" stroke-opacity="1" stroke-width="3.2"/>
<circle clip-path="url(#clip062)" cx="294.434" cy="1372.3" r="14" fill="#009af9" fill-rule="evenodd" fill-opacity="1" stroke="#000000" stroke-opacity="1" stroke-width="3.2"/>
<circle clip-path="url(#clip062)" cx="294.554" cy="1372.3" r="14" fill="#009af9" fill-rule="evenodd" fill-opacity="1" stroke="#000000" stroke-opacity="1" stroke-width="3.2"/>
<circle clip-path="url(#clip062)" cx="294.735" cy="1311.04" r="14" fill="#009af9" fill-rule="evenodd" fill-opacity="1" stroke="#000000" stroke-opacity="1" stroke-width="3.2"/>
<circle clip-path="url(#clip062)" cx="294.915" cy="1311.04" r="14" fill="#009af9" fill-rule="evenodd" fill-opacity="1" stroke="#000000" stroke-opacity="1" stroke-width="3.2"/>
<circle clip-path="url(#clip062)" cx="295.096" cy="1311.04" r="14" fill="#009af9" fill-rule="evenodd" fill-opacity="1" stroke="#000000" stroke-opacity="1" stroke-width="3.2"/>
<circle clip-path="url(#clip062)" cx="295.277" cy="1311.04" r="14" fill="#009af9" fill-rule="evenodd" fill-opacity="1" stroke="#000000" stroke-opacity="1" stroke-width="3.2"/>
<circle clip-path="url(#clip062)" cx="295.518" cy="1372.3" r="14" fill="#009af9" fill-rule="evenodd" fill-opacity="1" stroke="#000000" stroke-opacity="1" stroke-width="3.2"/>
<circle clip-path="url(#clip062)" cx="295.759" cy="1311.04" r="14" fill="#009af9" fill-rule="evenodd" fill-opacity="1" stroke="#000000" stroke-opacity="1" stroke-width="3.2"/>
<circle clip-path="url(#clip062)" cx="296.06" cy="1372.3" r="14" fill="#009af9" fill-rule="evenodd" fill-opacity="1" stroke="#000000" stroke-opacity="1" stroke-width="3.2"/>
<circle clip-path="url(#clip062)" cx="296.361" cy="1311.04" r="14" fill="#009af9" fill-rule="evenodd" fill-opacity="1" stroke="#000000" stroke-opacity="1" stroke-width="3.2"/>
<circle clip-path="url(#clip062)" cx="296.722" cy="1311.04" r="14" fill="#009af9" fill-rule="evenodd" fill-opacity="1" stroke="#000000" stroke-opacity="1" stroke-width="3.2"/>
<circle clip-path="url(#clip062)" cx="297.084" cy="1372.3" r="14" fill="#009af9" fill-rule="evenodd" fill-opacity="1" stroke="#000000" stroke-opacity="1" stroke-width="3.2"/>
<circle clip-path="url(#clip062)" cx="297.505" cy="1311.04" r="14" fill="#009af9" fill-rule="evenodd" fill-opacity="1" stroke="#000000" stroke-opacity="1" stroke-width="3.2"/>
<circle clip-path="url(#clip062)" cx="297.927" cy="1311.04" r="14" fill="#009af9" fill-rule="evenodd" fill-opacity="1" stroke="#000000" stroke-opacity="1" stroke-width="3.2"/>
<circle clip-path="url(#clip062)" cx="298.409" cy="1372.3" r="14" fill="#009af9" fill-rule="evenodd" fill-opacity="1" stroke="#000000" stroke-opacity="1" stroke-width="3.2"/>
<circle clip-path="url(#clip062)" cx="298.951" cy="1311.04" r="14" fill="#009af9" fill-rule="evenodd" fill-opacity="1" stroke="#000000" stroke-opacity="1" stroke-width="3.2"/>
<circle clip-path="url(#clip062)" cx="299.553" cy="1311.04" r="14" fill="#009af9" fill-rule="evenodd" fill-opacity="1" stroke="#000000" stroke-opacity="1" stroke-width="3.2"/>
<circle clip-path="url(#clip062)" cx="300.215" cy="1127.26" r="14" fill="#009af9" fill-rule="evenodd" fill-opacity="1" stroke="#000000" stroke-opacity="1" stroke-width="3.2"/>
<circle clip-path="url(#clip062)" cx="300.938" cy="1372.3" r="14" fill="#009af9" fill-rule="evenodd" fill-opacity="1" stroke="#000000" stroke-opacity="1" stroke-width="3.2"/>
<circle clip-path="url(#clip062)" cx="301.721" cy="1372.3" r="14" fill="#009af9" fill-rule="evenodd" fill-opacity="1" stroke="#000000" stroke-opacity="1" stroke-width="3.2"/>
<circle clip-path="url(#clip062)" cx="302.625" cy="1311.04" r="14" fill="#009af9" fill-rule="evenodd" fill-opacity="1" stroke="#000000" stroke-opacity="1" stroke-width="3.2"/>
<circle clip-path="url(#clip062)" cx="303.588" cy="1311.04" r="14" fill="#009af9" fill-rule="evenodd" fill-opacity="1" stroke="#000000" stroke-opacity="1" stroke-width="3.2"/>
<circle clip-path="url(#clip062)" cx="304.672" cy="1311.04" r="14" fill="#009af9" fill-rule="evenodd" fill-opacity="1" stroke="#000000" stroke-opacity="1" stroke-width="3.2"/>
<circle clip-path="url(#clip062)" cx="305.817" cy="1127.26" r="14" fill="#009af9" fill-rule="evenodd" fill-opacity="1" stroke="#000000" stroke-opacity="1" stroke-width="3.2"/>
<circle clip-path="url(#clip062)" cx="307.081" cy="575.92" r="14" fill="#009af9" fill-rule="evenodd" fill-opacity="1" stroke="#000000" stroke-opacity="1" stroke-width="3.2"/>
<circle clip-path="url(#clip062)" cx="308.467" cy="1311.04" r="14" fill="#009af9" fill-rule="evenodd" fill-opacity="1" stroke="#000000" stroke-opacity="1" stroke-width="3.2"/>
<circle clip-path="url(#clip062)" cx="310.033" cy="1249.78" r="14" fill="#009af9" fill-rule="evenodd" fill-opacity="1" stroke="#000000" stroke-opacity="1" stroke-width="3.2"/>
<circle clip-path="url(#clip062)" cx="311.719" cy="1311.04" r="14" fill="#009af9" fill-rule="evenodd" fill-opacity="1" stroke="#000000" stroke-opacity="1" stroke-width="3.2"/>
<circle clip-path="url(#clip062)" cx="313.586" cy="1311.04" r="14" fill="#009af9" fill-rule="evenodd" fill-opacity="1" stroke="#000000" stroke-opacity="1" stroke-width="3.2"/>
<circle clip-path="url(#clip062)" cx="315.634" cy="1311.04" r="14" fill="#009af9" fill-rule="evenodd" fill-opacity="1" stroke="#000000" stroke-opacity="1" stroke-width="3.2"/>
<circle clip-path="url(#clip062)" cx="317.922" cy="1311.04" r="14" fill="#009af9" fill-rule="evenodd" fill-opacity="1" stroke="#000000" stroke-opacity="1" stroke-width="3.2"/>
<circle clip-path="url(#clip062)" cx="320.392" cy="1311.04" r="14" fill="#009af9" fill-rule="evenodd" fill-opacity="1" stroke="#000000" stroke-opacity="1" stroke-width="3.2"/>
<circle clip-path="url(#clip062)" cx="323.162" cy="1311.04" r="14" fill="#009af9" fill-rule="evenodd" fill-opacity="1" stroke="#000000" stroke-opacity="1" stroke-width="3.2"/>
<circle clip-path="url(#clip062)" cx="326.174" cy="1249.78" r="14" fill="#009af9" fill-rule="evenodd" fill-opacity="1" stroke="#000000" stroke-opacity="1" stroke-width="3.2"/>
<circle clip-path="url(#clip062)" cx="329.486" cy="1311.04" r="14" fill="#009af9" fill-rule="evenodd" fill-opacity="1" stroke="#000000" stroke-opacity="1" stroke-width="3.2"/>
<circle clip-path="url(#clip062)" cx="333.16" cy="1249.78" r="14" fill="#009af9" fill-rule="evenodd" fill-opacity="1" stroke="#000000" stroke-opacity="1" stroke-width="3.2"/>
<circle clip-path="url(#clip062)" cx="337.195" cy="1249.78" r="14" fill="#009af9" fill-rule="evenodd" fill-opacity="1" stroke="#000000" stroke-opacity="1" stroke-width="3.2"/>
<circle clip-path="url(#clip062)" cx="341.592" cy="1311.04" r="14" fill="#009af9" fill-rule="evenodd" fill-opacity="1" stroke="#000000" stroke-opacity="1" stroke-width="3.2"/>
<circle clip-path="url(#clip062)" cx="346.47" cy="1249.78" r="14" fill="#009af9" fill-rule="evenodd" fill-opacity="1" stroke="#000000" stroke-opacity="1" stroke-width="3.2"/>
<circle clip-path="url(#clip062)" cx="351.831" cy="1249.78" r="14" fill="#009af9" fill-rule="evenodd" fill-opacity="1" stroke="#000000" stroke-opacity="1" stroke-width="3.2"/>
<circle clip-path="url(#clip062)" cx="357.733" cy="1249.78" r="14" fill="#009af9" fill-rule="evenodd" fill-opacity="1" stroke="#000000" stroke-opacity="1" stroke-width="3.2"/>
<circle clip-path="url(#clip062)" cx="364.177" cy="1249.78" r="14" fill="#009af9" fill-rule="evenodd" fill-opacity="1" stroke="#000000" stroke-opacity="1" stroke-width="3.2"/>
<circle clip-path="url(#clip062)" cx="371.284" cy="1249.78" r="14" fill="#009af9" fill-rule="evenodd" fill-opacity="1" stroke="#000000" stroke-opacity="1" stroke-width="3.2"/>
<circle clip-path="url(#clip062)" cx="379.114" cy="85.838" r="14" fill="#009af9" fill-rule="evenodd" fill-opacity="1" stroke="#000000" stroke-opacity="1" stroke-width="3.2"/>
<circle clip-path="url(#clip062)" cx="387.726" cy="1249.78" r="14" fill="#e26f46" fill-rule="evenodd" fill-opacity="1" stroke="#000000" stroke-opacity="1" stroke-width="3.2"/>
<circle clip-path="url(#clip062)" cx="397.182" cy="1249.78" r="14" fill="#e26f46" fill-rule="evenodd" fill-opacity="1" stroke="#000000" stroke-opacity="1" stroke-width="3.2"/>
<circle clip-path="url(#clip062)" cx="407.602" cy="1249.78" r="14" fill="#e26f46" fill-rule="evenodd" fill-opacity="1" stroke="#000000" stroke-opacity="1" stroke-width="3.2"/>
<circle clip-path="url(#clip062)" cx="419.045" cy="1249.78" r="14" fill="#e26f46" fill-rule="evenodd" fill-opacity="1" stroke="#000000" stroke-opacity="1" stroke-width="3.2"/>
<circle clip-path="url(#clip062)" cx="431.632" cy="1249.78" r="14" fill="#e26f46" fill-rule="evenodd" fill-opacity="1" stroke="#000000" stroke-opacity="1" stroke-width="3.2"/>
<circle clip-path="url(#clip062)" cx="445.485" cy="1249.78" r="14" fill="#e26f46" fill-rule="evenodd" fill-opacity="1" stroke="#000000" stroke-opacity="1" stroke-width="3.2"/>
<circle clip-path="url(#clip062)" cx="460.722" cy="1127.26" r="14" fill="#e26f46" fill-rule="evenodd" fill-opacity="1" stroke="#000000" stroke-opacity="1" stroke-width="3.2"/>
<circle clip-path="url(#clip062)" cx="477.526" cy="1188.52" r="14" fill="#e26f46" fill-rule="evenodd" fill-opacity="1" stroke="#000000" stroke-opacity="1" stroke-width="3.2"/>
<circle clip-path="url(#clip062)" cx="495.956" cy="1188.52" r="14" fill="#e26f46" fill-rule="evenodd" fill-opacity="1" stroke="#000000" stroke-opacity="1" stroke-width="3.2"/>
<circle clip-path="url(#clip062)" cx="516.252" cy="1188.52" r="14" fill="#e26f46" fill-rule="evenodd" fill-opacity="1" stroke="#000000" stroke-opacity="1" stroke-width="3.2"/>
<circle clip-path="url(#clip062)" cx="538.597" cy="1188.52" r="14" fill="#e26f46" fill-rule="evenodd" fill-opacity="1" stroke="#000000" stroke-opacity="1" stroke-width="3.2"/>
<circle clip-path="url(#clip062)" cx="563.17" cy="1188.52" r="14" fill="#e26f46" fill-rule="evenodd" fill-opacity="1" stroke="#000000" stroke-opacity="1" stroke-width="3.2"/>
<circle clip-path="url(#clip062)" cx="590.212" cy="1127.26" r="14" fill="#e26f46" fill-rule="evenodd" fill-opacity="1" stroke="#000000" stroke-opacity="1" stroke-width="3.2"/>
<circle clip-path="url(#clip062)" cx="619.904" cy="1188.52" r="14" fill="#e26f46" fill-rule="evenodd" fill-opacity="1" stroke="#000000" stroke-opacity="1" stroke-width="3.2"/>
<circle clip-path="url(#clip062)" cx="652.608" cy="1188.52" r="14" fill="#e26f46" fill-rule="evenodd" fill-opacity="1" stroke="#000000" stroke-opacity="1" stroke-width="3.2"/>
<circle clip-path="url(#clip062)" cx="688.564" cy="1127.26" r="14" fill="#e26f46" fill-rule="evenodd" fill-opacity="1" stroke="#000000" stroke-opacity="1" stroke-width="3.2"/>
<circle clip-path="url(#clip062)" cx="728.134" cy="1127.26" r="14" fill="#e26f46" fill-rule="evenodd" fill-opacity="1" stroke="#000000" stroke-opacity="1" stroke-width="3.2"/>
<circle clip-path="url(#clip062)" cx="771.678" cy="1127.26" r="14" fill="#e26f46" fill-rule="evenodd" fill-opacity="1" stroke="#000000" stroke-opacity="1" stroke-width="3.2"/>
<circle clip-path="url(#clip062)" cx="819.559" cy="1127.26" r="14" fill="#e26f46" fill-rule="evenodd" fill-opacity="1" stroke="#000000" stroke-opacity="1" stroke-width="3.2"/>
<circle clip-path="url(#clip062)" cx="872.198" cy="1066" r="14" fill="#e26f46" fill-rule="evenodd" fill-opacity="1" stroke="#000000" stroke-opacity="1" stroke-width="3.2"/>
<circle clip-path="url(#clip062)" cx="930.138" cy="1066" r="14" fill="#e26f46" fill-rule="evenodd" fill-opacity="1" stroke="#000000" stroke-opacity="1" stroke-width="3.2"/>
<circle clip-path="url(#clip062)" cx="993.859" cy="1066" r="14" fill="#e26f46" fill-rule="evenodd" fill-opacity="1" stroke="#000000" stroke-opacity="1" stroke-width="3.2"/>
<circle clip-path="url(#clip062)" cx="1063.96" cy="698.44" r="14" fill="#e26f46" fill-rule="evenodd" fill-opacity="1" stroke="#000000" stroke-opacity="1" stroke-width="3.2"/>
<circle clip-path="url(#clip062)" cx="1141.06" cy="1004.74" r="14" fill="#e26f46" fill-rule="evenodd" fill-opacity="1" stroke="#000000" stroke-opacity="1" stroke-width="3.2"/>
<circle clip-path="url(#clip062)" cx="1225.86" cy="943.481" r="14" fill="#e26f46" fill-rule="evenodd" fill-opacity="1" stroke="#000000" stroke-opacity="1" stroke-width="3.2"/>
<circle clip-path="url(#clip062)" cx="1319.15" cy="943.481" r="14" fill="#e26f46" fill-rule="evenodd" fill-opacity="1" stroke="#000000" stroke-opacity="1" stroke-width="3.2"/>
<circle clip-path="url(#clip062)" cx="1421.78" cy="882.221" r="14" fill="#e26f46" fill-rule="evenodd" fill-opacity="1" stroke="#000000" stroke-opacity="1" stroke-width="3.2"/>
<circle clip-path="url(#clip062)" cx="1534.64" cy="882.221" r="14" fill="#e26f46" fill-rule="evenodd" fill-opacity="1" stroke="#000000" stroke-opacity="1" stroke-width="3.2"/>
<circle clip-path="url(#clip062)" cx="1658.83" cy="882.221" r="14" fill="#e26f46" fill-rule="evenodd" fill-opacity="1" stroke="#000000" stroke-opacity="1" stroke-width="3.2"/>
<circle clip-path="url(#clip062)" cx="1795.43" cy="882.221" r="14" fill="#e26f46" fill-rule="evenodd" fill-opacity="1" stroke="#000000" stroke-opacity="1" stroke-width="3.2"/>
<circle clip-path="url(#clip062)" cx="1945.7" cy="820.961" r="14" fill="#e26f46" fill-rule="evenodd" fill-opacity="1" stroke="#000000" stroke-opacity="1" stroke-width="3.2"/>
<circle clip-path="url(#clip062)" cx="2110.96" cy="759.7" r="14" fill="#e26f46" fill-rule="evenodd" fill-opacity="1" stroke="#000000" stroke-opacity="1" stroke-width="3.2"/>
<circle clip-path="url(#clip062)" cx="2292.79" cy="85.838" r="14" fill="#e26f46" fill-rule="evenodd" fill-opacity="1" stroke="#000000" stroke-opacity="1" stroke-width="3.2"/>
<path clip-path="url(#clip060)" d="
M304.612 248.219 L969.126 248.219 L969.126 92.6992 L304.612 92.6992  Z
  " fill="#ffffff" fill-rule="evenodd" fill-opacity="1"/>
<polyline clip-path="url(#clip060)" style="stroke:#000000; stroke-linecap:butt; stroke-linejoin:round; stroke-width:4; stroke-opacity:1; fill:none" points="
  304.612,248.219 969.126,248.219 969.126,92.6992 304.612,92.6992 304.612,248.219 
  "/>
<circle clip-path="url(#clip060)" cx="398.78" cy="144.539" r="23" fill="#009af9" fill-rule="evenodd" fill-opacity="1" stroke="#000000" stroke-opacity="1" stroke-width="5.12"/>
<path clip-path="url(#clip060)" d="M500.054 127.259 L504.73 127.259 L504.73 159.412 Q504.73 165.662 502.345 168.486 Q499.984 171.31 494.73 171.31 L492.947 171.31 L492.947 167.375 L494.406 167.375 Q497.507 167.375 498.781 165.639 Q500.054 163.903 500.054 159.412 L500.054 127.259 Z" fill="#000000" fill-rule="evenodd" fill-opacity="1" /><path clip-path="url(#clip060)" d="M536.026 147.791 L536.026 149.875 L516.443 149.875 Q516.72 154.273 519.081 156.588 Q521.466 158.879 525.702 158.879 Q528.155 158.879 530.447 158.278 Q532.762 157.676 535.03 156.472 L535.03 160.5 Q532.739 161.472 530.331 161.981 Q527.924 162.49 525.447 162.49 Q519.243 162.49 515.609 158.879 Q511.998 155.268 511.998 149.111 Q511.998 142.745 515.424 139.018 Q518.873 135.268 524.706 135.268 Q529.938 135.268 532.97 138.648 Q536.026 142.004 536.026 147.791 M531.766 146.541 Q531.72 143.046 529.799 140.963 Q527.901 138.879 524.753 138.879 Q521.188 138.879 519.035 140.893 Q516.905 142.907 516.581 146.565 L531.766 146.541 Z" fill="#000000" fill-rule="evenodd" fill-opacity="1" /><path clip-path="url(#clip060)" d="M560.077 139.829 L560.077 125.801 L564.336 125.801 L564.336 161.819 L560.077 161.819 L560.077 157.93 Q558.734 160.245 556.674 161.379 Q554.637 162.49 551.766 162.49 Q547.067 162.49 544.104 158.74 Q541.165 154.991 541.165 148.879 Q541.165 142.768 544.104 139.018 Q547.067 135.268 551.766 135.268 Q554.637 135.268 556.674 136.403 Q558.734 137.514 560.077 139.829 M545.563 148.879 Q545.563 153.578 547.484 156.264 Q549.428 158.926 552.808 158.926 Q556.188 158.926 558.132 156.264 Q560.077 153.578 560.077 148.879 Q560.077 144.18 558.132 141.518 Q556.188 138.833 552.808 138.833 Q549.428 138.833 547.484 141.518 Q545.563 144.18 545.563 148.879 Z" fill="#000000" fill-rule="evenodd" fill-opacity="1" /><path clip-path="url(#clip060)" d="M595.285 147.791 L595.285 149.875 L575.701 149.875 Q575.979 154.273 578.34 156.588 Q580.725 158.879 584.961 158.879 Q587.414 158.879 589.706 158.278 Q592.021 157.676 594.289 156.472 L594.289 160.5 Q591.998 161.472 589.59 161.981 Q587.183 162.49 584.706 162.49 Q578.502 162.49 574.868 158.879 Q571.257 155.268 571.257 149.111 Q571.257 142.745 574.683 139.018 Q578.132 135.268 583.965 135.268 Q589.197 135.268 592.229 138.648 Q595.285 142.004 595.285 147.791 M591.025 146.541 Q590.979 143.046 589.058 140.963 Q587.16 138.879 584.012 138.879 Q580.447 138.879 578.294 140.893 Q576.164 142.907 575.84 146.565 L591.025 146.541 Z" fill="#000000" fill-rule="evenodd" fill-opacity="1" /><path clip-path="url(#clip060)" d="M623.826 146.171 L623.826 161.819 L619.567 161.819 L619.567 146.31 Q619.567 142.629 618.132 140.801 Q616.697 138.972 613.826 138.972 Q610.377 138.972 608.386 141.171 Q606.396 143.37 606.396 147.166 L606.396 161.819 L602.113 161.819 L602.113 135.893 L606.396 135.893 L606.396 139.921 Q607.923 137.583 609.984 136.426 Q612.067 135.268 614.775 135.268 Q619.243 135.268 621.535 138.046 Q623.826 140.801 623.826 146.171 Z" fill="#000000" fill-rule="evenodd" fill-opacity="1" /><path clip-path="url(#clip060)" d="M660.516 125.801 L660.516 129.343 L656.442 129.343 Q654.15 129.343 653.247 130.268 Q652.368 131.194 652.368 133.602 L652.368 135.893 L659.382 135.893 L659.382 139.204 L652.368 139.204 L652.368 161.819 L648.085 161.819 L648.085 139.204 L644.011 139.204 L644.011 135.893 L648.085 135.893 L648.085 134.088 Q648.085 129.759 650.099 127.792 Q652.113 125.801 656.488 125.801 L660.516 125.801 Z" fill="#000000" fill-rule="evenodd" fill-opacity="1" /><path clip-path="url(#clip060)" d="M679.104 139.875 Q678.386 139.458 677.53 139.273 Q676.696 139.065 675.678 139.065 Q672.067 139.065 670.122 141.426 Q668.201 143.764 668.201 148.162 L668.201 161.819 L663.919 161.819 L663.919 135.893 L668.201 135.893 L668.201 139.921 Q669.544 137.56 671.696 136.426 Q673.849 135.268 676.928 135.268 Q677.368 135.268 677.9 135.338 Q678.432 135.384 679.081 135.5 L679.104 139.875 Z" fill="#000000" fill-rule="evenodd" fill-opacity="1" /><path clip-path="url(#clip060)" d="M695.354 148.787 Q690.192 148.787 688.201 149.967 Q686.21 151.148 686.21 153.995 Q686.21 156.264 687.692 157.606 Q689.196 158.926 691.766 158.926 Q695.307 158.926 697.437 156.426 Q699.59 153.903 699.59 149.736 L699.59 148.787 L695.354 148.787 M703.849 147.028 L703.849 161.819 L699.59 161.819 L699.59 157.884 Q698.131 160.245 695.955 161.379 Q693.78 162.49 690.631 162.49 Q686.65 162.49 684.289 160.268 Q681.951 158.023 681.951 154.273 Q681.951 149.898 684.868 147.676 Q687.807 145.454 693.617 145.454 L699.59 145.454 L699.59 145.037 Q699.59 142.097 697.645 140.5 Q695.724 138.879 692.229 138.879 Q690.006 138.879 687.9 139.412 Q685.793 139.944 683.849 141.009 L683.849 137.074 Q686.187 136.171 688.386 135.731 Q690.585 135.268 692.668 135.268 Q698.293 135.268 701.071 138.185 Q703.849 141.102 703.849 147.028 Z" fill="#000000" fill-rule="evenodd" fill-opacity="1" /><path clip-path="url(#clip060)" d="M729.682 148.555 Q729.682 143.926 727.761 141.379 Q725.863 138.833 722.414 138.833 Q718.988 138.833 717.066 141.379 Q715.168 143.926 715.168 148.555 Q715.168 153.162 717.066 155.708 Q718.988 158.254 722.414 158.254 Q725.863 158.254 727.761 155.708 Q729.682 153.162 729.682 148.555 M733.941 158.602 Q733.941 165.222 731.002 168.44 Q728.062 171.68 721.997 171.68 Q719.752 171.68 717.761 171.333 Q715.77 171.009 713.895 170.315 L713.895 166.171 Q715.77 167.19 717.599 167.676 Q719.428 168.162 721.326 168.162 Q725.515 168.162 727.599 165.963 Q729.682 163.787 729.682 159.365 L729.682 157.259 Q728.363 159.551 726.302 160.685 Q724.242 161.819 721.372 161.819 Q716.603 161.819 713.687 158.185 Q710.77 154.551 710.77 148.555 Q710.77 142.537 713.687 138.903 Q716.603 135.268 721.372 135.268 Q724.242 135.268 726.302 136.403 Q728.363 137.537 729.682 139.829 L729.682 135.893 L733.941 135.893 L733.941 158.602 Z" fill="#000000" fill-rule="evenodd" fill-opacity="1" /><path clip-path="url(#clip060)" d="M762.9 140.87 Q764.497 138 766.719 136.634 Q768.941 135.268 771.95 135.268 Q776.001 135.268 778.2 138.116 Q780.399 140.94 780.399 146.171 L780.399 161.819 L776.117 161.819 L776.117 146.31 Q776.117 142.583 774.798 140.778 Q773.478 138.972 770.77 138.972 Q767.46 138.972 765.538 141.171 Q763.617 143.37 763.617 147.166 L763.617 161.819 L759.335 161.819 L759.335 146.31 Q759.335 142.56 758.015 140.778 Q756.696 138.972 753.941 138.972 Q750.677 138.972 748.756 141.194 Q746.835 143.393 746.835 147.166 L746.835 161.819 L742.552 161.819 L742.552 135.893 L746.835 135.893 L746.835 139.921 Q748.293 137.537 750.33 136.403 Q752.367 135.268 755.168 135.268 Q757.992 135.268 759.96 136.704 Q761.95 138.139 762.9 140.87 Z" fill="#000000" fill-rule="evenodd" fill-opacity="1" /><path clip-path="url(#clip060)" d="M811.071 147.791 L811.071 149.875 L791.487 149.875 Q791.765 154.273 794.126 156.588 Q796.51 158.879 800.747 158.879 Q803.2 158.879 805.492 158.278 Q807.807 157.676 810.075 156.472 L810.075 160.5 Q807.784 161.472 805.376 161.981 Q802.969 162.49 800.492 162.49 Q794.288 162.49 790.654 158.879 Q787.043 155.268 787.043 149.111 Q787.043 142.745 790.469 139.018 Q793.918 135.268 799.751 135.268 Q804.983 135.268 808.015 138.648 Q811.071 142.004 811.071 147.791 M806.811 146.541 Q806.765 143.046 804.844 140.963 Q802.946 138.879 799.797 138.879 Q796.233 138.879 794.08 140.893 Q791.95 142.907 791.626 146.565 L806.811 146.541 Z" fill="#000000" fill-rule="evenodd" fill-opacity="1" /><path clip-path="url(#clip060)" d="M839.612 146.171 L839.612 161.819 L835.353 161.819 L835.353 146.31 Q835.353 142.629 833.918 140.801 Q832.482 138.972 829.612 138.972 Q826.163 138.972 824.172 141.171 Q822.182 143.37 822.182 147.166 L822.182 161.819 L817.899 161.819 L817.899 135.893 L822.182 135.893 L822.182 139.921 Q823.709 137.583 825.77 136.426 Q827.853 135.268 830.561 135.268 Q835.029 135.268 837.32 138.046 Q839.612 140.801 839.612 146.171 Z" fill="#000000" fill-rule="evenodd" fill-opacity="1" /><path clip-path="url(#clip060)" d="M852.32 128.532 L852.32 135.893 L861.093 135.893 L861.093 139.204 L852.32 139.204 L852.32 153.278 Q852.32 156.449 853.177 157.352 Q854.056 158.254 856.718 158.254 L861.093 158.254 L861.093 161.819 L856.718 161.819 Q851.788 161.819 849.913 159.99 Q848.038 158.139 848.038 153.278 L848.038 139.204 L844.913 139.204 L844.913 135.893 L848.038 135.893 L848.038 128.532 L852.32 128.532 Z" fill="#000000" fill-rule="evenodd" fill-opacity="1" /><circle clip-path="url(#clip060)" cx="398.78" cy="196.379" r="23" fill="#e26f46" fill-rule="evenodd" fill-opacity="1" stroke="#000000" stroke-opacity="1" stroke-width="5.12"/>
<path clip-path="url(#clip060)" d="M492.947 179.099 L497.669 179.099 L504.938 208.312 L512.183 179.099 L517.438 179.099 L524.706 208.312 L531.952 179.099 L536.697 179.099 L528.017 213.659 L522.137 213.659 L514.845 183.659 L507.484 213.659 L501.605 213.659 L492.947 179.099 Z" fill="#000000" fill-rule="evenodd" fill-opacity="1" /><path clip-path="url(#clip060)" d="M541.674 187.733 L545.933 187.733 L545.933 213.659 L541.674 213.659 L541.674 187.733 M541.674 177.641 L545.933 177.641 L545.933 183.034 L541.674 183.034 L541.674 177.641 Z" fill="#000000" fill-rule="evenodd" fill-opacity="1" /><path clip-path="url(#clip060)" d="M577.021 199.631 L577.021 201.715 L557.438 201.715 Q557.715 206.113 560.077 208.428 Q562.461 210.719 566.697 210.719 Q569.151 210.719 571.442 210.118 Q573.757 209.516 576.026 208.312 L576.026 212.34 Q573.734 213.312 571.326 213.821 Q568.919 214.33 566.442 214.33 Q560.239 214.33 556.604 210.719 Q552.993 207.108 552.993 200.951 Q552.993 194.585 556.419 190.858 Q559.868 187.108 565.701 187.108 Q570.933 187.108 573.965 190.488 Q577.021 193.844 577.021 199.631 M572.762 198.381 Q572.715 194.886 570.794 192.803 Q568.896 190.719 565.748 190.719 Q562.183 190.719 560.03 192.733 Q557.901 194.747 557.577 198.405 L572.762 198.381 Z" fill="#000000" fill-rule="evenodd" fill-opacity="1" /><path clip-path="url(#clip060)" d="M584.012 177.641 L588.271 177.641 L588.271 213.659 L584.012 213.659 L584.012 177.641 Z" fill="#000000" fill-rule="evenodd" fill-opacity="1" /><path clip-path="url(#clip060)" d="M619.359 199.631 L619.359 201.715 L599.775 201.715 Q600.053 206.113 602.414 208.428 Q604.799 210.719 609.035 210.719 Q611.488 210.719 613.78 210.118 Q616.095 209.516 618.363 208.312 L618.363 212.34 Q616.072 213.312 613.664 213.821 Q611.257 214.33 608.78 214.33 Q602.576 214.33 598.942 210.719 Q595.331 207.108 595.331 200.951 Q595.331 194.585 598.757 190.858 Q602.206 187.108 608.039 187.108 Q613.271 187.108 616.303 190.488 Q619.359 193.844 619.359 199.631 M615.099 198.381 Q615.053 194.886 613.132 192.803 Q611.234 190.719 608.086 190.719 Q604.521 190.719 602.368 192.733 Q600.238 194.747 599.914 198.405 L615.099 198.381 Z" fill="#000000" fill-rule="evenodd" fill-opacity="1" /><path clip-path="url(#clip060)" d="M654.544 177.641 L654.544 181.183 L650.47 181.183 Q648.178 181.183 647.275 182.108 Q646.396 183.034 646.396 185.442 L646.396 187.733 L653.409 187.733 L653.409 191.044 L646.396 191.044 L646.396 213.659 L642.113 213.659 L642.113 191.044 L638.039 191.044 L638.039 187.733 L642.113 187.733 L642.113 185.928 Q642.113 181.599 644.127 179.632 Q646.141 177.641 650.516 177.641 L654.544 177.641 Z" fill="#000000" fill-rule="evenodd" fill-opacity="1" /><path clip-path="url(#clip060)" d="M673.131 191.715 Q672.414 191.298 671.557 191.113 Q670.724 190.905 669.706 190.905 Q666.094 190.905 664.15 193.266 Q662.229 195.604 662.229 200.002 L662.229 213.659 L657.946 213.659 L657.946 187.733 L662.229 187.733 L662.229 191.761 Q663.571 189.4 665.724 188.266 Q667.877 187.108 670.956 187.108 Q671.395 187.108 671.928 187.178 Q672.46 187.224 673.108 187.34 L673.131 191.715 Z" fill="#000000" fill-rule="evenodd" fill-opacity="1" /><path clip-path="url(#clip060)" d="M689.381 200.627 Q684.219 200.627 682.229 201.807 Q680.238 202.988 680.238 205.835 Q680.238 208.104 681.719 209.446 Q683.224 210.766 685.793 210.766 Q689.335 210.766 691.465 208.266 Q693.617 205.743 693.617 201.576 L693.617 200.627 L689.381 200.627 M697.877 198.868 L697.877 213.659 L693.617 213.659 L693.617 209.724 Q692.159 212.085 689.983 213.219 Q687.807 214.33 684.659 214.33 Q680.678 214.33 678.317 212.108 Q675.979 209.863 675.979 206.113 Q675.979 201.738 678.895 199.516 Q681.835 197.294 687.645 197.294 L693.617 197.294 L693.617 196.877 Q693.617 193.937 691.673 192.34 Q689.752 190.719 686.256 190.719 Q684.034 190.719 681.928 191.252 Q679.821 191.784 677.877 192.849 L677.877 188.914 Q680.215 188.011 682.414 187.571 Q684.613 187.108 686.696 187.108 Q692.321 187.108 695.099 190.025 Q697.877 192.942 697.877 198.868 Z" fill="#000000" fill-rule="evenodd" fill-opacity="1" /><path clip-path="url(#clip060)" d="M723.71 200.395 Q723.71 195.766 721.789 193.219 Q719.89 190.673 716.441 190.673 Q713.016 190.673 711.094 193.219 Q709.196 195.766 709.196 200.395 Q709.196 205.002 711.094 207.548 Q713.016 210.094 716.441 210.094 Q719.89 210.094 721.789 207.548 Q723.71 205.002 723.71 200.395 M727.969 210.442 Q727.969 217.062 725.029 220.28 Q722.09 223.52 716.025 223.52 Q713.779 223.52 711.789 223.173 Q709.798 222.849 707.923 222.155 L707.923 218.011 Q709.798 219.03 711.627 219.516 Q713.455 220.002 715.353 220.002 Q719.543 220.002 721.627 217.803 Q723.71 215.627 723.71 211.205 L723.71 209.099 Q722.39 211.391 720.33 212.525 Q718.27 213.659 715.4 213.659 Q710.631 213.659 707.715 210.025 Q704.798 206.391 704.798 200.395 Q704.798 194.377 707.715 190.743 Q710.631 187.108 715.4 187.108 Q718.27 187.108 720.33 188.243 Q722.39 189.377 723.71 191.669 L723.71 187.733 L727.969 187.733 L727.969 210.442 Z" fill="#000000" fill-rule="evenodd" fill-opacity="1" /><path clip-path="url(#clip060)" d="M756.927 192.71 Q758.525 189.84 760.747 188.474 Q762.969 187.108 765.978 187.108 Q770.029 187.108 772.228 189.956 Q774.427 192.78 774.427 198.011 L774.427 213.659 L770.145 213.659 L770.145 198.15 Q770.145 194.423 768.825 192.618 Q767.506 190.812 764.798 190.812 Q761.487 190.812 759.566 193.011 Q757.645 195.21 757.645 199.006 L757.645 213.659 L753.363 213.659 L753.363 198.15 Q753.363 194.4 752.043 192.618 Q750.724 190.812 747.969 190.812 Q744.705 190.812 742.784 193.034 Q740.863 195.233 740.863 199.006 L740.863 213.659 L736.58 213.659 L736.58 187.733 L740.863 187.733 L740.863 191.761 Q742.321 189.377 744.358 188.243 Q746.395 187.108 749.196 187.108 Q752.02 187.108 753.988 188.544 Q755.978 189.979 756.927 192.71 Z" fill="#000000" fill-rule="evenodd" fill-opacity="1" /><path clip-path="url(#clip060)" d="M805.098 199.631 L805.098 201.715 L785.515 201.715 Q785.793 206.113 788.154 208.428 Q790.538 210.719 794.774 210.719 Q797.228 210.719 799.52 210.118 Q801.834 209.516 804.103 208.312 L804.103 212.34 Q801.811 213.312 799.404 213.821 Q796.997 214.33 794.52 214.33 Q788.316 214.33 784.682 210.719 Q781.071 207.108 781.071 200.951 Q781.071 194.585 784.497 190.858 Q787.946 187.108 793.779 187.108 Q799.01 187.108 802.043 190.488 Q805.098 193.844 805.098 199.631 M800.839 198.381 Q800.793 194.886 798.872 192.803 Q796.973 190.719 793.825 190.719 Q790.26 190.719 788.108 192.733 Q785.978 194.747 785.654 198.405 L800.839 198.381 Z" fill="#000000" fill-rule="evenodd" fill-opacity="1" /><path clip-path="url(#clip060)" d="M833.64 198.011 L833.64 213.659 L829.381 213.659 L829.381 198.15 Q829.381 194.469 827.945 192.641 Q826.51 190.812 823.64 190.812 Q820.191 190.812 818.2 193.011 Q816.209 195.21 816.209 199.006 L816.209 213.659 L811.927 213.659 L811.927 187.733 L816.209 187.733 L816.209 191.761 Q817.737 189.423 819.797 188.266 Q821.881 187.108 824.589 187.108 Q829.057 187.108 831.348 189.886 Q833.64 192.641 833.64 198.011 Z" fill="#000000" fill-rule="evenodd" fill-opacity="1" /><path clip-path="url(#clip060)" d="M846.348 180.372 L846.348 187.733 L855.121 187.733 L855.121 191.044 L846.348 191.044 L846.348 205.118 Q846.348 208.289 847.205 209.192 Q848.084 210.094 850.746 210.094 L855.121 210.094 L855.121 213.659 L850.746 213.659 Q845.816 213.659 843.941 211.83 Q842.066 209.979 842.066 205.118 L842.066 191.044 L838.941 191.044 L838.941 187.733 L842.066 187.733 L842.066 180.372 L846.348 180.372 Z" fill="#000000" fill-rule="evenodd" fill-opacity="1" /><path clip-path="url(#clip060)" d="M870.769 190.719 Q867.343 190.719 865.353 193.405 Q863.362 196.067 863.362 200.719 Q863.362 205.372 865.33 208.057 Q867.32 210.719 870.769 210.719 Q874.172 210.719 876.163 208.034 Q878.154 205.349 878.154 200.719 Q878.154 196.113 876.163 193.428 Q874.172 190.719 870.769 190.719 M870.769 187.108 Q876.325 187.108 879.496 190.719 Q882.667 194.331 882.667 200.719 Q882.667 207.085 879.496 210.719 Q876.325 214.33 870.769 214.33 Q865.191 214.33 862.019 210.719 Q858.871 207.085 858.871 200.719 Q858.871 194.331 862.019 190.719 Q865.191 187.108 870.769 187.108 M873.987 175.743 L878.593 175.743 L871.047 184.446 L867.505 184.446 L873.987 175.743 Z" fill="#000000" fill-rule="evenodd" fill-opacity="1" /><path clip-path="url(#clip060)" d="M887.251 187.733 L891.51 187.733 L896.834 207.965 L902.135 187.733 L907.158 187.733 L912.482 207.965 L917.783 187.733 L922.042 187.733 L915.26 213.659 L910.237 213.659 L904.658 192.409 L899.056 213.659 L894.033 213.659 L887.251 187.733 Z" fill="#000000" fill-rule="evenodd" fill-opacity="1" /></svg>
