<?xml version="1.0" encoding="utf-8"?>
<svg xmlns="http://www.w3.org/2000/svg" xmlns:xlink="http://www.w3.org/1999/xlink" width="600" height="400" viewBox="0 0 2400 1600">
<defs>
  <clipPath id="clip270">
    <rect x="0" y="0" width="2400" height="1600"/>
  </clipPath>
</defs>
<path clip-path="url(#clip270)" d="
M0 1600 L2400 1600 L2400 0 L0 0  Z
  " fill="#ffffff" fill-rule="evenodd" fill-opacity="1"/>
<defs>
  <clipPath id="clip271">
    <rect x="480" y="0" width="1681" height="1600"/>
  </clipPath>
</defs>
<path clip-path="url(#clip270)" d="
M247.459 1410.9 L2352.76 1410.9 L2352.76 47.2441 L247.459 47.2441  Z
  " fill="#ffffff" fill-rule="evenodd" fill-opacity="1"/>
<defs>
  <clipPath id="clip272">
    <rect x="247" y="47" width="2106" height="1365"/>
  </clipPath>
</defs>
<polyline clip-path="url(#clip272)" style="stroke:#000000; stroke-linecap:butt; stroke-linejoin:round; stroke-width:2; stroke-opacity:0.1; fill:none" points="
  783.584,1410.9 783.584,47.2441 
  "/>
<polyline clip-path="url(#clip272)" style="stroke:#000000; stroke-linecap:butt; stroke-linejoin:round; stroke-width:2; stroke-opacity:0.1; fill:none" points="
  1382.34,1410.9 1382.34,47.2441 
  "/>
<polyline clip-path="url(#clip272)" style="stroke:#000000; stroke-linecap:butt; stroke-linejoin:round; stroke-width:2; stroke-opacity:0.1; fill:none" points="
  1981.1,1410.9 1981.1,47.2441 
  "/>
<polyline clip-path="url(#clip270)" style="stroke:#000000; stroke-linecap:butt; stroke-linejoin:round; stroke-width:4; stroke-opacity:1; fill:none" points="
  247.459,1410.9 2352.76,1410.9 
  "/>
<polyline clip-path="url(#clip270)" style="stroke:#000000; stroke-linecap:butt; stroke-linejoin:round; stroke-width:4; stroke-opacity:1; fill:none" points="
  783.584,1410.9 783.584,1392 
  "/>
<polyline clip-path="url(#clip270)" style="stroke:#000000; stroke-linecap:butt; stroke-linejoin:round; stroke-width:4; stroke-opacity:1; fill:none" points="
  1382.34,1410.9 1382.34,1392 
  "/>
<polyline clip-path="url(#clip270)" style="stroke:#000000; stroke-linecap:butt; stroke-linejoin:round; stroke-width:4; stroke-opacity:1; fill:none" points="
  1981.1,1410.9 1981.1,1392 
  "/>
<path clip-path="url(#clip270)" d="M749.357 1485.02 L756.995 1485.02 L756.995 1458.66 L748.685 1460.32 L748.685 1456.06 L756.949 1454.4 L761.625 1454.4 L761.625 1485.02 L769.264 1485.02 L769.264 1488.96 L749.357 1488.96 L749.357 1485.02 Z" fill="#000000" fill-rule="evenodd" fill-opacity="1" /><path clip-path="url(#clip270)" d="M788.708 1457.48 Q785.097 1457.48 783.268 1461.04 Q781.463 1464.58 781.463 1471.71 Q781.463 1478.82 783.268 1482.38 Q785.097 1485.92 788.708 1485.92 Q792.342 1485.92 794.148 1482.38 Q795.977 1478.82 795.977 1471.71 Q795.977 1464.58 794.148 1461.04 Q792.342 1457.48 788.708 1457.48 M788.708 1453.77 Q794.518 1453.77 797.574 1458.38 Q800.653 1462.96 800.653 1471.71 Q800.653 1480.44 797.574 1485.04 Q794.518 1489.63 788.708 1489.63 Q782.898 1489.63 779.819 1485.04 Q776.764 1480.44 776.764 1471.71 Q776.764 1462.96 779.819 1458.38 Q782.898 1453.77 788.708 1453.77 Z" fill="#000000" fill-rule="evenodd" fill-opacity="1" /><path clip-path="url(#clip270)" d="M805.223 1458.35 L818.482 1458.35 L818.482 1461.55 L800.653 1461.55 L800.653 1458.35 Q802.815 1456.11 806.539 1452.35 Q810.282 1448.57 811.241 1447.48 Q813.066 1445.43 813.78 1444.02 Q814.514 1442.59 814.514 1441.22 Q814.514 1438.98 812.934 1437.57 Q811.373 1436.16 808.853 1436.16 Q807.066 1436.16 805.072 1436.78 Q803.098 1437.4 800.841 1438.66 L800.841 1434.82 Q803.135 1433.9 805.129 1433.43 Q807.122 1432.96 808.778 1432.96 Q813.141 1432.96 815.736 1435.14 Q818.332 1437.32 818.332 1440.97 Q818.332 1442.7 817.674 1444.26 Q817.034 1445.8 815.323 1447.91 Q814.852 1448.46 812.332 1451.07 Q809.812 1453.67 805.223 1458.35 Z" fill="#000000" fill-rule="evenodd" fill-opacity="1" /><path clip-path="url(#clip270)" d="M1347.79 1485.02 L1355.43 1485.02 L1355.43 1458.66 L1347.12 1460.32 L1347.12 1456.06 L1355.38 1454.4 L1360.06 1454.4 L1360.06 1485.02 L1367.69 1485.02 L1367.69 1488.96 L1347.79 1488.96 L1347.79 1485.02 Z" fill="#000000" fill-rule="evenodd" fill-opacity="1" /><path clip-path="url(#clip270)" d="M1387.14 1457.48 Q1383.53 1457.48 1381.7 1461.04 Q1379.89 1464.58 1379.89 1471.71 Q1379.89 1478.82 1381.7 1482.38 Q1383.53 1485.92 1387.14 1485.92 Q1390.77 1485.92 1392.58 1482.38 Q1394.41 1478.82 1394.41 1471.71 Q1394.41 1464.58 1392.58 1461.04 Q1390.77 1457.48 1387.14 1457.48 M1387.14 1453.77 Q1392.95 1453.77 1396 1458.38 Q1399.08 1462.96 1399.08 1471.71 Q1399.08 1480.44 1396 1485.04 Q1392.95 1489.63 1387.14 1489.63 Q1381.33 1489.63 1378.25 1485.04 Q1375.19 1480.44 1375.19 1471.71 Q1375.19 1462.96 1378.25 1458.38 Q1381.33 1453.77 1387.14 1453.77 Z" fill="#000000" fill-rule="evenodd" fill-opacity="1" /><path clip-path="url(#clip270)" d="M1411.78 1446.41 Q1414.51 1446.99 1416.03 1448.83 Q1417.57 1450.68 1417.57 1453.38 Q1417.57 1457.54 1414.71 1459.82 Q1411.85 1462.09 1406.59 1462.09 Q1404.82 1462.09 1402.94 1461.73 Q1401.08 1461.4 1399.08 1460.7 L1399.08 1457.03 Q1400.66 1457.95 1402.54 1458.42 Q1404.42 1458.89 1406.47 1458.89 Q1410.05 1458.89 1411.91 1457.48 Q1413.79 1456.07 1413.79 1453.38 Q1413.79 1450.9 1412.04 1449.51 Q1410.31 1448.1 1407.21 1448.1 L1403.94 1448.1 L1403.94 1444.98 L1407.36 1444.98 Q1410.16 1444.98 1411.65 1443.87 Q1413.13 1442.74 1413.13 1440.63 Q1413.13 1438.47 1411.59 1437.32 Q1410.07 1436.16 1407.21 1436.16 Q1405.65 1436.16 1403.86 1436.49 Q1402.07 1436.83 1399.93 1437.55 L1399.93 1434.16 Q1402.09 1433.56 1403.97 1433.26 Q1405.87 1432.96 1407.55 1432.96 Q1411.87 1432.96 1414.39 1434.93 Q1416.91 1436.89 1416.91 1440.24 Q1416.91 1442.57 1415.58 1444.19 Q1414.24 1445.79 1411.78 1446.41 Z" fill="#000000" fill-rule="evenodd" fill-opacity="1" /><path clip-path="url(#clip270)" d="M1945.56 1485.02 L1953.2 1485.02 L1953.2 1458.66 L1944.89 1460.32 L1944.89 1456.06 L1953.15 1454.4 L1957.83 1454.4 L1957.83 1485.02 L1965.47 1485.02 L1965.47 1488.96 L1945.56 1488.96 L1945.56 1485.02 Z" fill="#000000" fill-rule="evenodd" fill-opacity="1" /><path clip-path="url(#clip270)" d="M1984.91 1457.48 Q1981.3 1457.48 1979.47 1461.04 Q1977.67 1464.58 1977.67 1471.71 Q1977.67 1478.82 1979.47 1482.38 Q1981.3 1485.92 1984.91 1485.92 Q1988.55 1485.92 1990.35 1482.38 Q1992.18 1478.82 1992.18 1471.71 Q1992.18 1464.58 1990.35 1461.04 Q1988.55 1457.48 1984.91 1457.48 M1984.91 1453.77 Q1990.72 1453.77 1993.78 1458.38 Q1996.86 1462.96 1996.86 1471.71 Q1996.86 1480.44 1993.78 1485.04 Q1990.72 1489.63 1984.91 1489.63 Q1979.1 1489.63 1976.02 1485.04 Q1972.97 1480.44 1972.97 1471.71 Q1972.97 1462.96 1976.02 1458.38 Q1979.1 1453.77 1984.91 1453.77 Z" fill="#000000" fill-rule="evenodd" fill-opacity="1" /><path clip-path="url(#clip270)" d="M2009.53 1436.78 L1999.94 1451.77 L2009.53 1451.77 L2009.53 1436.78 M2008.54 1433.47 L2013.31 1433.47 L2013.31 1451.77 L2017.32 1451.77 L2017.32 1454.93 L2013.31 1454.93 L2013.31 1461.55 L2009.53 1461.55 L2009.53 1454.93 L1996.86 1454.93 L1996.86 1451.26 L2008.54 1433.47 Z" fill="#000000" fill-rule="evenodd" fill-opacity="1" /><path clip-path="url(#clip270)" d="M938.535 1551.91 Q940.604 1552.61 942.546 1554.9 Q944.519 1557.19 946.492 1561.2 L953.017 1574.19 L946.11 1574.19 L940.031 1562 Q937.676 1557.22 935.448 1555.66 Q933.252 1554.1 929.432 1554.1 L922.43 1554.1 L922.43 1574.19 L916.001 1574.19 L916.001 1526.67 L930.514 1526.67 Q938.662 1526.67 942.673 1530.07 Q946.683 1533.48 946.683 1540.35 Q946.683 1544.84 944.583 1547.8 Q942.514 1550.76 938.535 1551.91 M922.43 1531.95 L922.43 1548.82 L930.514 1548.82 Q935.161 1548.82 937.517 1546.69 Q939.904 1544.52 939.904 1540.35 Q939.904 1536.18 937.517 1534.08 Q935.161 1531.95 930.514 1531.95 L922.43 1531.95 Z" fill="#000000" fill-rule="evenodd" fill-opacity="1" /><path clip-path="url(#clip270)" d="M971.923 1542.64 Q967.213 1542.64 964.475 1546.34 Q961.738 1550 961.738 1556.39 Q961.738 1562.79 964.444 1566.48 Q967.181 1570.14 971.923 1570.14 Q976.602 1570.14 979.339 1566.45 Q982.077 1562.76 982.077 1556.39 Q982.077 1550.06 979.339 1546.37 Q976.602 1542.64 971.923 1542.64 M971.923 1537.68 Q979.562 1537.68 983.923 1542.64 Q988.283 1547.61 988.283 1556.39 Q988.283 1565.15 983.923 1570.14 Q979.562 1575.11 971.923 1575.11 Q964.253 1575.11 959.892 1570.14 Q955.563 1565.15 955.563 1556.39 Q955.563 1547.61 959.892 1542.64 Q964.253 1537.68 971.923 1537.68 Z" fill="#000000" fill-rule="evenodd" fill-opacity="1" /><path clip-path="url(#clip270)" d="M995.445 1538.54 L1023.26 1538.54 L1023.26 1543.88 L1001.24 1569.51 L1023.26 1569.51 L1023.26 1574.19 L994.649 1574.19 L994.649 1568.84 L1016.67 1543.22 L995.445 1543.22 L995.445 1538.54 Z" fill="#000000" fill-rule="evenodd" fill-opacity="1" /><path clip-path="url(#clip270)" d="M1059.96 1545.38 Q1062.16 1541.43 1065.21 1539.56 Q1068.27 1537.68 1072.41 1537.68 Q1077.98 1537.68 1081 1541.59 Q1084.02 1545.48 1084.02 1552.67 L1084.02 1574.19 L1078.14 1574.19 L1078.14 1552.86 Q1078.14 1547.74 1076.32 1545.25 Q1074.51 1542.77 1070.78 1542.77 Q1066.23 1542.77 1063.59 1545.79 Q1060.95 1548.82 1060.95 1554.04 L1060.95 1574.19 L1055.06 1574.19 L1055.06 1552.86 Q1055.06 1547.7 1053.25 1545.25 Q1051.43 1542.77 1047.64 1542.77 Q1043.16 1542.77 1040.51 1545.83 Q1037.87 1548.85 1037.87 1554.04 L1037.87 1574.19 L1031.98 1574.19 L1031.98 1538.54 L1037.87 1538.54 L1037.87 1544.08 Q1039.88 1540.8 1042.68 1539.24 Q1045.48 1537.68 1049.33 1537.68 Q1053.21 1537.68 1055.92 1539.65 Q1058.66 1541.62 1059.96 1545.38 Z" fill="#000000" fill-rule="evenodd" fill-opacity="1" /><path clip-path="url(#clip270)" d="M1095.7 1538.54 L1101.56 1538.54 L1101.56 1574.19 L1095.7 1574.19 L1095.7 1538.54 M1095.7 1524.66 L1101.56 1524.66 L1101.56 1532.08 L1095.7 1532.08 L1095.7 1524.66 Z" fill="#000000" fill-rule="evenodd" fill-opacity="1" /><path clip-path="url(#clip270)" d="M1130.02 1556.27 Q1122.92 1556.27 1120.18 1557.89 Q1117.44 1559.51 1117.44 1563.43 Q1117.44 1566.55 1119.48 1568.39 Q1121.55 1570.21 1125.08 1570.21 Q1129.95 1570.21 1132.88 1566.77 Q1135.84 1563.3 1135.84 1557.57 L1135.84 1556.27 L1130.02 1556.27 M1141.7 1553.85 L1141.7 1574.19 L1135.84 1574.19 L1135.84 1568.77 Q1133.84 1572.02 1130.84 1573.58 Q1127.85 1575.11 1123.52 1575.11 Q1118.05 1575.11 1114.8 1572.05 Q1111.59 1568.97 1111.59 1563.81 Q1111.59 1557.79 1115.6 1554.74 Q1119.64 1551.68 1127.63 1551.68 L1135.84 1551.68 L1135.84 1551.11 Q1135.84 1547.07 1133.17 1544.87 Q1130.52 1542.64 1125.72 1542.64 Q1122.66 1542.64 1119.77 1543.38 Q1116.87 1544.11 1114.2 1545.57 L1114.2 1540.16 Q1117.41 1538.92 1120.44 1538.31 Q1123.46 1537.68 1126.32 1537.68 Q1134.06 1537.68 1137.88 1541.69 Q1141.7 1545.7 1141.7 1553.85 Z" fill="#000000" fill-rule="evenodd" fill-opacity="1" /><path clip-path="url(#clip270)" d="M1174.42 1544.01 Q1173.43 1543.44 1172.25 1543.18 Q1171.11 1542.9 1169.71 1542.9 Q1164.74 1542.9 1162.07 1546.14 Q1159.43 1549.36 1159.43 1555.41 L1159.43 1574.19 L1153.54 1574.19 L1153.54 1538.54 L1159.43 1538.54 L1159.43 1544.08 Q1161.27 1540.83 1164.23 1539.27 Q1167.19 1537.68 1171.42 1537.68 Q1172.03 1537.68 1172.76 1537.77 Q1173.49 1537.84 1174.38 1538 L1174.42 1544.01 Z" fill="#000000" fill-rule="evenodd" fill-opacity="1" /><path clip-path="url(#clip270)" d="M1201.47 1524.66 L1207.33 1524.66 L1207.33 1543.82 L1211.31 1540.96 L1213.72 1544.33 L1207.33 1548.82 L1207.33 1574.19 L1201.47 1574.19 L1201.47 1552.99 L1197.56 1555.79 L1195.2 1552.41 L1201.47 1547.93 L1201.47 1524.66 Z" fill="#000000" fill-rule="evenodd" fill-opacity="1" /><path clip-path="url(#clip270)" d="M1236 1556.27 Q1228.91 1556.27 1226.17 1557.89 Q1223.43 1559.51 1223.43 1563.43 Q1223.43 1566.55 1225.47 1568.39 Q1227.54 1570.21 1231.07 1570.21 Q1235.94 1570.21 1238.87 1566.77 Q1241.83 1563.3 1241.83 1557.57 L1241.83 1556.27 L1236 1556.27 M1247.69 1553.85 L1247.69 1574.19 L1241.83 1574.19 L1241.83 1568.77 Q1239.82 1572.02 1236.83 1573.58 Q1233.84 1575.11 1229.51 1575.11 Q1224.04 1575.11 1220.79 1572.05 Q1217.58 1568.97 1217.58 1563.81 Q1217.58 1557.79 1221.59 1554.74 Q1225.63 1551.68 1233.62 1551.68 L1241.83 1551.68 L1241.83 1551.11 Q1241.83 1547.07 1239.16 1544.87 Q1236.51 1542.64 1231.71 1542.64 Q1228.65 1542.64 1225.76 1543.38 Q1222.86 1544.11 1220.19 1545.57 L1220.19 1540.16 Q1223.4 1538.92 1226.42 1538.31 Q1229.45 1537.68 1232.31 1537.68 Q1240.05 1537.68 1243.87 1541.69 Q1247.69 1545.7 1247.69 1553.85 Z" fill="#000000" fill-rule="evenodd" fill-opacity="1" /><path clip-path="url(#clip270)" d="M1283.21 1543.95 L1283.21 1524.66 L1289.06 1524.66 L1289.06 1574.19 L1283.21 1574.19 L1283.21 1568.84 Q1281.36 1572.02 1278.53 1573.58 Q1275.73 1575.11 1271.78 1575.11 Q1265.32 1575.11 1261.24 1569.95 Q1257.2 1564.8 1257.2 1556.39 Q1257.2 1547.99 1261.24 1542.83 Q1265.32 1537.68 1271.78 1537.68 Q1275.73 1537.68 1278.53 1539.24 Q1281.36 1540.77 1283.21 1543.95 M1263.25 1556.39 Q1263.25 1562.85 1265.89 1566.55 Q1268.57 1570.21 1273.21 1570.21 Q1277.86 1570.21 1280.53 1566.55 Q1283.21 1562.85 1283.21 1556.39 Q1283.21 1549.93 1280.53 1546.27 Q1277.86 1542.58 1273.21 1542.58 Q1268.57 1542.58 1265.89 1546.27 Q1263.25 1549.93 1263.25 1556.39 Z" fill="#000000" fill-rule="evenodd" fill-opacity="1" /><path clip-path="url(#clip270)" d="M1300.52 1560.12 L1300.52 1538.54 L1306.38 1538.54 L1306.38 1559.89 Q1306.38 1564.96 1308.35 1567.5 Q1310.32 1570.02 1314.27 1570.02 Q1319.01 1570.02 1321.75 1566.99 Q1324.52 1563.97 1324.52 1558.75 L1324.52 1538.54 L1330.38 1538.54 L1330.38 1574.19 L1324.52 1574.19 L1324.52 1568.71 Q1322.39 1571.96 1319.55 1573.55 Q1316.75 1575.11 1313.03 1575.11 Q1306.89 1575.11 1303.7 1571.29 Q1300.52 1567.47 1300.52 1560.12 M1315.26 1537.68 L1315.26 1537.68 Z" fill="#000000" fill-rule="evenodd" fill-opacity="1" /><path clip-path="url(#clip270)" d="M1372.07 1552.67 L1372.07 1574.19 L1366.22 1574.19 L1366.22 1552.86 Q1366.22 1547.8 1364.24 1545.29 Q1362.27 1542.77 1358.32 1542.77 Q1353.58 1542.77 1350.84 1545.79 Q1348.1 1548.82 1348.1 1554.04 L1348.1 1574.19 L1342.22 1574.19 L1342.22 1538.54 L1348.1 1538.54 L1348.1 1544.08 Q1350.21 1540.86 1353.04 1539.27 Q1355.9 1537.68 1359.63 1537.68 Q1365.77 1537.68 1368.92 1541.5 Q1372.07 1545.29 1372.07 1552.67 Z" fill="#000000" fill-rule="evenodd" fill-opacity="1" /><path clip-path="url(#clip270)" d="M1383.53 1524.66 L1389.42 1524.66 L1389.42 1553.91 L1406.89 1538.54 L1414.37 1538.54 L1395.47 1555.22 L1415.17 1574.19 L1407.53 1574.19 L1389.42 1556.78 L1389.42 1574.19 L1383.53 1574.19 L1383.53 1524.66 Z" fill="#000000" fill-rule="evenodd" fill-opacity="1" /><path clip-path="url(#clip270)" d="M1418.89 1560.12 L1418.89 1538.54 L1424.75 1538.54 L1424.75 1559.89 Q1424.75 1564.96 1426.72 1567.5 Q1428.69 1570.02 1432.64 1570.02 Q1437.38 1570.02 1440.12 1566.99 Q1442.89 1563.97 1442.89 1558.75 L1442.89 1538.54 L1448.75 1538.54 L1448.75 1574.19 L1442.89 1574.19 L1442.89 1568.71 Q1440.76 1571.96 1437.92 1573.55 Q1435.12 1575.11 1431.4 1575.11 Q1425.26 1575.11 1422.07 1571.29 Q1418.89 1567.47 1418.89 1560.12 M1433.63 1537.68 L1433.63 1537.68 Z" fill="#000000" fill-rule="evenodd" fill-opacity="1" /><path clip-path="url(#clip270)" d="M1480.99 1524.66 L1494.48 1524.66 L1494.48 1529.21 L1486.85 1529.21 L1486.85 1578.23 L1494.48 1578.23 L1494.48 1582.78 L1480.99 1582.78 L1480.99 1524.66 Z" fill="#000000" fill-rule="evenodd" fill-opacity="1" /><path clip-path="url(#clip270)" d="M1532.55 1556.39 Q1532.55 1549.93 1529.88 1546.27 Q1527.24 1542.58 1522.59 1542.58 Q1517.94 1542.58 1515.27 1546.27 Q1512.63 1549.93 1512.63 1556.39 Q1512.63 1562.85 1515.27 1566.55 Q1517.94 1570.21 1522.59 1570.21 Q1527.24 1570.21 1529.88 1566.55 Q1532.55 1562.85 1532.55 1556.39 M1512.63 1543.95 Q1514.47 1540.77 1517.27 1539.24 Q1520.11 1537.68 1524.02 1537.68 Q1530.51 1537.68 1534.56 1542.83 Q1538.63 1547.99 1538.63 1556.39 Q1538.63 1564.8 1534.56 1569.95 Q1530.51 1575.11 1524.02 1575.11 Q1520.11 1575.11 1517.27 1573.58 Q1514.47 1572.02 1512.63 1568.84 L1512.63 1574.19 L1506.74 1574.19 L1506.74 1524.66 L1512.63 1524.66 L1512.63 1543.95 Z" fill="#000000" fill-rule="evenodd" fill-opacity="1" /><path clip-path="url(#clip270)" d="M1564.54 1556.27 Q1557.44 1556.27 1554.7 1557.89 Q1551.97 1559.51 1551.97 1563.43 Q1551.97 1566.55 1554 1568.39 Q1556.07 1570.21 1559.61 1570.21 Q1564.48 1570.21 1567.4 1566.77 Q1570.36 1563.3 1570.36 1557.57 L1570.36 1556.27 L1564.54 1556.27 M1576.22 1553.85 L1576.22 1574.19 L1570.36 1574.19 L1570.36 1568.77 Q1568.36 1572.02 1565.37 1573.58 Q1562.37 1575.11 1558.05 1575.11 Q1552.57 1575.11 1549.32 1572.05 Q1546.11 1568.97 1546.11 1563.81 Q1546.11 1557.79 1550.12 1554.74 Q1554.16 1551.68 1562.15 1551.68 L1570.36 1551.68 L1570.36 1551.11 Q1570.36 1547.07 1567.69 1544.87 Q1565.05 1542.64 1560.24 1542.64 Q1557.19 1542.64 1554.29 1543.38 Q1551.39 1544.11 1548.72 1545.57 L1548.72 1540.16 Q1551.93 1538.92 1554.96 1538.31 Q1557.98 1537.68 1560.85 1537.68 Q1568.58 1537.68 1572.4 1541.69 Q1576.22 1545.7 1576.22 1553.85 Z" fill="#000000" fill-rule="evenodd" fill-opacity="1" /><path clip-path="url(#clip270)" d="M1588.28 1538.54 L1594.14 1538.54 L1594.14 1574.82 Q1594.14 1581.63 1591.53 1584.69 Q1588.95 1587.74 1583.19 1587.74 L1580.96 1587.74 L1580.96 1582.78 L1582.52 1582.78 Q1585.86 1582.78 1587.07 1581.22 Q1588.28 1579.69 1588.28 1574.82 L1588.28 1538.54 M1588.28 1524.66 L1594.14 1524.66 L1594.14 1532.08 L1588.28 1532.08 L1588.28 1524.66 Z" fill="#000000" fill-rule="evenodd" fill-opacity="1" /><path clip-path="url(#clip270)" d="M1612.19 1528.42 L1612.19 1538.54 L1624.25 1538.54 L1624.25 1543.09 L1612.19 1543.09 L1612.19 1562.44 Q1612.19 1566.8 1613.36 1568.04 Q1614.57 1569.28 1618.23 1569.28 L1624.25 1569.28 L1624.25 1574.19 L1618.23 1574.19 Q1611.45 1574.19 1608.88 1571.67 Q1606.3 1569.12 1606.3 1562.44 L1606.3 1543.09 L1602 1543.09 L1602 1538.54 L1606.3 1538.54 L1606.3 1528.42 L1612.19 1528.42 Z" fill="#000000" fill-rule="evenodd" fill-opacity="1" /><path clip-path="url(#clip270)" d="M1646.78 1577.5 Q1644.3 1583.86 1641.95 1585.8 Q1639.59 1587.74 1635.64 1587.74 L1630.96 1587.74 L1630.96 1582.84 L1634.4 1582.84 Q1636.82 1582.84 1638.16 1581.7 Q1639.49 1580.55 1641.12 1576.29 L1642.17 1573.61 L1627.75 1538.54 L1633.96 1538.54 L1645.1 1566.42 L1656.24 1538.54 L1662.44 1538.54 L1646.78 1577.5 Z" fill="#000000" fill-rule="evenodd" fill-opacity="1" /><path clip-path="url(#clip270)" d="M1684.21 1524.66 L1684.21 1582.78 L1670.72 1582.78 L1670.72 1578.23 L1678.33 1578.23 L1678.33 1529.21 L1670.72 1529.21 L1670.72 1524.66 L1684.21 1524.66 Z" fill="#000000" fill-rule="evenodd" fill-opacity="1" /><polyline clip-path="url(#clip272)" style="stroke:#000000; stroke-linecap:butt; stroke-linejoin:round; stroke-width:2; stroke-opacity:0.1; fill:none" points="
  247.459,1185.13 2352.76,1185.13 
  "/>
<polyline clip-path="url(#clip272)" style="stroke:#000000; stroke-linecap:butt; stroke-linejoin:round; stroke-width:2; stroke-opacity:0.1; fill:none" points="
  247.459,937.539 2352.76,937.539 
  "/>
<polyline clip-path="url(#clip272)" style="stroke:#000000; stroke-linecap:butt; stroke-linejoin:round; stroke-width:2; stroke-opacity:0.1; fill:none" points="
  247.459,689.952 2352.76,689.952 
  "/>
<polyline clip-path="url(#clip272)" style="stroke:#000000; stroke-linecap:butt; stroke-linejoin:round; stroke-width:2; stroke-opacity:0.1; fill:none" points="
  247.459,442.364 2352.76,442.364 
  "/>
<polyline clip-path="url(#clip272)" style="stroke:#000000; stroke-linecap:butt; stroke-linejoin:round; stroke-width:2; stroke-opacity:0.1; fill:none" points="
  247.459,194.777 2352.76,194.777 
  "/>
<polyline clip-path="url(#clip270)" style="stroke:#000000; stroke-linecap:butt; stroke-linejoin:round; stroke-width:4; stroke-opacity:1; fill:none" points="
  247.459,1410.9 247.459,47.2441 
  "/>
<polyline clip-path="url(#clip270)" style="stroke:#000000; stroke-linecap:butt; stroke-linejoin:round; stroke-width:4; stroke-opacity:1; fill:none" points="
  247.459,1185.13 266.356,1185.13 
  "/>
<polyline clip-path="url(#clip270)" style="stroke:#000000; stroke-linecap:butt; stroke-linejoin:round; stroke-width:4; stroke-opacity:1; fill:none" points="
  247.459,937.539 266.356,937.539 
  "/>
<polyline clip-path="url(#clip270)" style="stroke:#000000; stroke-linecap:butt; stroke-linejoin:round; stroke-width:4; stroke-opacity:1; fill:none" points="
  247.459,689.952 266.356,689.952 
  "/>
<polyline clip-path="url(#clip270)" style="stroke:#000000; stroke-linecap:butt; stroke-linejoin:round; stroke-width:4; stroke-opacity:1; fill:none" points="
  247.459,442.364 266.356,442.364 
  "/>
<polyline clip-path="url(#clip270)" style="stroke:#000000; stroke-linecap:butt; stroke-linejoin:round; stroke-width:4; stroke-opacity:1; fill:none" points="
  247.459,194.777 266.356,194.777 
  "/>
<path clip-path="url(#clip270)" d="M144.329 1167.85 L162.686 1167.85 L162.686 1171.78 L148.612 1171.78 L148.612 1180.25 Q149.63 1179.91 150.649 1179.74 Q151.667 1179.56 152.686 1179.56 Q158.473 1179.56 161.852 1182.73 Q165.232 1185.9 165.232 1191.32 Q165.232 1196.9 161.76 1200 Q158.288 1203.08 151.968 1203.08 Q149.792 1203.08 147.524 1202.71 Q145.279 1202.34 142.871 1201.6 L142.871 1196.9 Q144.954 1198.03 147.177 1198.59 Q149.399 1199.14 151.876 1199.14 Q155.88 1199.14 158.218 1197.04 Q160.556 1194.93 160.556 1191.32 Q160.556 1187.71 158.218 1185.6 Q155.88 1183.49 151.876 1183.49 Q150.001 1183.49 148.126 1183.91 Q146.274 1184.33 144.329 1185.21 L144.329 1167.85 Z" fill="#000000" fill-rule="evenodd" fill-opacity="1" /><path clip-path="url(#clip270)" d="M174.445 1196.53 L179.329 1196.53 L179.329 1202.41 L174.445 1202.41 L174.445 1196.53 Z" fill="#000000" fill-rule="evenodd" fill-opacity="1" /><path clip-path="url(#clip270)" d="M199.514 1170.93 Q195.903 1170.93 194.075 1174.49 Q192.269 1178.03 192.269 1185.16 Q192.269 1192.27 194.075 1195.83 Q195.903 1199.37 199.514 1199.37 Q203.149 1199.37 204.954 1195.83 Q206.783 1192.27 206.783 1185.16 Q206.783 1178.03 204.954 1174.49 Q203.149 1170.93 199.514 1170.93 M199.514 1167.22 Q205.324 1167.22 208.38 1171.83 Q211.459 1176.41 211.459 1185.16 Q211.459 1193.89 208.38 1198.49 Q205.324 1203.08 199.514 1203.08 Q193.704 1203.08 190.625 1198.49 Q187.57 1193.89 187.57 1185.16 Q187.57 1176.41 190.625 1171.83 Q193.704 1167.22 199.514 1167.22 Z" fill="#000000" fill-rule="evenodd" fill-opacity="1" /><path clip-path="url(#clip270)" d="M144.098 920.259 L166.32 920.259 L166.32 922.25 L153.774 954.819 L148.89 954.819 L160.695 924.194 L144.098 924.194 L144.098 920.259 Z" fill="#000000" fill-rule="evenodd" fill-opacity="1" /><path clip-path="url(#clip270)" d="M175.44 948.939 L180.325 948.939 L180.325 954.819 L175.44 954.819 L175.44 948.939 Z" fill="#000000" fill-rule="evenodd" fill-opacity="1" /><path clip-path="url(#clip270)" d="M190.556 920.259 L208.912 920.259 L208.912 924.194 L194.838 924.194 L194.838 932.666 Q195.857 932.319 196.875 932.157 Q197.894 931.972 198.912 931.972 Q204.699 931.972 208.079 935.143 Q211.459 938.315 211.459 943.731 Q211.459 949.31 207.987 952.412 Q204.514 955.49 198.195 955.49 Q196.019 955.49 193.75 955.12 Q191.505 954.75 189.098 954.009 L189.098 949.31 Q191.181 950.444 193.403 951 Q195.625 951.555 198.102 951.555 Q202.107 951.555 204.445 949.449 Q206.783 947.342 206.783 943.731 Q206.783 940.12 204.445 938.014 Q202.107 935.907 198.102 935.907 Q196.227 935.907 194.352 936.324 Q192.5 936.74 190.556 937.62 L190.556 920.259 Z" fill="#000000" fill-rule="evenodd" fill-opacity="1" /><path clip-path="url(#clip270)" d="M114.931 703.296 L122.57 703.296 L122.57 676.931 L114.26 678.597 L114.26 674.338 L122.524 672.672 L127.2 672.672 L127.2 703.296 L134.839 703.296 L134.839 707.232 L114.931 707.232 L114.931 703.296 Z" fill="#000000" fill-rule="evenodd" fill-opacity="1" /><path clip-path="url(#clip270)" d="M154.283 675.75 Q150.672 675.75 148.843 679.315 Q147.038 682.857 147.038 689.986 Q147.038 697.093 148.843 700.658 Q150.672 704.199 154.283 704.199 Q157.917 704.199 159.723 700.658 Q161.552 697.093 161.552 689.986 Q161.552 682.857 159.723 679.315 Q157.917 675.75 154.283 675.75 M154.283 672.047 Q160.093 672.047 163.149 676.653 Q166.227 681.236 166.227 689.986 Q166.227 698.713 163.149 703.32 Q160.093 707.903 154.283 707.903 Q148.473 707.903 145.394 703.32 Q142.339 698.713 142.339 689.986 Q142.339 681.236 145.394 676.653 Q148.473 672.047 154.283 672.047 Z" fill="#000000" fill-rule="evenodd" fill-opacity="1" /><path clip-path="url(#clip270)" d="M174.445 701.352 L179.329 701.352 L179.329 707.232 L174.445 707.232 L174.445 701.352 Z" fill="#000000" fill-rule="evenodd" fill-opacity="1" /><path clip-path="url(#clip270)" d="M199.514 675.75 Q195.903 675.75 194.075 679.315 Q192.269 682.857 192.269 689.986 Q192.269 697.093 194.075 700.658 Q195.903 704.199 199.514 704.199 Q203.149 704.199 204.954 700.658 Q206.783 697.093 206.783 689.986 Q206.783 682.857 204.954 679.315 Q203.149 675.75 199.514 675.75 M199.514 672.047 Q205.324 672.047 208.38 676.653 Q211.459 681.236 211.459 689.986 Q211.459 698.713 208.38 703.32 Q205.324 707.903 199.514 707.903 Q193.704 707.903 190.625 703.32 Q187.57 698.713 187.57 689.986 Q187.57 681.236 190.625 676.653 Q193.704 672.047 199.514 672.047 Z" fill="#000000" fill-rule="evenodd" fill-opacity="1" /><path clip-path="url(#clip270)" d="M115.927 455.709 L123.566 455.709 L123.566 429.343 L115.256 431.01 L115.256 426.751 L123.519 425.084 L128.195 425.084 L128.195 455.709 L135.834 455.709 L135.834 459.644 L115.927 459.644 L115.927 455.709 Z" fill="#000000" fill-rule="evenodd" fill-opacity="1" /><path clip-path="url(#clip270)" d="M149.306 455.709 L165.626 455.709 L165.626 459.644 L143.681 459.644 L143.681 455.709 Q146.343 452.954 150.927 448.325 Q155.533 443.672 156.714 442.329 Q158.959 439.806 159.839 438.07 Q160.741 436.311 160.741 434.621 Q160.741 431.866 158.797 430.13 Q156.876 428.394 153.774 428.394 Q151.575 428.394 149.121 429.158 Q146.691 429.922 143.913 431.473 L143.913 426.751 Q146.737 425.616 149.191 425.038 Q151.644 424.459 153.681 424.459 Q159.052 424.459 162.246 427.144 Q165.44 429.829 165.44 434.32 Q165.44 436.45 164.63 438.371 Q163.843 440.269 161.737 442.862 Q161.158 443.533 158.056 446.751 Q154.954 449.945 149.306 455.709 Z" fill="#000000" fill-rule="evenodd" fill-opacity="1" /><path clip-path="url(#clip270)" d="M175.44 453.764 L180.325 453.764 L180.325 459.644 L175.44 459.644 L175.44 453.764 Z" fill="#000000" fill-rule="evenodd" fill-opacity="1" /><path clip-path="url(#clip270)" d="M190.556 425.084 L208.912 425.084 L208.912 429.019 L194.838 429.019 L194.838 437.491 Q195.857 437.144 196.875 436.982 Q197.894 436.797 198.912 436.797 Q204.699 436.797 208.079 439.968 Q211.459 443.139 211.459 448.556 Q211.459 454.135 207.987 457.237 Q204.514 460.315 198.195 460.315 Q196.019 460.315 193.75 459.945 Q191.505 459.575 189.098 458.834 L189.098 454.135 Q191.181 455.269 193.403 455.825 Q195.625 456.38 198.102 456.38 Q202.107 456.38 204.445 454.274 Q206.783 452.167 206.783 448.556 Q206.783 444.945 204.445 442.839 Q202.107 440.732 198.102 440.732 Q196.227 440.732 194.352 441.149 Q192.5 441.565 190.556 442.445 L190.556 425.084 Z" fill="#000000" fill-rule="evenodd" fill-opacity="1" /><path clip-path="url(#clip270)" d="M114.931 208.121 L122.57 208.121 L122.57 181.756 L114.26 183.422 L114.26 179.163 L122.524 177.497 L127.2 177.497 L127.2 208.121 L134.839 208.121 L134.839 212.057 L114.931 212.057 L114.931 208.121 Z" fill="#000000" fill-rule="evenodd" fill-opacity="1" /><path clip-path="url(#clip270)" d="M144.329 177.497 L162.686 177.497 L162.686 181.432 L148.612 181.432 L148.612 189.904 Q149.63 189.557 150.649 189.395 Q151.667 189.209 152.686 189.209 Q158.473 189.209 161.852 192.381 Q165.232 195.552 165.232 200.969 Q165.232 206.547 161.76 209.649 Q158.288 212.728 151.968 212.728 Q149.792 212.728 147.524 212.357 Q145.279 211.987 142.871 211.246 L142.871 206.547 Q144.954 207.682 147.177 208.237 Q149.399 208.793 151.876 208.793 Q155.88 208.793 158.218 206.686 Q160.556 204.58 160.556 200.969 Q160.556 197.358 158.218 195.251 Q155.88 193.145 151.876 193.145 Q150.001 193.145 148.126 193.561 Q146.274 193.978 144.329 194.858 L144.329 177.497 Z" fill="#000000" fill-rule="evenodd" fill-opacity="1" /><path clip-path="url(#clip270)" d="M174.445 206.177 L179.329 206.177 L179.329 212.057 L174.445 212.057 L174.445 206.177 Z" fill="#000000" fill-rule="evenodd" fill-opacity="1" /><path clip-path="url(#clip270)" d="M199.514 180.575 Q195.903 180.575 194.075 184.14 Q192.269 187.682 192.269 194.811 Q192.269 201.918 194.075 205.482 Q195.903 209.024 199.514 209.024 Q203.149 209.024 204.954 205.482 Q206.783 201.918 206.783 194.811 Q206.783 187.682 204.954 184.14 Q203.149 180.575 199.514 180.575 M199.514 176.872 Q205.324 176.872 208.38 181.478 Q211.459 186.061 211.459 194.811 Q211.459 203.538 208.38 208.145 Q205.324 212.728 199.514 212.728 Q193.704 212.728 190.625 208.145 Q187.57 203.538 187.57 194.811 Q187.57 186.061 190.625 181.478 Q193.704 176.872 199.514 176.872 Z" fill="#000000" fill-rule="evenodd" fill-opacity="1" /><path clip-path="url(#clip270)" d="M20.1444 847.457 L26.9239 847.457 Q23.9002 850.703 22.4043 854.395 Q20.9083 858.055 20.9083 862.193 Q20.9083 870.341 25.9054 874.67 Q30.8707 878.999 40.2919 878.999 Q49.6813 878.999 54.6784 874.67 Q59.6436 870.341 59.6436 862.193 Q59.6436 858.055 58.1477 854.395 Q56.6518 850.703 53.6281 847.457 L60.3439 847.457 Q62.6355 850.83 63.7814 854.618 Q64.9272 858.374 64.9272 862.575 Q64.9272 873.365 58.3387 879.572 Q51.7183 885.778 40.2919 885.778 Q28.8336 885.778 22.2451 879.572 Q15.6248 873.365 15.6248 862.575 Q15.6248 858.31 16.7706 854.554 Q17.8846 850.767 20.1444 847.457 Z" fill="#000000" fill-rule="evenodd" fill-opacity="1" /><path clip-path="url(#clip270)" d="M28.3562 840.327 L28.3562 812.509 L33.7034 812.509 L59.3254 834.534 L59.3254 812.509 L64.0042 812.509 L64.0042 841.123 L58.657 841.123 L33.035 819.097 L33.035 840.327 L28.3562 840.327 Z" fill="#000000" fill-rule="evenodd" fill-opacity="1" /><path clip-path="url(#clip270)" d="M46.0847 787.364 Q46.0847 794.462 47.7079 797.199 Q49.3312 799.937 53.2461 799.937 Q56.3653 799.937 58.2114 797.9 Q60.0256 795.831 60.0256 792.298 Q60.0256 787.428 56.5881 784.5 Q53.1188 781.54 47.3897 781.54 L46.0847 781.54 L46.0847 787.364 M43.6657 775.683 L64.0042 775.683 L64.0042 781.54 L58.5933 781.54 Q61.8398 783.545 63.3994 786.537 Q64.9272 789.529 64.9272 793.857 Q64.9272 799.332 61.8716 802.578 Q58.7843 805.793 53.6281 805.793 Q47.6125 805.793 44.5569 801.783 Q41.5014 797.74 41.5014 789.751 L41.5014 781.54 L40.9285 781.54 Q36.8862 781.54 34.6901 784.213 Q32.4621 786.855 32.4621 791.661 Q32.4621 794.717 33.1941 797.613 Q33.9262 800.51 35.3903 803.183 L29.9795 803.183 Q28.7381 799.968 28.1334 796.945 Q27.4968 793.921 27.4968 791.056 Q27.4968 783.322 31.5072 779.503 Q35.5176 775.683 43.6657 775.683 Z" fill="#000000" fill-rule="evenodd" fill-opacity="1" /><path clip-path="url(#clip270)" d="M29.4065 740.895 L34.9447 740.895 Q33.6716 743.377 33.035 746.051 Q32.3984 748.724 32.3984 751.589 Q32.3984 755.95 33.7352 758.146 Q35.072 760.31 37.7456 760.31 Q39.7826 760.31 40.9603 758.75 Q42.1061 757.191 43.1565 752.48 L43.6021 750.475 Q44.9389 744.237 47.3897 741.627 Q49.8086 738.985 54.1691 738.985 Q59.1344 738.985 62.0308 742.932 Q64.9272 746.847 64.9272 753.722 Q64.9272 756.586 64.3543 759.705 Q63.8132 762.793 62.6992 766.23 L56.6518 766.23 Q58.3387 762.984 59.198 759.833 Q60.0256 756.682 60.0256 753.594 Q60.0256 749.457 58.6251 747.229 Q57.1929 745.001 54.6147 745.001 Q52.2276 745.001 50.9545 746.624 Q49.6813 748.215 48.5037 753.658 L48.0262 755.695 Q46.8804 761.138 44.5251 763.557 Q42.138 765.976 38.0002 765.976 Q32.9713 765.976 30.2341 762.411 Q27.4968 758.846 27.4968 752.289 Q27.4968 749.043 27.9743 746.178 Q28.4517 743.314 29.4065 740.895 Z" fill="#000000" fill-rule="evenodd" fill-opacity="1" /><path clip-path="url(#clip270)" d="M14.479 709.48 L14.479 695.985 L19.0304 695.985 L19.0304 703.623 L68.0464 703.623 L68.0464 695.985 L72.5979 695.985 L72.5979 709.48 L14.479 709.48 Z" fill="#000000" fill-rule="evenodd" fill-opacity="1" /><path clip-path="url(#clip270)" d="M35.1993 655.753 Q31.2526 653.557 29.3747 650.502 Q27.4968 647.446 27.4968 643.308 Q27.4968 637.738 31.4117 634.715 Q35.2948 631.691 42.4881 631.691 L64.0042 631.691 L64.0042 637.579 L42.679 637.579 Q37.5546 637.579 35.072 639.393 Q32.5894 641.208 32.5894 644.932 Q32.5894 649.483 35.6131 652.125 Q38.6368 654.767 43.8567 654.767 L64.0042 654.767 L64.0042 660.655 L42.679 660.655 Q37.5228 660.655 35.072 662.469 Q32.5894 664.283 32.5894 668.071 Q32.5894 672.559 35.6449 675.201 Q38.6686 677.842 43.8567 677.842 L64.0042 677.842 L64.0042 683.731 L28.3562 683.731 L28.3562 677.842 L33.8944 677.842 Q30.616 675.837 29.0564 673.036 Q27.4968 670.235 27.4968 666.384 Q27.4968 662.501 29.4702 659.796 Q31.4436 657.058 35.1993 655.753 Z" fill="#000000" fill-rule="evenodd" fill-opacity="1" /><path clip-path="url(#clip270)" d="M29.4065 597.284 L34.9447 597.284 Q33.6716 599.767 33.035 602.441 Q32.3984 605.114 32.3984 607.979 Q32.3984 612.339 33.7352 614.535 Q35.072 616.7 37.7456 616.7 Q39.7826 616.7 40.9603 615.14 Q42.1061 613.581 43.1565 608.87 L43.6021 606.865 Q44.9389 600.626 47.3897 598.016 Q49.8086 595.375 54.1691 595.375 Q59.1344 595.375 62.0308 599.321 Q64.9272 603.236 64.9272 610.111 Q64.9272 612.976 64.3543 616.095 Q63.8132 619.182 62.6992 622.62 L56.6518 622.62 Q58.3387 619.373 59.198 616.222 Q60.0256 613.071 60.0256 609.984 Q60.0256 605.846 58.6251 603.618 Q57.1929 601.39 54.6147 601.39 Q52.2276 601.39 50.9545 603.013 Q49.6813 604.605 48.5037 610.048 L48.0262 612.085 Q46.8804 617.527 44.5251 619.946 Q42.138 622.365 38.0002 622.365 Q32.9713 622.365 30.2341 618.8 Q27.4968 615.236 27.4968 608.679 Q27.4968 605.432 27.9743 602.568 Q28.4517 599.703 29.4065 597.284 Z" fill="#000000" fill-rule="evenodd" fill-opacity="1" /><path clip-path="url(#clip270)" d="M14.479 572.363 L72.5979 572.363 L72.5979 585.858 L68.0464 585.858 L68.0464 578.251 L19.0304 578.251 L19.0304 585.858 L14.479 585.858 L14.479 572.363 Z" fill="#000000" fill-rule="evenodd" fill-opacity="1" /><circle clip-path="url(#clip272)" cx="307.043" cy="1263.36" r="14" fill="#009af9" fill-rule="evenodd" fill-opacity="1" stroke="#000000" stroke-opacity="1" stroke-width="3.2"/>
<circle clip-path="url(#clip272)" cx="337.671" cy="1277.23" r="14" fill="#009af9" fill-rule="evenodd" fill-opacity="1" stroke="#000000" stroke-opacity="1" stroke-width="3.2"/>
<circle clip-path="url(#clip272)" cx="365.068" cy="1337.64" r="14" fill="#009af9" fill-rule="evenodd" fill-opacity="1" stroke="#000000" stroke-opacity="1" stroke-width="3.2"/>
<circle clip-path="url(#clip272)" cx="389.853" cy="1308.92" r="14" fill="#009af9" fill-rule="evenodd" fill-opacity="1" stroke="#000000" stroke-opacity="1" stroke-width="3.2"/>
<circle clip-path="url(#clip272)" cx="412.479" cy="1372.3" r="14" fill="#009af9" fill-rule="evenodd" fill-opacity="1" stroke="#000000" stroke-opacity="1" stroke-width="3.2"/>
<circle clip-path="url(#clip272)" cx="433.293" cy="1287.13" r="14" fill="#009af9" fill-rule="evenodd" fill-opacity="1" stroke="#000000" stroke-opacity="1" stroke-width="3.2"/>
<circle clip-path="url(#clip272)" cx="461.689" cy="1349.52" r="14" fill="#009af9" fill-rule="evenodd" fill-opacity="1" stroke="#000000" stroke-opacity="1" stroke-width="3.2"/>
<circle clip-path="url(#clip272)" cx="487.287" cy="1289.11" r="14" fill="#009af9" fill-rule="evenodd" fill-opacity="1" stroke="#000000" stroke-opacity="1" stroke-width="3.2"/>
<circle clip-path="url(#clip272)" cx="510.59" cy="1235.63" r="14" fill="#009af9" fill-rule="evenodd" fill-opacity="1" stroke="#000000" stroke-opacity="1" stroke-width="3.2"/>
<circle clip-path="url(#clip272)" cx="531.975" cy="1237.62" r="14" fill="#009af9" fill-rule="evenodd" fill-opacity="1" stroke="#000000" stroke-opacity="1" stroke-width="3.2"/>
<circle clip-path="url(#clip272)" cx="558.001" cy="1356.46" r="14" fill="#009af9" fill-rule="evenodd" fill-opacity="1" stroke="#000000" stroke-opacity="1" stroke-width="3.2"/>
<circle clip-path="url(#clip272)" cx="581.657" cy="1230.68" r="14" fill="#009af9" fill-rule="evenodd" fill-opacity="1" stroke="#000000" stroke-opacity="1" stroke-width="3.2"/>
<circle clip-path="url(#clip272)" cx="608.488" cy="1349.52" r="14" fill="#009af9" fill-rule="evenodd" fill-opacity="1" stroke="#000000" stroke-opacity="1" stroke-width="3.2"/>
<circle clip-path="url(#clip272)" cx="632.809" cy="1354.48" r="14" fill="#009af9" fill-rule="evenodd" fill-opacity="1" stroke="#000000" stroke-opacity="1" stroke-width="3.2"/>
<circle clip-path="url(#clip272)" cx="659.276" cy="1259.4" r="14" fill="#009af9" fill-rule="evenodd" fill-opacity="1" stroke="#000000" stroke-opacity="1" stroke-width="3.2"/>
<circle clip-path="url(#clip272)" cx="683.297" cy="1363.39" r="14" fill="#009af9" fill-rule="evenodd" fill-opacity="1" stroke="#000000" stroke-opacity="1" stroke-width="3.2"/>
<circle clip-path="url(#clip272)" cx="708.775" cy="1220.78" r="14" fill="#009af9" fill-rule="evenodd" fill-opacity="1" stroke="#000000" stroke-opacity="1" stroke-width="3.2"/>
<circle clip-path="url(#clip272)" cx="731.979" cy="1343.58" r="14" fill="#009af9" fill-rule="evenodd" fill-opacity="1" stroke="#000000" stroke-opacity="1" stroke-width="3.2"/>
<circle clip-path="url(#clip272)" cx="756.186" cy="1237.62" r="14" fill="#009af9" fill-rule="evenodd" fill-opacity="1" stroke="#000000" stroke-opacity="1" stroke-width="3.2"/>
<circle clip-path="url(#clip272)" cx="780.97" cy="1309.91" r="14" fill="#009af9" fill-rule="evenodd" fill-opacity="1" stroke="#000000" stroke-opacity="1" stroke-width="3.2"/>
<circle clip-path="url(#clip272)" cx="805.993" cy="1320.8" r="14" fill="#009af9" fill-rule="evenodd" fill-opacity="1" stroke="#000000" stroke-opacity="1" stroke-width="3.2"/>
<circle clip-path="url(#clip272)" cx="830.994" cy="1256.43" r="14" fill="#009af9" fill-rule="evenodd" fill-opacity="1" stroke="#000000" stroke-opacity="1" stroke-width="3.2"/>
<circle clip-path="url(#clip272)" cx="855.779" cy="1256.43" r="14" fill="#009af9" fill-rule="evenodd" fill-opacity="1" stroke="#000000" stroke-opacity="1" stroke-width="3.2"/>
<circle clip-path="url(#clip272)" cx="880.205" cy="1215.83" r="14" fill="#009af9" fill-rule="evenodd" fill-opacity="1" stroke="#000000" stroke-opacity="1" stroke-width="3.2"/>
<circle clip-path="url(#clip272)" cx="905.803" cy="1276.24" r="14" fill="#009af9" fill-rule="evenodd" fill-opacity="1" stroke="#000000" stroke-opacity="1" stroke-width="3.2"/>
<circle clip-path="url(#clip272)" cx="930.587" cy="1239.6" r="14" fill="#009af9" fill-rule="evenodd" fill-opacity="1" stroke="#000000" stroke-opacity="1" stroke-width="3.2"/>
<circle clip-path="url(#clip272)" cx="955.908" cy="1341.6" r="14" fill="#009af9" fill-rule="evenodd" fill-opacity="1" stroke="#000000" stroke-opacity="1" stroke-width="3.2"/>
<circle clip-path="url(#clip272)" cx="980.204" cy="1322.79" r="14" fill="#009af9" fill-rule="evenodd" fill-opacity="1" stroke="#000000" stroke-opacity="1" stroke-width="3.2"/>
<circle clip-path="url(#clip272)" cx="1004.66" cy="1310.9" r="14" fill="#009af9" fill-rule="evenodd" fill-opacity="1" stroke="#000000" stroke-opacity="1" stroke-width="3.2"/>
<circle clip-path="url(#clip272)" cx="1029.04" cy="1264.35" r="14" fill="#009af9" fill-rule="evenodd" fill-opacity="1" stroke="#000000" stroke-opacity="1" stroke-width="3.2"/>
<circle clip-path="url(#clip272)" cx="1054.1" cy="1206.91" r="14" fill="#009af9" fill-rule="evenodd" fill-opacity="1" stroke="#000000" stroke-opacity="1" stroke-width="3.2"/>
<circle clip-path="url(#clip272)" cx="1078.63" cy="1289.11" r="14" fill="#009af9" fill-rule="evenodd" fill-opacity="1" stroke="#000000" stroke-opacity="1" stroke-width="3.2"/>
<circle clip-path="url(#clip272)" cx="1103.34" cy="1252.47" r="14" fill="#009af9" fill-rule="evenodd" fill-opacity="1" stroke="#000000" stroke-opacity="1" stroke-width="3.2"/>
<circle clip-path="url(#clip272)" cx="1127.98" cy="1243.56" r="14" fill="#009af9" fill-rule="evenodd" fill-opacity="1" stroke="#000000" stroke-opacity="1" stroke-width="3.2"/>
<circle clip-path="url(#clip272)" cx="1153.02" cy="1263.36" r="14" fill="#009af9" fill-rule="evenodd" fill-opacity="1" stroke="#000000" stroke-opacity="1" stroke-width="3.2"/>
<circle clip-path="url(#clip272)" cx="1177.57" cy="1198.99" r="14" fill="#009af9" fill-rule="evenodd" fill-opacity="1" stroke="#000000" stroke-opacity="1" stroke-width="3.2"/>
<circle clip-path="url(#clip272)" cx="1202.62" cy="1288.12" r="14" fill="#009af9" fill-rule="evenodd" fill-opacity="1" stroke="#000000" stroke-opacity="1" stroke-width="3.2"/>
<circle clip-path="url(#clip272)" cx="1227.36" cy="1212.86" r="14" fill="#009af9" fill-rule="evenodd" fill-opacity="1" stroke="#000000" stroke-opacity="1" stroke-width="3.2"/>
<circle clip-path="url(#clip272)" cx="1252.1" cy="1205.92" r="14" fill="#009af9" fill-rule="evenodd" fill-opacity="1" stroke="#000000" stroke-opacity="1" stroke-width="3.2"/>
<circle clip-path="url(#clip272)" cx="1277.04" cy="1208.89" r="14" fill="#009af9" fill-rule="evenodd" fill-opacity="1" stroke="#000000" stroke-opacity="1" stroke-width="3.2"/>
<circle clip-path="url(#clip272)" cx="1301.93" cy="1289.11" r="14" fill="#009af9" fill-rule="evenodd" fill-opacity="1" stroke="#000000" stroke-opacity="1" stroke-width="3.2"/>
<circle clip-path="url(#clip272)" cx="1326.58" cy="1152.44" r="14" fill="#009af9" fill-rule="evenodd" fill-opacity="1" stroke="#000000" stroke-opacity="1" stroke-width="3.2"/>
<circle clip-path="url(#clip272)" cx="1351.46" cy="1259.4" r="14" fill="#009af9" fill-rule="evenodd" fill-opacity="1" stroke="#000000" stroke-opacity="1" stroke-width="3.2"/>
<circle clip-path="url(#clip272)" cx="1376.29" cy="1162.35" r="14" fill="#009af9" fill-rule="evenodd" fill-opacity="1" stroke="#000000" stroke-opacity="1" stroke-width="3.2"/>
<circle clip-path="url(#clip272)" cx="1401.15" cy="1211.87" r="14" fill="#009af9" fill-rule="evenodd" fill-opacity="1" stroke="#000000" stroke-opacity="1" stroke-width="3.2"/>
<circle clip-path="url(#clip272)" cx="1425.82" cy="1212.86" r="14" fill="#009af9" fill-rule="evenodd" fill-opacity="1" stroke="#000000" stroke-opacity="1" stroke-width="3.2"/>
<circle clip-path="url(#clip272)" cx="1450.57" cy="1126.7" r="14" fill="#009af9" fill-rule="evenodd" fill-opacity="1" stroke="#000000" stroke-opacity="1" stroke-width="3.2"/>
<circle clip-path="url(#clip272)" cx="1475.35" cy="1197.01" r="14" fill="#009af9" fill-rule="evenodd" fill-opacity="1" stroke="#000000" stroke-opacity="1" stroke-width="3.2"/>
<circle clip-path="url(#clip272)" cx="1500.14" cy="1214.84" r="14" fill="#e26f46" fill-rule="evenodd" fill-opacity="1" stroke="#000000" stroke-opacity="1" stroke-width="3.2"/>
<circle clip-path="url(#clip272)" cx="1524.88" cy="1202.95" r="14" fill="#e26f46" fill-rule="evenodd" fill-opacity="1" stroke="#000000" stroke-opacity="1" stroke-width="3.2"/>
<circle clip-path="url(#clip272)" cx="1549.66" cy="1201.96" r="14" fill="#e26f46" fill-rule="evenodd" fill-opacity="1" stroke="#000000" stroke-opacity="1" stroke-width="3.2"/>
<circle clip-path="url(#clip272)" cx="1574.41" cy="1200.97" r="14" fill="#e26f46" fill-rule="evenodd" fill-opacity="1" stroke="#000000" stroke-opacity="1" stroke-width="3.2"/>
<circle clip-path="url(#clip272)" cx="1599.16" cy="1122.73" r="14" fill="#e26f46" fill-rule="evenodd" fill-opacity="1" stroke="#000000" stroke-opacity="1" stroke-width="3.2"/>
<circle clip-path="url(#clip272)" cx="1623.92" cy="1155.42" r="14" fill="#e26f46" fill-rule="evenodd" fill-opacity="1" stroke="#000000" stroke-opacity="1" stroke-width="3.2"/>
<circle clip-path="url(#clip272)" cx="1648.69" cy="1123.72" r="14" fill="#e26f46" fill-rule="evenodd" fill-opacity="1" stroke="#000000" stroke-opacity="1" stroke-width="3.2"/>
<circle clip-path="url(#clip272)" cx="1673.51" cy="1175.22" r="14" fill="#e26f46" fill-rule="evenodd" fill-opacity="1" stroke="#000000" stroke-opacity="1" stroke-width="3.2"/>
<circle clip-path="url(#clip272)" cx="1698.27" cy="1144.52" r="14" fill="#e26f46" fill-rule="evenodd" fill-opacity="1" stroke="#000000" stroke-opacity="1" stroke-width="3.2"/>
<circle clip-path="url(#clip272)" cx="1723.05" cy="1091.04" r="14" fill="#e26f46" fill-rule="evenodd" fill-opacity="1" stroke="#000000" stroke-opacity="1" stroke-width="3.2"/>
<circle clip-path="url(#clip272)" cx="1747.86" cy="1148.48" r="14" fill="#e26f46" fill-rule="evenodd" fill-opacity="1" stroke="#000000" stroke-opacity="1" stroke-width="3.2"/>
<circle clip-path="url(#clip272)" cx="1772.65" cy="1010.82" r="14" fill="#e26f46" fill-rule="evenodd" fill-opacity="1" stroke="#000000" stroke-opacity="1" stroke-width="3.2"/>
<circle clip-path="url(#clip272)" cx="1797.46" cy="1107.88" r="14" fill="#e26f46" fill-rule="evenodd" fill-opacity="1" stroke="#000000" stroke-opacity="1" stroke-width="3.2"/>
<circle clip-path="url(#clip272)" cx="1822.22" cy="1042.52" r="14" fill="#e26f46" fill-rule="evenodd" fill-opacity="1" stroke="#000000" stroke-opacity="1" stroke-width="3.2"/>
<circle clip-path="url(#clip272)" cx="1847.01" cy="892.973" r="14" fill="#e26f46" fill-rule="evenodd" fill-opacity="1" stroke="#000000" stroke-opacity="1" stroke-width="3.2"/>
<circle clip-path="url(#clip272)" cx="1871.79" cy="1038.55" r="14" fill="#e26f46" fill-rule="evenodd" fill-opacity="1" stroke="#000000" stroke-opacity="1" stroke-width="3.2"/>
<circle clip-path="url(#clip272)" cx="1896.58" cy="998.941" r="14" fill="#e26f46" fill-rule="evenodd" fill-opacity="1" stroke="#000000" stroke-opacity="1" stroke-width="3.2"/>
<circle clip-path="url(#clip272)" cx="1921.38" cy="983.095" r="14" fill="#e26f46" fill-rule="evenodd" fill-opacity="1" stroke="#000000" stroke-opacity="1" stroke-width="3.2"/>
<circle clip-path="url(#clip272)" cx="1946.17" cy="590.917" r="14" fill="#e26f46" fill-rule="evenodd" fill-opacity="1" stroke="#000000" stroke-opacity="1" stroke-width="3.2"/>
<circle clip-path="url(#clip272)" cx="1970.95" cy="871.186" r="14" fill="#e26f46" fill-rule="evenodd" fill-opacity="1" stroke="#000000" stroke-opacity="1" stroke-width="3.2"/>
<circle clip-path="url(#clip272)" cx="1995.74" cy="881.089" r="14" fill="#e26f46" fill-rule="evenodd" fill-opacity="1" stroke="#000000" stroke-opacity="1" stroke-width="3.2"/>
<circle clip-path="url(#clip272)" cx="2020.53" cy="670.145" r="14" fill="#e26f46" fill-rule="evenodd" fill-opacity="1" stroke="#000000" stroke-opacity="1" stroke-width="3.2"/>
<circle clip-path="url(#clip272)" cx="2045.32" cy="708.768" r="14" fill="#e26f46" fill-rule="evenodd" fill-opacity="1" stroke="#000000" stroke-opacity="1" stroke-width="3.2"/>
<circle clip-path="url(#clip272)" cx="2070.1" cy="702.826" r="14" fill="#e26f46" fill-rule="evenodd" fill-opacity="1" stroke="#000000" stroke-opacity="1" stroke-width="3.2"/>
<circle clip-path="url(#clip272)" cx="2094.88" cy="691.932" r="14" fill="#e26f46" fill-rule="evenodd" fill-opacity="1" stroke="#000000" stroke-opacity="1" stroke-width="3.2"/>
<circle clip-path="url(#clip272)" cx="2119.67" cy="561.206" r="14" fill="#e26f46" fill-rule="evenodd" fill-opacity="1" stroke="#000000" stroke-opacity="1" stroke-width="3.2"/>
<circle clip-path="url(#clip272)" cx="2144.46" cy="581.013" r="14" fill="#e26f46" fill-rule="evenodd" fill-opacity="1" stroke="#000000" stroke-opacity="1" stroke-width="3.2"/>
<circle clip-path="url(#clip272)" cx="2169.24" cy="571.11" r="14" fill="#e26f46" fill-rule="evenodd" fill-opacity="1" stroke="#000000" stroke-opacity="1" stroke-width="3.2"/>
<circle clip-path="url(#clip272)" cx="2194.03" cy="402.75" r="14" fill="#e26f46" fill-rule="evenodd" fill-opacity="1" stroke="#000000" stroke-opacity="1" stroke-width="3.2"/>
<circle clip-path="url(#clip272)" cx="2218.81" cy="254.198" r="14" fill="#e26f46" fill-rule="evenodd" fill-opacity="1" stroke="#000000" stroke-opacity="1" stroke-width="3.2"/>
<circle clip-path="url(#clip272)" cx="2243.6" cy="135.356" r="14" fill="#e26f46" fill-rule="evenodd" fill-opacity="1" stroke="#000000" stroke-opacity="1" stroke-width="3.2"/>
<circle clip-path="url(#clip272)" cx="2268.38" cy="303.715" r="14" fill="#e26f46" fill-rule="evenodd" fill-opacity="1" stroke="#000000" stroke-opacity="1" stroke-width="3.2"/>
<circle clip-path="url(#clip272)" cx="2293.17" cy="85.838" r="14" fill="#e26f46" fill-rule="evenodd" fill-opacity="1" stroke="#000000" stroke-opacity="1" stroke-width="3.2"/>
<path clip-path="url(#clip270)" d="
M317.635 248.219 L980.652 248.219 L980.652 92.6992 L317.635 92.6992  Z
  " fill="#ffffff" fill-rule="evenodd" fill-opacity="1"/>
<polyline clip-path="url(#clip270)" style="stroke:#000000; stroke-linecap:butt; stroke-linejoin:round; stroke-width:4; stroke-opacity:1; fill:none" points="
  317.635,248.219 980.652,248.219 980.652,92.6992 317.635,92.6992 317.635,248.219 
  "/>
<circle clip-path="url(#clip270)" cx="411.204" cy="144.539" r="23" fill="#009af9" fill-rule="evenodd" fill-opacity="1" stroke="#000000" stroke-opacity="1" stroke-width="5.12"/>
<path clip-path="url(#clip270)" d="M511.879 127.259 L516.555 127.259 L516.555 159.412 Q516.555 165.662 514.171 168.486 Q511.81 171.31 506.555 171.31 L504.773 171.31 L504.773 167.375 L506.231 167.375 Q509.333 167.375 510.606 165.639 Q511.879 163.903 511.879 159.412 L511.879 127.259 Z" fill="#000000" fill-rule="evenodd" fill-opacity="1" /><path clip-path="url(#clip270)" d="M547.851 147.791 L547.851 149.875 L528.268 149.875 Q528.546 154.273 530.907 156.588 Q533.291 158.879 537.527 158.879 Q539.981 158.879 542.273 158.278 Q544.587 157.676 546.856 156.472 L546.856 160.5 Q544.564 161.472 542.157 161.981 Q539.749 162.49 537.273 162.49 Q531.069 162.49 527.435 158.879 Q523.824 155.268 523.824 149.111 Q523.824 142.745 527.25 139.018 Q530.699 135.268 536.532 135.268 Q541.763 135.268 544.796 138.648 Q547.851 142.004 547.851 147.791 M543.592 146.541 Q543.546 143.046 541.624 140.963 Q539.726 138.879 536.578 138.879 Q533.013 138.879 530.861 140.893 Q528.731 142.907 528.407 146.565 L543.592 146.541 Z" fill="#000000" fill-rule="evenodd" fill-opacity="1" /><path clip-path="url(#clip270)" d="M571.902 139.829 L571.902 125.801 L576.161 125.801 L576.161 161.819 L571.902 161.819 L571.902 157.93 Q570.559 160.245 568.499 161.379 Q566.462 162.49 563.592 162.49 Q558.893 162.49 555.93 158.74 Q552.99 154.991 552.99 148.879 Q552.99 142.768 555.93 139.018 Q558.893 135.268 563.592 135.268 Q566.462 135.268 568.499 136.403 Q570.559 137.514 571.902 139.829 M557.388 148.879 Q557.388 153.578 559.31 156.264 Q561.254 158.926 564.634 158.926 Q568.013 158.926 569.958 156.264 Q571.902 153.578 571.902 148.879 Q571.902 144.18 569.958 141.518 Q568.013 138.833 564.634 138.833 Q561.254 138.833 559.31 141.518 Q557.388 144.18 557.388 148.879 Z" fill="#000000" fill-rule="evenodd" fill-opacity="1" /><path clip-path="url(#clip270)" d="M607.11 147.791 L607.11 149.875 L587.527 149.875 Q587.805 154.273 590.166 156.588 Q592.55 158.879 596.786 158.879 Q599.24 158.879 601.532 158.278 Q603.846 157.676 606.115 156.472 L606.115 160.5 Q603.823 161.472 601.416 161.981 Q599.008 162.49 596.532 162.49 Q590.328 162.49 586.694 158.879 Q583.083 155.268 583.083 149.111 Q583.083 142.745 586.508 139.018 Q589.958 135.268 595.791 135.268 Q601.022 135.268 604.055 138.648 Q607.11 142.004 607.11 147.791 M602.851 146.541 Q602.805 143.046 600.883 140.963 Q598.985 138.879 595.837 138.879 Q592.272 138.879 590.12 140.893 Q587.99 142.907 587.666 146.565 L602.851 146.541 Z" fill="#000000" fill-rule="evenodd" fill-opacity="1" /><path clip-path="url(#clip270)" d="M635.652 146.171 L635.652 161.819 L631.393 161.819 L631.393 146.31 Q631.393 142.629 629.957 140.801 Q628.522 138.972 625.652 138.972 Q622.203 138.972 620.212 141.171 Q618.221 143.37 618.221 147.166 L618.221 161.819 L613.939 161.819 L613.939 135.893 L618.221 135.893 L618.221 139.921 Q619.749 137.583 621.809 136.426 Q623.893 135.268 626.601 135.268 Q631.068 135.268 633.36 138.046 Q635.652 140.801 635.652 146.171 Z" fill="#000000" fill-rule="evenodd" fill-opacity="1" /><path clip-path="url(#clip270)" d="M672.341 125.801 L672.341 129.343 L668.267 129.343 Q665.976 129.343 665.073 130.268 Q664.193 131.194 664.193 133.602 L664.193 135.893 L671.207 135.893 L671.207 139.204 L664.193 139.204 L664.193 161.819 L659.911 161.819 L659.911 139.204 L655.837 139.204 L655.837 135.893 L659.911 135.893 L659.911 134.088 Q659.911 129.759 661.925 127.792 Q663.939 125.801 668.314 125.801 L672.341 125.801 Z" fill="#000000" fill-rule="evenodd" fill-opacity="1" /><path clip-path="url(#clip270)" d="M690.929 139.875 Q690.212 139.458 689.355 139.273 Q688.522 139.065 687.503 139.065 Q683.892 139.065 681.948 141.426 Q680.027 143.764 680.027 148.162 L680.027 161.819 L675.744 161.819 L675.744 135.893 L680.027 135.893 L680.027 139.921 Q681.369 137.56 683.522 136.426 Q685.675 135.268 688.753 135.268 Q689.193 135.268 689.726 135.338 Q690.258 135.384 690.906 135.5 L690.929 139.875 Z" fill="#000000" fill-rule="evenodd" fill-opacity="1" /><path clip-path="url(#clip270)" d="M707.179 148.787 Q702.017 148.787 700.026 149.967 Q698.036 151.148 698.036 153.995 Q698.036 156.264 699.517 157.606 Q701.022 158.926 703.591 158.926 Q707.133 158.926 709.262 156.426 Q711.415 153.903 711.415 149.736 L711.415 148.787 L707.179 148.787 M715.674 147.028 L715.674 161.819 L711.415 161.819 L711.415 157.884 Q709.957 160.245 707.781 161.379 Q705.605 162.49 702.457 162.49 Q698.475 162.49 696.114 160.268 Q693.776 158.023 693.776 154.273 Q693.776 149.898 696.693 147.676 Q699.633 145.454 705.443 145.454 L711.415 145.454 L711.415 145.037 Q711.415 142.097 709.471 140.5 Q707.55 138.879 704.054 138.879 Q701.832 138.879 699.725 139.412 Q697.619 139.944 695.675 141.009 L695.675 137.074 Q698.013 136.171 700.212 135.731 Q702.411 135.268 704.494 135.268 Q710.119 135.268 712.897 138.185 Q715.674 141.102 715.674 147.028 Z" fill="#000000" fill-rule="evenodd" fill-opacity="1" /><path clip-path="url(#clip270)" d="M741.508 148.555 Q741.508 143.926 739.586 141.379 Q737.688 138.833 734.239 138.833 Q730.813 138.833 728.892 141.379 Q726.994 143.926 726.994 148.555 Q726.994 153.162 728.892 155.708 Q730.813 158.254 734.239 158.254 Q737.688 158.254 739.586 155.708 Q741.508 153.162 741.508 148.555 M745.767 158.602 Q745.767 165.222 742.827 168.44 Q739.887 171.68 733.823 171.68 Q731.577 171.68 729.586 171.333 Q727.596 171.009 725.721 170.315 L725.721 166.171 Q727.596 167.19 729.424 167.676 Q731.253 168.162 733.151 168.162 Q737.341 168.162 739.424 165.963 Q741.508 163.787 741.508 159.365 L741.508 157.259 Q740.188 159.551 738.128 160.685 Q736.068 161.819 733.198 161.819 Q728.429 161.819 725.512 158.185 Q722.596 154.551 722.596 148.555 Q722.596 142.537 725.512 138.903 Q728.429 135.268 733.198 135.268 Q736.068 135.268 738.128 136.403 Q740.188 137.537 741.508 139.829 L741.508 135.893 L745.767 135.893 L745.767 158.602 Z" fill="#000000" fill-rule="evenodd" fill-opacity="1" /><path clip-path="url(#clip270)" d="M774.725 140.87 Q776.322 138 778.544 136.634 Q780.767 135.268 783.776 135.268 Q787.827 135.268 790.026 138.116 Q792.225 140.94 792.225 146.171 L792.225 161.819 L787.943 161.819 L787.943 146.31 Q787.943 142.583 786.623 140.778 Q785.304 138.972 782.595 138.972 Q779.285 138.972 777.364 141.171 Q775.443 143.37 775.443 147.166 L775.443 161.819 L771.16 161.819 L771.16 146.31 Q771.16 142.56 769.841 140.778 Q768.521 138.972 765.767 138.972 Q762.503 138.972 760.582 141.194 Q758.66 143.393 758.66 147.166 L758.66 161.819 L754.378 161.819 L754.378 135.893 L758.66 135.893 L758.66 139.921 Q760.119 137.537 762.156 136.403 Q764.193 135.268 766.994 135.268 Q769.818 135.268 771.785 136.704 Q773.776 138.139 774.725 140.87 Z" fill="#000000" fill-rule="evenodd" fill-opacity="1" /><path clip-path="url(#clip270)" d="M822.896 147.791 L822.896 149.875 L803.313 149.875 Q803.591 154.273 805.952 156.588 Q808.336 158.879 812.572 158.879 Q815.026 158.879 817.317 158.278 Q819.632 157.676 821.901 156.472 L821.901 160.5 Q819.609 161.472 817.202 161.981 Q814.794 162.49 812.317 162.49 Q806.114 162.49 802.48 158.879 Q798.868 155.268 798.868 149.111 Q798.868 142.745 802.294 139.018 Q805.743 135.268 811.577 135.268 Q816.808 135.268 819.841 138.648 Q822.896 142.004 822.896 147.791 M818.637 146.541 Q818.591 143.046 816.669 140.963 Q814.771 138.879 811.623 138.879 Q808.058 138.879 805.905 140.893 Q803.776 142.907 803.452 146.565 L818.637 146.541 Z" fill="#000000" fill-rule="evenodd" fill-opacity="1" /><path clip-path="url(#clip270)" d="M851.438 146.171 L851.438 161.819 L847.178 161.819 L847.178 146.31 Q847.178 142.629 845.743 140.801 Q844.308 138.972 841.438 138.972 Q837.989 138.972 835.998 141.171 Q834.007 143.37 834.007 147.166 L834.007 161.819 L829.725 161.819 L829.725 135.893 L834.007 135.893 L834.007 139.921 Q835.535 137.583 837.595 136.426 Q839.678 135.268 842.387 135.268 Q846.854 135.268 849.146 138.046 Q851.438 140.801 851.438 146.171 Z" fill="#000000" fill-rule="evenodd" fill-opacity="1" /><path clip-path="url(#clip270)" d="M864.146 128.532 L864.146 135.893 L872.919 135.893 L872.919 139.204 L864.146 139.204 L864.146 153.278 Q864.146 156.449 865.002 157.352 Q865.882 158.254 868.544 158.254 L872.919 158.254 L872.919 161.819 L868.544 161.819 Q863.613 161.819 861.738 159.99 Q859.864 158.139 859.864 153.278 L859.864 139.204 L856.739 139.204 L856.739 135.893 L859.864 135.893 L859.864 128.532 L864.146 128.532 Z" fill="#000000" fill-rule="evenodd" fill-opacity="1" /><circle clip-path="url(#clip270)" cx="411.204" cy="196.379" r="23" fill="#e26f46" fill-rule="evenodd" fill-opacity="1" stroke="#000000" stroke-opacity="1" stroke-width="5.12"/>
<path clip-path="url(#clip270)" d="M504.773 179.099 L509.495 179.099 L516.763 208.312 L524.009 179.099 L529.263 179.099 L536.532 208.312 L543.777 179.099 L548.523 179.099 L539.842 213.659 L533.962 213.659 L526.671 183.659 L519.31 213.659 L513.43 213.659 L504.773 179.099 Z" fill="#000000" fill-rule="evenodd" fill-opacity="1" /><path clip-path="url(#clip270)" d="M553.499 187.733 L557.759 187.733 L557.759 213.659 L553.499 213.659 L553.499 187.733 M553.499 177.641 L557.759 177.641 L557.759 183.034 L553.499 183.034 L553.499 177.641 Z" fill="#000000" fill-rule="evenodd" fill-opacity="1" /><path clip-path="url(#clip270)" d="M588.846 199.631 L588.846 201.715 L569.263 201.715 Q569.541 206.113 571.902 208.428 Q574.286 210.719 578.522 210.719 Q580.976 210.719 583.268 210.118 Q585.583 209.516 587.851 208.312 L587.851 212.34 Q585.559 213.312 583.152 213.821 Q580.745 214.33 578.268 214.33 Q572.064 214.33 568.43 210.719 Q564.819 207.108 564.819 200.951 Q564.819 194.585 568.245 190.858 Q571.694 187.108 577.527 187.108 Q582.759 187.108 585.791 190.488 Q588.846 193.844 588.846 199.631 M584.587 198.381 Q584.541 194.886 582.62 192.803 Q580.721 190.719 577.573 190.719 Q574.009 190.719 571.856 192.733 Q569.726 194.747 569.402 198.405 L584.587 198.381 Z" fill="#000000" fill-rule="evenodd" fill-opacity="1" /><path clip-path="url(#clip270)" d="M595.837 177.641 L600.096 177.641 L600.096 213.659 L595.837 213.659 L595.837 177.641 Z" fill="#000000" fill-rule="evenodd" fill-opacity="1" /><path clip-path="url(#clip270)" d="M631.184 199.631 L631.184 201.715 L611.601 201.715 Q611.879 206.113 614.24 208.428 Q616.624 210.719 620.86 210.719 Q623.314 210.719 625.605 210.118 Q627.92 209.516 630.189 208.312 L630.189 212.34 Q627.897 213.312 625.49 213.821 Q623.082 214.33 620.606 214.33 Q614.402 214.33 610.768 210.719 Q607.157 207.108 607.157 200.951 Q607.157 194.585 610.582 190.858 Q614.031 187.108 619.865 187.108 Q625.096 187.108 628.129 190.488 Q631.184 193.844 631.184 199.631 M626.925 198.381 Q626.879 194.886 624.957 192.803 Q623.059 190.719 619.911 190.719 Q616.346 190.719 614.194 192.733 Q612.064 194.747 611.74 198.405 L626.925 198.381 Z" fill="#000000" fill-rule="evenodd" fill-opacity="1" /><path clip-path="url(#clip270)" d="M666.369 177.641 L666.369 181.183 L662.295 181.183 Q660.003 181.183 659.101 182.108 Q658.221 183.034 658.221 185.442 L658.221 187.733 L665.235 187.733 L665.235 191.044 L658.221 191.044 L658.221 213.659 L653.939 213.659 L653.939 191.044 L649.865 191.044 L649.865 187.733 L653.939 187.733 L653.939 185.928 Q653.939 181.599 655.953 179.632 Q657.966 177.641 662.341 177.641 L666.369 177.641 Z" fill="#000000" fill-rule="evenodd" fill-opacity="1" /><path clip-path="url(#clip270)" d="M684.957 191.715 Q684.239 191.298 683.383 191.113 Q682.55 190.905 681.531 190.905 Q677.92 190.905 675.976 193.266 Q674.054 195.604 674.054 200.002 L674.054 213.659 L669.772 213.659 L669.772 187.733 L674.054 187.733 L674.054 191.761 Q675.397 189.4 677.55 188.266 Q679.702 187.108 682.781 187.108 Q683.221 187.108 683.753 187.178 Q684.286 187.224 684.934 187.34 L684.957 191.715 Z" fill="#000000" fill-rule="evenodd" fill-opacity="1" /><path clip-path="url(#clip270)" d="M701.207 200.627 Q696.045 200.627 694.054 201.807 Q692.063 202.988 692.063 205.835 Q692.063 208.104 693.545 209.446 Q695.05 210.766 697.619 210.766 Q701.161 210.766 703.29 208.266 Q705.443 205.743 705.443 201.576 L705.443 200.627 L701.207 200.627 M709.702 198.868 L709.702 213.659 L705.443 213.659 L705.443 209.724 Q703.985 212.085 701.809 213.219 Q699.633 214.33 696.485 214.33 Q692.503 214.33 690.142 212.108 Q687.804 209.863 687.804 206.113 Q687.804 201.738 690.721 199.516 Q693.661 197.294 699.471 197.294 L705.443 197.294 L705.443 196.877 Q705.443 193.937 703.499 192.34 Q701.577 190.719 698.082 190.719 Q695.86 190.719 693.753 191.252 Q691.647 191.784 689.702 192.849 L689.702 188.914 Q692.04 188.011 694.239 187.571 Q696.438 187.108 698.522 187.108 Q704.147 187.108 706.925 190.025 Q709.702 192.942 709.702 198.868 Z" fill="#000000" fill-rule="evenodd" fill-opacity="1" /><path clip-path="url(#clip270)" d="M735.535 200.395 Q735.535 195.766 733.614 193.219 Q731.716 190.673 728.267 190.673 Q724.841 190.673 722.92 193.219 Q721.022 195.766 721.022 200.395 Q721.022 205.002 722.92 207.548 Q724.841 210.094 728.267 210.094 Q731.716 210.094 733.614 207.548 Q735.535 205.002 735.535 200.395 M739.795 210.442 Q739.795 217.062 736.855 220.28 Q733.915 223.52 727.85 223.52 Q725.605 223.52 723.614 223.173 Q721.624 222.849 719.749 222.155 L719.749 218.011 Q721.624 219.03 723.452 219.516 Q725.281 220.002 727.179 220.002 Q731.369 220.002 733.452 217.803 Q735.535 215.627 735.535 211.205 L735.535 209.099 Q734.216 211.391 732.156 212.525 Q730.096 213.659 727.225 213.659 Q722.457 213.659 719.54 210.025 Q716.624 206.391 716.624 200.395 Q716.624 194.377 719.54 190.743 Q722.457 187.108 727.225 187.108 Q730.096 187.108 732.156 188.243 Q734.216 189.377 735.535 191.669 L735.535 187.733 L739.795 187.733 L739.795 210.442 Z" fill="#000000" fill-rule="evenodd" fill-opacity="1" /><path clip-path="url(#clip270)" d="M768.753 192.71 Q770.35 189.84 772.572 188.474 Q774.795 187.108 777.804 187.108 Q781.855 187.108 784.054 189.956 Q786.253 192.78 786.253 198.011 L786.253 213.659 L781.97 213.659 L781.97 198.15 Q781.97 194.423 780.651 192.618 Q779.332 190.812 776.623 190.812 Q773.313 190.812 771.392 193.011 Q769.47 195.21 769.47 199.006 L769.47 213.659 L765.188 213.659 L765.188 198.15 Q765.188 194.4 763.869 192.618 Q762.549 190.812 759.795 190.812 Q756.531 190.812 754.609 193.034 Q752.688 195.233 752.688 199.006 L752.688 213.659 L748.406 213.659 L748.406 187.733 L752.688 187.733 L752.688 191.761 Q754.146 189.377 756.184 188.243 Q758.221 187.108 761.021 187.108 Q763.845 187.108 765.813 188.544 Q767.804 189.979 768.753 192.71 Z" fill="#000000" fill-rule="evenodd" fill-opacity="1" /><path clip-path="url(#clip270)" d="M816.924 199.631 L816.924 201.715 L797.341 201.715 Q797.618 206.113 799.98 208.428 Q802.364 210.719 806.6 210.719 Q809.054 210.719 811.345 210.118 Q813.66 209.516 815.929 208.312 L815.929 212.34 Q813.637 213.312 811.23 213.821 Q808.822 214.33 806.345 214.33 Q800.142 214.33 796.507 210.719 Q792.896 207.108 792.896 200.951 Q792.896 194.585 796.322 190.858 Q799.771 187.108 805.605 187.108 Q810.836 187.108 813.868 190.488 Q816.924 193.844 816.924 199.631 M812.665 198.381 Q812.618 194.886 810.697 192.803 Q808.799 190.719 805.651 190.719 Q802.086 190.719 799.933 192.733 Q797.804 194.747 797.48 198.405 L812.665 198.381 Z" fill="#000000" fill-rule="evenodd" fill-opacity="1" /><path clip-path="url(#clip270)" d="M845.465 198.011 L845.465 213.659 L841.206 213.659 L841.206 198.15 Q841.206 194.469 839.771 192.641 Q838.336 190.812 835.465 190.812 Q832.016 190.812 830.026 193.011 Q828.035 195.21 828.035 199.006 L828.035 213.659 L823.753 213.659 L823.753 187.733 L828.035 187.733 L828.035 191.761 Q829.563 189.423 831.623 188.266 Q833.706 187.108 836.415 187.108 Q840.882 187.108 843.174 189.886 Q845.465 192.641 845.465 198.011 Z" fill="#000000" fill-rule="evenodd" fill-opacity="1" /><path clip-path="url(#clip270)" d="M858.174 180.372 L858.174 187.733 L866.947 187.733 L866.947 191.044 L858.174 191.044 L858.174 205.118 Q858.174 208.289 859.03 209.192 Q859.91 210.094 862.572 210.094 L866.947 210.094 L866.947 213.659 L862.572 213.659 Q857.641 213.659 855.766 211.83 Q853.891 209.979 853.891 205.118 L853.891 191.044 L850.766 191.044 L850.766 187.733 L853.891 187.733 L853.891 180.372 L858.174 180.372 Z" fill="#000000" fill-rule="evenodd" fill-opacity="1" /><path clip-path="url(#clip270)" d="M882.595 190.719 Q879.169 190.719 877.178 193.405 Q875.187 196.067 875.187 200.719 Q875.187 205.372 877.155 208.057 Q879.146 210.719 882.595 210.719 Q885.998 210.719 887.988 208.034 Q889.979 205.349 889.979 200.719 Q889.979 196.113 887.988 193.428 Q885.998 190.719 882.595 190.719 M882.595 187.108 Q888.15 187.108 891.322 190.719 Q894.493 194.331 894.493 200.719 Q894.493 207.085 891.322 210.719 Q888.15 214.33 882.595 214.33 Q877.016 214.33 873.845 210.719 Q870.697 207.085 870.697 200.719 Q870.697 194.331 873.845 190.719 Q877.016 187.108 882.595 187.108 M885.812 175.743 L890.419 175.743 L882.873 184.446 L879.331 184.446 L885.812 175.743 Z" fill="#000000" fill-rule="evenodd" fill-opacity="1" /><path clip-path="url(#clip270)" d="M899.076 187.733 L903.335 187.733 L908.66 207.965 L913.96 187.733 L918.984 187.733 L924.308 207.965 L929.608 187.733 L933.868 187.733 L927.085 213.659 L922.062 213.659 L916.484 192.409 L910.882 213.659 L905.859 213.659 L899.076 187.733 Z" fill="#000000" fill-rule="evenodd" fill-opacity="1" /></svg>
