<?xml version="1.0" encoding="utf-8"?>
<svg xmlns="http://www.w3.org/2000/svg" xmlns:xlink="http://www.w3.org/1999/xlink" width="600" height="400" viewBox="0 0 2400 1600">
<defs>
  <clipPath id="clip300">
    <rect x="0" y="0" width="2400" height="1600"/>
  </clipPath>
</defs>
<path clip-path="url(#clip300)" d="
M0 1600 L2400 1600 L2400 0 L0 0  Z
  " fill="#ffffff" fill-rule="evenodd" fill-opacity="1"/>
<defs>
  <clipPath id="clip301">
    <rect x="480" y="0" width="1681" height="1600"/>
  </clipPath>
</defs>
<path clip-path="url(#clip300)" d="
M249.357 1410.9 L2352.76 1410.9 L2352.76 47.2441 L249.357 47.2441  Z
  " fill="#ffffff" fill-rule="evenodd" fill-opacity="1"/>
<defs>
  <clipPath id="clip302">
    <rect x="249" y="47" width="2104" height="1365"/>
  </clipPath>
</defs>
<polyline clip-path="url(#clip302)" style="stroke:#000000; stroke-linecap:butt; stroke-linejoin:round; stroke-width:2; stroke-opacity:0.1; fill:none" points="
  746.753,1410.9 746.753,47.2441 
  "/>
<polyline clip-path="url(#clip302)" style="stroke:#000000; stroke-linecap:butt; stroke-linejoin:round; stroke-width:2; stroke-opacity:0.1; fill:none" points="
  1296.92,1410.9 1296.92,47.2441 
  "/>
<polyline clip-path="url(#clip302)" style="stroke:#000000; stroke-linecap:butt; stroke-linejoin:round; stroke-width:2; stroke-opacity:0.1; fill:none" points="
  1847.08,1410.9 1847.08,47.2441 
  "/>
<polyline clip-path="url(#clip300)" style="stroke:#000000; stroke-linecap:butt; stroke-linejoin:round; stroke-width:4; stroke-opacity:1; fill:none" points="
  249.357,1410.9 2352.76,1410.9 
  "/>
<polyline clip-path="url(#clip300)" style="stroke:#000000; stroke-linecap:butt; stroke-linejoin:round; stroke-width:4; stroke-opacity:1; fill:none" points="
  746.753,1410.9 746.753,1392 
  "/>
<polyline clip-path="url(#clip300)" style="stroke:#000000; stroke-linecap:butt; stroke-linejoin:round; stroke-width:4; stroke-opacity:1; fill:none" points="
  1296.92,1410.9 1296.92,1392 
  "/>
<polyline clip-path="url(#clip300)" style="stroke:#000000; stroke-linecap:butt; stroke-linejoin:round; stroke-width:4; stroke-opacity:1; fill:none" points="
  1847.08,1410.9 1847.08,1392 
  "/>
<path clip-path="url(#clip300)" d="M712.525 1485.02 L720.164 1485.02 L720.164 1458.66 L711.854 1460.32 L711.854 1456.06 L720.118 1454.4 L724.794 1454.4 L724.794 1485.02 L732.433 1485.02 L732.433 1488.96 L712.525 1488.96 L712.525 1485.02 Z" fill="#000000" fill-rule="evenodd" fill-opacity="1" /><path clip-path="url(#clip300)" d="M751.877 1457.48 Q748.266 1457.48 746.437 1461.04 Q744.632 1464.58 744.632 1471.71 Q744.632 1478.82 746.437 1482.38 Q748.266 1485.92 751.877 1485.92 Q755.511 1485.92 757.317 1482.38 Q759.145 1478.82 759.145 1471.71 Q759.145 1464.58 757.317 1461.04 Q755.511 1457.48 751.877 1457.48 M751.877 1453.77 Q757.687 1453.77 760.743 1458.38 Q763.821 1462.96 763.821 1471.71 Q763.821 1480.44 760.743 1485.04 Q757.687 1489.63 751.877 1489.63 Q746.067 1489.63 742.988 1485.04 Q739.933 1480.44 739.933 1471.71 Q739.933 1462.96 742.988 1458.38 Q746.067 1453.77 751.877 1453.77 Z" fill="#000000" fill-rule="evenodd" fill-opacity="1" /><path clip-path="url(#clip300)" d="M768.392 1458.35 L781.651 1458.35 L781.651 1461.55 L763.821 1461.55 L763.821 1458.35 Q765.984 1456.11 769.708 1452.35 Q773.451 1448.57 774.41 1447.48 Q776.235 1445.43 776.949 1444.02 Q777.683 1442.59 777.683 1441.22 Q777.683 1438.98 776.103 1437.57 Q774.542 1436.16 772.022 1436.16 Q770.235 1436.16 768.241 1436.78 Q766.266 1437.4 764.009 1438.66 L764.009 1434.82 Q766.304 1433.9 768.298 1433.43 Q770.291 1432.96 771.946 1432.96 Q776.31 1432.96 778.905 1435.14 Q781.501 1437.32 781.501 1440.97 Q781.501 1442.7 780.842 1444.26 Q780.203 1445.8 778.491 1447.91 Q778.021 1448.46 775.501 1451.07 Q772.981 1453.67 768.392 1458.35 Z" fill="#000000" fill-rule="evenodd" fill-opacity="1" /><path clip-path="url(#clip300)" d="M1262.36 1485.02 L1270 1485.02 L1270 1458.66 L1261.69 1460.32 L1261.69 1456.06 L1269.95 1454.4 L1274.63 1454.4 L1274.63 1485.02 L1282.27 1485.02 L1282.27 1488.96 L1262.36 1488.96 L1262.36 1485.02 Z" fill="#000000" fill-rule="evenodd" fill-opacity="1" /><path clip-path="url(#clip300)" d="M1301.71 1457.48 Q1298.1 1457.48 1296.27 1461.04 Q1294.47 1464.58 1294.47 1471.71 Q1294.47 1478.82 1296.27 1482.38 Q1298.1 1485.92 1301.71 1485.92 Q1305.35 1485.92 1307.15 1482.38 Q1308.98 1478.82 1308.98 1471.71 Q1308.98 1464.58 1307.15 1461.04 Q1305.35 1457.48 1301.71 1457.48 M1301.71 1453.77 Q1307.52 1453.77 1310.58 1458.38 Q1313.66 1462.96 1313.66 1471.71 Q1313.66 1480.44 1310.58 1485.04 Q1307.52 1489.63 1301.71 1489.63 Q1295.9 1489.63 1292.82 1485.04 Q1289.77 1480.44 1289.77 1471.71 Q1289.77 1462.96 1292.82 1458.38 Q1295.9 1453.77 1301.71 1453.77 Z" fill="#000000" fill-rule="evenodd" fill-opacity="1" /><path clip-path="url(#clip300)" d="M1326.35 1446.41 Q1329.08 1446.99 1330.6 1448.83 Q1332.15 1450.68 1332.15 1453.38 Q1332.15 1457.54 1329.29 1459.82 Q1326.43 1462.09 1321.16 1462.09 Q1319.39 1462.09 1317.51 1461.73 Q1315.65 1461.4 1313.66 1460.7 L1313.66 1457.03 Q1315.24 1457.95 1317.12 1458.42 Q1319 1458.89 1321.05 1458.89 Q1324.62 1458.89 1326.48 1457.48 Q1328.37 1456.07 1328.37 1453.38 Q1328.37 1450.9 1326.62 1449.51 Q1324.89 1448.1 1321.78 1448.1 L1318.51 1448.1 L1318.51 1444.98 L1321.93 1444.98 Q1324.74 1444.98 1326.22 1443.87 Q1327.71 1442.74 1327.71 1440.63 Q1327.71 1438.47 1326.16 1437.32 Q1324.64 1436.16 1321.78 1436.16 Q1320.22 1436.16 1318.43 1436.49 Q1316.65 1436.83 1314.5 1437.55 L1314.5 1434.16 Q1316.67 1433.56 1318.55 1433.26 Q1320.45 1432.96 1322.12 1432.96 Q1326.45 1432.96 1328.97 1434.93 Q1331.49 1436.89 1331.49 1440.24 Q1331.49 1442.57 1330.15 1444.19 Q1328.82 1445.79 1326.35 1446.41 Z" fill="#000000" fill-rule="evenodd" fill-opacity="1" /><path clip-path="url(#clip300)" d="M1811.54 1485.02 L1819.18 1485.02 L1819.18 1458.66 L1810.87 1460.32 L1810.87 1456.06 L1819.13 1454.4 L1823.81 1454.4 L1823.81 1485.02 L1831.45 1485.02 L1831.45 1488.96 L1811.54 1488.96 L1811.54 1485.02 Z" fill="#000000" fill-rule="evenodd" fill-opacity="1" /><path clip-path="url(#clip300)" d="M1850.89 1457.48 Q1847.28 1457.48 1845.45 1461.04 Q1843.65 1464.58 1843.65 1471.71 Q1843.65 1478.82 1845.45 1482.38 Q1847.28 1485.92 1850.89 1485.92 Q1854.53 1485.92 1856.33 1482.38 Q1858.16 1478.82 1858.16 1471.71 Q1858.16 1464.58 1856.33 1461.04 Q1854.53 1457.48 1850.89 1457.48 M1850.89 1453.77 Q1856.7 1453.77 1859.76 1458.38 Q1862.84 1462.96 1862.84 1471.71 Q1862.84 1480.44 1859.76 1485.04 Q1856.7 1489.63 1850.89 1489.63 Q1845.08 1489.63 1842 1485.04 Q1838.95 1480.44 1838.95 1471.71 Q1838.95 1462.96 1842 1458.38 Q1845.08 1453.77 1850.89 1453.77 Z" fill="#000000" fill-rule="evenodd" fill-opacity="1" /><path clip-path="url(#clip300)" d="M1875.51 1436.78 L1865.92 1451.77 L1875.51 1451.77 L1875.51 1436.78 M1874.52 1433.47 L1879.29 1433.47 L1879.29 1451.77 L1883.3 1451.77 L1883.3 1454.93 L1879.29 1454.93 L1879.29 1461.55 L1875.51 1461.55 L1875.51 1454.93 L1862.84 1454.93 L1862.84 1451.26 L1874.52 1433.47 Z" fill="#000000" fill-rule="evenodd" fill-opacity="1" /><path clip-path="url(#clip300)" d="M939.484 1551.91 Q941.553 1552.61 943.495 1554.9 Q945.468 1557.19 947.441 1561.2 L953.966 1574.19 L947.059 1574.19 L940.98 1562 Q938.625 1557.22 936.397 1555.66 Q934.201 1554.1 930.381 1554.1 L923.379 1554.1 L923.379 1574.19 L916.95 1574.19 L916.95 1526.67 L931.463 1526.67 Q939.612 1526.67 943.622 1530.07 Q947.632 1533.48 947.632 1540.35 Q947.632 1544.84 945.532 1547.8 Q943.463 1550.76 939.484 1551.91 M923.379 1531.95 L923.379 1548.82 L931.463 1548.82 Q936.11 1548.82 938.466 1546.69 Q940.853 1544.52 940.853 1540.35 Q940.853 1536.18 938.466 1534.08 Q936.11 1531.95 931.463 1531.95 L923.379 1531.95 Z" fill="#000000" fill-rule="evenodd" fill-opacity="1" /><path clip-path="url(#clip300)" d="M972.872 1542.64 Q968.162 1542.64 965.424 1546.34 Q962.687 1550 962.687 1556.39 Q962.687 1562.79 965.393 1566.48 Q968.13 1570.14 972.872 1570.14 Q977.551 1570.14 980.288 1566.45 Q983.026 1562.76 983.026 1556.39 Q983.026 1550.06 980.288 1546.37 Q977.551 1542.64 972.872 1542.64 M972.872 1537.68 Q980.511 1537.68 984.872 1542.64 Q989.232 1547.61 989.232 1556.39 Q989.232 1565.15 984.872 1570.14 Q980.511 1575.11 972.872 1575.11 Q965.202 1575.11 960.841 1570.14 Q956.513 1565.15 956.513 1556.39 Q956.513 1547.61 960.841 1542.64 Q965.202 1537.68 972.872 1537.68 Z" fill="#000000" fill-rule="evenodd" fill-opacity="1" /><path clip-path="url(#clip300)" d="M996.394 1538.54 L1024.21 1538.54 L1024.21 1543.88 L1002.19 1569.51 L1024.21 1569.51 L1024.21 1574.19 L995.598 1574.19 L995.598 1568.84 L1017.62 1543.22 L996.394 1543.22 L996.394 1538.54 Z" fill="#000000" fill-rule="evenodd" fill-opacity="1" /><path clip-path="url(#clip300)" d="M1060.91 1545.38 Q1063.11 1541.43 1066.16 1539.56 Q1069.22 1537.68 1073.36 1537.68 Q1078.93 1537.68 1081.95 1541.59 Q1084.97 1545.48 1084.97 1552.67 L1084.97 1574.19 L1079.08 1574.19 L1079.08 1552.86 Q1079.08 1547.74 1077.27 1545.25 Q1075.46 1542.77 1071.73 1542.77 Q1067.18 1542.77 1064.54 1545.79 Q1061.9 1548.82 1061.9 1554.04 L1061.9 1574.19 L1056.01 1574.19 L1056.01 1552.86 Q1056.01 1547.7 1054.19 1545.25 Q1052.38 1542.77 1048.59 1542.77 Q1044.1 1542.77 1041.46 1545.83 Q1038.82 1548.85 1038.82 1554.04 L1038.82 1574.19 L1032.93 1574.19 L1032.93 1538.54 L1038.82 1538.54 L1038.82 1544.08 Q1040.83 1540.8 1043.63 1539.24 Q1046.43 1537.68 1050.28 1537.68 Q1054.16 1537.68 1056.87 1539.65 Q1059.61 1541.62 1060.91 1545.38 Z" fill="#000000" fill-rule="evenodd" fill-opacity="1" /><path clip-path="url(#clip300)" d="M1096.65 1538.54 L1102.51 1538.54 L1102.51 1574.19 L1096.65 1574.19 L1096.65 1538.54 M1096.65 1524.66 L1102.51 1524.66 L1102.51 1532.08 L1096.65 1532.08 L1096.65 1524.66 Z" fill="#000000" fill-rule="evenodd" fill-opacity="1" /><path clip-path="url(#clip300)" d="M1130.96 1556.27 Q1123.87 1556.27 1121.13 1557.89 Q1118.39 1559.51 1118.39 1563.43 Q1118.39 1566.55 1120.43 1568.39 Q1122.5 1570.21 1126.03 1570.21 Q1130.9 1570.21 1133.83 1566.77 Q1136.79 1563.3 1136.79 1557.57 L1136.79 1556.27 L1130.96 1556.27 M1142.65 1553.85 L1142.65 1574.19 L1136.79 1574.19 L1136.79 1568.77 Q1134.78 1572.02 1131.79 1573.58 Q1128.8 1575.11 1124.47 1575.11 Q1119 1575.11 1115.75 1572.05 Q1112.54 1568.97 1112.54 1563.81 Q1112.54 1557.79 1116.55 1554.74 Q1120.59 1551.68 1128.58 1551.68 L1136.79 1551.68 L1136.79 1551.11 Q1136.79 1547.07 1134.12 1544.87 Q1131.47 1542.64 1126.67 1542.64 Q1123.61 1542.64 1120.72 1543.38 Q1117.82 1544.11 1115.15 1545.57 L1115.15 1540.16 Q1118.36 1538.92 1121.38 1538.31 Q1124.41 1537.68 1127.27 1537.68 Q1135.01 1537.68 1138.83 1541.69 Q1142.65 1545.7 1142.65 1553.85 Z" fill="#000000" fill-rule="evenodd" fill-opacity="1" /><path clip-path="url(#clip300)" d="M1175.37 1544.01 Q1174.38 1543.44 1173.2 1543.18 Q1172.06 1542.9 1170.65 1542.9 Q1165.69 1542.9 1163.02 1546.14 Q1160.37 1549.36 1160.37 1555.41 L1160.37 1574.19 L1154.49 1574.19 L1154.49 1538.54 L1160.37 1538.54 L1160.37 1544.08 Q1162.22 1540.83 1165.18 1539.27 Q1168.14 1537.68 1172.37 1537.68 Q1172.98 1537.68 1173.71 1537.77 Q1174.44 1537.84 1175.33 1538 L1175.37 1544.01 Z" fill="#000000" fill-rule="evenodd" fill-opacity="1" /><path clip-path="url(#clip300)" d="M1202.42 1524.66 L1208.28 1524.66 L1208.28 1543.82 L1212.25 1540.96 L1214.67 1544.33 L1208.28 1548.82 L1208.28 1574.19 L1202.42 1574.19 L1202.42 1552.99 L1198.5 1555.79 L1196.15 1552.41 L1202.42 1547.93 L1202.42 1524.66 Z" fill="#000000" fill-rule="evenodd" fill-opacity="1" /><path clip-path="url(#clip300)" d="M1236.95 1556.27 Q1229.86 1556.27 1227.12 1557.89 Q1224.38 1559.51 1224.38 1563.43 Q1224.38 1566.55 1226.42 1568.39 Q1228.49 1570.21 1232.02 1570.21 Q1236.89 1570.21 1239.82 1566.77 Q1242.78 1563.3 1242.78 1557.57 L1242.78 1556.27 L1236.95 1556.27 M1248.63 1553.85 L1248.63 1574.19 L1242.78 1574.19 L1242.78 1568.77 Q1240.77 1572.02 1237.78 1573.58 Q1234.79 1575.11 1230.46 1575.11 Q1224.99 1575.11 1221.74 1572.05 Q1218.52 1568.97 1218.52 1563.81 Q1218.52 1557.79 1222.54 1554.74 Q1226.58 1551.68 1234.57 1551.68 L1242.78 1551.68 L1242.78 1551.11 Q1242.78 1547.07 1240.1 1544.87 Q1237.46 1542.64 1232.66 1542.64 Q1229.6 1542.64 1226.7 1543.38 Q1223.81 1544.11 1221.13 1545.57 L1221.13 1540.16 Q1224.35 1538.92 1227.37 1538.31 Q1230.4 1537.68 1233.26 1537.68 Q1241 1537.68 1244.82 1541.69 Q1248.63 1545.7 1248.63 1553.85 Z" fill="#000000" fill-rule="evenodd" fill-opacity="1" /><path clip-path="url(#clip300)" d="M1284.16 1543.95 L1284.16 1524.66 L1290.01 1524.66 L1290.01 1574.19 L1284.16 1574.19 L1284.16 1568.84 Q1282.31 1572.02 1279.48 1573.58 Q1276.68 1575.11 1272.73 1575.11 Q1266.27 1575.11 1262.19 1569.95 Q1258.15 1564.8 1258.15 1556.39 Q1258.15 1547.99 1262.19 1542.83 Q1266.27 1537.68 1272.73 1537.68 Q1276.68 1537.68 1279.48 1539.24 Q1282.31 1540.77 1284.16 1543.95 M1264.2 1556.39 Q1264.2 1562.85 1266.84 1566.55 Q1269.51 1570.21 1274.16 1570.21 Q1278.81 1570.21 1281.48 1566.55 Q1284.16 1562.85 1284.16 1556.39 Q1284.16 1549.93 1281.48 1546.27 Q1278.81 1542.58 1274.16 1542.58 Q1269.51 1542.58 1266.84 1546.27 Q1264.2 1549.93 1264.2 1556.39 Z" fill="#000000" fill-rule="evenodd" fill-opacity="1" /><path clip-path="url(#clip300)" d="M1301.47 1560.12 L1301.47 1538.54 L1307.33 1538.54 L1307.33 1559.89 Q1307.33 1564.96 1309.3 1567.5 Q1311.27 1570.02 1315.22 1570.02 Q1319.96 1570.02 1322.7 1566.99 Q1325.47 1563.97 1325.47 1558.75 L1325.47 1538.54 L1331.33 1538.54 L1331.33 1574.19 L1325.47 1574.19 L1325.47 1568.71 Q1323.34 1571.96 1320.5 1573.55 Q1317.7 1575.11 1313.98 1575.11 Q1307.84 1575.11 1304.65 1571.29 Q1301.47 1567.47 1301.47 1560.12 M1316.21 1537.68 L1316.21 1537.68 Z" fill="#000000" fill-rule="evenodd" fill-opacity="1" /><path clip-path="url(#clip300)" d="M1373.02 1552.67 L1373.02 1574.19 L1367.16 1574.19 L1367.16 1552.86 Q1367.16 1547.8 1365.19 1545.29 Q1363.22 1542.77 1359.27 1542.77 Q1354.53 1542.77 1351.79 1545.79 Q1349.05 1548.82 1349.05 1554.04 L1349.05 1574.19 L1343.17 1574.19 L1343.17 1538.54 L1349.05 1538.54 L1349.05 1544.08 Q1351.15 1540.86 1353.99 1539.27 Q1356.85 1537.68 1360.58 1537.68 Q1366.72 1537.68 1369.87 1541.5 Q1373.02 1545.29 1373.02 1552.67 Z" fill="#000000" fill-rule="evenodd" fill-opacity="1" /><path clip-path="url(#clip300)" d="M1384.48 1524.66 L1390.37 1524.66 L1390.37 1553.91 L1407.84 1538.54 L1415.32 1538.54 L1396.41 1555.22 L1416.12 1574.19 L1408.48 1574.19 L1390.37 1556.78 L1390.37 1574.19 L1384.48 1574.19 L1384.48 1524.66 Z" fill="#000000" fill-rule="evenodd" fill-opacity="1" /><path clip-path="url(#clip300)" d="M1419.84 1560.12 L1419.84 1538.54 L1425.7 1538.54 L1425.7 1559.89 Q1425.7 1564.96 1427.67 1567.5 Q1429.64 1570.02 1433.59 1570.02 Q1438.33 1570.02 1441.07 1566.99 Q1443.84 1563.97 1443.84 1558.75 L1443.84 1538.54 L1449.7 1538.54 L1449.7 1574.19 L1443.84 1574.19 L1443.84 1568.71 Q1441.71 1571.96 1438.87 1573.55 Q1436.07 1575.11 1432.35 1575.11 Q1426.21 1575.11 1423.02 1571.29 Q1419.84 1567.47 1419.84 1560.12 M1434.58 1537.68 L1434.58 1537.68 Z" fill="#000000" fill-rule="evenodd" fill-opacity="1" /><path clip-path="url(#clip300)" d="M1481.94 1524.66 L1495.43 1524.66 L1495.43 1529.21 L1487.79 1529.21 L1487.79 1578.23 L1495.43 1578.23 L1495.43 1582.78 L1481.94 1582.78 L1481.94 1524.66 Z" fill="#000000" fill-rule="evenodd" fill-opacity="1" /><path clip-path="url(#clip300)" d="M1533.5 1556.39 Q1533.5 1549.93 1530.83 1546.27 Q1528.18 1542.58 1523.54 1542.58 Q1518.89 1542.58 1516.22 1546.27 Q1513.58 1549.93 1513.58 1556.39 Q1513.58 1562.85 1516.22 1566.55 Q1518.89 1570.21 1523.54 1570.21 Q1528.18 1570.21 1530.83 1566.55 Q1533.5 1562.85 1533.5 1556.39 M1513.58 1543.95 Q1515.42 1540.77 1518.22 1539.24 Q1521.06 1537.68 1524.97 1537.68 Q1531.46 1537.68 1535.51 1542.83 Q1539.58 1547.99 1539.58 1556.39 Q1539.58 1564.8 1535.51 1569.95 Q1531.46 1575.11 1524.97 1575.11 Q1521.06 1575.11 1518.22 1573.58 Q1515.42 1572.02 1513.58 1568.84 L1513.58 1574.19 L1507.69 1574.19 L1507.69 1524.66 L1513.58 1524.66 L1513.58 1543.95 Z" fill="#000000" fill-rule="evenodd" fill-opacity="1" /><path clip-path="url(#clip300)" d="M1565.49 1556.27 Q1558.39 1556.27 1555.65 1557.89 Q1552.92 1559.51 1552.92 1563.43 Q1552.92 1566.55 1554.95 1568.39 Q1557.02 1570.21 1560.55 1570.21 Q1565.42 1570.21 1568.35 1566.77 Q1571.31 1563.3 1571.31 1557.57 L1571.31 1556.27 L1565.49 1556.27 M1577.17 1553.85 L1577.17 1574.19 L1571.31 1574.19 L1571.31 1568.77 Q1569.31 1572.02 1566.32 1573.58 Q1563.32 1575.11 1558.99 1575.11 Q1553.52 1575.11 1550.27 1572.05 Q1547.06 1568.97 1547.06 1563.81 Q1547.06 1557.79 1551.07 1554.74 Q1555.11 1551.68 1563.1 1551.68 L1571.31 1551.68 L1571.31 1551.11 Q1571.31 1547.07 1568.64 1544.87 Q1566 1542.64 1561.19 1542.64 Q1558.14 1542.64 1555.24 1543.38 Q1552.34 1544.11 1549.67 1545.57 L1549.67 1540.16 Q1552.88 1538.92 1555.91 1538.31 Q1558.93 1537.68 1561.8 1537.68 Q1569.53 1537.68 1573.35 1541.69 Q1577.17 1545.7 1577.17 1553.85 Z" fill="#000000" fill-rule="evenodd" fill-opacity="1" /><path clip-path="url(#clip300)" d="M1589.23 1538.54 L1595.09 1538.54 L1595.09 1574.82 Q1595.09 1581.63 1592.48 1584.69 Q1589.9 1587.74 1584.14 1587.74 L1581.91 1587.74 L1581.91 1582.78 L1583.47 1582.78 Q1586.81 1582.78 1588.02 1581.22 Q1589.23 1579.69 1589.23 1574.82 L1589.23 1538.54 M1589.23 1524.66 L1595.09 1524.66 L1595.09 1532.08 L1589.23 1532.08 L1589.23 1524.66 Z" fill="#000000" fill-rule="evenodd" fill-opacity="1" /><path clip-path="url(#clip300)" d="M1613.14 1528.42 L1613.14 1538.54 L1625.2 1538.54 L1625.2 1543.09 L1613.14 1543.09 L1613.14 1562.44 Q1613.14 1566.8 1614.31 1568.04 Q1615.52 1569.28 1619.18 1569.28 L1625.2 1569.28 L1625.2 1574.19 L1619.18 1574.19 Q1612.4 1574.19 1609.82 1571.67 Q1607.25 1569.12 1607.25 1562.44 L1607.25 1543.09 L1602.95 1543.09 L1602.95 1538.54 L1607.25 1538.54 L1607.25 1528.42 L1613.14 1528.42 Z" fill="#000000" fill-rule="evenodd" fill-opacity="1" /><path clip-path="url(#clip300)" d="M1647.73 1577.5 Q1645.25 1583.86 1642.89 1585.8 Q1640.54 1587.74 1636.59 1587.74 L1631.91 1587.74 L1631.91 1582.84 L1635.35 1582.84 Q1637.77 1582.84 1639.11 1581.7 Q1640.44 1580.55 1642.07 1576.29 L1643.12 1573.61 L1628.7 1538.54 L1634.91 1538.54 L1646.05 1566.42 L1657.19 1538.54 L1663.39 1538.54 L1647.73 1577.5 Z" fill="#000000" fill-rule="evenodd" fill-opacity="1" /><path clip-path="url(#clip300)" d="M1685.16 1524.66 L1685.16 1582.78 L1671.67 1582.78 L1671.67 1578.23 L1679.27 1578.23 L1679.27 1529.21 L1671.67 1529.21 L1671.67 1524.66 L1685.16 1524.66 Z" fill="#000000" fill-rule="evenodd" fill-opacity="1" /><polyline clip-path="url(#clip302)" style="stroke:#000000; stroke-linecap:butt; stroke-linejoin:round; stroke-width:2; stroke-opacity:0.1; fill:none" points="
  249.357,1174.39 2352.76,1174.39 
  "/>
<polyline clip-path="url(#clip302)" style="stroke:#000000; stroke-linecap:butt; stroke-linejoin:round; stroke-width:2; stroke-opacity:0.1; fill:none" points="
  249.357,926.988 2352.76,926.988 
  "/>
<polyline clip-path="url(#clip302)" style="stroke:#000000; stroke-linecap:butt; stroke-linejoin:round; stroke-width:2; stroke-opacity:0.1; fill:none" points="
  249.357,679.591 2352.76,679.591 
  "/>
<polyline clip-path="url(#clip302)" style="stroke:#000000; stroke-linecap:butt; stroke-linejoin:round; stroke-width:2; stroke-opacity:0.1; fill:none" points="
  249.357,432.194 2352.76,432.194 
  "/>
<polyline clip-path="url(#clip302)" style="stroke:#000000; stroke-linecap:butt; stroke-linejoin:round; stroke-width:2; stroke-opacity:0.1; fill:none" points="
  249.357,184.797 2352.76,184.797 
  "/>
<polyline clip-path="url(#clip300)" style="stroke:#000000; stroke-linecap:butt; stroke-linejoin:round; stroke-width:4; stroke-opacity:1; fill:none" points="
  249.357,1410.9 249.357,47.2441 
  "/>
<polyline clip-path="url(#clip300)" style="stroke:#000000; stroke-linecap:butt; stroke-linejoin:round; stroke-width:4; stroke-opacity:1; fill:none" points="
  249.357,1174.39 268.254,1174.39 
  "/>
<polyline clip-path="url(#clip300)" style="stroke:#000000; stroke-linecap:butt; stroke-linejoin:round; stroke-width:4; stroke-opacity:1; fill:none" points="
  249.357,926.988 268.254,926.988 
  "/>
<polyline clip-path="url(#clip300)" style="stroke:#000000; stroke-linecap:butt; stroke-linejoin:round; stroke-width:4; stroke-opacity:1; fill:none" points="
  249.357,679.591 268.254,679.591 
  "/>
<polyline clip-path="url(#clip300)" style="stroke:#000000; stroke-linecap:butt; stroke-linejoin:round; stroke-width:4; stroke-opacity:1; fill:none" points="
  249.357,432.194 268.254,432.194 
  "/>
<polyline clip-path="url(#clip300)" style="stroke:#000000; stroke-linecap:butt; stroke-linejoin:round; stroke-width:4; stroke-opacity:1; fill:none" points="
  249.357,184.797 268.254,184.797 
  "/>
<path clip-path="url(#clip300)" d="M116.066 1157.11 L134.422 1157.11 L134.422 1161.04 L120.348 1161.04 L120.348 1169.51 Q121.367 1169.17 122.385 1169 Q123.404 1168.82 124.422 1168.82 Q130.209 1168.82 133.589 1171.99 Q136.968 1175.16 136.968 1180.58 Q136.968 1186.16 133.496 1189.26 Q130.024 1192.34 123.705 1192.34 Q121.529 1192.34 119.26 1191.97 Q117.015 1191.6 114.607 1190.85 L114.607 1186.16 Q116.691 1187.29 118.913 1187.85 Q121.135 1188.4 123.612 1188.4 Q127.617 1188.4 129.955 1186.29 Q132.292 1184.19 132.292 1180.58 Q132.292 1176.97 129.955 1174.86 Q127.617 1172.75 123.612 1172.75 Q121.737 1172.75 119.862 1173.17 Q118.01 1173.59 116.066 1174.47 L116.066 1157.11 Z" fill="#000000" fill-rule="evenodd" fill-opacity="1" /><path clip-path="url(#clip300)" d="M146.228 1157.11 L164.584 1157.11 L164.584 1161.04 L150.51 1161.04 L150.51 1169.51 Q151.528 1169.17 152.547 1169 Q153.566 1168.82 154.584 1168.82 Q160.371 1168.82 163.751 1171.99 Q167.13 1175.16 167.13 1180.58 Q167.13 1186.16 163.658 1189.26 Q160.186 1192.34 153.866 1192.34 Q151.691 1192.34 149.422 1191.97 Q147.177 1191.6 144.769 1190.85 L144.769 1186.16 Q146.853 1187.29 149.075 1187.85 Q151.297 1188.4 153.774 1188.4 Q157.778 1188.4 160.116 1186.29 Q162.454 1184.19 162.454 1180.58 Q162.454 1176.97 160.116 1174.86 Q157.778 1172.75 153.774 1172.75 Q151.899 1172.75 150.024 1173.17 Q148.172 1173.59 146.228 1174.47 L146.228 1157.11 Z" fill="#000000" fill-rule="evenodd" fill-opacity="1" /><path clip-path="url(#clip300)" d="M176.343 1185.79 L181.227 1185.79 L181.227 1191.67 L176.343 1191.67 L176.343 1185.79 Z" fill="#000000" fill-rule="evenodd" fill-opacity="1" /><path clip-path="url(#clip300)" d="M201.412 1160.18 Q197.801 1160.18 195.973 1163.75 Q194.167 1167.29 194.167 1174.42 Q194.167 1181.53 195.973 1185.09 Q197.801 1188.63 201.412 1188.63 Q205.047 1188.63 206.852 1185.09 Q208.681 1181.53 208.681 1174.42 Q208.681 1167.29 206.852 1163.75 Q205.047 1160.18 201.412 1160.18 M201.412 1156.48 Q207.223 1156.48 210.278 1161.09 Q213.357 1165.67 213.357 1174.42 Q213.357 1183.15 210.278 1187.75 Q207.223 1192.34 201.412 1192.34 Q195.602 1192.34 192.524 1187.75 Q189.468 1183.15 189.468 1174.42 Q189.468 1165.67 192.524 1161.09 Q195.602 1156.48 201.412 1156.48 Z" fill="#000000" fill-rule="evenodd" fill-opacity="1" /><path clip-path="url(#clip300)" d="M117.061 909.708 L135.417 909.708 L135.417 913.643 L121.343 913.643 L121.343 922.115 Q122.362 921.768 123.38 921.606 Q124.399 921.421 125.418 921.421 Q131.205 921.421 134.584 924.592 Q137.964 927.763 137.964 933.18 Q137.964 938.759 134.492 941.861 Q131.019 944.939 124.7 944.939 Q122.524 944.939 120.255 944.569 Q118.01 944.199 115.603 943.458 L115.603 938.759 Q117.686 939.893 119.908 940.449 Q122.13 941.004 124.607 941.004 Q128.612 941.004 130.95 938.898 Q133.288 936.791 133.288 933.18 Q133.288 929.569 130.95 927.463 Q128.612 925.356 124.607 925.356 Q122.732 925.356 120.857 925.773 Q119.006 926.189 117.061 927.069 L117.061 909.708 Z" fill="#000000" fill-rule="evenodd" fill-opacity="1" /><path clip-path="url(#clip300)" d="M145.996 909.708 L168.218 909.708 L168.218 911.699 L155.672 944.268 L150.788 944.268 L162.593 913.643 L145.996 913.643 L145.996 909.708 Z" fill="#000000" fill-rule="evenodd" fill-opacity="1" /><path clip-path="url(#clip300)" d="M177.339 938.388 L182.223 938.388 L182.223 944.268 L177.339 944.268 L177.339 938.388 Z" fill="#000000" fill-rule="evenodd" fill-opacity="1" /><path clip-path="url(#clip300)" d="M192.454 909.708 L210.811 909.708 L210.811 913.643 L196.737 913.643 L196.737 922.115 Q197.755 921.768 198.774 921.606 Q199.792 921.421 200.811 921.421 Q206.598 921.421 209.977 924.592 Q213.357 927.763 213.357 933.18 Q213.357 938.759 209.885 941.861 Q206.412 944.939 200.093 944.939 Q197.917 944.939 195.649 944.569 Q193.403 944.199 190.996 943.458 L190.996 938.759 Q193.079 939.893 195.301 940.449 Q197.524 941.004 200 941.004 Q204.005 941.004 206.343 938.898 Q208.681 936.791 208.681 933.18 Q208.681 929.569 206.343 927.463 Q204.005 925.356 200 925.356 Q198.125 925.356 196.25 925.773 Q194.399 926.189 192.454 927.069 L192.454 909.708 Z" fill="#000000" fill-rule="evenodd" fill-opacity="1" /><path clip-path="url(#clip300)" d="M126.598 677.728 Q123.45 677.728 121.598 679.88 Q119.769 682.033 119.769 685.783 Q119.769 689.51 121.598 691.686 Q123.45 693.839 126.598 693.839 Q129.746 693.839 131.575 691.686 Q133.427 689.51 133.427 685.783 Q133.427 682.033 131.575 679.88 Q129.746 677.728 126.598 677.728 M135.88 663.075 L135.88 667.334 Q134.121 666.501 132.316 666.061 Q130.533 665.621 128.774 665.621 Q124.144 665.621 121.691 668.746 Q119.26 671.871 118.913 678.191 Q120.279 676.177 122.339 675.112 Q124.399 674.024 126.876 674.024 Q132.084 674.024 135.093 677.195 Q138.126 680.343 138.126 685.783 Q138.126 691.107 134.978 694.325 Q131.83 697.542 126.598 697.542 Q120.603 697.542 117.431 692.959 Q114.26 688.352 114.26 679.626 Q114.26 671.431 118.149 666.57 Q122.038 661.686 128.589 661.686 Q130.348 661.686 132.13 662.033 Q133.936 662.38 135.88 663.075 Z" fill="#000000" fill-rule="evenodd" fill-opacity="1" /><path clip-path="url(#clip300)" d="M156.181 665.39 Q152.57 665.39 150.741 668.954 Q148.936 672.496 148.936 679.626 Q148.936 686.732 150.741 690.297 Q152.57 693.839 156.181 693.839 Q159.815 693.839 161.621 690.297 Q163.45 686.732 163.45 679.626 Q163.45 672.496 161.621 668.954 Q159.815 665.39 156.181 665.39 M156.181 661.686 Q161.991 661.686 165.047 666.292 Q168.126 670.876 168.126 679.626 Q168.126 688.352 165.047 692.959 Q161.991 697.542 156.181 697.542 Q150.371 697.542 147.292 692.959 Q144.237 688.352 144.237 679.626 Q144.237 670.876 147.292 666.292 Q150.371 661.686 156.181 661.686 Z" fill="#000000" fill-rule="evenodd" fill-opacity="1" /><path clip-path="url(#clip300)" d="M176.343 690.991 L181.227 690.991 L181.227 696.871 L176.343 696.871 L176.343 690.991 Z" fill="#000000" fill-rule="evenodd" fill-opacity="1" /><path clip-path="url(#clip300)" d="M201.412 665.39 Q197.801 665.39 195.973 668.954 Q194.167 672.496 194.167 679.626 Q194.167 686.732 195.973 690.297 Q197.801 693.839 201.412 693.839 Q205.047 693.839 206.852 690.297 Q208.681 686.732 208.681 679.626 Q208.681 672.496 206.852 668.954 Q205.047 665.39 201.412 665.39 M201.412 661.686 Q207.223 661.686 210.278 666.292 Q213.357 670.876 213.357 679.626 Q213.357 688.352 210.278 692.959 Q207.223 697.542 201.412 697.542 Q195.602 697.542 192.524 692.959 Q189.468 688.352 189.468 679.626 Q189.468 670.876 192.524 666.292 Q195.602 661.686 201.412 661.686 Z" fill="#000000" fill-rule="evenodd" fill-opacity="1" /><path clip-path="url(#clip300)" d="M127.593 430.33 Q124.445 430.33 122.593 432.483 Q120.765 434.636 120.765 438.386 Q120.765 442.113 122.593 444.289 Q124.445 446.442 127.593 446.442 Q130.742 446.442 132.57 444.289 Q134.422 442.113 134.422 438.386 Q134.422 434.636 132.57 432.483 Q130.742 430.33 127.593 430.33 M136.876 415.678 L136.876 419.937 Q135.117 419.104 133.311 418.664 Q131.529 418.224 129.769 418.224 Q125.14 418.224 122.686 421.349 Q120.255 424.474 119.908 430.793 Q121.274 428.78 123.334 427.715 Q125.394 426.627 127.871 426.627 Q133.08 426.627 136.089 429.798 Q139.121 432.946 139.121 438.386 Q139.121 443.71 135.973 446.928 Q132.825 450.145 127.593 450.145 Q121.598 450.145 118.427 445.562 Q115.256 440.955 115.256 432.229 Q115.256 424.034 119.144 419.173 Q123.033 414.289 129.584 414.289 Q131.343 414.289 133.126 414.636 Q134.931 414.983 136.876 415.678 Z" fill="#000000" fill-rule="evenodd" fill-opacity="1" /><path clip-path="url(#clip300)" d="M151.204 445.539 L167.524 445.539 L167.524 449.474 L145.579 449.474 L145.579 445.539 Q148.241 442.784 152.825 438.155 Q157.431 433.502 158.612 432.159 Q160.857 429.636 161.737 427.9 Q162.64 426.141 162.64 424.451 Q162.64 421.696 160.695 419.96 Q158.774 418.224 155.672 418.224 Q153.473 418.224 151.019 418.988 Q148.589 419.752 145.811 421.303 L145.811 416.581 Q148.635 415.446 151.089 414.868 Q153.542 414.289 155.579 414.289 Q160.95 414.289 164.144 416.974 Q167.339 419.659 167.339 424.15 Q167.339 426.28 166.528 428.201 Q165.741 430.099 163.635 432.692 Q163.056 433.363 159.954 436.58 Q156.853 439.775 151.204 445.539 Z" fill="#000000" fill-rule="evenodd" fill-opacity="1" /><path clip-path="url(#clip300)" d="M177.339 443.594 L182.223 443.594 L182.223 449.474 L177.339 449.474 L177.339 443.594 Z" fill="#000000" fill-rule="evenodd" fill-opacity="1" /><path clip-path="url(#clip300)" d="M192.454 414.914 L210.811 414.914 L210.811 418.849 L196.737 418.849 L196.737 427.321 Q197.755 426.974 198.774 426.812 Q199.792 426.627 200.811 426.627 Q206.598 426.627 209.977 429.798 Q213.357 432.969 213.357 438.386 Q213.357 443.965 209.885 447.067 Q206.412 450.145 200.093 450.145 Q197.917 450.145 195.649 449.775 Q193.403 449.404 190.996 448.664 L190.996 443.965 Q193.079 445.099 195.301 445.654 Q197.524 446.21 200 446.21 Q204.005 446.21 206.343 444.104 Q208.681 441.997 208.681 438.386 Q208.681 434.775 206.343 432.668 Q204.005 430.562 200 430.562 Q198.125 430.562 196.25 430.979 Q194.399 431.395 192.454 432.275 L192.454 414.914 Z" fill="#000000" fill-rule="evenodd" fill-opacity="1" /><path clip-path="url(#clip300)" d="M126.598 182.933 Q123.45 182.933 121.598 185.086 Q119.769 187.239 119.769 190.989 Q119.769 194.716 121.598 196.892 Q123.45 199.044 126.598 199.044 Q129.746 199.044 131.575 196.892 Q133.427 194.716 133.427 190.989 Q133.427 187.239 131.575 185.086 Q129.746 182.933 126.598 182.933 M135.88 168.281 L135.88 172.54 Q134.121 171.707 132.316 171.267 Q130.533 170.827 128.774 170.827 Q124.144 170.827 121.691 173.952 Q119.26 177.077 118.913 183.396 Q120.279 181.383 122.339 180.318 Q124.399 179.23 126.876 179.23 Q132.084 179.23 135.093 182.401 Q138.126 185.549 138.126 190.989 Q138.126 196.313 134.978 199.531 Q131.83 202.748 126.598 202.748 Q120.603 202.748 117.431 198.165 Q114.26 193.558 114.26 184.832 Q114.26 176.637 118.149 171.776 Q122.038 166.892 128.589 166.892 Q130.348 166.892 132.13 167.239 Q133.936 167.586 135.88 168.281 Z" fill="#000000" fill-rule="evenodd" fill-opacity="1" /><path clip-path="url(#clip300)" d="M146.228 167.517 L164.584 167.517 L164.584 171.452 L150.51 171.452 L150.51 179.924 Q151.528 179.577 152.547 179.415 Q153.566 179.23 154.584 179.23 Q160.371 179.23 163.751 182.401 Q167.13 185.572 167.13 190.989 Q167.13 196.568 163.658 199.669 Q160.186 202.748 153.866 202.748 Q151.691 202.748 149.422 202.378 Q147.177 202.007 144.769 201.267 L144.769 196.568 Q146.853 197.702 149.075 198.257 Q151.297 198.813 153.774 198.813 Q157.778 198.813 160.116 196.707 Q162.454 194.6 162.454 190.989 Q162.454 187.378 160.116 185.271 Q157.778 183.165 153.774 183.165 Q151.899 183.165 150.024 183.582 Q148.172 183.998 146.228 184.878 L146.228 167.517 Z" fill="#000000" fill-rule="evenodd" fill-opacity="1" /><path clip-path="url(#clip300)" d="M176.343 196.197 L181.227 196.197 L181.227 202.077 L176.343 202.077 L176.343 196.197 Z" fill="#000000" fill-rule="evenodd" fill-opacity="1" /><path clip-path="url(#clip300)" d="M201.412 170.596 Q197.801 170.596 195.973 174.16 Q194.167 177.702 194.167 184.832 Q194.167 191.938 195.973 195.503 Q197.801 199.044 201.412 199.044 Q205.047 199.044 206.852 195.503 Q208.681 191.938 208.681 184.832 Q208.681 177.702 206.852 174.16 Q205.047 170.596 201.412 170.596 M201.412 166.892 Q207.223 166.892 210.278 171.498 Q213.357 176.082 213.357 184.832 Q213.357 193.558 210.278 198.165 Q207.223 202.748 201.412 202.748 Q195.602 202.748 192.524 198.165 Q189.468 193.558 189.468 184.832 Q189.468 176.082 192.524 171.498 Q195.602 166.892 201.412 166.892 Z" fill="#000000" fill-rule="evenodd" fill-opacity="1" /><path clip-path="url(#clip300)" d="M20.1444 847.457 L26.9239 847.457 Q23.9002 850.703 22.4043 854.395 Q20.9083 858.055 20.9083 862.193 Q20.9083 870.341 25.9054 874.67 Q30.8707 878.999 40.2919 878.999 Q49.6813 878.999 54.6784 874.67 Q59.6436 870.341 59.6436 862.193 Q59.6436 858.055 58.1477 854.395 Q56.6518 850.703 53.6281 847.457 L60.3439 847.457 Q62.6355 850.83 63.7814 854.618 Q64.9272 858.374 64.9272 862.575 Q64.9272 873.365 58.3387 879.572 Q51.7183 885.778 40.2919 885.778 Q28.8336 885.778 22.2451 879.572 Q15.6248 873.365 15.6248 862.575 Q15.6248 858.31 16.7706 854.554 Q17.8846 850.767 20.1444 847.457 Z" fill="#000000" fill-rule="evenodd" fill-opacity="1" /><path clip-path="url(#clip300)" d="M28.3562 840.327 L28.3562 812.509 L33.7034 812.509 L59.3254 834.534 L59.3254 812.509 L64.0042 812.509 L64.0042 841.123 L58.657 841.123 L33.035 819.097 L33.035 840.327 L28.3562 840.327 Z" fill="#000000" fill-rule="evenodd" fill-opacity="1" /><path clip-path="url(#clip300)" d="M46.0847 787.364 Q46.0847 794.462 47.7079 797.199 Q49.3312 799.937 53.2461 799.937 Q56.3653 799.937 58.2114 797.9 Q60.0256 795.831 60.0256 792.298 Q60.0256 787.428 56.5881 784.5 Q53.1188 781.54 47.3897 781.54 L46.0847 781.54 L46.0847 787.364 M43.6657 775.683 L64.0042 775.683 L64.0042 781.54 L58.5933 781.54 Q61.8398 783.545 63.3994 786.537 Q64.9272 789.529 64.9272 793.857 Q64.9272 799.332 61.8716 802.578 Q58.7843 805.793 53.6281 805.793 Q47.6125 805.793 44.5569 801.783 Q41.5014 797.74 41.5014 789.751 L41.5014 781.54 L40.9285 781.54 Q36.8862 781.54 34.6901 784.213 Q32.4621 786.855 32.4621 791.661 Q32.4621 794.717 33.1941 797.613 Q33.9262 800.51 35.3903 803.183 L29.9795 803.183 Q28.7381 799.968 28.1334 796.945 Q27.4968 793.921 27.4968 791.056 Q27.4968 783.322 31.5072 779.503 Q35.5176 775.683 43.6657 775.683 Z" fill="#000000" fill-rule="evenodd" fill-opacity="1" /><path clip-path="url(#clip300)" d="M29.4065 740.895 L34.9447 740.895 Q33.6716 743.377 33.035 746.051 Q32.3984 748.724 32.3984 751.589 Q32.3984 755.95 33.7352 758.146 Q35.072 760.31 37.7456 760.31 Q39.7826 760.31 40.9603 758.75 Q42.1061 757.191 43.1565 752.48 L43.6021 750.475 Q44.9389 744.237 47.3897 741.627 Q49.8086 738.985 54.1691 738.985 Q59.1344 738.985 62.0308 742.932 Q64.9272 746.847 64.9272 753.722 Q64.9272 756.586 64.3543 759.705 Q63.8132 762.793 62.6992 766.23 L56.6518 766.23 Q58.3387 762.984 59.198 759.833 Q60.0256 756.682 60.0256 753.594 Q60.0256 749.457 58.6251 747.229 Q57.1929 745.001 54.6147 745.001 Q52.2276 745.001 50.9545 746.624 Q49.6813 748.215 48.5037 753.658 L48.0262 755.695 Q46.8804 761.138 44.5251 763.557 Q42.138 765.976 38.0002 765.976 Q32.9713 765.976 30.2341 762.411 Q27.4968 758.846 27.4968 752.289 Q27.4968 749.043 27.9743 746.178 Q28.4517 743.314 29.4065 740.895 Z" fill="#000000" fill-rule="evenodd" fill-opacity="1" /><path clip-path="url(#clip300)" d="M14.479 709.48 L14.479 695.985 L19.0304 695.985 L19.0304 703.623 L68.0464 703.623 L68.0464 695.985 L72.5979 695.985 L72.5979 709.48 L14.479 709.48 Z" fill="#000000" fill-rule="evenodd" fill-opacity="1" /><path clip-path="url(#clip300)" d="M35.1993 655.753 Q31.2526 653.557 29.3747 650.502 Q27.4968 647.446 27.4968 643.308 Q27.4968 637.738 31.4117 634.715 Q35.2948 631.691 42.4881 631.691 L64.0042 631.691 L64.0042 637.579 L42.679 637.579 Q37.5546 637.579 35.072 639.393 Q32.5894 641.208 32.5894 644.932 Q32.5894 649.483 35.6131 652.125 Q38.6368 654.767 43.8567 654.767 L64.0042 654.767 L64.0042 660.655 L42.679 660.655 Q37.5228 660.655 35.072 662.469 Q32.5894 664.283 32.5894 668.071 Q32.5894 672.559 35.6449 675.201 Q38.6686 677.842 43.8567 677.842 L64.0042 677.842 L64.0042 683.731 L28.3562 683.731 L28.3562 677.842 L33.8944 677.842 Q30.616 675.837 29.0564 673.036 Q27.4968 670.235 27.4968 666.384 Q27.4968 662.501 29.4702 659.796 Q31.4436 657.058 35.1993 655.753 Z" fill="#000000" fill-rule="evenodd" fill-opacity="1" /><path clip-path="url(#clip300)" d="M29.4065 597.284 L34.9447 597.284 Q33.6716 599.767 33.035 602.441 Q32.3984 605.114 32.3984 607.979 Q32.3984 612.339 33.7352 614.535 Q35.072 616.7 37.7456 616.7 Q39.7826 616.7 40.9603 615.14 Q42.1061 613.581 43.1565 608.87 L43.6021 606.865 Q44.9389 600.626 47.3897 598.016 Q49.8086 595.375 54.1691 595.375 Q59.1344 595.375 62.0308 599.321 Q64.9272 603.236 64.9272 610.111 Q64.9272 612.976 64.3543 616.095 Q63.8132 619.182 62.6992 622.62 L56.6518 622.62 Q58.3387 619.373 59.198 616.222 Q60.0256 613.071 60.0256 609.984 Q60.0256 605.846 58.6251 603.618 Q57.1929 601.39 54.6147 601.39 Q52.2276 601.39 50.9545 603.013 Q49.6813 604.605 48.5037 610.048 L48.0262 612.085 Q46.8804 617.527 44.5251 619.946 Q42.138 622.365 38.0002 622.365 Q32.9713 622.365 30.2341 618.8 Q27.4968 615.236 27.4968 608.679 Q27.4968 605.432 27.9743 602.568 Q28.4517 599.703 29.4065 597.284 Z" fill="#000000" fill-rule="evenodd" fill-opacity="1" /><path clip-path="url(#clip300)" d="M14.479 572.363 L72.5979 572.363 L72.5979 585.858 L68.0464 585.858 L68.0464 578.251 L19.0304 578.251 L19.0304 585.858 L14.479 585.858 L14.479 572.363 Z" fill="#000000" fill-rule="evenodd" fill-opacity="1" /><circle clip-path="url(#clip302)" cx="308.887" cy="1322.82" r="14" fill="#009af9" fill-rule="evenodd" fill-opacity="1" stroke="#000000" stroke-opacity="1" stroke-width="3.2"/>
<circle clip-path="url(#clip302)" cx="337.029" cy="1322.82" r="14" fill="#009af9" fill-rule="evenodd" fill-opacity="1" stroke="#000000" stroke-opacity="1" stroke-width="3.2"/>
<circle clip-path="url(#clip302)" cx="362.204" cy="1283.24" r="14" fill="#009af9" fill-rule="evenodd" fill-opacity="1" stroke="#000000" stroke-opacity="1" stroke-width="3.2"/>
<circle clip-path="url(#clip302)" cx="384.976" cy="1184.28" r="14" fill="#009af9" fill-rule="evenodd" fill-opacity="1" stroke="#000000" stroke-opacity="1" stroke-width="3.2"/>
<circle clip-path="url(#clip302)" cx="405.766" cy="1124.91" r="14" fill="#009af9" fill-rule="evenodd" fill-opacity="1" stroke="#000000" stroke-opacity="1" stroke-width="3.2"/>
<circle clip-path="url(#clip302)" cx="424.891" cy="1293.14" r="14" fill="#009af9" fill-rule="evenodd" fill-opacity="1" stroke="#000000" stroke-opacity="1" stroke-width="3.2"/>
<circle clip-path="url(#clip302)" cx="450.983" cy="1303.03" r="14" fill="#009af9" fill-rule="evenodd" fill-opacity="1" stroke="#000000" stroke-opacity="1" stroke-width="3.2"/>
<circle clip-path="url(#clip302)" cx="474.503" cy="1322.82" r="14" fill="#009af9" fill-rule="evenodd" fill-opacity="1" stroke="#000000" stroke-opacity="1" stroke-width="3.2"/>
<circle clip-path="url(#clip302)" cx="495.915" cy="1233.76" r="14" fill="#009af9" fill-rule="evenodd" fill-opacity="1" stroke="#000000" stroke-opacity="1" stroke-width="3.2"/>
<circle clip-path="url(#clip302)" cx="515.564" cy="1233.76" r="14" fill="#009af9" fill-rule="evenodd" fill-opacity="1" stroke="#000000" stroke-opacity="1" stroke-width="3.2"/>
<circle clip-path="url(#clip302)" cx="539.477" cy="1362.41" r="14" fill="#009af9" fill-rule="evenodd" fill-opacity="1" stroke="#000000" stroke-opacity="1" stroke-width="3.2"/>
<circle clip-path="url(#clip302)" cx="561.214" cy="1194.18" r="14" fill="#009af9" fill-rule="evenodd" fill-opacity="1" stroke="#000000" stroke-opacity="1" stroke-width="3.2"/>
<circle clip-path="url(#clip302)" cx="585.868" cy="1194.18" r="14" fill="#009af9" fill-rule="evenodd" fill-opacity="1" stroke="#000000" stroke-opacity="1" stroke-width="3.2"/>
<circle clip-path="url(#clip302)" cx="608.214" cy="1213.97" r="14" fill="#009af9" fill-rule="evenodd" fill-opacity="1" stroke="#000000" stroke-opacity="1" stroke-width="3.2"/>
<circle clip-path="url(#clip302)" cx="632.534" cy="1352.51" r="14" fill="#009af9" fill-rule="evenodd" fill-opacity="1" stroke="#000000" stroke-opacity="1" stroke-width="3.2"/>
<circle clip-path="url(#clip302)" cx="654.605" cy="1253.55" r="14" fill="#009af9" fill-rule="evenodd" fill-opacity="1" stroke="#000000" stroke-opacity="1" stroke-width="3.2"/>
<circle clip-path="url(#clip302)" cx="678.016" cy="1253.55" r="14" fill="#009af9" fill-rule="evenodd" fill-opacity="1" stroke="#000000" stroke-opacity="1" stroke-width="3.2"/>
<circle clip-path="url(#clip302)" cx="699.336" cy="1273.34" r="14" fill="#009af9" fill-rule="evenodd" fill-opacity="1" stroke="#000000" stroke-opacity="1" stroke-width="3.2"/>
<circle clip-path="url(#clip302)" cx="721.578" cy="1372.3" r="14" fill="#009af9" fill-rule="evenodd" fill-opacity="1" stroke="#000000" stroke-opacity="1" stroke-width="3.2"/>
<circle clip-path="url(#clip302)" cx="744.351" cy="1283.24" r="14" fill="#009af9" fill-rule="evenodd" fill-opacity="1" stroke="#000000" stroke-opacity="1" stroke-width="3.2"/>
<circle clip-path="url(#clip302)" cx="767.343" cy="1164.49" r="14" fill="#009af9" fill-rule="evenodd" fill-opacity="1" stroke="#000000" stroke-opacity="1" stroke-width="3.2"/>
<circle clip-path="url(#clip302)" cx="790.315" cy="1283.24" r="14" fill="#009af9" fill-rule="evenodd" fill-opacity="1" stroke="#000000" stroke-opacity="1" stroke-width="3.2"/>
<circle clip-path="url(#clip302)" cx="813.088" cy="1164.49" r="14" fill="#009af9" fill-rule="evenodd" fill-opacity="1" stroke="#000000" stroke-opacity="1" stroke-width="3.2"/>
<circle clip-path="url(#clip302)" cx="835.532" cy="1283.24" r="14" fill="#009af9" fill-rule="evenodd" fill-opacity="1" stroke="#000000" stroke-opacity="1" stroke-width="3.2"/>
<circle clip-path="url(#clip302)" cx="859.052" cy="1312.93" r="14" fill="#009af9" fill-rule="evenodd" fill-opacity="1" stroke="#000000" stroke-opacity="1" stroke-width="3.2"/>
<circle clip-path="url(#clip302)" cx="881.825" cy="1362.41" r="14" fill="#009af9" fill-rule="evenodd" fill-opacity="1" stroke="#000000" stroke-opacity="1" stroke-width="3.2"/>
<circle clip-path="url(#clip302)" cx="905.091" cy="1303.03" r="14" fill="#009af9" fill-rule="evenodd" fill-opacity="1" stroke="#000000" stroke-opacity="1" stroke-width="3.2"/>
<circle clip-path="url(#clip302)" cx="927.416" cy="1332.72" r="14" fill="#009af9" fill-rule="evenodd" fill-opacity="1" stroke="#000000" stroke-opacity="1" stroke-width="3.2"/>
<circle clip-path="url(#clip302)" cx="949.882" cy="1303.03" r="14" fill="#009af9" fill-rule="evenodd" fill-opacity="1" stroke="#000000" stroke-opacity="1" stroke-width="3.2"/>
<circle clip-path="url(#clip302)" cx="972.284" cy="1253.55" r="14" fill="#009af9" fill-rule="evenodd" fill-opacity="1" stroke="#000000" stroke-opacity="1" stroke-width="3.2"/>
<circle clip-path="url(#clip302)" cx="995.31" cy="1154.59" r="14" fill="#009af9" fill-rule="evenodd" fill-opacity="1" stroke="#000000" stroke-opacity="1" stroke-width="3.2"/>
<circle clip-path="url(#clip302)" cx="1017.85" cy="1253.55" r="14" fill="#009af9" fill-rule="evenodd" fill-opacity="1" stroke="#000000" stroke-opacity="1" stroke-width="3.2"/>
<circle clip-path="url(#clip302)" cx="1040.56" cy="1263.45" r="14" fill="#009af9" fill-rule="evenodd" fill-opacity="1" stroke="#000000" stroke-opacity="1" stroke-width="3.2"/>
<circle clip-path="url(#clip302)" cx="1063.2" cy="1312.93" r="14" fill="#009af9" fill-rule="evenodd" fill-opacity="1" stroke="#000000" stroke-opacity="1" stroke-width="3.2"/>
<circle clip-path="url(#clip302)" cx="1086.2" cy="1372.3" r="14" fill="#009af9" fill-rule="evenodd" fill-opacity="1" stroke="#000000" stroke-opacity="1" stroke-width="3.2"/>
<circle clip-path="url(#clip302)" cx="1108.77" cy="1312.93" r="14" fill="#009af9" fill-rule="evenodd" fill-opacity="1" stroke="#000000" stroke-opacity="1" stroke-width="3.2"/>
<circle clip-path="url(#clip302)" cx="1131.78" cy="1233.76" r="14" fill="#009af9" fill-rule="evenodd" fill-opacity="1" stroke="#000000" stroke-opacity="1" stroke-width="3.2"/>
<circle clip-path="url(#clip302)" cx="1154.51" cy="1204.07" r="14" fill="#009af9" fill-rule="evenodd" fill-opacity="1" stroke="#000000" stroke-opacity="1" stroke-width="3.2"/>
<circle clip-path="url(#clip302)" cx="1177.24" cy="1184.28" r="14" fill="#009af9" fill-rule="evenodd" fill-opacity="1" stroke="#000000" stroke-opacity="1" stroke-width="3.2"/>
<circle clip-path="url(#clip302)" cx="1200.16" cy="1174.39" r="14" fill="#009af9" fill-rule="evenodd" fill-opacity="1" stroke="#000000" stroke-opacity="1" stroke-width="3.2"/>
<circle clip-path="url(#clip302)" cx="1223.03" cy="1184.28" r="14" fill="#009af9" fill-rule="evenodd" fill-opacity="1" stroke="#000000" stroke-opacity="1" stroke-width="3.2"/>
<circle clip-path="url(#clip302)" cx="1245.68" cy="1303.03" r="14" fill="#009af9" fill-rule="evenodd" fill-opacity="1" stroke="#000000" stroke-opacity="1" stroke-width="3.2"/>
<circle clip-path="url(#clip302)" cx="1268.54" cy="1293.14" r="14" fill="#009af9" fill-rule="evenodd" fill-opacity="1" stroke="#000000" stroke-opacity="1" stroke-width="3.2"/>
<circle clip-path="url(#clip302)" cx="1291.36" cy="1303.03" r="14" fill="#009af9" fill-rule="evenodd" fill-opacity="1" stroke="#000000" stroke-opacity="1" stroke-width="3.2"/>
<circle clip-path="url(#clip302)" cx="1314.2" cy="1194.18" r="14" fill="#009af9" fill-rule="evenodd" fill-opacity="1" stroke="#000000" stroke-opacity="1" stroke-width="3.2"/>
<circle clip-path="url(#clip302)" cx="1336.87" cy="1194.18" r="14" fill="#009af9" fill-rule="evenodd" fill-opacity="1" stroke="#000000" stroke-opacity="1" stroke-width="3.2"/>
<circle clip-path="url(#clip302)" cx="1359.61" cy="1273.34" r="14" fill="#009af9" fill-rule="evenodd" fill-opacity="1" stroke="#000000" stroke-opacity="1" stroke-width="3.2"/>
<circle clip-path="url(#clip302)" cx="1382.38" cy="1065.53" r="14" fill="#009af9" fill-rule="evenodd" fill-opacity="1" stroke="#000000" stroke-opacity="1" stroke-width="3.2"/>
<circle clip-path="url(#clip302)" cx="1405.15" cy="1174.39" r="14" fill="#e26f46" fill-rule="evenodd" fill-opacity="1" stroke="#000000" stroke-opacity="1" stroke-width="3.2"/>
<circle clip-path="url(#clip302)" cx="1427.88" cy="1293.14" r="14" fill="#e26f46" fill-rule="evenodd" fill-opacity="1" stroke="#000000" stroke-opacity="1" stroke-width="3.2"/>
<circle clip-path="url(#clip302)" cx="1450.66" cy="1253.55" r="14" fill="#e26f46" fill-rule="evenodd" fill-opacity="1" stroke="#000000" stroke-opacity="1" stroke-width="3.2"/>
<circle clip-path="url(#clip302)" cx="1473.39" cy="1253.55" r="14" fill="#e26f46" fill-rule="evenodd" fill-opacity="1" stroke="#000000" stroke-opacity="1" stroke-width="3.2"/>
<circle clip-path="url(#clip302)" cx="1496.14" cy="1223.86" r="14" fill="#e26f46" fill-rule="evenodd" fill-opacity="1" stroke="#000000" stroke-opacity="1" stroke-width="3.2"/>
<circle clip-path="url(#clip302)" cx="1518.89" cy="1213.97" r="14" fill="#e26f46" fill-rule="evenodd" fill-opacity="1" stroke="#000000" stroke-opacity="1" stroke-width="3.2"/>
<circle clip-path="url(#clip302)" cx="1541.65" cy="1134.8" r="14" fill="#e26f46" fill-rule="evenodd" fill-opacity="1" stroke="#000000" stroke-opacity="1" stroke-width="3.2"/>
<circle clip-path="url(#clip302)" cx="1564.46" cy="1025.95" r="14" fill="#e26f46" fill-rule="evenodd" fill-opacity="1" stroke="#000000" stroke-opacity="1" stroke-width="3.2"/>
<circle clip-path="url(#clip302)" cx="1587.2" cy="1115.01" r="14" fill="#e26f46" fill-rule="evenodd" fill-opacity="1" stroke="#000000" stroke-opacity="1" stroke-width="3.2"/>
<circle clip-path="url(#clip302)" cx="1609.97" cy="1075.43" r="14" fill="#e26f46" fill-rule="evenodd" fill-opacity="1" stroke="#000000" stroke-opacity="1" stroke-width="3.2"/>
<circle clip-path="url(#clip302)" cx="1632.76" cy="1065.53" r="14" fill="#e26f46" fill-rule="evenodd" fill-opacity="1" stroke="#000000" stroke-opacity="1" stroke-width="3.2"/>
<circle clip-path="url(#clip302)" cx="1655.55" cy="1144.7" r="14" fill="#e26f46" fill-rule="evenodd" fill-opacity="1" stroke="#000000" stroke-opacity="1" stroke-width="3.2"/>
<circle clip-path="url(#clip302)" cx="1678.34" cy="1085.32" r="14" fill="#e26f46" fill-rule="evenodd" fill-opacity="1" stroke="#000000" stroke-opacity="1" stroke-width="3.2"/>
<circle clip-path="url(#clip302)" cx="1701.09" cy="1055.63" r="14" fill="#e26f46" fill-rule="evenodd" fill-opacity="1" stroke="#000000" stroke-opacity="1" stroke-width="3.2"/>
<circle clip-path="url(#clip302)" cx="1723.87" cy="1194.18" r="14" fill="#e26f46" fill-rule="evenodd" fill-opacity="1" stroke="#000000" stroke-opacity="1" stroke-width="3.2"/>
<circle clip-path="url(#clip302)" cx="1746.64" cy="917.092" r="14" fill="#e26f46" fill-rule="evenodd" fill-opacity="1" stroke="#000000" stroke-opacity="1" stroke-width="3.2"/>
<circle clip-path="url(#clip302)" cx="1769.42" cy="1006.16" r="14" fill="#e26f46" fill-rule="evenodd" fill-opacity="1" stroke="#000000" stroke-opacity="1" stroke-width="3.2"/>
<circle clip-path="url(#clip302)" cx="1792.21" cy="1025.95" r="14" fill="#e26f46" fill-rule="evenodd" fill-opacity="1" stroke="#000000" stroke-opacity="1" stroke-width="3.2"/>
<circle clip-path="url(#clip302)" cx="1814.99" cy="1045.74" r="14" fill="#e26f46" fill-rule="evenodd" fill-opacity="1" stroke="#000000" stroke-opacity="1" stroke-width="3.2"/>
<circle clip-path="url(#clip302)" cx="1837.75" cy="877.509" r="14" fill="#e26f46" fill-rule="evenodd" fill-opacity="1" stroke="#000000" stroke-opacity="1" stroke-width="3.2"/>
<circle clip-path="url(#clip302)" cx="1860.53" cy="1045.74" r="14" fill="#e26f46" fill-rule="evenodd" fill-opacity="1" stroke="#000000" stroke-opacity="1" stroke-width="3.2"/>
<circle clip-path="url(#clip302)" cx="1883.31" cy="966.572" r="14" fill="#e26f46" fill-rule="evenodd" fill-opacity="1" stroke="#000000" stroke-opacity="1" stroke-width="3.2"/>
<circle clip-path="url(#clip302)" cx="1906.09" cy="936.884" r="14" fill="#e26f46" fill-rule="evenodd" fill-opacity="1" stroke="#000000" stroke-opacity="1" stroke-width="3.2"/>
<circle clip-path="url(#clip302)" cx="1928.86" cy="689.487" r="14" fill="#e26f46" fill-rule="evenodd" fill-opacity="1" stroke="#000000" stroke-opacity="1" stroke-width="3.2"/>
<circle clip-path="url(#clip302)" cx="1951.63" cy="847.821" r="14" fill="#e26f46" fill-rule="evenodd" fill-opacity="1" stroke="#000000" stroke-opacity="1" stroke-width="3.2"/>
<circle clip-path="url(#clip302)" cx="1974.4" cy="847.821" r="14" fill="#e26f46" fill-rule="evenodd" fill-opacity="1" stroke="#000000" stroke-opacity="1" stroke-width="3.2"/>
<circle clip-path="url(#clip302)" cx="1997.18" cy="946.78" r="14" fill="#e26f46" fill-rule="evenodd" fill-opacity="1" stroke="#000000" stroke-opacity="1" stroke-width="3.2"/>
<circle clip-path="url(#clip302)" cx="2019.95" cy="620.216" r="14" fill="#e26f46" fill-rule="evenodd" fill-opacity="1" stroke="#000000" stroke-opacity="1" stroke-width="3.2"/>
<circle clip-path="url(#clip302)" cx="2042.72" cy="877.509" r="14" fill="#e26f46" fill-rule="evenodd" fill-opacity="1" stroke="#000000" stroke-opacity="1" stroke-width="3.2"/>
<circle clip-path="url(#clip302)" cx="2065.5" cy="709.279" r="14" fill="#e26f46" fill-rule="evenodd" fill-opacity="1" stroke="#000000" stroke-opacity="1" stroke-width="3.2"/>
<circle clip-path="url(#clip302)" cx="2088.28" cy="837.925" r="14" fill="#e26f46" fill-rule="evenodd" fill-opacity="1" stroke="#000000" stroke-opacity="1" stroke-width="3.2"/>
<circle clip-path="url(#clip302)" cx="2111.05" cy="570.736" r="14" fill="#e26f46" fill-rule="evenodd" fill-opacity="1" stroke="#000000" stroke-opacity="1" stroke-width="3.2"/>
<circle clip-path="url(#clip302)" cx="2133.82" cy="649.903" r="14" fill="#e26f46" fill-rule="evenodd" fill-opacity="1" stroke="#000000" stroke-opacity="1" stroke-width="3.2"/>
<circle clip-path="url(#clip302)" cx="2156.59" cy="630.112" r="14" fill="#e26f46" fill-rule="evenodd" fill-opacity="1" stroke="#000000" stroke-opacity="1" stroke-width="3.2"/>
<circle clip-path="url(#clip302)" cx="2179.36" cy="461.882" r="14" fill="#e26f46" fill-rule="evenodd" fill-opacity="1" stroke="#000000" stroke-opacity="1" stroke-width="3.2"/>
<circle clip-path="url(#clip302)" cx="2202.14" cy="85.838" r="14" fill="#e26f46" fill-rule="evenodd" fill-opacity="1" stroke="#000000" stroke-opacity="1" stroke-width="3.2"/>
<circle clip-path="url(#clip302)" cx="2224.91" cy="333.235" r="14" fill="#e26f46" fill-rule="evenodd" fill-opacity="1" stroke="#000000" stroke-opacity="1" stroke-width="3.2"/>
<circle clip-path="url(#clip302)" cx="2247.68" cy="362.923" r="14" fill="#e26f46" fill-rule="evenodd" fill-opacity="1" stroke="#000000" stroke-opacity="1" stroke-width="3.2"/>
<circle clip-path="url(#clip302)" cx="2270.45" cy="155.109" r="14" fill="#e26f46" fill-rule="evenodd" fill-opacity="1" stroke="#000000" stroke-opacity="1" stroke-width="3.2"/>
<circle clip-path="url(#clip302)" cx="2293.23" cy="224.38" r="14" fill="#e26f46" fill-rule="evenodd" fill-opacity="1" stroke="#000000" stroke-opacity="1" stroke-width="3.2"/>
<path clip-path="url(#clip300)" d="
M319.47 248.219 L982.276 248.219 L982.276 92.6992 L319.47 92.6992  Z
  " fill="#ffffff" fill-rule="evenodd" fill-opacity="1"/>
<polyline clip-path="url(#clip300)" style="stroke:#000000; stroke-linecap:butt; stroke-linejoin:round; stroke-width:4; stroke-opacity:1; fill:none" points="
  319.47,248.219 982.276,248.219 982.276,92.6992 319.47,92.6992 319.47,248.219 
  "/>
<circle clip-path="url(#clip300)" cx="412.955" cy="144.539" r="23" fill="#009af9" fill-rule="evenodd" fill-opacity="1" stroke="#000000" stroke-opacity="1" stroke-width="5.12"/>
<path clip-path="url(#clip300)" d="M513.545 127.259 L518.221 127.259 L518.221 159.412 Q518.221 165.662 515.837 168.486 Q513.476 171.31 508.221 171.31 L506.439 171.31 L506.439 167.375 L507.897 167.375 Q510.999 167.375 512.272 165.639 Q513.545 163.903 513.545 159.412 L513.545 127.259 Z" fill="#000000" fill-rule="evenodd" fill-opacity="1" /><path clip-path="url(#clip300)" d="M549.517 147.791 L549.517 149.875 L529.934 149.875 Q530.212 154.273 532.573 156.588 Q534.957 158.879 539.193 158.879 Q541.647 158.879 543.939 158.278 Q546.254 157.676 548.522 156.472 L548.522 160.5 Q546.23 161.472 543.823 161.981 Q541.416 162.49 538.939 162.49 Q532.735 162.49 529.101 158.879 Q525.49 155.268 525.49 149.111 Q525.49 142.745 528.916 139.018 Q532.365 135.268 538.198 135.268 Q543.429 135.268 546.462 138.648 Q549.517 142.004 549.517 147.791 M545.258 146.541 Q545.212 143.046 543.291 140.963 Q541.392 138.879 538.244 138.879 Q534.68 138.879 532.527 140.893 Q530.397 142.907 530.073 146.565 L545.258 146.541 Z" fill="#000000" fill-rule="evenodd" fill-opacity="1" /><path clip-path="url(#clip300)" d="M573.568 139.829 L573.568 125.801 L577.827 125.801 L577.827 161.819 L573.568 161.819 L573.568 157.93 Q572.226 160.245 570.165 161.379 Q568.128 162.49 565.258 162.49 Q560.559 162.49 557.596 158.74 Q554.656 154.991 554.656 148.879 Q554.656 142.768 557.596 139.018 Q560.559 135.268 565.258 135.268 Q568.128 135.268 570.165 136.403 Q572.226 137.514 573.568 139.829 M559.054 148.879 Q559.054 153.578 560.976 156.264 Q562.92 158.926 566.3 158.926 Q569.679 158.926 571.624 156.264 Q573.568 153.578 573.568 148.879 Q573.568 144.18 571.624 141.518 Q569.679 138.833 566.3 138.833 Q562.92 138.833 560.976 141.518 Q559.054 144.18 559.054 148.879 Z" fill="#000000" fill-rule="evenodd" fill-opacity="1" /><path clip-path="url(#clip300)" d="M608.776 147.791 L608.776 149.875 L589.193 149.875 Q589.471 154.273 591.832 156.588 Q594.216 158.879 598.452 158.879 Q600.906 158.879 603.198 158.278 Q605.512 157.676 607.781 156.472 L607.781 160.5 Q605.489 161.472 603.082 161.981 Q600.675 162.49 598.198 162.49 Q591.994 162.49 588.36 158.879 Q584.749 155.268 584.749 149.111 Q584.749 142.745 588.175 139.018 Q591.624 135.268 597.457 135.268 Q602.688 135.268 605.721 138.648 Q608.776 142.004 608.776 147.791 M604.517 146.541 Q604.471 143.046 602.55 140.963 Q600.651 138.879 597.503 138.879 Q593.938 138.879 591.786 140.893 Q589.656 142.907 589.332 146.565 L604.517 146.541 Z" fill="#000000" fill-rule="evenodd" fill-opacity="1" /><path clip-path="url(#clip300)" d="M637.318 146.171 L637.318 161.819 L633.059 161.819 L633.059 146.31 Q633.059 142.629 631.623 140.801 Q630.188 138.972 627.318 138.972 Q623.869 138.972 621.878 141.171 Q619.887 143.37 619.887 147.166 L619.887 161.819 L615.605 161.819 L615.605 135.893 L619.887 135.893 L619.887 139.921 Q621.415 137.583 623.475 136.426 Q625.559 135.268 628.267 135.268 Q632.735 135.268 635.026 138.046 Q637.318 140.801 637.318 146.171 Z" fill="#000000" fill-rule="evenodd" fill-opacity="1" /><path clip-path="url(#clip300)" d="M674.008 125.801 L674.008 129.343 L669.933 129.343 Q667.642 129.343 666.739 130.268 Q665.859 131.194 665.859 133.602 L665.859 135.893 L672.873 135.893 L672.873 139.204 L665.859 139.204 L665.859 161.819 L661.577 161.819 L661.577 139.204 L657.503 139.204 L657.503 135.893 L661.577 135.893 L661.577 134.088 Q661.577 129.759 663.591 127.792 Q665.605 125.801 669.98 125.801 L674.008 125.801 Z" fill="#000000" fill-rule="evenodd" fill-opacity="1" /><path clip-path="url(#clip300)" d="M692.595 139.875 Q691.878 139.458 691.021 139.273 Q690.188 139.065 689.169 139.065 Q685.558 139.065 683.614 141.426 Q681.693 143.764 681.693 148.162 L681.693 161.819 L677.41 161.819 L677.41 135.893 L681.693 135.893 L681.693 139.921 Q683.035 137.56 685.188 136.426 Q687.341 135.268 690.419 135.268 Q690.859 135.268 691.392 135.338 Q691.924 135.384 692.572 135.5 L692.595 139.875 Z" fill="#000000" fill-rule="evenodd" fill-opacity="1" /><path clip-path="url(#clip300)" d="M708.845 148.787 Q703.683 148.787 701.693 149.967 Q699.702 151.148 699.702 153.995 Q699.702 156.264 701.183 157.606 Q702.688 158.926 705.257 158.926 Q708.799 158.926 710.929 156.426 Q713.081 153.903 713.081 149.736 L713.081 148.787 L708.845 148.787 M717.341 147.028 L717.341 161.819 L713.081 161.819 L713.081 157.884 Q711.623 160.245 709.447 161.379 Q707.271 162.49 704.123 162.49 Q700.142 162.49 697.781 160.268 Q695.443 158.023 695.443 154.273 Q695.443 149.898 698.359 147.676 Q701.299 145.454 707.109 145.454 L713.081 145.454 L713.081 145.037 Q713.081 142.097 711.137 140.5 Q709.216 138.879 705.72 138.879 Q703.498 138.879 701.392 139.412 Q699.285 139.944 697.341 141.009 L697.341 137.074 Q699.679 136.171 701.878 135.731 Q704.077 135.268 706.16 135.268 Q711.785 135.268 714.563 138.185 Q717.341 141.102 717.341 147.028 Z" fill="#000000" fill-rule="evenodd" fill-opacity="1" /><path clip-path="url(#clip300)" d="M743.174 148.555 Q743.174 143.926 741.253 141.379 Q739.354 138.833 735.905 138.833 Q732.479 138.833 730.558 141.379 Q728.66 143.926 728.66 148.555 Q728.66 153.162 730.558 155.708 Q732.479 158.254 735.905 158.254 Q739.354 158.254 741.253 155.708 Q743.174 153.162 743.174 148.555 M747.433 158.602 Q747.433 165.222 744.493 168.44 Q741.553 171.68 735.489 171.68 Q733.243 171.68 731.253 171.333 Q729.262 171.009 727.387 170.315 L727.387 166.171 Q729.262 167.19 731.091 167.676 Q732.919 168.162 734.817 168.162 Q739.007 168.162 741.09 165.963 Q743.174 163.787 743.174 159.365 L743.174 157.259 Q741.854 159.551 739.794 160.685 Q737.734 161.819 734.864 161.819 Q730.095 161.819 727.179 158.185 Q724.262 154.551 724.262 148.555 Q724.262 142.537 727.179 138.903 Q730.095 135.268 734.864 135.268 Q737.734 135.268 739.794 136.403 Q741.854 137.537 743.174 139.829 L743.174 135.893 L747.433 135.893 L747.433 158.602 Z" fill="#000000" fill-rule="evenodd" fill-opacity="1" /><path clip-path="url(#clip300)" d="M776.391 140.87 Q777.988 138 780.211 136.634 Q782.433 135.268 785.442 135.268 Q789.493 135.268 791.692 138.116 Q793.891 140.94 793.891 146.171 L793.891 161.819 L789.609 161.819 L789.609 146.31 Q789.609 142.583 788.289 140.778 Q786.97 138.972 784.262 138.972 Q780.951 138.972 779.03 141.171 Q777.109 143.37 777.109 147.166 L777.109 161.819 L772.826 161.819 L772.826 146.31 Q772.826 142.56 771.507 140.778 Q770.188 138.972 767.433 138.972 Q764.169 138.972 762.248 141.194 Q760.326 143.393 760.326 147.166 L760.326 161.819 L756.044 161.819 L756.044 135.893 L760.326 135.893 L760.326 139.921 Q761.785 137.537 763.822 136.403 Q765.859 135.268 768.66 135.268 Q771.484 135.268 773.451 136.704 Q775.442 138.139 776.391 140.87 Z" fill="#000000" fill-rule="evenodd" fill-opacity="1" /><path clip-path="url(#clip300)" d="M824.562 147.791 L824.562 149.875 L804.979 149.875 Q805.257 154.273 807.618 156.588 Q810.002 158.879 814.238 158.879 Q816.692 158.879 818.984 158.278 Q821.298 157.676 823.567 156.472 L823.567 160.5 Q821.275 161.472 818.868 161.981 Q816.46 162.49 813.984 162.49 Q807.78 162.49 804.146 158.879 Q800.535 155.268 800.535 149.111 Q800.535 142.745 803.961 139.018 Q807.41 135.268 813.243 135.268 Q818.474 135.268 821.507 138.648 Q824.562 142.004 824.562 147.791 M820.303 146.541 Q820.257 143.046 818.335 140.963 Q816.437 138.879 813.289 138.879 Q809.724 138.879 807.572 140.893 Q805.442 142.907 805.118 146.565 L820.303 146.541 Z" fill="#000000" fill-rule="evenodd" fill-opacity="1" /><path clip-path="url(#clip300)" d="M853.104 146.171 L853.104 161.819 L848.845 161.819 L848.845 146.31 Q848.845 142.629 847.409 140.801 Q845.974 138.972 843.104 138.972 Q839.655 138.972 837.664 141.171 Q835.673 143.37 835.673 147.166 L835.673 161.819 L831.391 161.819 L831.391 135.893 L835.673 135.893 L835.673 139.921 Q837.201 137.583 839.261 136.426 Q841.345 135.268 844.053 135.268 Q848.52 135.268 850.812 138.046 Q853.104 140.801 853.104 146.171 Z" fill="#000000" fill-rule="evenodd" fill-opacity="1" /><path clip-path="url(#clip300)" d="M865.812 128.532 L865.812 135.893 L874.585 135.893 L874.585 139.204 L865.812 139.204 L865.812 153.278 Q865.812 156.449 866.669 157.352 Q867.548 158.254 870.21 158.254 L874.585 158.254 L874.585 161.819 L870.21 161.819 Q865.28 161.819 863.405 159.99 Q861.53 158.139 861.53 153.278 L861.53 139.204 L858.405 139.204 L858.405 135.893 L861.53 135.893 L861.53 128.532 L865.812 128.532 Z" fill="#000000" fill-rule="evenodd" fill-opacity="1" /><circle clip-path="url(#clip300)" cx="412.955" cy="196.379" r="23" fill="#e26f46" fill-rule="evenodd" fill-opacity="1" stroke="#000000" stroke-opacity="1" stroke-width="5.12"/>
<path clip-path="url(#clip300)" d="M506.439 179.099 L511.161 179.099 L518.43 208.312 L525.675 179.099 L530.93 179.099 L538.198 208.312 L545.443 179.099 L550.189 179.099 L541.508 213.659 L535.629 213.659 L528.337 183.659 L520.976 213.659 L515.096 213.659 L506.439 179.099 Z" fill="#000000" fill-rule="evenodd" fill-opacity="1" /><path clip-path="url(#clip300)" d="M555.166 187.733 L559.425 187.733 L559.425 213.659 L555.166 213.659 L555.166 187.733 M555.166 177.641 L559.425 177.641 L559.425 183.034 L555.166 183.034 L555.166 177.641 Z" fill="#000000" fill-rule="evenodd" fill-opacity="1" /><path clip-path="url(#clip300)" d="M590.513 199.631 L590.513 201.715 L570.929 201.715 Q571.207 206.113 573.568 208.428 Q575.952 210.719 580.189 210.719 Q582.642 210.719 584.934 210.118 Q587.249 209.516 589.517 208.312 L589.517 212.34 Q587.226 213.312 584.818 213.821 Q582.411 214.33 579.934 214.33 Q573.73 214.33 570.096 210.719 Q566.485 207.108 566.485 200.951 Q566.485 194.585 569.911 190.858 Q573.36 187.108 579.193 187.108 Q584.425 187.108 587.457 190.488 Q590.513 193.844 590.513 199.631 M586.253 198.381 Q586.207 194.886 584.286 192.803 Q582.388 190.719 579.239 190.719 Q575.675 190.719 573.522 192.733 Q571.392 194.747 571.068 198.405 L586.253 198.381 Z" fill="#000000" fill-rule="evenodd" fill-opacity="1" /><path clip-path="url(#clip300)" d="M597.503 177.641 L601.763 177.641 L601.763 213.659 L597.503 213.659 L597.503 177.641 Z" fill="#000000" fill-rule="evenodd" fill-opacity="1" /><path clip-path="url(#clip300)" d="M632.85 199.631 L632.85 201.715 L613.267 201.715 Q613.545 206.113 615.906 208.428 Q618.29 210.719 622.526 210.719 Q624.98 210.719 627.272 210.118 Q629.586 209.516 631.855 208.312 L631.855 212.34 Q629.563 213.312 627.156 213.821 Q624.749 214.33 622.272 214.33 Q616.068 214.33 612.434 210.719 Q608.823 207.108 608.823 200.951 Q608.823 194.585 612.249 190.858 Q615.698 187.108 621.531 187.108 Q626.762 187.108 629.795 190.488 Q632.85 193.844 632.85 199.631 M628.591 198.381 Q628.545 194.886 626.623 192.803 Q624.725 190.719 621.577 190.719 Q618.012 190.719 615.86 192.733 Q613.73 194.747 613.406 198.405 L628.591 198.381 Z" fill="#000000" fill-rule="evenodd" fill-opacity="1" /><path clip-path="url(#clip300)" d="M668.035 177.641 L668.035 181.183 L663.961 181.183 Q661.67 181.183 660.767 182.108 Q659.887 183.034 659.887 185.442 L659.887 187.733 L666.901 187.733 L666.901 191.044 L659.887 191.044 L659.887 213.659 L655.605 213.659 L655.605 191.044 L651.531 191.044 L651.531 187.733 L655.605 187.733 L655.605 185.928 Q655.605 181.599 657.619 179.632 Q659.633 177.641 664.008 177.641 L668.035 177.641 Z" fill="#000000" fill-rule="evenodd" fill-opacity="1" /><path clip-path="url(#clip300)" d="M686.623 191.715 Q685.906 191.298 685.049 191.113 Q684.216 190.905 683.197 190.905 Q679.586 190.905 677.642 193.266 Q675.72 195.604 675.72 200.002 L675.72 213.659 L671.438 213.659 L671.438 187.733 L675.72 187.733 L675.72 191.761 Q677.063 189.4 679.216 188.266 Q681.369 187.108 684.447 187.108 Q684.887 187.108 685.419 187.178 Q685.952 187.224 686.6 187.34 L686.623 191.715 Z" fill="#000000" fill-rule="evenodd" fill-opacity="1" /><path clip-path="url(#clip300)" d="M702.873 200.627 Q697.711 200.627 695.72 201.807 Q693.73 202.988 693.73 205.835 Q693.73 208.104 695.211 209.446 Q696.716 210.766 699.285 210.766 Q702.827 210.766 704.956 208.266 Q707.109 205.743 707.109 201.576 L707.109 200.627 L702.873 200.627 M711.368 198.868 L711.368 213.659 L707.109 213.659 L707.109 209.724 Q705.651 212.085 703.475 213.219 Q701.299 214.33 698.151 214.33 Q694.169 214.33 691.808 212.108 Q689.47 209.863 689.47 206.113 Q689.47 201.738 692.387 199.516 Q695.327 197.294 701.137 197.294 L707.109 197.294 L707.109 196.877 Q707.109 193.937 705.165 192.34 Q703.243 190.719 699.748 190.719 Q697.526 190.719 695.419 191.252 Q693.313 191.784 691.369 192.849 L691.369 188.914 Q693.706 188.011 695.906 187.571 Q698.105 187.108 700.188 187.108 Q705.813 187.108 708.591 190.025 Q711.368 192.942 711.368 198.868 Z" fill="#000000" fill-rule="evenodd" fill-opacity="1" /><path clip-path="url(#clip300)" d="M737.202 200.395 Q737.202 195.766 735.28 193.219 Q733.382 190.673 729.933 190.673 Q726.507 190.673 724.586 193.219 Q722.688 195.766 722.688 200.395 Q722.688 205.002 724.586 207.548 Q726.507 210.094 729.933 210.094 Q733.382 210.094 735.28 207.548 Q737.202 205.002 737.202 200.395 M741.461 210.442 Q741.461 217.062 738.521 220.28 Q735.581 223.52 729.516 223.52 Q727.271 223.52 725.28 223.173 Q723.29 222.849 721.415 222.155 L721.415 218.011 Q723.29 219.03 725.118 219.516 Q726.947 220.002 728.845 220.002 Q733.035 220.002 735.118 217.803 Q737.202 215.627 737.202 211.205 L737.202 209.099 Q735.882 211.391 733.822 212.525 Q731.762 213.659 728.891 213.659 Q724.123 213.659 721.206 210.025 Q718.29 206.391 718.29 200.395 Q718.29 194.377 721.206 190.743 Q724.123 187.108 728.891 187.108 Q731.762 187.108 733.822 188.243 Q735.882 189.377 737.202 191.669 L737.202 187.733 L741.461 187.733 L741.461 210.442 Z" fill="#000000" fill-rule="evenodd" fill-opacity="1" /><path clip-path="url(#clip300)" d="M770.419 192.71 Q772.016 189.84 774.238 188.474 Q776.461 187.108 779.47 187.108 Q783.521 187.108 785.72 189.956 Q787.919 192.78 787.919 198.011 L787.919 213.659 L783.637 213.659 L783.637 198.15 Q783.637 194.423 782.317 192.618 Q780.998 190.812 778.289 190.812 Q774.979 190.812 773.058 193.011 Q771.137 195.21 771.137 199.006 L771.137 213.659 L766.854 213.659 L766.854 198.15 Q766.854 194.4 765.535 192.618 Q764.215 190.812 761.461 190.812 Q758.197 190.812 756.276 193.034 Q754.354 195.233 754.354 199.006 L754.354 213.659 L750.072 213.659 L750.072 187.733 L754.354 187.733 L754.354 191.761 Q755.813 189.377 757.85 188.243 Q759.887 187.108 762.688 187.108 Q765.512 187.108 767.479 188.544 Q769.47 189.979 770.419 192.71 Z" fill="#000000" fill-rule="evenodd" fill-opacity="1" /><path clip-path="url(#clip300)" d="M818.59 199.631 L818.59 201.715 L799.007 201.715 Q799.285 206.113 801.646 208.428 Q804.03 210.719 808.266 210.719 Q810.72 210.719 813.011 210.118 Q815.326 209.516 817.595 208.312 L817.595 212.34 Q815.303 213.312 812.896 213.821 Q810.488 214.33 808.011 214.33 Q801.808 214.33 798.174 210.719 Q794.562 207.108 794.562 200.951 Q794.562 194.585 797.988 190.858 Q801.437 187.108 807.271 187.108 Q812.502 187.108 815.535 190.488 Q818.59 193.844 818.59 199.631 M814.331 198.381 Q814.285 194.886 812.363 192.803 Q810.465 190.719 807.317 190.719 Q803.752 190.719 801.599 192.733 Q799.47 194.747 799.146 198.405 L814.331 198.381 Z" fill="#000000" fill-rule="evenodd" fill-opacity="1" /><path clip-path="url(#clip300)" d="M847.132 198.011 L847.132 213.659 L842.872 213.659 L842.872 198.15 Q842.872 194.469 841.437 192.641 Q840.002 190.812 837.132 190.812 Q833.683 190.812 831.692 193.011 Q829.701 195.21 829.701 199.006 L829.701 213.659 L825.419 213.659 L825.419 187.733 L829.701 187.733 L829.701 191.761 Q831.229 189.423 833.289 188.266 Q835.372 187.108 838.081 187.108 Q842.548 187.108 844.84 189.886 Q847.132 192.641 847.132 198.011 Z" fill="#000000" fill-rule="evenodd" fill-opacity="1" /><path clip-path="url(#clip300)" d="M859.84 180.372 L859.84 187.733 L868.613 187.733 L868.613 191.044 L859.84 191.044 L859.84 205.118 Q859.84 208.289 860.696 209.192 Q861.576 210.094 864.238 210.094 L868.613 210.094 L868.613 213.659 L864.238 213.659 Q859.307 213.659 857.432 211.83 Q855.557 209.979 855.557 205.118 L855.557 191.044 L852.432 191.044 L852.432 187.733 L855.557 187.733 L855.557 180.372 L859.84 180.372 Z" fill="#000000" fill-rule="evenodd" fill-opacity="1" /><path clip-path="url(#clip300)" d="M884.261 190.719 Q880.835 190.719 878.844 193.405 Q876.854 196.067 876.854 200.719 Q876.854 205.372 878.821 208.057 Q880.812 210.719 884.261 210.719 Q887.664 210.719 889.654 208.034 Q891.645 205.349 891.645 200.719 Q891.645 196.113 889.654 193.428 Q887.664 190.719 884.261 190.719 M884.261 187.108 Q889.817 187.108 892.988 190.719 Q896.159 194.331 896.159 200.719 Q896.159 207.085 892.988 210.719 Q889.817 214.33 884.261 214.33 Q878.682 214.33 875.511 210.719 Q872.363 207.085 872.363 200.719 Q872.363 194.331 875.511 190.719 Q878.682 187.108 884.261 187.108 M887.479 175.743 L892.085 175.743 L884.539 184.446 L880.997 184.446 L887.479 175.743 Z" fill="#000000" fill-rule="evenodd" fill-opacity="1" /><path clip-path="url(#clip300)" d="M900.742 187.733 L905.002 187.733 L910.326 207.965 L915.627 187.733 L920.65 187.733 L925.974 207.965 L931.275 187.733 L935.534 187.733 L928.752 213.659 L923.728 213.659 L918.15 192.409 L912.548 213.659 L907.525 213.659 L900.742 187.733 Z" fill="#000000" fill-rule="evenodd" fill-opacity="1" /></svg>
