<?xml version="1.0" encoding="utf-8"?>
<svg xmlns="http://www.w3.org/2000/svg" xmlns:xlink="http://www.w3.org/1999/xlink" width="600" height="400" viewBox="0 0 2400 1600">
<defs>
  <clipPath id="clip420">
    <rect x="0" y="0" width="2400" height="1600"/>
  </clipPath>
</defs>
<path clip-path="url(#clip420)" d="
M0 1600 L2400 1600 L2400 0 L0 0  Z
  " fill="#ffffff" fill-rule="evenodd" fill-opacity="1"/>
<defs>
  <clipPath id="clip421">
    <rect x="480" y="0" width="1681" height="1600"/>
  </clipPath>
</defs>
<path clip-path="url(#clip420)" d="
M232.875 1410.9 L2352.76 1410.9 L2352.76 47.2441 L232.875 47.2441  Z
  " fill="#ffffff" fill-rule="evenodd" fill-opacity="1"/>
<defs>
  <clipPath id="clip422">
    <rect x="232" y="47" width="2121" height="1365"/>
  </clipPath>
</defs>
<polyline clip-path="url(#clip422)" style="stroke:#000000; stroke-linecap:butt; stroke-linejoin:round; stroke-width:2; stroke-opacity:0.1; fill:none" points="
  734.169,1410.9 734.169,47.2441 
  "/>
<polyline clip-path="url(#clip422)" style="stroke:#000000; stroke-linecap:butt; stroke-linejoin:round; stroke-width:2; stroke-opacity:0.1; fill:none" points="
  1288.64,1410.9 1288.64,47.2441 
  "/>
<polyline clip-path="url(#clip422)" style="stroke:#000000; stroke-linecap:butt; stroke-linejoin:round; stroke-width:2; stroke-opacity:0.1; fill:none" points="
  1843.12,1410.9 1843.12,47.2441 
  "/>
<polyline clip-path="url(#clip420)" style="stroke:#000000; stroke-linecap:butt; stroke-linejoin:round; stroke-width:4; stroke-opacity:1; fill:none" points="
  232.875,1410.9 2352.76,1410.9 
  "/>
<polyline clip-path="url(#clip420)" style="stroke:#000000; stroke-linecap:butt; stroke-linejoin:round; stroke-width:4; stroke-opacity:1; fill:none" points="
  734.169,1410.9 734.169,1392 
  "/>
<polyline clip-path="url(#clip420)" style="stroke:#000000; stroke-linecap:butt; stroke-linejoin:round; stroke-width:4; stroke-opacity:1; fill:none" points="
  1288.64,1410.9 1288.64,1392 
  "/>
<polyline clip-path="url(#clip420)" style="stroke:#000000; stroke-linecap:butt; stroke-linejoin:round; stroke-width:4; stroke-opacity:1; fill:none" points="
  1843.12,1410.9 1843.12,1392 
  "/>
<path clip-path="url(#clip420)" d="M699.941 1485.02 L707.58 1485.02 L707.58 1458.66 L699.27 1460.32 L699.27 1456.06 L707.534 1454.4 L712.21 1454.4 L712.21 1485.02 L719.849 1485.02 L719.849 1488.96 L699.941 1488.96 L699.941 1485.02 Z" fill="#000000" fill-rule="evenodd" fill-opacity="1" /><path clip-path="url(#clip420)" d="M739.293 1457.48 Q735.682 1457.48 733.853 1461.04 Q732.048 1464.58 732.048 1471.71 Q732.048 1478.82 733.853 1482.38 Q735.682 1485.92 739.293 1485.92 Q742.927 1485.92 744.733 1482.38 Q746.561 1478.82 746.561 1471.71 Q746.561 1464.58 744.733 1461.04 Q742.927 1457.48 739.293 1457.48 M739.293 1453.77 Q745.103 1453.77 748.159 1458.38 Q751.237 1462.96 751.237 1471.71 Q751.237 1480.44 748.159 1485.04 Q745.103 1489.63 739.293 1489.63 Q733.483 1489.63 730.404 1485.04 Q727.349 1480.44 727.349 1471.71 Q727.349 1462.96 730.404 1458.38 Q733.483 1453.77 739.293 1453.77 Z" fill="#000000" fill-rule="evenodd" fill-opacity="1" /><path clip-path="url(#clip420)" d="M755.808 1458.35 L769.067 1458.35 L769.067 1461.55 L751.237 1461.55 L751.237 1458.35 Q753.4 1456.11 757.124 1452.35 Q760.867 1448.57 761.826 1447.48 Q763.651 1445.43 764.365 1444.02 Q765.099 1442.59 765.099 1441.22 Q765.099 1438.98 763.519 1437.57 Q761.958 1436.16 759.438 1436.16 Q757.651 1436.16 755.657 1436.78 Q753.682 1437.4 751.425 1438.66 L751.425 1434.82 Q753.72 1433.9 755.714 1433.43 Q757.707 1432.96 759.362 1432.96 Q763.726 1432.96 766.321 1435.14 Q768.917 1437.32 768.917 1440.97 Q768.917 1442.7 768.258 1444.26 Q767.619 1445.8 765.907 1447.91 Q765.437 1448.46 762.917 1451.07 Q760.397 1453.67 755.808 1458.35 Z" fill="#000000" fill-rule="evenodd" fill-opacity="1" /><path clip-path="url(#clip420)" d="M1254.09 1485.02 L1261.73 1485.02 L1261.73 1458.66 L1253.42 1460.32 L1253.42 1456.06 L1261.68 1454.4 L1266.36 1454.4 L1266.36 1485.02 L1274 1485.02 L1274 1488.96 L1254.09 1488.96 L1254.09 1485.02 Z" fill="#000000" fill-rule="evenodd" fill-opacity="1" /><path clip-path="url(#clip420)" d="M1293.44 1457.48 Q1289.83 1457.48 1288 1461.04 Q1286.19 1464.58 1286.19 1471.71 Q1286.19 1478.82 1288 1482.38 Q1289.83 1485.92 1293.44 1485.92 Q1297.07 1485.92 1298.88 1482.38 Q1300.71 1478.82 1300.71 1471.71 Q1300.71 1464.58 1298.88 1461.04 Q1297.07 1457.48 1293.44 1457.48 M1293.44 1453.77 Q1299.25 1453.77 1302.31 1458.38 Q1305.38 1462.96 1305.38 1471.71 Q1305.38 1480.44 1302.31 1485.04 Q1299.25 1489.63 1293.44 1489.63 Q1287.63 1489.63 1284.55 1485.04 Q1281.5 1480.44 1281.5 1471.71 Q1281.5 1462.96 1284.55 1458.38 Q1287.63 1453.77 1293.44 1453.77 Z" fill="#000000" fill-rule="evenodd" fill-opacity="1" /><path clip-path="url(#clip420)" d="M1318.08 1446.41 Q1320.81 1446.99 1322.33 1448.83 Q1323.87 1450.68 1323.87 1453.38 Q1323.87 1457.54 1321.01 1459.82 Q1318.15 1462.09 1312.89 1462.09 Q1311.12 1462.09 1309.24 1461.73 Q1307.38 1461.4 1305.38 1460.7 L1305.38 1457.03 Q1306.96 1457.95 1308.85 1458.42 Q1310.73 1458.89 1312.78 1458.89 Q1316.35 1458.89 1318.21 1457.48 Q1320.09 1456.07 1320.09 1453.38 Q1320.09 1450.9 1318.34 1449.51 Q1316.61 1448.1 1313.51 1448.1 L1310.24 1448.1 L1310.24 1444.98 L1313.66 1444.98 Q1316.46 1444.98 1317.95 1443.87 Q1319.43 1442.74 1319.43 1440.63 Q1319.43 1438.47 1317.89 1437.32 Q1316.37 1436.16 1313.51 1436.16 Q1311.95 1436.16 1310.16 1436.49 Q1308.37 1436.83 1306.23 1437.55 L1306.23 1434.16 Q1308.39 1433.56 1310.27 1433.26 Q1312.17 1432.96 1313.85 1432.96 Q1318.17 1432.96 1320.69 1434.93 Q1323.21 1436.89 1323.21 1440.24 Q1323.21 1442.57 1321.88 1444.19 Q1320.54 1445.79 1318.08 1446.41 Z" fill="#000000" fill-rule="evenodd" fill-opacity="1" /><path clip-path="url(#clip420)" d="M1807.58 1485.02 L1815.22 1485.02 L1815.22 1458.66 L1806.91 1460.32 L1806.91 1456.06 L1815.17 1454.4 L1819.85 1454.4 L1819.85 1485.02 L1827.48 1485.02 L1827.48 1488.96 L1807.58 1488.96 L1807.58 1485.02 Z" fill="#000000" fill-rule="evenodd" fill-opacity="1" /><path clip-path="url(#clip420)" d="M1846.93 1457.48 Q1843.32 1457.48 1841.49 1461.04 Q1839.68 1464.58 1839.68 1471.71 Q1839.68 1478.82 1841.49 1482.38 Q1843.32 1485.92 1846.93 1485.92 Q1850.56 1485.92 1852.37 1482.38 Q1854.2 1478.82 1854.2 1471.71 Q1854.2 1464.58 1852.37 1461.04 Q1850.56 1457.48 1846.93 1457.48 M1846.93 1453.77 Q1852.74 1453.77 1855.79 1458.38 Q1858.87 1462.96 1858.87 1471.71 Q1858.87 1480.44 1855.79 1485.04 Q1852.74 1489.63 1846.93 1489.63 Q1841.12 1489.63 1838.04 1485.04 Q1834.98 1480.44 1834.98 1471.71 Q1834.98 1462.96 1838.04 1458.38 Q1841.12 1453.77 1846.93 1453.77 Z" fill="#000000" fill-rule="evenodd" fill-opacity="1" /><path clip-path="url(#clip420)" d="M1871.55 1436.78 L1861.96 1451.77 L1871.55 1451.77 L1871.55 1436.78 M1870.55 1433.47 L1875.33 1433.47 L1875.33 1451.77 L1879.34 1451.77 L1879.34 1454.93 L1875.33 1454.93 L1875.33 1461.55 L1871.55 1461.55 L1871.55 1454.93 L1858.87 1454.93 L1858.87 1451.26 L1870.55 1433.47 Z" fill="#000000" fill-rule="evenodd" fill-opacity="1" /><path clip-path="url(#clip420)" d="M931.244 1551.91 Q933.312 1552.61 935.254 1554.9 Q937.227 1557.19 939.201 1561.2 L945.726 1574.19 L938.819 1574.19 L932.739 1562 Q930.384 1557.22 928.156 1555.66 Q925.96 1554.1 922.141 1554.1 L915.138 1554.1 L915.138 1574.19 L908.709 1574.19 L908.709 1526.67 L923.223 1526.67 Q931.371 1526.67 935.381 1530.07 Q939.392 1533.48 939.392 1540.35 Q939.392 1544.84 937.291 1547.8 Q935.222 1550.76 931.244 1551.91 M915.138 1531.95 L915.138 1548.82 L923.223 1548.82 Q927.87 1548.82 930.225 1546.69 Q932.612 1544.52 932.612 1540.35 Q932.612 1536.18 930.225 1534.08 Q927.87 1531.95 923.223 1531.95 L915.138 1531.95 Z" fill="#000000" fill-rule="evenodd" fill-opacity="1" /><path clip-path="url(#clip420)" d="M964.632 1542.64 Q959.921 1542.64 957.184 1546.34 Q954.447 1550 954.447 1556.39 Q954.447 1562.79 957.152 1566.48 Q959.889 1570.14 964.632 1570.14 Q969.31 1570.14 972.048 1566.45 Q974.785 1562.76 974.785 1556.39 Q974.785 1550.06 972.048 1546.37 Q969.31 1542.64 964.632 1542.64 M964.632 1537.68 Q972.271 1537.68 976.631 1542.64 Q980.992 1547.61 980.992 1556.39 Q980.992 1565.15 976.631 1570.14 Q972.271 1575.11 964.632 1575.11 Q956.961 1575.11 952.6 1570.14 Q948.272 1565.15 948.272 1556.39 Q948.272 1547.61 952.6 1542.64 Q956.961 1537.68 964.632 1537.68 Z" fill="#000000" fill-rule="evenodd" fill-opacity="1" /><path clip-path="url(#clip420)" d="M988.153 1538.54 L1015.97 1538.54 L1015.97 1543.88 L993.946 1569.51 L1015.97 1569.51 L1015.97 1574.19 L987.357 1574.19 L987.357 1568.84 L1009.38 1543.22 L988.153 1543.22 L988.153 1538.54 Z" fill="#000000" fill-rule="evenodd" fill-opacity="1" /><path clip-path="url(#clip420)" d="M1052.67 1545.38 Q1054.87 1541.43 1057.92 1539.56 Q1060.98 1537.68 1065.11 1537.68 Q1070.68 1537.68 1073.71 1541.59 Q1076.73 1545.48 1076.73 1552.67 L1076.73 1574.19 L1070.84 1574.19 L1070.84 1552.86 Q1070.84 1547.74 1069.03 1545.25 Q1067.22 1542.77 1063.49 1542.77 Q1058.94 1542.77 1056.3 1545.79 Q1053.66 1548.82 1053.66 1554.04 L1053.66 1574.19 L1047.77 1574.19 L1047.77 1552.86 Q1047.77 1547.7 1045.95 1545.25 Q1044.14 1542.77 1040.35 1542.77 Q1035.86 1542.77 1033.22 1545.83 Q1030.58 1548.85 1030.58 1554.04 L1030.58 1574.19 L1024.69 1574.19 L1024.69 1538.54 L1030.58 1538.54 L1030.58 1544.08 Q1032.59 1540.8 1035.39 1539.24 Q1038.19 1537.68 1042.04 1537.68 Q1045.92 1537.68 1048.63 1539.65 Q1051.36 1541.62 1052.67 1545.38 Z" fill="#000000" fill-rule="evenodd" fill-opacity="1" /><path clip-path="url(#clip420)" d="M1088.41 1538.54 L1094.27 1538.54 L1094.27 1574.19 L1088.41 1574.19 L1088.41 1538.54 M1088.41 1524.66 L1094.27 1524.66 L1094.27 1532.08 L1088.41 1532.08 L1088.41 1524.66 Z" fill="#000000" fill-rule="evenodd" fill-opacity="1" /><path clip-path="url(#clip420)" d="M1122.72 1556.27 Q1115.63 1556.27 1112.89 1557.89 Q1110.15 1559.51 1110.15 1563.43 Q1110.15 1566.55 1112.19 1568.39 Q1114.26 1570.21 1117.79 1570.21 Q1122.66 1570.21 1125.59 1566.77 Q1128.55 1563.3 1128.55 1557.57 L1128.55 1556.27 L1122.72 1556.27 M1134.41 1553.85 L1134.41 1574.19 L1128.55 1574.19 L1128.55 1568.77 Q1126.54 1572.02 1123.55 1573.58 Q1120.56 1575.11 1116.23 1575.11 Q1110.76 1575.11 1107.51 1572.05 Q1104.3 1568.97 1104.3 1563.81 Q1104.3 1557.79 1108.31 1554.74 Q1112.35 1551.68 1120.34 1551.68 L1128.55 1551.68 L1128.55 1551.11 Q1128.55 1547.07 1125.88 1544.87 Q1123.23 1542.64 1118.43 1542.64 Q1115.37 1542.64 1112.48 1543.38 Q1109.58 1544.11 1106.91 1545.57 L1106.91 1540.16 Q1110.12 1538.92 1113.14 1538.31 Q1116.17 1537.68 1119.03 1537.68 Q1126.77 1537.68 1130.59 1541.69 Q1134.41 1545.7 1134.41 1553.85 Z" fill="#000000" fill-rule="evenodd" fill-opacity="1" /><path clip-path="url(#clip420)" d="M1167.12 1544.01 Q1166.14 1543.44 1164.96 1543.18 Q1163.81 1542.9 1162.41 1542.9 Q1157.45 1542.9 1154.78 1546.14 Q1152.13 1549.36 1152.13 1555.41 L1152.13 1574.19 L1146.25 1574.19 L1146.25 1538.54 L1152.13 1538.54 L1152.13 1544.08 Q1153.98 1540.83 1156.94 1539.27 Q1159.9 1537.68 1164.13 1537.68 Q1164.74 1537.68 1165.47 1537.77 Q1166.2 1537.84 1167.09 1538 L1167.12 1544.01 Z" fill="#000000" fill-rule="evenodd" fill-opacity="1" /><path clip-path="url(#clip420)" d="M1194.18 1524.66 L1200.04 1524.66 L1200.04 1543.82 L1204.01 1540.96 L1206.43 1544.33 L1200.04 1548.82 L1200.04 1574.19 L1194.18 1574.19 L1194.18 1552.99 L1190.26 1555.79 L1187.91 1552.41 L1194.18 1547.93 L1194.18 1524.66 Z" fill="#000000" fill-rule="evenodd" fill-opacity="1" /><path clip-path="url(#clip420)" d="M1228.71 1556.27 Q1221.62 1556.27 1218.88 1557.89 Q1216.14 1559.51 1216.14 1563.43 Q1216.14 1566.55 1218.18 1568.39 Q1220.25 1570.21 1223.78 1570.21 Q1228.65 1570.21 1231.58 1566.77 Q1234.54 1563.3 1234.54 1557.57 L1234.54 1556.27 L1228.71 1556.27 M1240.39 1553.85 L1240.39 1574.19 L1234.54 1574.19 L1234.54 1568.77 Q1232.53 1572.02 1229.54 1573.58 Q1226.55 1575.11 1222.22 1575.11 Q1216.75 1575.11 1213.5 1572.05 Q1210.28 1568.97 1210.28 1563.81 Q1210.28 1557.79 1214.29 1554.74 Q1218.34 1551.68 1226.33 1551.68 L1234.54 1551.68 L1234.54 1551.11 Q1234.54 1547.07 1231.86 1544.87 Q1229.22 1542.64 1224.42 1542.64 Q1221.36 1542.64 1218.46 1543.38 Q1215.57 1544.11 1212.89 1545.57 L1212.89 1540.16 Q1216.11 1538.92 1219.13 1538.31 Q1222.16 1537.68 1225.02 1537.68 Q1232.76 1537.68 1236.57 1541.69 Q1240.39 1545.7 1240.39 1553.85 Z" fill="#000000" fill-rule="evenodd" fill-opacity="1" /><path clip-path="url(#clip420)" d="M1275.91 1543.95 L1275.91 1524.66 L1281.77 1524.66 L1281.77 1574.19 L1275.91 1574.19 L1275.91 1568.84 Q1274.07 1572.02 1271.24 1573.58 Q1268.44 1575.11 1264.49 1575.11 Q1258.03 1575.11 1253.95 1569.95 Q1249.91 1564.8 1249.91 1556.39 Q1249.91 1547.99 1253.95 1542.83 Q1258.03 1537.68 1264.49 1537.68 Q1268.44 1537.68 1271.24 1539.24 Q1274.07 1540.77 1275.91 1543.95 M1255.96 1556.39 Q1255.96 1562.85 1258.6 1566.55 Q1261.27 1570.21 1265.92 1570.21 Q1270.57 1570.21 1273.24 1566.55 Q1275.91 1562.85 1275.91 1556.39 Q1275.91 1549.93 1273.24 1546.27 Q1270.57 1542.58 1265.92 1542.58 Q1261.27 1542.58 1258.6 1546.27 Q1255.96 1549.93 1255.96 1556.39 Z" fill="#000000" fill-rule="evenodd" fill-opacity="1" /><path clip-path="url(#clip420)" d="M1293.23 1560.12 L1293.23 1538.54 L1299.09 1538.54 L1299.09 1559.89 Q1299.09 1564.96 1301.06 1567.5 Q1303.03 1570.02 1306.98 1570.02 Q1311.72 1570.02 1314.46 1566.99 Q1317.23 1563.97 1317.23 1558.75 L1317.23 1538.54 L1323.08 1538.54 L1323.08 1574.19 L1317.23 1574.19 L1317.23 1568.71 Q1315.1 1571.96 1312.26 1573.55 Q1309.46 1575.11 1305.74 1575.11 Q1299.6 1575.11 1296.41 1571.29 Q1293.23 1567.47 1293.23 1560.12 M1307.97 1537.68 L1307.97 1537.68 Z" fill="#000000" fill-rule="evenodd" fill-opacity="1" /><path clip-path="url(#clip420)" d="M1364.78 1552.67 L1364.78 1574.19 L1358.92 1574.19 L1358.92 1552.86 Q1358.92 1547.8 1356.95 1545.29 Q1354.98 1542.77 1351.03 1542.77 Q1346.29 1542.77 1343.55 1545.79 Q1340.81 1548.82 1340.81 1554.04 L1340.81 1574.19 L1334.92 1574.19 L1334.92 1538.54 L1340.81 1538.54 L1340.81 1544.08 Q1342.91 1540.86 1345.75 1539.27 Q1348.61 1537.68 1352.34 1537.68 Q1358.48 1537.68 1361.63 1541.5 Q1364.78 1545.29 1364.78 1552.67 Z" fill="#000000" fill-rule="evenodd" fill-opacity="1" /><path clip-path="url(#clip420)" d="M1376.24 1524.66 L1382.13 1524.66 L1382.13 1553.91 L1399.6 1538.54 L1407.08 1538.54 L1388.17 1555.22 L1407.88 1574.19 L1400.24 1574.19 L1382.13 1556.78 L1382.13 1574.19 L1376.24 1574.19 L1376.24 1524.66 Z" fill="#000000" fill-rule="evenodd" fill-opacity="1" /><path clip-path="url(#clip420)" d="M1411.6 1560.12 L1411.6 1538.54 L1417.46 1538.54 L1417.46 1559.89 Q1417.46 1564.96 1419.43 1567.5 Q1421.4 1570.02 1425.35 1570.02 Q1430.09 1570.02 1432.83 1566.99 Q1435.6 1563.97 1435.6 1558.75 L1435.6 1538.54 L1441.45 1538.54 L1441.45 1574.19 L1435.6 1574.19 L1435.6 1568.71 Q1433.47 1571.96 1430.63 1573.55 Q1427.83 1575.11 1424.11 1575.11 Q1417.97 1575.11 1414.78 1571.29 Q1411.6 1567.47 1411.6 1560.12 M1426.34 1537.68 L1426.34 1537.68 Z" fill="#000000" fill-rule="evenodd" fill-opacity="1" /><path clip-path="url(#clip420)" d="M1473.7 1524.66 L1487.19 1524.66 L1487.19 1529.21 L1479.55 1529.21 L1479.55 1578.23 L1487.19 1578.23 L1487.19 1582.78 L1473.7 1582.78 L1473.7 1524.66 Z" fill="#000000" fill-rule="evenodd" fill-opacity="1" /><path clip-path="url(#clip420)" d="M1525.26 1556.39 Q1525.26 1549.93 1522.59 1546.27 Q1519.94 1542.58 1515.3 1542.58 Q1510.65 1542.58 1507.98 1546.27 Q1505.33 1549.93 1505.33 1556.39 Q1505.33 1562.85 1507.98 1566.55 Q1510.65 1570.21 1515.3 1570.21 Q1519.94 1570.21 1522.59 1566.55 Q1525.26 1562.85 1525.26 1556.39 M1505.33 1543.95 Q1507.18 1540.77 1509.98 1539.24 Q1512.81 1537.68 1516.73 1537.68 Q1523.22 1537.68 1527.26 1542.83 Q1531.34 1547.99 1531.34 1556.39 Q1531.34 1564.8 1527.26 1569.95 Q1523.22 1575.11 1516.73 1575.11 Q1512.81 1575.11 1509.98 1573.58 Q1507.18 1572.02 1505.33 1568.84 L1505.33 1574.19 L1499.45 1574.19 L1499.45 1524.66 L1505.33 1524.66 L1505.33 1543.95 Z" fill="#000000" fill-rule="evenodd" fill-opacity="1" /><path clip-path="url(#clip420)" d="M1557.25 1556.27 Q1550.15 1556.27 1547.41 1557.89 Q1544.67 1559.51 1544.67 1563.43 Q1544.67 1566.55 1546.71 1568.39 Q1548.78 1570.21 1552.31 1570.21 Q1557.18 1570.21 1560.11 1566.77 Q1563.07 1563.3 1563.07 1557.57 L1563.07 1556.27 L1557.25 1556.27 M1568.93 1553.85 L1568.93 1574.19 L1563.07 1574.19 L1563.07 1568.77 Q1561.07 1572.02 1558.07 1573.58 Q1555.08 1575.11 1550.75 1575.11 Q1545.28 1575.11 1542.03 1572.05 Q1538.82 1568.97 1538.82 1563.81 Q1538.82 1557.79 1542.83 1554.74 Q1546.87 1551.68 1554.86 1551.68 L1563.07 1551.68 L1563.07 1551.11 Q1563.07 1547.07 1560.4 1544.87 Q1557.76 1542.64 1552.95 1542.64 Q1549.89 1542.64 1547 1543.38 Q1544.1 1544.11 1541.43 1545.57 L1541.43 1540.16 Q1544.64 1538.92 1547.67 1538.31 Q1550.69 1537.68 1553.56 1537.68 Q1561.29 1537.68 1565.11 1541.69 Q1568.93 1545.7 1568.93 1553.85 Z" fill="#000000" fill-rule="evenodd" fill-opacity="1" /><path clip-path="url(#clip420)" d="M1580.99 1538.54 L1586.85 1538.54 L1586.85 1574.82 Q1586.85 1581.63 1584.24 1584.69 Q1581.66 1587.74 1575.9 1587.74 L1573.67 1587.74 L1573.67 1582.78 L1575.23 1582.78 Q1578.57 1582.78 1579.78 1581.22 Q1580.99 1579.69 1580.99 1574.82 L1580.99 1538.54 M1580.99 1524.66 L1586.85 1524.66 L1586.85 1532.08 L1580.99 1532.08 L1580.99 1524.66 Z" fill="#000000" fill-rule="evenodd" fill-opacity="1" /><path clip-path="url(#clip420)" d="M1604.89 1528.42 L1604.89 1538.54 L1616.96 1538.54 L1616.96 1543.09 L1604.89 1543.09 L1604.89 1562.44 Q1604.89 1566.8 1606.07 1568.04 Q1607.28 1569.28 1610.94 1569.28 L1616.96 1569.28 L1616.96 1574.19 L1610.94 1574.19 Q1604.16 1574.19 1601.58 1571.67 Q1599.01 1569.12 1599.01 1562.44 L1599.01 1543.09 L1594.71 1543.09 L1594.71 1538.54 L1599.01 1538.54 L1599.01 1528.42 L1604.89 1528.42 Z" fill="#000000" fill-rule="evenodd" fill-opacity="1" /><path clip-path="url(#clip420)" d="M1639.49 1577.5 Q1637.01 1583.86 1634.65 1585.8 Q1632.3 1587.74 1628.35 1587.74 L1623.67 1587.74 L1623.67 1582.84 L1627.11 1582.84 Q1629.53 1582.84 1630.87 1581.7 Q1632.2 1580.55 1633.83 1576.29 L1634.88 1573.61 L1620.46 1538.54 L1626.67 1538.54 L1637.81 1566.42 L1648.95 1538.54 L1655.15 1538.54 L1639.49 1577.5 Z" fill="#000000" fill-rule="evenodd" fill-opacity="1" /><path clip-path="url(#clip420)" d="M1676.92 1524.66 L1676.92 1582.78 L1663.43 1582.78 L1663.43 1578.23 L1671.03 1578.23 L1671.03 1529.21 L1663.43 1529.21 L1663.43 1524.66 L1676.92 1524.66 Z" fill="#000000" fill-rule="evenodd" fill-opacity="1" /><polyline clip-path="url(#clip422)" style="stroke:#000000; stroke-linecap:butt; stroke-linejoin:round; stroke-width:2; stroke-opacity:0.1; fill:none" points="
  232.875,1280.41 2352.76,1280.41 
  "/>
<polyline clip-path="url(#clip422)" style="stroke:#000000; stroke-linecap:butt; stroke-linejoin:round; stroke-width:2; stroke-opacity:0.1; fill:none" points="
  232.875,1096.63 2352.76,1096.63 
  "/>
<polyline clip-path="url(#clip422)" style="stroke:#000000; stroke-linecap:butt; stroke-linejoin:round; stroke-width:2; stroke-opacity:0.1; fill:none" points="
  232.875,912.851 2352.76,912.851 
  "/>
<polyline clip-path="url(#clip422)" style="stroke:#000000; stroke-linecap:butt; stroke-linejoin:round; stroke-width:2; stroke-opacity:0.1; fill:none" points="
  232.875,729.07 2352.76,729.07 
  "/>
<polyline clip-path="url(#clip422)" style="stroke:#000000; stroke-linecap:butt; stroke-linejoin:round; stroke-width:2; stroke-opacity:0.1; fill:none" points="
  232.875,545.29 2352.76,545.29 
  "/>
<polyline clip-path="url(#clip422)" style="stroke:#000000; stroke-linecap:butt; stroke-linejoin:round; stroke-width:2; stroke-opacity:0.1; fill:none" points="
  232.875,361.509 2352.76,361.509 
  "/>
<polyline clip-path="url(#clip422)" style="stroke:#000000; stroke-linecap:butt; stroke-linejoin:round; stroke-width:2; stroke-opacity:0.1; fill:none" points="
  232.875,177.728 2352.76,177.728 
  "/>
<polyline clip-path="url(#clip420)" style="stroke:#000000; stroke-linecap:butt; stroke-linejoin:round; stroke-width:4; stroke-opacity:1; fill:none" points="
  232.875,1410.9 232.875,47.2441 
  "/>
<polyline clip-path="url(#clip420)" style="stroke:#000000; stroke-linecap:butt; stroke-linejoin:round; stroke-width:4; stroke-opacity:1; fill:none" points="
  232.875,1280.41 251.773,1280.41 
  "/>
<polyline clip-path="url(#clip420)" style="stroke:#000000; stroke-linecap:butt; stroke-linejoin:round; stroke-width:4; stroke-opacity:1; fill:none" points="
  232.875,1096.63 251.773,1096.63 
  "/>
<polyline clip-path="url(#clip420)" style="stroke:#000000; stroke-linecap:butt; stroke-linejoin:round; stroke-width:4; stroke-opacity:1; fill:none" points="
  232.875,912.851 251.773,912.851 
  "/>
<polyline clip-path="url(#clip420)" style="stroke:#000000; stroke-linecap:butt; stroke-linejoin:round; stroke-width:4; stroke-opacity:1; fill:none" points="
  232.875,729.07 251.773,729.07 
  "/>
<polyline clip-path="url(#clip420)" style="stroke:#000000; stroke-linecap:butt; stroke-linejoin:round; stroke-width:4; stroke-opacity:1; fill:none" points="
  232.875,545.29 251.773,545.29 
  "/>
<polyline clip-path="url(#clip420)" style="stroke:#000000; stroke-linecap:butt; stroke-linejoin:round; stroke-width:4; stroke-opacity:1; fill:none" points="
  232.875,361.509 251.773,361.509 
  "/>
<polyline clip-path="url(#clip420)" style="stroke:#000000; stroke-linecap:butt; stroke-linejoin:round; stroke-width:4; stroke-opacity:1; fill:none" points="
  232.875,177.728 251.773,177.728 
  "/>
<path clip-path="url(#clip420)" d="M117.015 1293.76 L124.654 1293.76 L124.654 1267.39 L116.343 1269.06 L116.343 1264.8 L124.607 1263.13 L129.283 1263.13 L129.283 1293.76 L136.922 1293.76 L136.922 1297.69 L117.015 1297.69 L117.015 1293.76 Z" fill="#000000" fill-rule="evenodd" fill-opacity="1" /><path clip-path="url(#clip420)" d="M159.214 1267.21 L147.408 1285.66 L159.214 1285.66 L159.214 1267.21 M157.987 1263.13 L163.866 1263.13 L163.866 1285.66 L168.797 1285.66 L168.797 1289.54 L163.866 1289.54 L163.866 1297.69 L159.214 1297.69 L159.214 1289.54 L143.612 1289.54 L143.612 1285.03 L157.987 1263.13 Z" fill="#000000" fill-rule="evenodd" fill-opacity="1" /><path clip-path="url(#clip420)" d="M180.556 1293.76 L196.875 1293.76 L196.875 1297.69 L174.931 1297.69 L174.931 1293.76 Q177.593 1291 182.176 1286.37 Q186.783 1281.72 187.963 1280.38 Q190.209 1277.85 191.088 1276.12 Q191.991 1274.36 191.991 1272.67 Q191.991 1269.91 190.047 1268.18 Q188.126 1266.44 185.024 1266.44 Q182.825 1266.44 180.371 1267.21 Q177.94 1267.97 175.163 1269.52 L175.163 1264.8 Q177.987 1263.66 180.44 1263.09 Q182.894 1262.51 184.931 1262.51 Q190.301 1262.51 193.496 1265.19 Q196.69 1267.88 196.69 1272.37 Q196.69 1274.5 195.88 1276.42 Q195.093 1278.32 192.987 1280.91 Q192.408 1281.58 189.306 1284.8 Q186.204 1287.99 180.556 1293.76 Z" fill="#000000" fill-rule="evenodd" fill-opacity="1" /><path clip-path="url(#clip420)" d="M114.931 1109.98 L122.57 1109.98 L122.57 1083.61 L114.26 1085.28 L114.26 1081.02 L122.524 1079.35 L127.2 1079.35 L127.2 1109.98 L134.839 1109.98 L134.839 1113.91 L114.931 1113.91 L114.931 1109.98 Z" fill="#000000" fill-rule="evenodd" fill-opacity="1" /><path clip-path="url(#clip420)" d="M157.13 1083.43 L145.325 1101.87 L157.13 1101.87 L157.13 1083.43 M155.903 1079.35 L161.783 1079.35 L161.783 1101.87 L166.714 1101.87 L166.714 1105.76 L161.783 1105.76 L161.783 1113.91 L157.13 1113.91 L157.13 1105.76 L141.529 1105.76 L141.529 1101.25 L155.903 1079.35 Z" fill="#000000" fill-rule="evenodd" fill-opacity="1" /><path clip-path="url(#clip420)" d="M187.292 1083.43 L175.487 1101.87 L187.292 1101.87 L187.292 1083.43 M186.065 1079.35 L191.945 1079.35 L191.945 1101.87 L196.875 1101.87 L196.875 1105.76 L191.945 1105.76 L191.945 1113.91 L187.292 1113.91 L187.292 1105.76 L171.69 1105.76 L171.69 1101.25 L186.065 1079.35 Z" fill="#000000" fill-rule="evenodd" fill-opacity="1" /><path clip-path="url(#clip420)" d="M115.256 926.196 L122.894 926.196 L122.894 899.83 L114.584 901.497 L114.584 897.238 L122.848 895.571 L127.524 895.571 L127.524 926.196 L135.163 926.196 L135.163 930.131 L115.256 930.131 L115.256 926.196 Z" fill="#000000" fill-rule="evenodd" fill-opacity="1" /><path clip-path="url(#clip420)" d="M157.454 899.645 L145.649 918.094 L157.454 918.094 L157.454 899.645 M156.228 895.571 L162.107 895.571 L162.107 918.094 L167.038 918.094 L167.038 921.983 L162.107 921.983 L162.107 930.131 L157.454 930.131 L157.454 921.983 L141.853 921.983 L141.853 917.469 L156.228 895.571 Z" fill="#000000" fill-rule="evenodd" fill-opacity="1" /><path clip-path="url(#clip420)" d="M185.348 910.988 Q182.2 910.988 180.348 913.14 Q178.519 915.293 178.519 919.043 Q178.519 922.77 180.348 924.946 Q182.2 927.099 185.348 927.099 Q188.496 927.099 190.325 924.946 Q192.176 922.77 192.176 919.043 Q192.176 915.293 190.325 913.14 Q188.496 910.988 185.348 910.988 M194.63 896.335 L194.63 900.594 Q192.871 899.761 191.065 899.321 Q189.283 898.881 187.524 898.881 Q182.894 898.881 180.44 902.006 Q178.01 905.131 177.663 911.451 Q179.028 909.437 181.089 908.372 Q183.149 907.284 185.626 907.284 Q190.834 907.284 193.843 910.455 Q196.875 913.603 196.875 919.043 Q196.875 924.367 193.727 927.585 Q190.579 930.802 185.348 930.802 Q179.352 930.802 176.181 926.219 Q173.01 921.613 173.01 912.886 Q173.01 904.691 176.899 899.83 Q180.788 894.946 187.338 894.946 Q189.098 894.946 190.88 895.293 Q192.686 895.64 194.63 896.335 Z" fill="#000000" fill-rule="evenodd" fill-opacity="1" /><path clip-path="url(#clip420)" d="M115.51 742.415 L123.149 742.415 L123.149 716.05 L114.839 717.716 L114.839 713.457 L123.103 711.79 L127.779 711.79 L127.779 742.415 L135.417 742.415 L135.417 746.35 L115.51 746.35 L115.51 742.415 Z" fill="#000000" fill-rule="evenodd" fill-opacity="1" /><path clip-path="url(#clip420)" d="M157.709 715.864 L145.904 734.313 L157.709 734.313 L157.709 715.864 M156.482 711.79 L162.362 711.79 L162.362 734.313 L167.292 734.313 L167.292 738.202 L162.362 738.202 L162.362 746.35 L157.709 746.35 L157.709 738.202 L142.107 738.202 L142.107 733.688 L156.482 711.79 Z" fill="#000000" fill-rule="evenodd" fill-opacity="1" /><path clip-path="url(#clip420)" d="M185.024 729.938 Q181.69 729.938 179.769 731.721 Q177.871 733.503 177.871 736.628 Q177.871 739.753 179.769 741.536 Q181.69 743.318 185.024 743.318 Q188.357 743.318 190.278 741.536 Q192.2 739.73 192.2 736.628 Q192.2 733.503 190.278 731.721 Q188.38 729.938 185.024 729.938 M180.348 727.948 Q177.339 727.207 175.649 725.147 Q173.982 723.087 173.982 720.124 Q173.982 715.98 176.922 713.573 Q179.885 711.165 185.024 711.165 Q190.186 711.165 193.125 713.573 Q196.065 715.98 196.065 720.124 Q196.065 723.087 194.375 725.147 Q192.709 727.207 189.723 727.948 Q193.102 728.735 194.977 731.026 Q196.875 733.318 196.875 736.628 Q196.875 741.651 193.797 744.336 Q190.741 747.022 185.024 747.022 Q179.306 747.022 176.227 744.336 Q173.172 741.651 173.172 736.628 Q173.172 733.318 175.07 731.026 Q176.968 728.735 180.348 727.948 M178.635 720.563 Q178.635 723.249 180.301 724.753 Q181.991 726.258 185.024 726.258 Q188.033 726.258 189.723 724.753 Q191.436 723.249 191.436 720.563 Q191.436 717.878 189.723 716.374 Q188.033 714.869 185.024 714.869 Q181.991 714.869 180.301 716.374 Q178.635 717.878 178.635 720.563 Z" fill="#000000" fill-rule="evenodd" fill-opacity="1" /><path clip-path="url(#clip420)" d="M115.418 558.635 L123.056 558.635 L123.056 532.269 L114.746 533.936 L114.746 529.676 L123.01 528.01 L127.686 528.01 L127.686 558.635 L135.325 558.635 L135.325 562.57 L115.418 562.57 L115.418 558.635 Z" fill="#000000" fill-rule="evenodd" fill-opacity="1" /><path clip-path="url(#clip420)" d="M144.816 528.01 L163.172 528.01 L163.172 531.945 L149.098 531.945 L149.098 540.417 Q150.116 540.07 151.135 539.908 Q152.153 539.723 153.172 539.723 Q158.959 539.723 162.339 542.894 Q165.718 546.065 165.718 551.482 Q165.718 557.06 162.246 560.162 Q158.774 563.241 152.454 563.241 Q150.278 563.241 148.01 562.871 Q145.765 562.5 143.357 561.76 L143.357 557.06 Q145.441 558.195 147.663 558.75 Q149.885 559.306 152.362 559.306 Q156.366 559.306 158.704 557.199 Q161.042 555.093 161.042 551.482 Q161.042 547.871 158.704 545.764 Q156.366 543.658 152.362 543.658 Q150.487 543.658 148.612 544.074 Q146.76 544.491 144.816 545.371 L144.816 528.01 Z" fill="#000000" fill-rule="evenodd" fill-opacity="1" /><path clip-path="url(#clip420)" d="M184.931 531.088 Q181.32 531.088 179.491 534.653 Q177.686 538.195 177.686 545.324 Q177.686 552.431 179.491 555.996 Q181.32 559.537 184.931 559.537 Q188.565 559.537 190.371 555.996 Q192.2 552.431 192.2 545.324 Q192.2 538.195 190.371 534.653 Q188.565 531.088 184.931 531.088 M184.931 527.385 Q190.741 527.385 193.797 531.991 Q196.875 536.574 196.875 545.324 Q196.875 554.051 193.797 558.658 Q190.741 563.241 184.931 563.241 Q179.121 563.241 176.042 558.658 Q172.987 554.051 172.987 545.324 Q172.987 536.574 176.042 531.991 Q179.121 527.385 184.931 527.385 Z" fill="#000000" fill-rule="evenodd" fill-opacity="1" /><path clip-path="url(#clip420)" d="M117.015 374.854 L124.654 374.854 L124.654 348.488 L116.343 350.155 L116.343 345.896 L124.607 344.229 L129.283 344.229 L129.283 374.854 L136.922 374.854 L136.922 378.789 L117.015 378.789 L117.015 374.854 Z" fill="#000000" fill-rule="evenodd" fill-opacity="1" /><path clip-path="url(#clip420)" d="M146.413 344.229 L164.769 344.229 L164.769 348.164 L150.695 348.164 L150.695 356.636 Q151.714 356.289 152.732 356.127 Q153.751 355.942 154.769 355.942 Q160.556 355.942 163.936 359.113 Q167.315 362.284 167.315 367.701 Q167.315 373.28 163.843 376.382 Q160.371 379.46 154.052 379.46 Q151.876 379.46 149.607 379.09 Q147.362 378.72 144.954 377.979 L144.954 373.28 Q147.038 374.414 149.26 374.97 Q151.482 375.525 153.959 375.525 Q157.964 375.525 160.302 373.419 Q162.64 371.312 162.64 367.701 Q162.64 364.09 160.302 361.984 Q157.964 359.877 153.959 359.877 Q152.084 359.877 150.209 360.294 Q148.357 360.71 146.413 361.59 L146.413 344.229 Z" fill="#000000" fill-rule="evenodd" fill-opacity="1" /><path clip-path="url(#clip420)" d="M180.556 374.854 L196.875 374.854 L196.875 378.789 L174.931 378.789 L174.931 374.854 Q177.593 372.099 182.176 367.47 Q186.783 362.817 187.963 361.474 Q190.209 358.951 191.088 357.215 Q191.991 355.456 191.991 353.766 Q191.991 351.011 190.047 349.275 Q188.126 347.539 185.024 347.539 Q182.825 347.539 180.371 348.303 Q177.94 349.067 175.163 350.618 L175.163 345.896 Q177.987 344.761 180.44 344.183 Q182.894 343.604 184.931 343.604 Q190.301 343.604 193.496 346.289 Q196.69 348.974 196.69 353.465 Q196.69 355.595 195.88 357.516 Q195.093 359.414 192.987 362.007 Q192.408 362.678 189.306 365.896 Q186.204 369.09 180.556 374.854 Z" fill="#000000" fill-rule="evenodd" fill-opacity="1" /><path clip-path="url(#clip420)" d="M114.931 191.073 L122.57 191.073 L122.57 164.708 L114.26 166.374 L114.26 162.115 L122.524 160.448 L127.2 160.448 L127.2 191.073 L134.839 191.073 L134.839 195.008 L114.931 195.008 L114.931 191.073 Z" fill="#000000" fill-rule="evenodd" fill-opacity="1" /><path clip-path="url(#clip420)" d="M144.329 160.448 L162.686 160.448 L162.686 164.384 L148.612 164.384 L148.612 172.856 Q149.63 172.508 150.649 172.346 Q151.667 172.161 152.686 172.161 Q158.473 172.161 161.852 175.333 Q165.232 178.504 165.232 183.92 Q165.232 189.499 161.76 192.601 Q158.288 195.68 151.968 195.68 Q149.792 195.68 147.524 195.309 Q145.279 194.939 142.871 194.198 L142.871 189.499 Q144.954 190.633 147.177 191.189 Q149.399 191.744 151.876 191.744 Q155.88 191.744 158.218 189.638 Q160.556 187.532 160.556 183.92 Q160.556 180.309 158.218 178.203 Q155.88 176.096 151.876 176.096 Q150.001 176.096 148.126 176.513 Q146.274 176.93 144.329 177.809 L144.329 160.448 Z" fill="#000000" fill-rule="evenodd" fill-opacity="1" /><path clip-path="url(#clip420)" d="M187.292 164.522 L175.487 182.971 L187.292 182.971 L187.292 164.522 M186.065 160.448 L191.945 160.448 L191.945 182.971 L196.875 182.971 L196.875 186.86 L191.945 186.86 L191.945 195.008 L187.292 195.008 L187.292 186.86 L171.69 186.86 L171.69 182.346 L186.065 160.448 Z" fill="#000000" fill-rule="evenodd" fill-opacity="1" /><path clip-path="url(#clip420)" d="M20.1444 847.457 L26.9239 847.457 Q23.9002 850.703 22.4043 854.395 Q20.9083 858.055 20.9083 862.193 Q20.9083 870.341 25.9054 874.67 Q30.8707 878.999 40.2919 878.999 Q49.6813 878.999 54.6784 874.67 Q59.6436 870.341 59.6436 862.193 Q59.6436 858.055 58.1477 854.395 Q56.6518 850.703 53.6281 847.457 L60.3439 847.457 Q62.6355 850.83 63.7814 854.618 Q64.9272 858.374 64.9272 862.575 Q64.9272 873.365 58.3387 879.572 Q51.7183 885.778 40.2919 885.778 Q28.8336 885.778 22.2451 879.572 Q15.6248 873.365 15.6248 862.575 Q15.6248 858.31 16.7706 854.554 Q17.8846 850.767 20.1444 847.457 Z" fill="#000000" fill-rule="evenodd" fill-opacity="1" /><path clip-path="url(#clip420)" d="M28.3562 840.327 L28.3562 812.509 L33.7034 812.509 L59.3254 834.534 L59.3254 812.509 L64.0042 812.509 L64.0042 841.123 L58.657 841.123 L33.035 819.097 L33.035 840.327 L28.3562 840.327 Z" fill="#000000" fill-rule="evenodd" fill-opacity="1" /><path clip-path="url(#clip420)" d="M46.0847 787.364 Q46.0847 794.462 47.7079 797.199 Q49.3312 799.937 53.2461 799.937 Q56.3653 799.937 58.2114 797.9 Q60.0256 795.831 60.0256 792.298 Q60.0256 787.428 56.5881 784.5 Q53.1188 781.54 47.3897 781.54 L46.0847 781.54 L46.0847 787.364 M43.6657 775.683 L64.0042 775.683 L64.0042 781.54 L58.5933 781.54 Q61.8398 783.545 63.3994 786.537 Q64.9272 789.529 64.9272 793.857 Q64.9272 799.332 61.8716 802.578 Q58.7843 805.793 53.6281 805.793 Q47.6125 805.793 44.5569 801.783 Q41.5014 797.74 41.5014 789.751 L41.5014 781.54 L40.9285 781.54 Q36.8862 781.54 34.6901 784.213 Q32.4621 786.855 32.4621 791.661 Q32.4621 794.717 33.1941 797.613 Q33.9262 800.51 35.3903 803.183 L29.9795 803.183 Q28.7381 799.968 28.1334 796.945 Q27.4968 793.921 27.4968 791.056 Q27.4968 783.322 31.5072 779.503 Q35.5176 775.683 43.6657 775.683 Z" fill="#000000" fill-rule="evenodd" fill-opacity="1" /><path clip-path="url(#clip420)" d="M29.4065 740.895 L34.9447 740.895 Q33.6716 743.377 33.035 746.051 Q32.3984 748.724 32.3984 751.589 Q32.3984 755.95 33.7352 758.146 Q35.072 760.31 37.7456 760.31 Q39.7826 760.31 40.9603 758.75 Q42.1061 757.191 43.1565 752.48 L43.6021 750.475 Q44.9389 744.237 47.3897 741.627 Q49.8086 738.985 54.1691 738.985 Q59.1344 738.985 62.0308 742.932 Q64.9272 746.847 64.9272 753.722 Q64.9272 756.586 64.3543 759.705 Q63.8132 762.793 62.6992 766.23 L56.6518 766.23 Q58.3387 762.984 59.198 759.833 Q60.0256 756.682 60.0256 753.594 Q60.0256 749.457 58.6251 747.229 Q57.1929 745.001 54.6147 745.001 Q52.2276 745.001 50.9545 746.624 Q49.6813 748.215 48.5037 753.658 L48.0262 755.695 Q46.8804 761.138 44.5251 763.557 Q42.138 765.976 38.0002 765.976 Q32.9713 765.976 30.2341 762.411 Q27.4968 758.846 27.4968 752.289 Q27.4968 749.043 27.9743 746.178 Q28.4517 743.314 29.4065 740.895 Z" fill="#000000" fill-rule="evenodd" fill-opacity="1" /><path clip-path="url(#clip420)" d="M14.479 709.48 L14.479 695.985 L19.0304 695.985 L19.0304 703.623 L68.0464 703.623 L68.0464 695.985 L72.5979 695.985 L72.5979 709.48 L14.479 709.48 Z" fill="#000000" fill-rule="evenodd" fill-opacity="1" /><path clip-path="url(#clip420)" d="M35.1993 655.753 Q31.2526 653.557 29.3747 650.502 Q27.4968 647.446 27.4968 643.308 Q27.4968 637.738 31.4117 634.715 Q35.2948 631.691 42.4881 631.691 L64.0042 631.691 L64.0042 637.579 L42.679 637.579 Q37.5546 637.579 35.072 639.393 Q32.5894 641.208 32.5894 644.932 Q32.5894 649.483 35.6131 652.125 Q38.6368 654.767 43.8567 654.767 L64.0042 654.767 L64.0042 660.655 L42.679 660.655 Q37.5228 660.655 35.072 662.469 Q32.5894 664.283 32.5894 668.071 Q32.5894 672.559 35.6449 675.201 Q38.6686 677.842 43.8567 677.842 L64.0042 677.842 L64.0042 683.731 L28.3562 683.731 L28.3562 677.842 L33.8944 677.842 Q30.616 675.837 29.0564 673.036 Q27.4968 670.235 27.4968 666.384 Q27.4968 662.501 29.4702 659.796 Q31.4436 657.058 35.1993 655.753 Z" fill="#000000" fill-rule="evenodd" fill-opacity="1" /><path clip-path="url(#clip420)" d="M29.4065 597.284 L34.9447 597.284 Q33.6716 599.767 33.035 602.441 Q32.3984 605.114 32.3984 607.979 Q32.3984 612.339 33.7352 614.535 Q35.072 616.7 37.7456 616.7 Q39.7826 616.7 40.9603 615.14 Q42.1061 613.581 43.1565 608.87 L43.6021 606.865 Q44.9389 600.626 47.3897 598.016 Q49.8086 595.375 54.1691 595.375 Q59.1344 595.375 62.0308 599.321 Q64.9272 603.236 64.9272 610.111 Q64.9272 612.976 64.3543 616.095 Q63.8132 619.182 62.6992 622.62 L56.6518 622.62 Q58.3387 619.373 59.198 616.222 Q60.0256 613.071 60.0256 609.984 Q60.0256 605.846 58.6251 603.618 Q57.1929 601.39 54.6147 601.39 Q52.2276 601.39 50.9545 603.013 Q49.6813 604.605 48.5037 610.048 L48.0262 612.085 Q46.8804 617.527 44.5251 619.946 Q42.138 622.365 38.0002 622.365 Q32.9713 622.365 30.2341 618.8 Q27.4968 615.236 27.4968 608.679 Q27.4968 605.432 27.9743 602.568 Q28.4517 599.703 29.4065 597.284 Z" fill="#000000" fill-rule="evenodd" fill-opacity="1" /><path clip-path="url(#clip420)" d="M14.479 572.363 L72.5979 572.363 L72.5979 585.858 L68.0464 585.858 L68.0464 578.251 L19.0304 578.251 L19.0304 585.858 L14.479 585.858 L14.479 572.363 Z" fill="#000000" fill-rule="evenodd" fill-opacity="1" /><circle clip-path="url(#clip422)" cx="292.872" cy="453.399" r="14" fill="#009af9" fill-rule="evenodd" fill-opacity="1" stroke="#000000" stroke-opacity="1" stroke-width="3.2"/>
<circle clip-path="url(#clip422)" cx="321.235" cy="1372.3" r="14" fill="#009af9" fill-rule="evenodd" fill-opacity="1" stroke="#000000" stroke-opacity="1" stroke-width="3.2"/>
<circle clip-path="url(#clip422)" cx="346.606" cy="1280.41" r="14" fill="#009af9" fill-rule="evenodd" fill-opacity="1" stroke="#000000" stroke-opacity="1" stroke-width="3.2"/>
<circle clip-path="url(#clip422)" cx="369.558" cy="1280.41" r="14" fill="#009af9" fill-rule="evenodd" fill-opacity="1" stroke="#000000" stroke-opacity="1" stroke-width="3.2"/>
<circle clip-path="url(#clip422)" cx="390.51" cy="1280.41" r="14" fill="#009af9" fill-rule="evenodd" fill-opacity="1" stroke="#000000" stroke-opacity="1" stroke-width="3.2"/>
<circle clip-path="url(#clip422)" cx="409.785" cy="1372.3" r="14" fill="#009af9" fill-rule="evenodd" fill-opacity="1" stroke="#000000" stroke-opacity="1" stroke-width="3.2"/>
<circle clip-path="url(#clip422)" cx="436.081" cy="1280.41" r="14" fill="#009af9" fill-rule="evenodd" fill-opacity="1" stroke="#000000" stroke-opacity="1" stroke-width="3.2"/>
<circle clip-path="url(#clip422)" cx="459.786" cy="1372.3" r="14" fill="#009af9" fill-rule="evenodd" fill-opacity="1" stroke="#000000" stroke-opacity="1" stroke-width="3.2"/>
<circle clip-path="url(#clip422)" cx="481.365" cy="1372.3" r="14" fill="#009af9" fill-rule="evenodd" fill-opacity="1" stroke="#000000" stroke-opacity="1" stroke-width="3.2"/>
<circle clip-path="url(#clip422)" cx="501.169" cy="1372.3" r="14" fill="#009af9" fill-rule="evenodd" fill-opacity="1" stroke="#000000" stroke-opacity="1" stroke-width="3.2"/>
<circle clip-path="url(#clip422)" cx="525.269" cy="1280.41" r="14" fill="#009af9" fill-rule="evenodd" fill-opacity="1" stroke="#000000" stroke-opacity="1" stroke-width="3.2"/>
<circle clip-path="url(#clip422)" cx="547.176" cy="1372.3" r="14" fill="#009af9" fill-rule="evenodd" fill-opacity="1" stroke="#000000" stroke-opacity="1" stroke-width="3.2"/>
<circle clip-path="url(#clip422)" cx="572.023" cy="1280.41" r="14" fill="#009af9" fill-rule="evenodd" fill-opacity="1" stroke="#000000" stroke-opacity="1" stroke-width="3.2"/>
<circle clip-path="url(#clip422)" cx="594.545" cy="1372.3" r="14" fill="#009af9" fill-rule="evenodd" fill-opacity="1" stroke="#000000" stroke-opacity="1" stroke-width="3.2"/>
<circle clip-path="url(#clip422)" cx="619.055" cy="1372.3" r="14" fill="#009af9" fill-rule="evenodd" fill-opacity="1" stroke="#000000" stroke-opacity="1" stroke-width="3.2"/>
<circle clip-path="url(#clip422)" cx="641.299" cy="1372.3" r="14" fill="#009af9" fill-rule="evenodd" fill-opacity="1" stroke="#000000" stroke-opacity="1" stroke-width="3.2"/>
<circle clip-path="url(#clip422)" cx="664.893" cy="1372.3" r="14" fill="#009af9" fill-rule="evenodd" fill-opacity="1" stroke="#000000" stroke-opacity="1" stroke-width="3.2"/>
<circle clip-path="url(#clip422)" cx="686.38" cy="1280.41" r="14" fill="#009af9" fill-rule="evenodd" fill-opacity="1" stroke="#000000" stroke-opacity="1" stroke-width="3.2"/>
<circle clip-path="url(#clip422)" cx="708.797" cy="1280.41" r="14" fill="#009af9" fill-rule="evenodd" fill-opacity="1" stroke="#000000" stroke-opacity="1" stroke-width="3.2"/>
<circle clip-path="url(#clip422)" cx="731.748" cy="1372.3" r="14" fill="#009af9" fill-rule="evenodd" fill-opacity="1" stroke="#000000" stroke-opacity="1" stroke-width="3.2"/>
<circle clip-path="url(#clip422)" cx="754.921" cy="1372.3" r="14" fill="#009af9" fill-rule="evenodd" fill-opacity="1" stroke="#000000" stroke-opacity="1" stroke-width="3.2"/>
<circle clip-path="url(#clip422)" cx="778.073" cy="1372.3" r="14" fill="#009af9" fill-rule="evenodd" fill-opacity="1" stroke="#000000" stroke-opacity="1" stroke-width="3.2"/>
<circle clip-path="url(#clip422)" cx="801.024" cy="1372.3" r="14" fill="#009af9" fill-rule="evenodd" fill-opacity="1" stroke="#000000" stroke-opacity="1" stroke-width="3.2"/>
<circle clip-path="url(#clip422)" cx="823.643" cy="1188.52" r="14" fill="#009af9" fill-rule="evenodd" fill-opacity="1" stroke="#000000" stroke-opacity="1" stroke-width="3.2"/>
<circle clip-path="url(#clip422)" cx="847.348" cy="1280.41" r="14" fill="#009af9" fill-rule="evenodd" fill-opacity="1" stroke="#000000" stroke-opacity="1" stroke-width="3.2"/>
<circle clip-path="url(#clip422)" cx="870.3" cy="1372.3" r="14" fill="#009af9" fill-rule="evenodd" fill-opacity="1" stroke="#000000" stroke-opacity="1" stroke-width="3.2"/>
<circle clip-path="url(#clip422)" cx="893.748" cy="1372.3" r="14" fill="#009af9" fill-rule="evenodd" fill-opacity="1" stroke="#000000" stroke-opacity="1" stroke-width="3.2"/>
<circle clip-path="url(#clip422)" cx="916.247" cy="1280.41" r="14" fill="#009af9" fill-rule="evenodd" fill-opacity="1" stroke="#000000" stroke-opacity="1" stroke-width="3.2"/>
<circle clip-path="url(#clip422)" cx="938.89" cy="1372.3" r="14" fill="#009af9" fill-rule="evenodd" fill-opacity="1" stroke="#000000" stroke-opacity="1" stroke-width="3.2"/>
<circle clip-path="url(#clip422)" cx="961.467" cy="1372.3" r="14" fill="#009af9" fill-rule="evenodd" fill-opacity="1" stroke="#000000" stroke-opacity="1" stroke-width="3.2"/>
<circle clip-path="url(#clip422)" cx="984.673" cy="1372.3" r="14" fill="#009af9" fill-rule="evenodd" fill-opacity="1" stroke="#000000" stroke-opacity="1" stroke-width="3.2"/>
<circle clip-path="url(#clip422)" cx="1007.39" cy="1372.3" r="14" fill="#009af9" fill-rule="evenodd" fill-opacity="1" stroke="#000000" stroke-opacity="1" stroke-width="3.2"/>
<circle clip-path="url(#clip422)" cx="1030.27" cy="1280.41" r="14" fill="#009af9" fill-rule="evenodd" fill-opacity="1" stroke="#000000" stroke-opacity="1" stroke-width="3.2"/>
<circle clip-path="url(#clip422)" cx="1053.1" cy="1280.41" r="14" fill="#009af9" fill-rule="evenodd" fill-opacity="1" stroke="#000000" stroke-opacity="1" stroke-width="3.2"/>
<circle clip-path="url(#clip422)" cx="1076.28" cy="1280.41" r="14" fill="#009af9" fill-rule="evenodd" fill-opacity="1" stroke="#000000" stroke-opacity="1" stroke-width="3.2"/>
<circle clip-path="url(#clip422)" cx="1099.02" cy="1280.41" r="14" fill="#009af9" fill-rule="evenodd" fill-opacity="1" stroke="#000000" stroke-opacity="1" stroke-width="3.2"/>
<circle clip-path="url(#clip422)" cx="1122.21" cy="1372.3" r="14" fill="#009af9" fill-rule="evenodd" fill-opacity="1" stroke="#000000" stroke-opacity="1" stroke-width="3.2"/>
<circle clip-path="url(#clip422)" cx="1145.12" cy="1280.41" r="14" fill="#009af9" fill-rule="evenodd" fill-opacity="1" stroke="#000000" stroke-opacity="1" stroke-width="3.2"/>
<circle clip-path="url(#clip422)" cx="1168.03" cy="1280.41" r="14" fill="#009af9" fill-rule="evenodd" fill-opacity="1" stroke="#000000" stroke-opacity="1" stroke-width="3.2"/>
<circle clip-path="url(#clip422)" cx="1191.13" cy="545.29" r="14" fill="#009af9" fill-rule="evenodd" fill-opacity="1" stroke="#000000" stroke-opacity="1" stroke-width="3.2"/>
<circle clip-path="url(#clip422)" cx="1214.18" cy="1280.41" r="14" fill="#009af9" fill-rule="evenodd" fill-opacity="1" stroke="#000000" stroke-opacity="1" stroke-width="3.2"/>
<circle clip-path="url(#clip422)" cx="1237.01" cy="1280.41" r="14" fill="#009af9" fill-rule="evenodd" fill-opacity="1" stroke="#000000" stroke-opacity="1" stroke-width="3.2"/>
<circle clip-path="url(#clip422)" cx="1260.04" cy="1280.41" r="14" fill="#009af9" fill-rule="evenodd" fill-opacity="1" stroke="#000000" stroke-opacity="1" stroke-width="3.2"/>
<circle clip-path="url(#clip422)" cx="1283.04" cy="1372.3" r="14" fill="#009af9" fill-rule="evenodd" fill-opacity="1" stroke="#000000" stroke-opacity="1" stroke-width="3.2"/>
<circle clip-path="url(#clip422)" cx="1306.06" cy="1280.41" r="14" fill="#009af9" fill-rule="evenodd" fill-opacity="1" stroke="#000000" stroke-opacity="1" stroke-width="3.2"/>
<circle clip-path="url(#clip422)" cx="1328.91" cy="1096.63" r="14" fill="#009af9" fill-rule="evenodd" fill-opacity="1" stroke="#000000" stroke-opacity="1" stroke-width="3.2"/>
<circle clip-path="url(#clip422)" cx="1351.82" cy="1372.3" r="14" fill="#009af9" fill-rule="evenodd" fill-opacity="1" stroke="#000000" stroke-opacity="1" stroke-width="3.2"/>
<circle clip-path="url(#clip422)" cx="1374.77" cy="1188.52" r="14" fill="#009af9" fill-rule="evenodd" fill-opacity="1" stroke="#000000" stroke-opacity="1" stroke-width="3.2"/>
<circle clip-path="url(#clip422)" cx="1397.73" cy="1188.52" r="14" fill="#e26f46" fill-rule="evenodd" fill-opacity="1" stroke="#000000" stroke-opacity="1" stroke-width="3.2"/>
<circle clip-path="url(#clip422)" cx="1420.64" cy="1280.41" r="14" fill="#e26f46" fill-rule="evenodd" fill-opacity="1" stroke="#000000" stroke-opacity="1" stroke-width="3.2"/>
<circle clip-path="url(#clip422)" cx="1443.59" cy="1372.3" r="14" fill="#e26f46" fill-rule="evenodd" fill-opacity="1" stroke="#000000" stroke-opacity="1" stroke-width="3.2"/>
<circle clip-path="url(#clip422)" cx="1466.5" cy="1280.41" r="14" fill="#e26f46" fill-rule="evenodd" fill-opacity="1" stroke="#000000" stroke-opacity="1" stroke-width="3.2"/>
<circle clip-path="url(#clip422)" cx="1489.42" cy="1280.41" r="14" fill="#e26f46" fill-rule="evenodd" fill-opacity="1" stroke="#000000" stroke-opacity="1" stroke-width="3.2"/>
<circle clip-path="url(#clip422)" cx="1512.36" cy="1280.41" r="14" fill="#e26f46" fill-rule="evenodd" fill-opacity="1" stroke="#000000" stroke-opacity="1" stroke-width="3.2"/>
<circle clip-path="url(#clip422)" cx="1535.29" cy="1188.52" r="14" fill="#e26f46" fill-rule="evenodd" fill-opacity="1" stroke="#000000" stroke-opacity="1" stroke-width="3.2"/>
<circle clip-path="url(#clip422)" cx="1558.28" cy="1188.52" r="14" fill="#e26f46" fill-rule="evenodd" fill-opacity="1" stroke="#000000" stroke-opacity="1" stroke-width="3.2"/>
<circle clip-path="url(#clip422)" cx="1581.2" cy="1188.52" r="14" fill="#e26f46" fill-rule="evenodd" fill-opacity="1" stroke="#000000" stroke-opacity="1" stroke-width="3.2"/>
<circle clip-path="url(#clip422)" cx="1604.15" cy="1096.63" r="14" fill="#e26f46" fill-rule="evenodd" fill-opacity="1" stroke="#000000" stroke-opacity="1" stroke-width="3.2"/>
<circle clip-path="url(#clip422)" cx="1627.12" cy="1188.52" r="14" fill="#e26f46" fill-rule="evenodd" fill-opacity="1" stroke="#000000" stroke-opacity="1" stroke-width="3.2"/>
<circle clip-path="url(#clip422)" cx="1650.09" cy="1280.41" r="14" fill="#e26f46" fill-rule="evenodd" fill-opacity="1" stroke="#000000" stroke-opacity="1" stroke-width="3.2"/>
<circle clip-path="url(#clip422)" cx="1673.06" cy="1280.41" r="14" fill="#e26f46" fill-rule="evenodd" fill-opacity="1" stroke="#000000" stroke-opacity="1" stroke-width="3.2"/>
<circle clip-path="url(#clip422)" cx="1695.99" cy="1004.74" r="14" fill="#e26f46" fill-rule="evenodd" fill-opacity="1" stroke="#000000" stroke-opacity="1" stroke-width="3.2"/>
<circle clip-path="url(#clip422)" cx="1718.94" cy="1096.63" r="14" fill="#e26f46" fill-rule="evenodd" fill-opacity="1" stroke="#000000" stroke-opacity="1" stroke-width="3.2"/>
<circle clip-path="url(#clip422)" cx="1741.89" cy="1188.52" r="14" fill="#e26f46" fill-rule="evenodd" fill-opacity="1" stroke="#000000" stroke-opacity="1" stroke-width="3.2"/>
<circle clip-path="url(#clip422)" cx="1764.85" cy="1096.63" r="14" fill="#e26f46" fill-rule="evenodd" fill-opacity="1" stroke="#000000" stroke-opacity="1" stroke-width="3.2"/>
<circle clip-path="url(#clip422)" cx="1787.82" cy="1188.52" r="14" fill="#e26f46" fill-rule="evenodd" fill-opacity="1" stroke="#000000" stroke-opacity="1" stroke-width="3.2"/>
<circle clip-path="url(#clip422)" cx="1810.77" cy="1096.63" r="14" fill="#e26f46" fill-rule="evenodd" fill-opacity="1" stroke="#000000" stroke-opacity="1" stroke-width="3.2"/>
<circle clip-path="url(#clip422)" cx="1833.72" cy="1004.74" r="14" fill="#e26f46" fill-rule="evenodd" fill-opacity="1" stroke="#000000" stroke-opacity="1" stroke-width="3.2"/>
<circle clip-path="url(#clip422)" cx="1856.67" cy="1004.74" r="14" fill="#e26f46" fill-rule="evenodd" fill-opacity="1" stroke="#000000" stroke-opacity="1" stroke-width="3.2"/>
<circle clip-path="url(#clip422)" cx="1879.63" cy="1096.63" r="14" fill="#e26f46" fill-rule="evenodd" fill-opacity="1" stroke="#000000" stroke-opacity="1" stroke-width="3.2"/>
<circle clip-path="url(#clip422)" cx="1902.59" cy="1096.63" r="14" fill="#e26f46" fill-rule="evenodd" fill-opacity="1" stroke="#000000" stroke-opacity="1" stroke-width="3.2"/>
<circle clip-path="url(#clip422)" cx="1925.53" cy="1004.74" r="14" fill="#e26f46" fill-rule="evenodd" fill-opacity="1" stroke="#000000" stroke-opacity="1" stroke-width="3.2"/>
<circle clip-path="url(#clip422)" cx="1948.48" cy="912.851" r="14" fill="#e26f46" fill-rule="evenodd" fill-opacity="1" stroke="#000000" stroke-opacity="1" stroke-width="3.2"/>
<circle clip-path="url(#clip422)" cx="1971.44" cy="912.851" r="14" fill="#e26f46" fill-rule="evenodd" fill-opacity="1" stroke="#000000" stroke-opacity="1" stroke-width="3.2"/>
<circle clip-path="url(#clip422)" cx="1994.39" cy="912.851" r="14" fill="#e26f46" fill-rule="evenodd" fill-opacity="1" stroke="#000000" stroke-opacity="1" stroke-width="3.2"/>
<circle clip-path="url(#clip422)" cx="2017.34" cy="820.961" r="14" fill="#e26f46" fill-rule="evenodd" fill-opacity="1" stroke="#000000" stroke-opacity="1" stroke-width="3.2"/>
<circle clip-path="url(#clip422)" cx="2040.3" cy="912.851" r="14" fill="#e26f46" fill-rule="evenodd" fill-opacity="1" stroke="#000000" stroke-opacity="1" stroke-width="3.2"/>
<circle clip-path="url(#clip422)" cx="2063.25" cy="820.961" r="14" fill="#e26f46" fill-rule="evenodd" fill-opacity="1" stroke="#000000" stroke-opacity="1" stroke-width="3.2"/>
<circle clip-path="url(#clip422)" cx="2086.2" cy="729.07" r="14" fill="#e26f46" fill-rule="evenodd" fill-opacity="1" stroke="#000000" stroke-opacity="1" stroke-width="3.2"/>
<circle clip-path="url(#clip422)" cx="2109.15" cy="637.18" r="14" fill="#e26f46" fill-rule="evenodd" fill-opacity="1" stroke="#000000" stroke-opacity="1" stroke-width="3.2"/>
<circle clip-path="url(#clip422)" cx="2132.11" cy="545.29" r="14" fill="#e26f46" fill-rule="evenodd" fill-opacity="1" stroke="#000000" stroke-opacity="1" stroke-width="3.2"/>
<circle clip-path="url(#clip422)" cx="2155.06" cy="637.18" r="14" fill="#e26f46" fill-rule="evenodd" fill-opacity="1" stroke="#000000" stroke-opacity="1" stroke-width="3.2"/>
<circle clip-path="url(#clip422)" cx="2178.01" cy="545.29" r="14" fill="#e26f46" fill-rule="evenodd" fill-opacity="1" stroke="#000000" stroke-opacity="1" stroke-width="3.2"/>
<circle clip-path="url(#clip422)" cx="2200.96" cy="453.399" r="14" fill="#e26f46" fill-rule="evenodd" fill-opacity="1" stroke="#000000" stroke-opacity="1" stroke-width="3.2"/>
<circle clip-path="url(#clip422)" cx="2223.91" cy="269.619" r="14" fill="#e26f46" fill-rule="evenodd" fill-opacity="1" stroke="#000000" stroke-opacity="1" stroke-width="3.2"/>
<circle clip-path="url(#clip422)" cx="2246.86" cy="361.509" r="14" fill="#e26f46" fill-rule="evenodd" fill-opacity="1" stroke="#000000" stroke-opacity="1" stroke-width="3.2"/>
<circle clip-path="url(#clip422)" cx="2269.81" cy="361.509" r="14" fill="#e26f46" fill-rule="evenodd" fill-opacity="1" stroke="#000000" stroke-opacity="1" stroke-width="3.2"/>
<circle clip-path="url(#clip422)" cx="2292.76" cy="85.838" r="14" fill="#e26f46" fill-rule="evenodd" fill-opacity="1" stroke="#000000" stroke-opacity="1" stroke-width="3.2"/>
<path clip-path="url(#clip420)" d="
M303.538 248.219 L968.175 248.219 L968.175 92.6992 L303.538 92.6992  Z
  " fill="#ffffff" fill-rule="evenodd" fill-opacity="1"/>
<polyline clip-path="url(#clip420)" style="stroke:#000000; stroke-linecap:butt; stroke-linejoin:round; stroke-width:4; stroke-opacity:1; fill:none" points="
  303.538,248.219 968.175,248.219 968.175,92.6992 303.538,92.6992 303.538,248.219 
  "/>
<circle clip-path="url(#clip420)" cx="397.755" cy="144.539" r="23" fill="#009af9" fill-rule="evenodd" fill-opacity="1" stroke="#000000" stroke-opacity="1" stroke-width="5.12"/>
<path clip-path="url(#clip420)" d="M499.078 127.259 L503.754 127.259 L503.754 159.412 Q503.754 165.662 501.37 168.486 Q499.009 171.31 493.754 171.31 L491.972 171.31 L491.972 167.375 L493.43 167.375 Q496.532 167.375 497.805 165.639 Q499.078 163.903 499.078 159.412 L499.078 127.259 Z" fill="#000000" fill-rule="evenodd" fill-opacity="1" /><path clip-path="url(#clip420)" d="M535.05 147.791 L535.05 149.875 L515.467 149.875 Q515.745 154.273 518.106 156.588 Q520.49 158.879 524.726 158.879 Q527.18 158.879 529.472 158.278 Q531.787 157.676 534.055 156.472 L534.055 160.5 Q531.763 161.472 529.356 161.981 Q526.949 162.49 524.472 162.49 Q518.268 162.49 514.634 158.879 Q511.023 155.268 511.023 149.111 Q511.023 142.745 514.449 139.018 Q517.898 135.268 523.731 135.268 Q528.962 135.268 531.995 138.648 Q535.05 142.004 535.05 147.791 M530.791 146.541 Q530.745 143.046 528.824 140.963 Q526.925 138.879 523.777 138.879 Q520.213 138.879 518.06 140.893 Q515.93 142.907 515.606 146.565 L530.791 146.541 Z" fill="#000000" fill-rule="evenodd" fill-opacity="1" /><path clip-path="url(#clip420)" d="M559.101 139.829 L559.101 125.801 L563.36 125.801 L563.36 161.819 L559.101 161.819 L559.101 157.93 Q557.759 160.245 555.698 161.379 Q553.661 162.49 550.791 162.49 Q546.092 162.49 543.129 158.74 Q540.189 154.991 540.189 148.879 Q540.189 142.768 543.129 139.018 Q546.092 135.268 550.791 135.268 Q553.661 135.268 555.698 136.403 Q557.759 137.514 559.101 139.829 M544.587 148.879 Q544.587 153.578 546.509 156.264 Q548.453 158.926 551.833 158.926 Q555.212 158.926 557.157 156.264 Q559.101 153.578 559.101 148.879 Q559.101 144.18 557.157 141.518 Q555.212 138.833 551.833 138.833 Q548.453 138.833 546.509 141.518 Q544.587 144.18 544.587 148.879 Z" fill="#000000" fill-rule="evenodd" fill-opacity="1" /><path clip-path="url(#clip420)" d="M594.309 147.791 L594.309 149.875 L574.726 149.875 Q575.004 154.273 577.365 156.588 Q579.749 158.879 583.985 158.879 Q586.439 158.879 588.731 158.278 Q591.045 157.676 593.314 156.472 L593.314 160.5 Q591.022 161.472 588.615 161.981 Q586.208 162.49 583.731 162.49 Q577.527 162.49 573.893 158.879 Q570.282 155.268 570.282 149.111 Q570.282 142.745 573.708 139.018 Q577.157 135.268 582.99 135.268 Q588.221 135.268 591.254 138.648 Q594.309 142.004 594.309 147.791 M590.05 146.541 Q590.004 143.046 588.083 140.963 Q586.184 138.879 583.036 138.879 Q579.471 138.879 577.319 140.893 Q575.189 142.907 574.865 146.565 L590.05 146.541 Z" fill="#000000" fill-rule="evenodd" fill-opacity="1" /><path clip-path="url(#clip420)" d="M622.851 146.171 L622.851 161.819 L618.592 161.819 L618.592 146.31 Q618.592 142.629 617.156 140.801 Q615.721 138.972 612.851 138.972 Q609.402 138.972 607.411 141.171 Q605.42 143.37 605.42 147.166 L605.42 161.819 L601.138 161.819 L601.138 135.893 L605.42 135.893 L605.42 139.921 Q606.948 137.583 609.008 136.426 Q611.092 135.268 613.8 135.268 Q618.268 135.268 620.559 138.046 Q622.851 140.801 622.851 146.171 Z" fill="#000000" fill-rule="evenodd" fill-opacity="1" /><path clip-path="url(#clip420)" d="M659.541 125.801 L659.541 129.343 L655.466 129.343 Q653.175 129.343 652.272 130.268 Q651.392 131.194 651.392 133.602 L651.392 135.893 L658.406 135.893 L658.406 139.204 L651.392 139.204 L651.392 161.819 L647.11 161.819 L647.11 139.204 L643.036 139.204 L643.036 135.893 L647.11 135.893 L647.11 134.088 Q647.11 129.759 649.124 127.792 Q651.138 125.801 655.513 125.801 L659.541 125.801 Z" fill="#000000" fill-rule="evenodd" fill-opacity="1" /><path clip-path="url(#clip420)" d="M678.128 139.875 Q677.411 139.458 676.554 139.273 Q675.721 139.065 674.702 139.065 Q671.091 139.065 669.147 141.426 Q667.226 143.764 667.226 148.162 L667.226 161.819 L662.943 161.819 L662.943 135.893 L667.226 135.893 L667.226 139.921 Q668.568 137.56 670.721 136.426 Q672.874 135.268 675.952 135.268 Q676.392 135.268 676.925 135.338 Q677.457 135.384 678.105 135.5 L678.128 139.875 Z" fill="#000000" fill-rule="evenodd" fill-opacity="1" /><path clip-path="url(#clip420)" d="M694.378 148.787 Q689.216 148.787 687.226 149.967 Q685.235 151.148 685.235 153.995 Q685.235 156.264 686.716 157.606 Q688.221 158.926 690.79 158.926 Q694.332 158.926 696.462 156.426 Q698.614 153.903 698.614 149.736 L698.614 148.787 L694.378 148.787 M702.874 147.028 L702.874 161.819 L698.614 161.819 L698.614 157.884 Q697.156 160.245 694.98 161.379 Q692.804 162.49 689.656 162.49 Q685.675 162.49 683.314 160.268 Q680.976 158.023 680.976 154.273 Q680.976 149.898 683.892 147.676 Q686.832 145.454 692.642 145.454 L698.614 145.454 L698.614 145.037 Q698.614 142.097 696.67 140.5 Q694.749 138.879 691.253 138.879 Q689.031 138.879 686.925 139.412 Q684.818 139.944 682.874 141.009 L682.874 137.074 Q685.212 136.171 687.411 135.731 Q689.61 135.268 691.693 135.268 Q697.318 135.268 700.096 138.185 Q702.874 141.102 702.874 147.028 Z" fill="#000000" fill-rule="evenodd" fill-opacity="1" /><path clip-path="url(#clip420)" d="M728.707 148.555 Q728.707 143.926 726.786 141.379 Q724.887 138.833 721.438 138.833 Q718.012 138.833 716.091 141.379 Q714.193 143.926 714.193 148.555 Q714.193 153.162 716.091 155.708 Q718.012 158.254 721.438 158.254 Q724.887 158.254 726.786 155.708 Q728.707 153.162 728.707 148.555 M732.966 158.602 Q732.966 165.222 730.026 168.44 Q727.086 171.68 721.022 171.68 Q718.776 171.68 716.786 171.333 Q714.795 171.009 712.92 170.315 L712.92 166.171 Q714.795 167.19 716.624 167.676 Q718.452 168.162 720.35 168.162 Q724.54 168.162 726.623 165.963 Q728.707 163.787 728.707 159.365 L728.707 157.259 Q727.387 159.551 725.327 160.685 Q723.267 161.819 720.397 161.819 Q715.628 161.819 712.712 158.185 Q709.795 154.551 709.795 148.555 Q709.795 142.537 712.712 138.903 Q715.628 135.268 720.397 135.268 Q723.267 135.268 725.327 136.403 Q727.387 137.537 728.707 139.829 L728.707 135.893 L732.966 135.893 L732.966 158.602 Z" fill="#000000" fill-rule="evenodd" fill-opacity="1" /><path clip-path="url(#clip420)" d="M761.924 140.87 Q763.521 138 765.744 136.634 Q767.966 135.268 770.975 135.268 Q775.026 135.268 777.225 138.116 Q779.424 140.94 779.424 146.171 L779.424 161.819 L775.142 161.819 L775.142 146.31 Q775.142 142.583 773.822 140.778 Q772.503 138.972 769.795 138.972 Q766.484 138.972 764.563 141.171 Q762.642 143.37 762.642 147.166 L762.642 161.819 L758.359 161.819 L758.359 146.31 Q758.359 142.56 757.04 140.778 Q755.721 138.972 752.966 138.972 Q749.702 138.972 747.781 141.194 Q745.859 143.393 745.859 147.166 L745.859 161.819 L741.577 161.819 L741.577 135.893 L745.859 135.893 L745.859 139.921 Q747.318 137.537 749.355 136.403 Q751.392 135.268 754.193 135.268 Q757.017 135.268 758.984 136.704 Q760.975 138.139 761.924 140.87 Z" fill="#000000" fill-rule="evenodd" fill-opacity="1" /><path clip-path="url(#clip420)" d="M810.095 147.791 L810.095 149.875 L790.512 149.875 Q790.79 154.273 793.151 156.588 Q795.535 158.879 799.771 158.879 Q802.225 158.879 804.517 158.278 Q806.831 157.676 809.1 156.472 L809.1 160.5 Q806.808 161.472 804.401 161.981 Q801.993 162.49 799.517 162.49 Q793.313 162.49 789.679 158.879 Q786.068 155.268 786.068 149.111 Q786.068 142.745 789.494 139.018 Q792.943 135.268 798.776 135.268 Q804.007 135.268 807.04 138.648 Q810.095 142.004 810.095 147.791 M805.836 146.541 Q805.79 143.046 803.868 140.963 Q801.97 138.879 798.822 138.879 Q795.257 138.879 793.105 140.893 Q790.975 142.907 790.651 146.565 L805.836 146.541 Z" fill="#000000" fill-rule="evenodd" fill-opacity="1" /><path clip-path="url(#clip420)" d="M838.637 146.171 L838.637 161.819 L834.378 161.819 L834.378 146.31 Q834.378 142.629 832.942 140.801 Q831.507 138.972 828.637 138.972 Q825.188 138.972 823.197 141.171 Q821.206 143.37 821.206 147.166 L821.206 161.819 L816.924 161.819 L816.924 135.893 L821.206 135.893 L821.206 139.921 Q822.734 137.583 824.794 136.426 Q826.878 135.268 829.586 135.268 Q834.053 135.268 836.345 138.046 Q838.637 140.801 838.637 146.171 Z" fill="#000000" fill-rule="evenodd" fill-opacity="1" /><path clip-path="url(#clip420)" d="M851.345 128.532 L851.345 135.893 L860.118 135.893 L860.118 139.204 L851.345 139.204 L851.345 153.278 Q851.345 156.449 852.202 157.352 Q853.081 158.254 855.743 158.254 L860.118 158.254 L860.118 161.819 L855.743 161.819 Q850.813 161.819 848.938 159.99 Q847.063 158.139 847.063 153.278 L847.063 139.204 L843.938 139.204 L843.938 135.893 L847.063 135.893 L847.063 128.532 L851.345 128.532 Z" fill="#000000" fill-rule="evenodd" fill-opacity="1" /><circle clip-path="url(#clip420)" cx="397.755" cy="196.379" r="23" fill="#e26f46" fill-rule="evenodd" fill-opacity="1" stroke="#000000" stroke-opacity="1" stroke-width="5.12"/>
<path clip-path="url(#clip420)" d="M491.972 179.099 L496.694 179.099 L503.963 208.312 L511.208 179.099 L516.463 179.099 L523.731 208.312 L530.976 179.099 L535.722 179.099 L527.041 213.659 L521.162 213.659 L513.87 183.659 L506.509 213.659 L500.629 213.659 L491.972 179.099 Z" fill="#000000" fill-rule="evenodd" fill-opacity="1" /><path clip-path="url(#clip420)" d="M540.699 187.733 L544.958 187.733 L544.958 213.659 L540.699 213.659 L540.699 187.733 M540.699 177.641 L544.958 177.641 L544.958 183.034 L540.699 183.034 L540.699 177.641 Z" fill="#000000" fill-rule="evenodd" fill-opacity="1" /><path clip-path="url(#clip420)" d="M576.046 199.631 L576.046 201.715 L556.462 201.715 Q556.74 206.113 559.101 208.428 Q561.485 210.719 565.722 210.719 Q568.175 210.719 570.467 210.118 Q572.782 209.516 575.05 208.312 L575.05 212.34 Q572.759 213.312 570.351 213.821 Q567.944 214.33 565.467 214.33 Q559.263 214.33 555.629 210.719 Q552.018 207.108 552.018 200.951 Q552.018 194.585 555.444 190.858 Q558.893 187.108 564.726 187.108 Q569.958 187.108 572.99 190.488 Q576.046 193.844 576.046 199.631 M571.786 198.381 Q571.74 194.886 569.819 192.803 Q567.921 190.719 564.772 190.719 Q561.208 190.719 559.055 192.733 Q556.925 194.747 556.601 198.405 L571.786 198.381 Z" fill="#000000" fill-rule="evenodd" fill-opacity="1" /><path clip-path="url(#clip420)" d="M583.036 177.641 L587.296 177.641 L587.296 213.659 L583.036 213.659 L583.036 177.641 Z" fill="#000000" fill-rule="evenodd" fill-opacity="1" /><path clip-path="url(#clip420)" d="M618.383 199.631 L618.383 201.715 L598.8 201.715 Q599.078 206.113 601.439 208.428 Q603.823 210.719 608.059 210.719 Q610.513 210.719 612.805 210.118 Q615.119 209.516 617.388 208.312 L617.388 212.34 Q615.096 213.312 612.689 213.821 Q610.282 214.33 607.805 214.33 Q601.601 214.33 597.967 210.719 Q594.356 207.108 594.356 200.951 Q594.356 194.585 597.782 190.858 Q601.231 187.108 607.064 187.108 Q612.295 187.108 615.328 190.488 Q618.383 193.844 618.383 199.631 M614.124 198.381 Q614.078 194.886 612.156 192.803 Q610.258 190.719 607.11 190.719 Q603.545 190.719 601.393 192.733 Q599.263 194.747 598.939 198.405 L614.124 198.381 Z" fill="#000000" fill-rule="evenodd" fill-opacity="1" /><path clip-path="url(#clip420)" d="M653.568 177.641 L653.568 181.183 L649.494 181.183 Q647.203 181.183 646.3 182.108 Q645.42 183.034 645.42 185.442 L645.42 187.733 L652.434 187.733 L652.434 191.044 L645.42 191.044 L645.42 213.659 L641.138 213.659 L641.138 191.044 L637.064 191.044 L637.064 187.733 L641.138 187.733 L641.138 185.928 Q641.138 181.599 643.152 179.632 Q645.166 177.641 649.541 177.641 L653.568 177.641 Z" fill="#000000" fill-rule="evenodd" fill-opacity="1" /><path clip-path="url(#clip420)" d="M672.156 191.715 Q671.439 191.298 670.582 191.113 Q669.749 190.905 668.73 190.905 Q665.119 190.905 663.175 193.266 Q661.253 195.604 661.253 200.002 L661.253 213.659 L656.971 213.659 L656.971 187.733 L661.253 187.733 L661.253 191.761 Q662.596 189.4 664.749 188.266 Q666.902 187.108 669.98 187.108 Q670.42 187.108 670.952 187.178 Q671.485 187.224 672.133 187.34 L672.156 191.715 Z" fill="#000000" fill-rule="evenodd" fill-opacity="1" /><path clip-path="url(#clip420)" d="M688.406 200.627 Q683.244 200.627 681.253 201.807 Q679.263 202.988 679.263 205.835 Q679.263 208.104 680.744 209.446 Q682.249 210.766 684.818 210.766 Q688.36 210.766 690.489 208.266 Q692.642 205.743 692.642 201.576 L692.642 200.627 L688.406 200.627 M696.901 198.868 L696.901 213.659 L692.642 213.659 L692.642 209.724 Q691.184 212.085 689.008 213.219 Q686.832 214.33 683.684 214.33 Q679.702 214.33 677.341 212.108 Q675.003 209.863 675.003 206.113 Q675.003 201.738 677.92 199.516 Q680.86 197.294 686.67 197.294 L692.642 197.294 L692.642 196.877 Q692.642 193.937 690.698 192.34 Q688.776 190.719 685.281 190.719 Q683.059 190.719 680.952 191.252 Q678.846 191.784 676.902 192.849 L676.902 188.914 Q679.239 188.011 681.439 187.571 Q683.638 187.108 685.721 187.108 Q691.346 187.108 694.124 190.025 Q696.901 192.942 696.901 198.868 Z" fill="#000000" fill-rule="evenodd" fill-opacity="1" /><path clip-path="url(#clip420)" d="M722.735 200.395 Q722.735 195.766 720.813 193.219 Q718.915 190.673 715.466 190.673 Q712.04 190.673 710.119 193.219 Q708.221 195.766 708.221 200.395 Q708.221 205.002 710.119 207.548 Q712.04 210.094 715.466 210.094 Q718.915 210.094 720.813 207.548 Q722.735 205.002 722.735 200.395 M726.994 210.442 Q726.994 217.062 724.054 220.28 Q721.114 223.52 715.049 223.52 Q712.804 223.52 710.813 223.173 Q708.823 222.849 706.948 222.155 L706.948 218.011 Q708.823 219.03 710.651 219.516 Q712.48 220.002 714.378 220.002 Q718.568 220.002 720.651 217.803 Q722.735 215.627 722.735 211.205 L722.735 209.099 Q721.415 211.391 719.355 212.525 Q717.295 213.659 714.424 213.659 Q709.656 213.659 706.739 210.025 Q703.823 206.391 703.823 200.395 Q703.823 194.377 706.739 190.743 Q709.656 187.108 714.424 187.108 Q717.295 187.108 719.355 188.243 Q721.415 189.377 722.735 191.669 L722.735 187.733 L726.994 187.733 L726.994 210.442 Z" fill="#000000" fill-rule="evenodd" fill-opacity="1" /><path clip-path="url(#clip420)" d="M755.952 192.71 Q757.549 189.84 759.771 188.474 Q761.994 187.108 765.003 187.108 Q769.054 187.108 771.253 189.956 Q773.452 192.78 773.452 198.011 L773.452 213.659 L769.17 213.659 L769.17 198.15 Q769.17 194.423 767.85 192.618 Q766.531 190.812 763.822 190.812 Q760.512 190.812 758.591 193.011 Q756.67 195.21 756.67 199.006 L756.67 213.659 L752.387 213.659 L752.387 198.15 Q752.387 194.4 751.068 192.618 Q749.748 190.812 746.994 190.812 Q743.73 190.812 741.809 193.034 Q739.887 195.233 739.887 199.006 L739.887 213.659 L735.605 213.659 L735.605 187.733 L739.887 187.733 L739.887 191.761 Q741.346 189.377 743.383 188.243 Q745.42 187.108 748.221 187.108 Q751.045 187.108 753.012 188.544 Q755.003 189.979 755.952 192.71 Z" fill="#000000" fill-rule="evenodd" fill-opacity="1" /><path clip-path="url(#clip420)" d="M804.123 199.631 L804.123 201.715 L784.54 201.715 Q784.818 206.113 787.179 208.428 Q789.563 210.719 793.799 210.719 Q796.253 210.719 798.544 210.118 Q800.859 209.516 803.128 208.312 L803.128 212.34 Q800.836 213.312 798.429 213.821 Q796.021 214.33 793.544 214.33 Q787.341 214.33 783.707 210.719 Q780.095 207.108 780.095 200.951 Q780.095 194.585 783.521 190.858 Q786.97 187.108 792.804 187.108 Q798.035 187.108 801.068 190.488 Q804.123 193.844 804.123 199.631 M799.864 198.381 Q799.818 194.886 797.896 192.803 Q795.998 190.719 792.85 190.719 Q789.285 190.719 787.132 192.733 Q785.003 194.747 784.679 198.405 L799.864 198.381 Z" fill="#000000" fill-rule="evenodd" fill-opacity="1" /><path clip-path="url(#clip420)" d="M832.665 198.011 L832.665 213.659 L828.405 213.659 L828.405 198.15 Q828.405 194.469 826.97 192.641 Q825.535 190.812 822.665 190.812 Q819.216 190.812 817.225 193.011 Q815.234 195.21 815.234 199.006 L815.234 213.659 L810.952 213.659 L810.952 187.733 L815.234 187.733 L815.234 191.761 Q816.762 189.423 818.822 188.266 Q820.905 187.108 823.614 187.108 Q828.081 187.108 830.373 189.886 Q832.665 192.641 832.665 198.011 Z" fill="#000000" fill-rule="evenodd" fill-opacity="1" /><path clip-path="url(#clip420)" d="M845.373 180.372 L845.373 187.733 L854.146 187.733 L854.146 191.044 L845.373 191.044 L845.373 205.118 Q845.373 208.289 846.229 209.192 Q847.109 210.094 849.771 210.094 L854.146 210.094 L854.146 213.659 L849.771 213.659 Q844.84 213.659 842.965 211.83 Q841.09 209.979 841.09 205.118 L841.09 191.044 L837.965 191.044 L837.965 187.733 L841.09 187.733 L841.09 180.372 L845.373 180.372 Z" fill="#000000" fill-rule="evenodd" fill-opacity="1" /><path clip-path="url(#clip420)" d="M869.794 190.719 Q866.368 190.719 864.377 193.405 Q862.387 196.067 862.387 200.719 Q862.387 205.372 864.354 208.057 Q866.345 210.719 869.794 210.719 Q873.197 210.719 875.187 208.034 Q877.178 205.349 877.178 200.719 Q877.178 196.113 875.187 193.428 Q873.197 190.719 869.794 190.719 M869.794 187.108 Q875.35 187.108 878.521 190.719 Q881.692 194.331 881.692 200.719 Q881.692 207.085 878.521 210.719 Q875.35 214.33 869.794 214.33 Q864.215 214.33 861.044 210.719 Q857.896 207.085 857.896 200.719 Q857.896 194.331 861.044 190.719 Q864.215 187.108 869.794 187.108 M873.012 175.743 L877.618 175.743 L870.072 184.446 L866.53 184.446 L873.012 175.743 Z" fill="#000000" fill-rule="evenodd" fill-opacity="1" /><path clip-path="url(#clip420)" d="M886.275 187.733 L890.535 187.733 L895.859 207.965 L901.16 187.733 L906.183 187.733 L911.507 207.965 L916.808 187.733 L921.067 187.733 L914.285 213.659 L909.261 213.659 L903.683 192.409 L898.081 213.659 L893.058 213.659 L886.275 187.733 Z" fill="#000000" fill-rule="evenodd" fill-opacity="1" /></svg>
