<?xml version="1.0" encoding="utf-8"?>
<svg xmlns="http://www.w3.org/2000/svg" xmlns:xlink="http://www.w3.org/1999/xlink" width="600" height="400" viewBox="0 0 2400 1600">
<defs>
  <clipPath id="clip360">
    <rect x="0" y="0" width="2400" height="1600"/>
  </clipPath>
</defs>
<path clip-path="url(#clip360)" d="
M0 1600 L2400 1600 L2400 0 L0 0  Z
  " fill="#ffffff" fill-rule="evenodd" fill-opacity="1"/>
<defs>
  <clipPath id="clip361">
    <rect x="480" y="0" width="1681" height="1600"/>
  </clipPath>
</defs>
<path clip-path="url(#clip360)" d="
M204.45 1410.9 L2352.76 1410.9 L2352.76 47.2441 L204.45 47.2441  Z
  " fill="#ffffff" fill-rule="evenodd" fill-opacity="1"/>
<defs>
  <clipPath id="clip362">
    <rect x="204" y="47" width="2149" height="1365"/>
  </clipPath>
</defs>
<polyline clip-path="url(#clip362)" style="stroke:#000000; stroke-linecap:butt; stroke-linejoin:round; stroke-width:2; stroke-opacity:0.1; fill:none" points="
  712.465,1410.9 712.465,47.2441 
  "/>
<polyline clip-path="url(#clip362)" style="stroke:#000000; stroke-linecap:butt; stroke-linejoin:round; stroke-width:2; stroke-opacity:0.1; fill:none" points="
  1274.38,1410.9 1274.38,47.2441 
  "/>
<polyline clip-path="url(#clip362)" style="stroke:#000000; stroke-linecap:butt; stroke-linejoin:round; stroke-width:2; stroke-opacity:0.1; fill:none" points="
  1836.29,1410.9 1836.29,47.2441 
  "/>
<polyline clip-path="url(#clip360)" style="stroke:#000000; stroke-linecap:butt; stroke-linejoin:round; stroke-width:4; stroke-opacity:1; fill:none" points="
  204.45,1410.9 2352.76,1410.9 
  "/>
<polyline clip-path="url(#clip360)" style="stroke:#000000; stroke-linecap:butt; stroke-linejoin:round; stroke-width:4; stroke-opacity:1; fill:none" points="
  712.465,1410.9 712.465,1392 
  "/>
<polyline clip-path="url(#clip360)" style="stroke:#000000; stroke-linecap:butt; stroke-linejoin:round; stroke-width:4; stroke-opacity:1; fill:none" points="
  1274.38,1410.9 1274.38,1392 
  "/>
<polyline clip-path="url(#clip360)" style="stroke:#000000; stroke-linecap:butt; stroke-linejoin:round; stroke-width:4; stroke-opacity:1; fill:none" points="
  1836.29,1410.9 1836.29,1392 
  "/>
<path clip-path="url(#clip360)" d="M678.237 1485.02 L685.876 1485.02 L685.876 1458.66 L677.566 1460.32 L677.566 1456.06 L685.83 1454.4 L690.506 1454.4 L690.506 1485.02 L698.145 1485.02 L698.145 1488.96 L678.237 1488.96 L678.237 1485.02 Z" fill="#000000" fill-rule="evenodd" fill-opacity="1" /><path clip-path="url(#clip360)" d="M717.589 1457.48 Q713.978 1457.48 712.149 1461.04 Q710.344 1464.58 710.344 1471.71 Q710.344 1478.82 712.149 1482.38 Q713.978 1485.92 717.589 1485.92 Q721.223 1485.92 723.029 1482.38 Q724.858 1478.82 724.858 1471.71 Q724.858 1464.58 723.029 1461.04 Q721.223 1457.48 717.589 1457.48 M717.589 1453.77 Q723.399 1453.77 726.455 1458.38 Q729.534 1462.96 729.534 1471.71 Q729.534 1480.44 726.455 1485.04 Q723.399 1489.63 717.589 1489.63 Q711.779 1489.63 708.7 1485.04 Q705.645 1480.44 705.645 1471.71 Q705.645 1462.96 708.7 1458.38 Q711.779 1453.77 717.589 1453.77 Z" fill="#000000" fill-rule="evenodd" fill-opacity="1" /><path clip-path="url(#clip360)" d="M734.104 1458.35 L747.363 1458.35 L747.363 1461.55 L729.534 1461.55 L729.534 1458.35 Q731.696 1456.11 735.42 1452.35 Q739.163 1448.57 740.122 1447.48 Q741.947 1445.43 742.661 1444.02 Q743.395 1442.59 743.395 1441.22 Q743.395 1438.98 741.815 1437.57 Q740.254 1436.16 737.734 1436.16 Q735.947 1436.16 733.953 1436.78 Q731.979 1437.4 729.722 1438.66 L729.722 1434.82 Q732.016 1433.9 734.01 1433.43 Q736.003 1432.96 737.658 1432.96 Q742.022 1432.96 744.617 1435.14 Q747.213 1437.32 747.213 1440.97 Q747.213 1442.7 746.555 1444.26 Q745.915 1445.8 744.204 1447.91 Q743.733 1448.46 741.213 1451.07 Q738.693 1453.67 734.104 1458.35 Z" fill="#000000" fill-rule="evenodd" fill-opacity="1" /><path clip-path="url(#clip360)" d="M1239.82 1485.02 L1247.46 1485.02 L1247.46 1458.66 L1239.15 1460.32 L1239.15 1456.06 L1247.41 1454.4 L1252.09 1454.4 L1252.09 1485.02 L1259.73 1485.02 L1259.73 1488.96 L1239.82 1488.96 L1239.82 1485.02 Z" fill="#000000" fill-rule="evenodd" fill-opacity="1" /><path clip-path="url(#clip360)" d="M1279.17 1457.48 Q1275.56 1457.48 1273.73 1461.04 Q1271.93 1464.58 1271.93 1471.71 Q1271.93 1478.82 1273.73 1482.38 Q1275.56 1485.92 1279.17 1485.92 Q1282.81 1485.92 1284.61 1482.38 Q1286.44 1478.82 1286.44 1471.71 Q1286.44 1464.58 1284.61 1461.04 Q1282.81 1457.48 1279.17 1457.48 M1279.17 1453.77 Q1284.98 1453.77 1288.04 1458.38 Q1291.12 1462.96 1291.12 1471.71 Q1291.12 1480.44 1288.04 1485.04 Q1284.98 1489.63 1279.17 1489.63 Q1273.36 1489.63 1270.28 1485.04 Q1267.23 1480.44 1267.23 1471.71 Q1267.23 1462.96 1270.28 1458.38 Q1273.36 1453.77 1279.17 1453.77 Z" fill="#000000" fill-rule="evenodd" fill-opacity="1" /><path clip-path="url(#clip360)" d="M1303.81 1446.41 Q1306.54 1446.99 1308.06 1448.83 Q1309.6 1450.68 1309.6 1453.38 Q1309.6 1457.54 1306.74 1459.82 Q1303.89 1462.09 1298.62 1462.09 Q1296.85 1462.09 1294.97 1461.73 Q1293.11 1461.4 1291.12 1460.7 L1291.12 1457.03 Q1292.7 1457.95 1294.58 1458.42 Q1296.46 1458.89 1298.51 1458.89 Q1302.08 1458.89 1303.94 1457.48 Q1305.82 1456.07 1305.82 1453.38 Q1305.82 1450.9 1304.07 1449.51 Q1302.34 1448.1 1299.24 1448.1 L1295.97 1448.1 L1295.97 1444.98 L1299.39 1444.98 Q1302.19 1444.98 1303.68 1443.87 Q1305.17 1442.74 1305.17 1440.63 Q1305.17 1438.47 1303.62 1437.32 Q1302.1 1436.16 1299.24 1436.16 Q1297.68 1436.16 1295.89 1436.49 Q1294.11 1436.83 1291.96 1437.55 L1291.96 1434.16 Q1294.12 1433.56 1296.01 1433.26 Q1297.91 1432.96 1299.58 1432.96 Q1303.9 1432.96 1306.43 1434.93 Q1308.95 1436.89 1308.95 1440.24 Q1308.95 1442.57 1307.61 1444.19 Q1306.27 1445.79 1303.81 1446.41 Z" fill="#000000" fill-rule="evenodd" fill-opacity="1" /><path clip-path="url(#clip360)" d="M1800.74 1485.02 L1808.38 1485.02 L1808.38 1458.66 L1800.07 1460.32 L1800.07 1456.06 L1808.34 1454.4 L1813.01 1454.4 L1813.01 1485.02 L1820.65 1485.02 L1820.65 1488.96 L1800.74 1488.96 L1800.74 1485.02 Z" fill="#000000" fill-rule="evenodd" fill-opacity="1" /><path clip-path="url(#clip360)" d="M1840.1 1457.48 Q1836.48 1457.48 1834.66 1461.04 Q1832.85 1464.58 1832.85 1471.71 Q1832.85 1478.82 1834.66 1482.38 Q1836.48 1485.92 1840.1 1485.92 Q1843.73 1485.92 1845.53 1482.38 Q1847.36 1478.82 1847.36 1471.71 Q1847.36 1464.58 1845.53 1461.04 Q1843.73 1457.48 1840.1 1457.48 M1840.1 1453.77 Q1845.91 1453.77 1848.96 1458.38 Q1852.04 1462.96 1852.04 1471.71 Q1852.04 1480.44 1848.96 1485.04 Q1845.91 1489.63 1840.1 1489.63 Q1834.28 1489.63 1831.21 1485.04 Q1828.15 1480.44 1828.15 1471.71 Q1828.15 1462.96 1831.21 1458.38 Q1834.28 1453.77 1840.1 1453.77 Z" fill="#000000" fill-rule="evenodd" fill-opacity="1" /><path clip-path="url(#clip360)" d="M1864.72 1436.78 L1855.12 1451.77 L1864.72 1451.77 L1864.72 1436.78 M1863.72 1433.47 L1868.5 1433.47 L1868.5 1451.77 L1872.5 1451.77 L1872.5 1454.93 L1868.5 1454.93 L1868.5 1461.55 L1864.72 1461.55 L1864.72 1454.93 L1852.04 1454.93 L1852.04 1451.26 L1863.72 1433.47 Z" fill="#000000" fill-rule="evenodd" fill-opacity="1" /><path clip-path="url(#clip360)" d="M917.031 1551.91 Q919.1 1552.61 921.041 1554.9 Q923.014 1557.19 924.988 1561.2 L931.513 1574.19 L924.606 1574.19 L918.527 1562 Q916.171 1557.22 913.943 1555.66 Q911.747 1554.1 907.928 1554.1 L900.925 1554.1 L900.925 1574.19 L894.496 1574.19 L894.496 1526.67 L909.01 1526.67 Q917.158 1526.67 921.168 1530.07 Q925.179 1533.48 925.179 1540.35 Q925.179 1544.84 923.078 1547.8 Q921.009 1550.76 917.031 1551.91 M900.925 1531.95 L900.925 1548.82 L909.01 1548.82 Q913.657 1548.82 916.012 1546.69 Q918.399 1544.52 918.399 1540.35 Q918.399 1536.18 916.012 1534.08 Q913.657 1531.95 909.01 1531.95 L900.925 1531.95 Z" fill="#000000" fill-rule="evenodd" fill-opacity="1" /><path clip-path="url(#clip360)" d="M950.419 1542.64 Q945.708 1542.64 942.971 1546.34 Q940.234 1550 940.234 1556.39 Q940.234 1562.79 942.939 1566.48 Q945.676 1570.14 950.419 1570.14 Q955.098 1570.14 957.835 1566.45 Q960.572 1562.76 960.572 1556.39 Q960.572 1550.06 957.835 1546.37 Q955.098 1542.64 950.419 1542.64 M950.419 1537.68 Q958.058 1537.68 962.418 1542.64 Q966.779 1547.61 966.779 1556.39 Q966.779 1565.15 962.418 1570.14 Q958.058 1575.11 950.419 1575.11 Q942.748 1575.11 938.388 1570.14 Q934.059 1565.15 934.059 1556.39 Q934.059 1547.61 938.388 1542.64 Q942.748 1537.68 950.419 1537.68 Z" fill="#000000" fill-rule="evenodd" fill-opacity="1" /><path clip-path="url(#clip360)" d="M973.94 1538.54 L1001.76 1538.54 L1001.76 1543.88 L979.733 1569.51 L1001.76 1569.51 L1001.76 1574.19 L973.144 1574.19 L973.144 1568.84 L995.17 1543.22 L973.94 1543.22 L973.94 1538.54 Z" fill="#000000" fill-rule="evenodd" fill-opacity="1" /><path clip-path="url(#clip360)" d="M1038.46 1545.38 Q1040.65 1541.43 1043.71 1539.56 Q1046.76 1537.68 1050.9 1537.68 Q1056.47 1537.68 1059.5 1541.59 Q1062.52 1545.48 1062.52 1552.67 L1062.52 1574.19 L1056.63 1574.19 L1056.63 1552.86 Q1056.63 1547.74 1054.82 1545.25 Q1053 1542.77 1049.28 1542.77 Q1044.73 1542.77 1042.08 1545.79 Q1039.44 1548.82 1039.44 1554.04 L1039.44 1574.19 L1033.55 1574.19 L1033.55 1552.86 Q1033.55 1547.7 1031.74 1545.25 Q1029.93 1542.77 1026.14 1542.77 Q1021.65 1542.77 1019.01 1545.83 Q1016.37 1548.85 1016.37 1554.04 L1016.37 1574.19 L1010.48 1574.19 L1010.48 1538.54 L1016.37 1538.54 L1016.37 1544.08 Q1018.37 1540.8 1021.17 1539.24 Q1023.97 1537.68 1027.83 1537.68 Q1031.71 1537.68 1034.41 1539.65 Q1037.15 1541.62 1038.46 1545.38 Z" fill="#000000" fill-rule="evenodd" fill-opacity="1" /><path clip-path="url(#clip360)" d="M1074.2 1538.54 L1080.06 1538.54 L1080.06 1574.19 L1074.2 1574.19 L1074.2 1538.54 M1074.2 1524.66 L1080.06 1524.66 L1080.06 1532.08 L1074.2 1532.08 L1074.2 1524.66 Z" fill="#000000" fill-rule="evenodd" fill-opacity="1" /><path clip-path="url(#clip360)" d="M1108.51 1556.27 Q1101.41 1556.27 1098.68 1557.89 Q1095.94 1559.51 1095.94 1563.43 Q1095.94 1566.55 1097.98 1568.39 Q1100.04 1570.21 1103.58 1570.21 Q1108.45 1570.21 1111.38 1566.77 Q1114.34 1563.3 1114.34 1557.57 L1114.34 1556.27 L1108.51 1556.27 M1120.19 1553.85 L1120.19 1574.19 L1114.34 1574.19 L1114.34 1568.77 Q1112.33 1572.02 1109.34 1573.58 Q1106.35 1575.11 1102.02 1575.11 Q1096.54 1575.11 1093.3 1572.05 Q1090.08 1568.97 1090.08 1563.81 Q1090.08 1557.79 1094.09 1554.74 Q1098.14 1551.68 1106.12 1551.68 L1114.34 1551.68 L1114.34 1551.11 Q1114.34 1547.07 1111.66 1544.87 Q1109.02 1542.64 1104.21 1542.64 Q1101.16 1542.64 1098.26 1543.38 Q1095.37 1544.11 1092.69 1545.57 L1092.69 1540.16 Q1095.91 1538.92 1098.93 1538.31 Q1101.95 1537.68 1104.82 1537.68 Q1112.55 1537.68 1116.37 1541.69 Q1120.19 1545.7 1120.19 1553.85 Z" fill="#000000" fill-rule="evenodd" fill-opacity="1" /><path clip-path="url(#clip360)" d="M1152.91 1544.01 Q1151.93 1543.44 1150.75 1543.18 Q1149.6 1542.9 1148.2 1542.9 Q1143.24 1542.9 1140.56 1546.14 Q1137.92 1549.36 1137.92 1555.41 L1137.92 1574.19 L1132.03 1574.19 L1132.03 1538.54 L1137.92 1538.54 L1137.92 1544.08 Q1139.77 1540.83 1142.73 1539.27 Q1145.69 1537.68 1149.92 1537.68 Q1150.52 1537.68 1151.26 1537.77 Q1151.99 1537.84 1152.88 1538 L1152.91 1544.01 Z" fill="#000000" fill-rule="evenodd" fill-opacity="1" /><path clip-path="url(#clip360)" d="M1179.97 1524.66 L1185.82 1524.66 L1185.82 1543.82 L1189.8 1540.96 L1192.22 1544.33 L1185.82 1548.82 L1185.82 1574.19 L1179.97 1574.19 L1179.97 1552.99 L1176.05 1555.79 L1173.7 1552.41 L1179.97 1547.93 L1179.97 1524.66 Z" fill="#000000" fill-rule="evenodd" fill-opacity="1" /><path clip-path="url(#clip360)" d="M1214.5 1556.27 Q1207.4 1556.27 1204.67 1557.89 Q1201.93 1559.51 1201.93 1563.43 Q1201.93 1566.55 1203.96 1568.39 Q1206.03 1570.21 1209.57 1570.21 Q1214.44 1570.21 1217.36 1566.77 Q1220.32 1563.3 1220.32 1557.57 L1220.32 1556.27 L1214.5 1556.27 M1226.18 1553.85 L1226.18 1574.19 L1220.32 1574.19 L1220.32 1568.77 Q1218.32 1572.02 1215.33 1573.58 Q1212.34 1575.11 1208.01 1575.11 Q1202.53 1575.11 1199.29 1572.05 Q1196.07 1568.97 1196.07 1563.81 Q1196.07 1557.79 1200.08 1554.74 Q1204.12 1551.68 1212.11 1551.68 L1220.32 1551.68 L1220.32 1551.11 Q1220.32 1547.07 1217.65 1544.87 Q1215.01 1542.64 1210.2 1542.64 Q1207.15 1542.64 1204.25 1543.38 Q1201.35 1544.11 1198.68 1545.57 L1198.68 1540.16 Q1201.9 1538.92 1204.92 1538.31 Q1207.94 1537.68 1210.81 1537.68 Q1218.54 1537.68 1222.36 1541.69 Q1226.18 1545.7 1226.18 1553.85 Z" fill="#000000" fill-rule="evenodd" fill-opacity="1" /><path clip-path="url(#clip360)" d="M1261.7 1543.95 L1261.7 1524.66 L1267.56 1524.66 L1267.56 1574.19 L1261.7 1574.19 L1261.7 1568.84 Q1259.86 1572.02 1257.02 1573.58 Q1254.22 1575.11 1250.28 1575.11 Q1243.81 1575.11 1239.74 1569.95 Q1235.7 1564.8 1235.7 1556.39 Q1235.7 1547.99 1239.74 1542.83 Q1243.81 1537.68 1250.28 1537.68 Q1254.22 1537.68 1257.02 1539.24 Q1259.86 1540.77 1261.7 1543.95 M1241.75 1556.39 Q1241.75 1562.85 1244.39 1566.55 Q1247.06 1570.21 1251.71 1570.21 Q1256.35 1570.21 1259.03 1566.55 Q1261.7 1562.85 1261.7 1556.39 Q1261.7 1549.93 1259.03 1546.27 Q1256.35 1542.58 1251.71 1542.58 Q1247.06 1542.58 1244.39 1546.27 Q1241.75 1549.93 1241.75 1556.39 Z" fill="#000000" fill-rule="evenodd" fill-opacity="1" /><path clip-path="url(#clip360)" d="M1279.02 1560.12 L1279.02 1538.54 L1284.87 1538.54 L1284.87 1559.89 Q1284.87 1564.96 1286.85 1567.5 Q1288.82 1570.02 1292.77 1570.02 Q1297.51 1570.02 1300.25 1566.99 Q1303.02 1563.97 1303.02 1558.75 L1303.02 1538.54 L1308.87 1538.54 L1308.87 1574.19 L1303.02 1574.19 L1303.02 1568.71 Q1300.88 1571.96 1298.05 1573.55 Q1295.25 1575.11 1291.53 1575.11 Q1285.38 1575.11 1282.2 1571.29 Q1279.02 1567.47 1279.02 1560.12 M1293.75 1537.68 L1293.75 1537.68 Z" fill="#000000" fill-rule="evenodd" fill-opacity="1" /><path clip-path="url(#clip360)" d="M1350.57 1552.67 L1350.57 1574.19 L1344.71 1574.19 L1344.71 1552.86 Q1344.71 1547.8 1342.74 1545.29 Q1340.76 1542.77 1336.82 1542.77 Q1332.07 1542.77 1329.34 1545.79 Q1326.6 1548.82 1326.6 1554.04 L1326.6 1574.19 L1320.71 1574.19 L1320.71 1538.54 L1326.6 1538.54 L1326.6 1544.08 Q1328.7 1540.86 1331.53 1539.27 Q1334.4 1537.68 1338.12 1537.68 Q1344.27 1537.68 1347.42 1541.5 Q1350.57 1545.29 1350.57 1552.67 Z" fill="#000000" fill-rule="evenodd" fill-opacity="1" /><path clip-path="url(#clip360)" d="M1362.03 1524.66 L1367.91 1524.66 L1367.91 1553.91 L1385.39 1538.54 L1392.87 1538.54 L1373.96 1555.22 L1393.66 1574.19 L1386.02 1574.19 L1367.91 1556.78 L1367.91 1574.19 L1362.03 1574.19 L1362.03 1524.66 Z" fill="#000000" fill-rule="evenodd" fill-opacity="1" /><path clip-path="url(#clip360)" d="M1397.39 1560.12 L1397.39 1538.54 L1403.24 1538.54 L1403.24 1559.89 Q1403.24 1564.96 1405.22 1567.5 Q1407.19 1570.02 1411.14 1570.02 Q1415.88 1570.02 1418.62 1566.99 Q1421.39 1563.97 1421.39 1558.75 L1421.39 1538.54 L1427.24 1538.54 L1427.24 1574.19 L1421.39 1574.19 L1421.39 1568.71 Q1419.25 1571.96 1416.42 1573.55 Q1413.62 1575.11 1409.9 1575.11 Q1403.75 1575.11 1400.57 1571.29 Q1397.39 1567.47 1397.39 1560.12 M1412.12 1537.68 L1412.12 1537.68 Z" fill="#000000" fill-rule="evenodd" fill-opacity="1" /><path clip-path="url(#clip360)" d="M1459.48 1524.66 L1472.98 1524.66 L1472.98 1529.21 L1465.34 1529.21 L1465.34 1578.23 L1472.98 1578.23 L1472.98 1582.78 L1459.48 1582.78 L1459.48 1524.66 Z" fill="#000000" fill-rule="evenodd" fill-opacity="1" /><path clip-path="url(#clip360)" d="M1511.05 1556.39 Q1511.05 1549.93 1508.37 1546.27 Q1505.73 1542.58 1501.08 1542.58 Q1496.44 1542.58 1493.76 1546.27 Q1491.12 1549.93 1491.12 1556.39 Q1491.12 1562.85 1493.76 1566.55 Q1496.44 1570.21 1501.08 1570.21 Q1505.73 1570.21 1508.37 1566.55 Q1511.05 1562.85 1511.05 1556.39 M1491.12 1543.95 Q1492.97 1540.77 1495.77 1539.24 Q1498.6 1537.68 1502.52 1537.68 Q1509.01 1537.68 1513.05 1542.83 Q1517.13 1547.99 1517.13 1556.39 Q1517.13 1564.8 1513.05 1569.95 Q1509.01 1575.11 1502.52 1575.11 Q1498.6 1575.11 1495.77 1573.58 Q1492.97 1572.02 1491.12 1568.84 L1491.12 1574.19 L1485.23 1574.19 L1485.23 1524.66 L1491.12 1524.66 L1491.12 1543.95 Z" fill="#000000" fill-rule="evenodd" fill-opacity="1" /><path clip-path="url(#clip360)" d="M1543.03 1556.27 Q1535.94 1556.27 1533.2 1557.89 Q1530.46 1559.51 1530.46 1563.43 Q1530.46 1566.55 1532.5 1568.39 Q1534.57 1570.21 1538.1 1570.21 Q1542.97 1570.21 1545.9 1566.77 Q1548.86 1563.3 1548.86 1557.57 L1548.86 1556.27 L1543.03 1556.27 M1554.72 1553.85 L1554.72 1574.19 L1548.86 1574.19 L1548.86 1568.77 Q1546.85 1572.02 1543.86 1573.58 Q1540.87 1575.11 1536.54 1575.11 Q1531.07 1575.11 1527.82 1572.05 Q1524.61 1568.97 1524.61 1563.81 Q1524.61 1557.79 1528.62 1554.74 Q1532.66 1551.68 1540.65 1551.68 L1548.86 1551.68 L1548.86 1551.11 Q1548.86 1547.07 1546.19 1544.87 Q1543.54 1542.64 1538.74 1542.64 Q1535.68 1542.64 1532.79 1543.38 Q1529.89 1544.11 1527.22 1545.57 L1527.22 1540.16 Q1530.43 1538.92 1533.45 1538.31 Q1536.48 1537.68 1539.34 1537.68 Q1547.08 1537.68 1550.9 1541.69 Q1554.72 1545.7 1554.72 1553.85 Z" fill="#000000" fill-rule="evenodd" fill-opacity="1" /><path clip-path="url(#clip360)" d="M1566.78 1538.54 L1572.63 1538.54 L1572.63 1574.82 Q1572.63 1581.63 1570.02 1584.69 Q1567.45 1587.74 1561.69 1587.74 L1559.46 1587.74 L1559.46 1582.78 L1561.02 1582.78 Q1564.36 1582.78 1565.57 1581.22 Q1566.78 1579.69 1566.78 1574.82 L1566.78 1538.54 M1566.78 1524.66 L1572.63 1524.66 L1572.63 1532.08 L1566.78 1532.08 L1566.78 1524.66 Z" fill="#000000" fill-rule="evenodd" fill-opacity="1" /><path clip-path="url(#clip360)" d="M1590.68 1528.42 L1590.68 1538.54 L1602.74 1538.54 L1602.74 1543.09 L1590.68 1543.09 L1590.68 1562.44 Q1590.68 1566.8 1591.86 1568.04 Q1593.07 1569.28 1596.73 1569.28 L1602.74 1569.28 L1602.74 1574.19 L1596.73 1574.19 Q1589.95 1574.19 1587.37 1571.67 Q1584.79 1569.12 1584.79 1562.44 L1584.79 1543.09 L1580.5 1543.09 L1580.5 1538.54 L1584.79 1538.54 L1584.79 1528.42 L1590.68 1528.42 Z" fill="#000000" fill-rule="evenodd" fill-opacity="1" /><path clip-path="url(#clip360)" d="M1625.28 1577.5 Q1622.8 1583.86 1620.44 1585.8 Q1618.09 1587.74 1614.14 1587.74 L1609.46 1587.74 L1609.46 1582.84 L1612.9 1582.84 Q1615.32 1582.84 1616.65 1581.7 Q1617.99 1580.55 1619.61 1576.29 L1620.66 1573.61 L1606.25 1538.54 L1612.45 1538.54 L1623.59 1566.42 L1634.73 1538.54 L1640.94 1538.54 L1625.28 1577.5 Z" fill="#000000" fill-rule="evenodd" fill-opacity="1" /><path clip-path="url(#clip360)" d="M1662.71 1524.66 L1662.71 1582.78 L1649.21 1582.78 L1649.21 1578.23 L1656.82 1578.23 L1656.82 1529.21 L1649.21 1529.21 L1649.21 1524.66 L1662.71 1524.66 Z" fill="#000000" fill-rule="evenodd" fill-opacity="1" /><polyline clip-path="url(#clip362)" style="stroke:#000000; stroke-linecap:butt; stroke-linejoin:round; stroke-width:2; stroke-opacity:0.1; fill:none" points="
  204.45,1219.96 2352.76,1219.96 
  "/>
<polyline clip-path="url(#clip362)" style="stroke:#000000; stroke-linecap:butt; stroke-linejoin:round; stroke-width:2; stroke-opacity:0.1; fill:none" points="
  204.45,966.051 2352.76,966.051 
  "/>
<polyline clip-path="url(#clip362)" style="stroke:#000000; stroke-linecap:butt; stroke-linejoin:round; stroke-width:2; stroke-opacity:0.1; fill:none" points="
  204.45,712.143 2352.76,712.143 
  "/>
<polyline clip-path="url(#clip362)" style="stroke:#000000; stroke-linecap:butt; stroke-linejoin:round; stroke-width:2; stroke-opacity:0.1; fill:none" points="
  204.45,458.236 2352.76,458.236 
  "/>
<polyline clip-path="url(#clip362)" style="stroke:#000000; stroke-linecap:butt; stroke-linejoin:round; stroke-width:2; stroke-opacity:0.1; fill:none" points="
  204.45,204.328 2352.76,204.328 
  "/>
<polyline clip-path="url(#clip360)" style="stroke:#000000; stroke-linecap:butt; stroke-linejoin:round; stroke-width:4; stroke-opacity:1; fill:none" points="
  204.45,1410.9 204.45,47.2441 
  "/>
<polyline clip-path="url(#clip360)" style="stroke:#000000; stroke-linecap:butt; stroke-linejoin:round; stroke-width:4; stroke-opacity:1; fill:none" points="
  204.45,1219.96 223.347,1219.96 
  "/>
<polyline clip-path="url(#clip360)" style="stroke:#000000; stroke-linecap:butt; stroke-linejoin:round; stroke-width:4; stroke-opacity:1; fill:none" points="
  204.45,966.051 223.347,966.051 
  "/>
<polyline clip-path="url(#clip360)" style="stroke:#000000; stroke-linecap:butt; stroke-linejoin:round; stroke-width:4; stroke-opacity:1; fill:none" points="
  204.45,712.143 223.347,712.143 
  "/>
<polyline clip-path="url(#clip360)" style="stroke:#000000; stroke-linecap:butt; stroke-linejoin:round; stroke-width:4; stroke-opacity:1; fill:none" points="
  204.45,458.236 223.347,458.236 
  "/>
<polyline clip-path="url(#clip360)" style="stroke:#000000; stroke-linecap:butt; stroke-linejoin:round; stroke-width:4; stroke-opacity:1; fill:none" points="
  204.45,204.328 223.347,204.328 
  "/>
<path clip-path="url(#clip360)" d="M118.751 1233.3 L126.39 1233.3 L126.39 1206.94 L118.08 1208.6 L118.08 1204.34 L126.343 1202.68 L131.019 1202.68 L131.019 1233.3 L138.658 1233.3 L138.658 1237.24 L118.751 1237.24 L118.751 1233.3 Z" fill="#000000" fill-rule="evenodd" fill-opacity="1" /><path clip-path="url(#clip360)" d="M152.13 1233.3 L168.45 1233.3 L168.45 1237.24 L146.505 1237.24 L146.505 1233.3 Q149.167 1230.55 153.751 1225.92 Q158.357 1221.27 159.538 1219.92 Q161.783 1217.4 162.663 1215.66 Q163.565 1213.9 163.565 1212.22 Q163.565 1209.46 161.621 1207.72 Q159.7 1205.99 156.598 1205.99 Q154.399 1205.99 151.945 1206.75 Q149.515 1207.52 146.737 1209.07 L146.737 1204.34 Q149.561 1203.21 152.015 1202.63 Q154.468 1202.05 156.505 1202.05 Q161.876 1202.05 165.07 1204.74 Q168.264 1207.42 168.264 1211.91 Q168.264 1214.04 167.454 1215.97 Q166.667 1217.86 164.561 1220.46 Q163.982 1221.13 160.88 1224.34 Q157.778 1227.54 152.13 1233.3 Z" fill="#000000" fill-rule="evenodd" fill-opacity="1" /><path clip-path="url(#clip360)" d="M118.149 979.396 L125.788 979.396 L125.788 953.03 L117.478 954.697 L117.478 950.437 L125.742 948.771 L130.417 948.771 L130.417 979.396 L138.056 979.396 L138.056 983.331 L118.149 983.331 L118.149 979.396 Z" fill="#000000" fill-rule="evenodd" fill-opacity="1" /><path clip-path="url(#clip360)" d="M147.547 948.771 L165.903 948.771 L165.903 952.706 L151.829 952.706 L151.829 961.178 Q152.848 960.831 153.866 960.669 Q154.885 960.484 155.903 960.484 Q161.69 960.484 165.07 963.655 Q168.45 966.826 168.45 972.243 Q168.45 977.821 164.977 980.923 Q161.505 984.002 155.186 984.002 Q153.01 984.002 150.741 983.632 Q148.496 983.261 146.089 982.521 L146.089 977.821 Q148.172 978.956 150.394 979.511 Q152.616 980.067 155.093 980.067 Q159.098 980.067 161.436 977.96 Q163.774 975.854 163.774 972.243 Q163.774 968.632 161.436 966.525 Q159.098 964.419 155.093 964.419 Q153.218 964.419 151.343 964.835 Q149.491 965.252 147.547 966.132 L147.547 948.771 Z" fill="#000000" fill-rule="evenodd" fill-opacity="1" /><path clip-path="url(#clip360)" d="M117.246 725.488 L124.885 725.488 L124.885 699.122 L116.575 700.789 L116.575 696.53 L124.839 694.863 L129.515 694.863 L129.515 725.488 L137.154 725.488 L137.154 729.423 L117.246 729.423 L117.246 725.488 Z" fill="#000000" fill-rule="evenodd" fill-opacity="1" /><path clip-path="url(#clip360)" d="M156.598 713.011 Q153.265 713.011 151.343 714.794 Q149.445 716.576 149.445 719.701 Q149.445 722.826 151.343 724.608 Q153.265 726.391 156.598 726.391 Q159.931 726.391 161.852 724.608 Q163.774 722.803 163.774 719.701 Q163.774 716.576 161.852 714.794 Q159.954 713.011 156.598 713.011 M151.922 711.021 Q148.913 710.28 147.223 708.22 Q145.556 706.159 145.556 703.196 Q145.556 699.053 148.496 696.646 Q151.459 694.238 156.598 694.238 Q161.76 694.238 164.7 696.646 Q167.64 699.053 167.64 703.196 Q167.64 706.159 165.95 708.22 Q164.283 710.28 161.297 711.021 Q164.677 711.808 166.552 714.099 Q168.45 716.391 168.45 719.701 Q168.45 724.724 165.371 727.409 Q162.315 730.094 156.598 730.094 Q150.88 730.094 147.802 727.409 Q144.746 724.724 144.746 719.701 Q144.746 716.391 146.644 714.099 Q148.542 711.808 151.922 711.021 M150.209 703.636 Q150.209 706.321 151.876 707.826 Q153.566 709.331 156.598 709.331 Q159.607 709.331 161.297 707.826 Q163.01 706.321 163.01 703.636 Q163.01 700.951 161.297 699.447 Q159.607 697.942 156.598 697.942 Q153.566 697.942 151.876 699.447 Q150.209 700.951 150.209 703.636 Z" fill="#000000" fill-rule="evenodd" fill-opacity="1" /><path clip-path="url(#clip360)" d="M121.598 471.581 L137.917 471.581 L137.917 475.516 L115.973 475.516 L115.973 471.581 Q118.635 468.826 123.218 464.196 Q127.825 459.544 129.005 458.201 Q131.251 455.678 132.13 453.942 Q133.033 452.182 133.033 450.493 Q133.033 447.738 131.089 446.002 Q129.167 444.266 126.066 444.266 Q123.867 444.266 121.413 445.03 Q118.982 445.794 116.205 447.345 L116.205 442.622 Q119.029 441.488 121.482 440.909 Q123.936 440.331 125.973 440.331 Q131.343 440.331 134.538 443.016 Q137.732 445.701 137.732 450.192 Q137.732 452.321 136.922 454.243 Q136.135 456.141 134.029 458.733 Q133.45 459.405 130.348 462.622 Q127.246 465.817 121.598 471.581 Z" fill="#000000" fill-rule="evenodd" fill-opacity="1" /><path clip-path="url(#clip360)" d="M148.542 471.581 L156.181 471.581 L156.181 445.215 L147.871 446.882 L147.871 442.622 L156.135 440.956 L160.811 440.956 L160.811 471.581 L168.45 471.581 L168.45 475.516 L148.542 475.516 L148.542 471.581 Z" fill="#000000" fill-rule="evenodd" fill-opacity="1" /><path clip-path="url(#clip360)" d="M119.885 217.673 L136.204 217.673 L136.204 221.608 L114.26 221.608 L114.26 217.673 Q116.922 214.918 121.505 210.289 Q126.112 205.636 127.292 204.293 Q129.538 201.77 130.417 200.034 Q131.32 198.275 131.32 196.585 Q131.32 193.831 129.376 192.094 Q127.455 190.358 124.353 190.358 Q122.154 190.358 119.7 191.122 Q117.269 191.886 114.492 193.437 L114.492 188.715 Q117.316 187.581 119.769 187.002 Q122.223 186.423 124.26 186.423 Q129.63 186.423 132.825 189.108 Q136.019 191.794 136.019 196.284 Q136.019 198.414 135.209 200.335 Q134.422 202.233 132.316 204.826 Q131.737 205.497 128.635 208.715 Q125.533 211.909 119.885 217.673 Z" fill="#000000" fill-rule="evenodd" fill-opacity="1" /><path clip-path="url(#clip360)" d="M158.866 191.122 L147.061 209.571 L158.866 209.571 L158.866 191.122 M157.64 187.048 L163.519 187.048 L163.519 209.571 L168.45 209.571 L168.45 213.46 L163.519 213.46 L163.519 221.608 L158.866 221.608 L158.866 213.46 L143.265 213.46 L143.265 208.946 L157.64 187.048 Z" fill="#000000" fill-rule="evenodd" fill-opacity="1" /><path clip-path="url(#clip360)" d="M20.1444 847.457 L26.9239 847.457 Q23.9002 850.703 22.4043 854.395 Q20.9083 858.055 20.9083 862.193 Q20.9083 870.341 25.9054 874.67 Q30.8707 878.999 40.2919 878.999 Q49.6813 878.999 54.6784 874.67 Q59.6436 870.341 59.6436 862.193 Q59.6436 858.055 58.1477 854.395 Q56.6518 850.703 53.6281 847.457 L60.3439 847.457 Q62.6355 850.83 63.7814 854.618 Q64.9272 858.374 64.9272 862.575 Q64.9272 873.365 58.3387 879.572 Q51.7183 885.778 40.2919 885.778 Q28.8336 885.778 22.2451 879.572 Q15.6248 873.365 15.6248 862.575 Q15.6248 858.31 16.7706 854.554 Q17.8846 850.767 20.1444 847.457 Z" fill="#000000" fill-rule="evenodd" fill-opacity="1" /><path clip-path="url(#clip360)" d="M28.3562 840.327 L28.3562 812.509 L33.7034 812.509 L59.3254 834.534 L59.3254 812.509 L64.0042 812.509 L64.0042 841.123 L58.657 841.123 L33.035 819.097 L33.035 840.327 L28.3562 840.327 Z" fill="#000000" fill-rule="evenodd" fill-opacity="1" /><path clip-path="url(#clip360)" d="M46.0847 787.364 Q46.0847 794.462 47.7079 797.199 Q49.3312 799.937 53.2461 799.937 Q56.3653 799.937 58.2114 797.9 Q60.0256 795.831 60.0256 792.298 Q60.0256 787.428 56.5881 784.5 Q53.1188 781.54 47.3897 781.54 L46.0847 781.54 L46.0847 787.364 M43.6657 775.683 L64.0042 775.683 L64.0042 781.54 L58.5933 781.54 Q61.8398 783.545 63.3994 786.537 Q64.9272 789.529 64.9272 793.857 Q64.9272 799.332 61.8716 802.578 Q58.7843 805.793 53.6281 805.793 Q47.6125 805.793 44.5569 801.783 Q41.5014 797.74 41.5014 789.751 L41.5014 781.54 L40.9285 781.54 Q36.8862 781.54 34.6901 784.213 Q32.4621 786.855 32.4621 791.661 Q32.4621 794.717 33.1941 797.613 Q33.9262 800.51 35.3903 803.183 L29.9795 803.183 Q28.7381 799.968 28.1334 796.945 Q27.4968 793.921 27.4968 791.056 Q27.4968 783.322 31.5072 779.503 Q35.5176 775.683 43.6657 775.683 Z" fill="#000000" fill-rule="evenodd" fill-opacity="1" /><path clip-path="url(#clip360)" d="M29.4065 740.895 L34.9447 740.895 Q33.6716 743.377 33.035 746.051 Q32.3984 748.724 32.3984 751.589 Q32.3984 755.95 33.7352 758.146 Q35.072 760.31 37.7456 760.31 Q39.7826 760.31 40.9603 758.75 Q42.1061 757.191 43.1565 752.48 L43.6021 750.475 Q44.9389 744.237 47.3897 741.627 Q49.8086 738.985 54.1691 738.985 Q59.1344 738.985 62.0308 742.932 Q64.9272 746.847 64.9272 753.722 Q64.9272 756.586 64.3543 759.705 Q63.8132 762.793 62.6992 766.23 L56.6518 766.23 Q58.3387 762.984 59.198 759.833 Q60.0256 756.682 60.0256 753.594 Q60.0256 749.457 58.6251 747.229 Q57.1929 745.001 54.6147 745.001 Q52.2276 745.001 50.9545 746.624 Q49.6813 748.215 48.5037 753.658 L48.0262 755.695 Q46.8804 761.138 44.5251 763.557 Q42.138 765.976 38.0002 765.976 Q32.9713 765.976 30.2341 762.411 Q27.4968 758.846 27.4968 752.289 Q27.4968 749.043 27.9743 746.178 Q28.4517 743.314 29.4065 740.895 Z" fill="#000000" fill-rule="evenodd" fill-opacity="1" /><path clip-path="url(#clip360)" d="M14.479 709.48 L14.479 695.985 L19.0304 695.985 L19.0304 703.623 L68.0464 703.623 L68.0464 695.985 L72.5979 695.985 L72.5979 709.48 L14.479 709.48 Z" fill="#000000" fill-rule="evenodd" fill-opacity="1" /><path clip-path="url(#clip360)" d="M35.1993 655.753 Q31.2526 653.557 29.3747 650.502 Q27.4968 647.446 27.4968 643.308 Q27.4968 637.738 31.4117 634.715 Q35.2948 631.691 42.4881 631.691 L64.0042 631.691 L64.0042 637.579 L42.679 637.579 Q37.5546 637.579 35.072 639.393 Q32.5894 641.208 32.5894 644.932 Q32.5894 649.483 35.6131 652.125 Q38.6368 654.767 43.8567 654.767 L64.0042 654.767 L64.0042 660.655 L42.679 660.655 Q37.5228 660.655 35.072 662.469 Q32.5894 664.283 32.5894 668.071 Q32.5894 672.559 35.6449 675.201 Q38.6686 677.842 43.8567 677.842 L64.0042 677.842 L64.0042 683.731 L28.3562 683.731 L28.3562 677.842 L33.8944 677.842 Q30.616 675.837 29.0564 673.036 Q27.4968 670.235 27.4968 666.384 Q27.4968 662.501 29.4702 659.796 Q31.4436 657.058 35.1993 655.753 Z" fill="#000000" fill-rule="evenodd" fill-opacity="1" /><path clip-path="url(#clip360)" d="M29.4065 597.284 L34.9447 597.284 Q33.6716 599.767 33.035 602.441 Q32.3984 605.114 32.3984 607.979 Q32.3984 612.339 33.7352 614.535 Q35.072 616.7 37.7456 616.7 Q39.7826 616.7 40.9603 615.14 Q42.1061 613.581 43.1565 608.87 L43.6021 606.865 Q44.9389 600.626 47.3897 598.016 Q49.8086 595.375 54.1691 595.375 Q59.1344 595.375 62.0308 599.321 Q64.9272 603.236 64.9272 610.111 Q64.9272 612.976 64.3543 616.095 Q63.8132 619.182 62.6992 622.62 L56.6518 622.62 Q58.3387 619.373 59.198 616.222 Q60.0256 613.071 60.0256 609.984 Q60.0256 605.846 58.6251 603.618 Q57.1929 601.39 54.6147 601.39 Q52.2276 601.39 50.9545 603.013 Q49.6813 604.605 48.5037 610.048 L48.0262 612.085 Q46.8804 617.527 44.5251 619.946 Q42.138 622.365 38.0002 622.365 Q32.9713 622.365 30.2341 618.8 Q27.4968 615.236 27.4968 608.679 Q27.4968 605.432 27.9743 602.568 Q28.4517 599.703 29.4065 597.284 Z" fill="#000000" fill-rule="evenodd" fill-opacity="1" /><path clip-path="url(#clip360)" d="M14.479 572.363 L72.5979 572.363 L72.5979 585.858 L68.0464 585.858 L68.0464 578.251 L19.0304 578.251 L19.0304 585.858 L14.479 585.858 L14.479 572.363 Z" fill="#000000" fill-rule="evenodd" fill-opacity="1" /><circle clip-path="url(#clip362)" cx="265.251" cy="1262.28" r="14" fill="#009af9" fill-rule="evenodd" fill-opacity="1" stroke="#000000" stroke-opacity="1" stroke-width="3.2"/>
<circle clip-path="url(#clip362)" cx="293.994" cy="1304.59" r="14" fill="#009af9" fill-rule="evenodd" fill-opacity="1" stroke="#000000" stroke-opacity="1" stroke-width="3.2"/>
<circle clip-path="url(#clip362)" cx="319.706" cy="1321.52" r="14" fill="#009af9" fill-rule="evenodd" fill-opacity="1" stroke="#000000" stroke-opacity="1" stroke-width="3.2"/>
<circle clip-path="url(#clip362)" cx="342.965" cy="1313.06" r="14" fill="#009af9" fill-rule="evenodd" fill-opacity="1" stroke="#000000" stroke-opacity="1" stroke-width="3.2"/>
<circle clip-path="url(#clip362)" cx="364.198" cy="1338.45" r="14" fill="#009af9" fill-rule="evenodd" fill-opacity="1" stroke="#000000" stroke-opacity="1" stroke-width="3.2"/>
<circle clip-path="url(#clip362)" cx="383.732" cy="1279.2" r="14" fill="#009af9" fill-rule="evenodd" fill-opacity="1" stroke="#000000" stroke-opacity="1" stroke-width="3.2"/>
<circle clip-path="url(#clip362)" cx="410.38" cy="1143.79" r="14" fill="#009af9" fill-rule="evenodd" fill-opacity="1" stroke="#000000" stroke-opacity="1" stroke-width="3.2"/>
<circle clip-path="url(#clip362)" cx="434.403" cy="1313.06" r="14" fill="#009af9" fill-rule="evenodd" fill-opacity="1" stroke="#000000" stroke-opacity="1" stroke-width="3.2"/>
<circle clip-path="url(#clip362)" cx="456.271" cy="1313.06" r="14" fill="#009af9" fill-rule="evenodd" fill-opacity="1" stroke="#000000" stroke-opacity="1" stroke-width="3.2"/>
<circle clip-path="url(#clip362)" cx="476.34" cy="1355.38" r="14" fill="#009af9" fill-rule="evenodd" fill-opacity="1" stroke="#000000" stroke-opacity="1" stroke-width="3.2"/>
<circle clip-path="url(#clip362)" cx="500.764" cy="1313.06" r="14" fill="#009af9" fill-rule="evenodd" fill-opacity="1" stroke="#000000" stroke-opacity="1" stroke-width="3.2"/>
<circle clip-path="url(#clip362)" cx="522.965" cy="1169.18" r="14" fill="#009af9" fill-rule="evenodd" fill-opacity="1" stroke="#000000" stroke-opacity="1" stroke-width="3.2"/>
<circle clip-path="url(#clip362)" cx="548.145" cy="1270.74" r="14" fill="#009af9" fill-rule="evenodd" fill-opacity="1" stroke="#000000" stroke-opacity="1" stroke-width="3.2"/>
<circle clip-path="url(#clip362)" cx="570.969" cy="1355.38" r="14" fill="#009af9" fill-rule="evenodd" fill-opacity="1" stroke="#000000" stroke-opacity="1" stroke-width="3.2"/>
<circle clip-path="url(#clip362)" cx="595.807" cy="1262.28" r="14" fill="#009af9" fill-rule="evenodd" fill-opacity="1" stroke="#000000" stroke-opacity="1" stroke-width="3.2"/>
<circle clip-path="url(#clip362)" cx="618.35" cy="1372.3" r="14" fill="#009af9" fill-rule="evenodd" fill-opacity="1" stroke="#000000" stroke-opacity="1" stroke-width="3.2"/>
<circle clip-path="url(#clip362)" cx="642.26" cy="1338.45" r="14" fill="#009af9" fill-rule="evenodd" fill-opacity="1" stroke="#000000" stroke-opacity="1" stroke-width="3.2"/>
<circle clip-path="url(#clip362)" cx="664.036" cy="1372.3" r="14" fill="#009af9" fill-rule="evenodd" fill-opacity="1" stroke="#000000" stroke-opacity="1" stroke-width="3.2"/>
<circle clip-path="url(#clip362)" cx="686.753" cy="1253.81" r="14" fill="#009af9" fill-rule="evenodd" fill-opacity="1" stroke="#000000" stroke-opacity="1" stroke-width="3.2"/>
<circle clip-path="url(#clip362)" cx="710.012" cy="1363.84" r="14" fill="#009af9" fill-rule="evenodd" fill-opacity="1" stroke="#000000" stroke-opacity="1" stroke-width="3.2"/>
<circle clip-path="url(#clip362)" cx="733.495" cy="1279.2" r="14" fill="#009af9" fill-rule="evenodd" fill-opacity="1" stroke="#000000" stroke-opacity="1" stroke-width="3.2"/>
<circle clip-path="url(#clip362)" cx="756.958" cy="1296.13" r="14" fill="#009af9" fill-rule="evenodd" fill-opacity="1" stroke="#000000" stroke-opacity="1" stroke-width="3.2"/>
<circle clip-path="url(#clip362)" cx="780.217" cy="1296.13" r="14" fill="#009af9" fill-rule="evenodd" fill-opacity="1" stroke="#000000" stroke-opacity="1" stroke-width="3.2"/>
<circle clip-path="url(#clip362)" cx="803.139" cy="1296.13" r="14" fill="#009af9" fill-rule="evenodd" fill-opacity="1" stroke="#000000" stroke-opacity="1" stroke-width="3.2"/>
<circle clip-path="url(#clip362)" cx="827.162" cy="1270.74" r="14" fill="#009af9" fill-rule="evenodd" fill-opacity="1" stroke="#000000" stroke-opacity="1" stroke-width="3.2"/>
<circle clip-path="url(#clip362)" cx="850.421" cy="1346.91" r="14" fill="#009af9" fill-rule="evenodd" fill-opacity="1" stroke="#000000" stroke-opacity="1" stroke-width="3.2"/>
<circle clip-path="url(#clip362)" cx="874.184" cy="1313.06" r="14" fill="#009af9" fill-rule="evenodd" fill-opacity="1" stroke="#000000" stroke-opacity="1" stroke-width="3.2"/>
<circle clip-path="url(#clip362)" cx="896.985" cy="1355.38" r="14" fill="#009af9" fill-rule="evenodd" fill-opacity="1" stroke="#000000" stroke-opacity="1" stroke-width="3.2"/>
<circle clip-path="url(#clip362)" cx="919.931" cy="1194.57" r="14" fill="#009af9" fill-rule="evenodd" fill-opacity="1" stroke="#000000" stroke-opacity="1" stroke-width="3.2"/>
<circle clip-path="url(#clip362)" cx="942.811" cy="1321.52" r="14" fill="#009af9" fill-rule="evenodd" fill-opacity="1" stroke="#000000" stroke-opacity="1" stroke-width="3.2"/>
<circle clip-path="url(#clip362)" cx="966.329" cy="1296.13" r="14" fill="#009af9" fill-rule="evenodd" fill-opacity="1" stroke="#000000" stroke-opacity="1" stroke-width="3.2"/>
<circle clip-path="url(#clip362)" cx="989.352" cy="1346.91" r="14" fill="#009af9" fill-rule="evenodd" fill-opacity="1" stroke="#000000" stroke-opacity="1" stroke-width="3.2"/>
<circle clip-path="url(#clip362)" cx="1012.54" cy="1253.81" r="14" fill="#009af9" fill-rule="evenodd" fill-opacity="1" stroke="#000000" stroke-opacity="1" stroke-width="3.2"/>
<circle clip-path="url(#clip362)" cx="1035.67" cy="1329.98" r="14" fill="#009af9" fill-rule="evenodd" fill-opacity="1" stroke="#000000" stroke-opacity="1" stroke-width="3.2"/>
<circle clip-path="url(#clip362)" cx="1059.16" cy="1296.13" r="14" fill="#009af9" fill-rule="evenodd" fill-opacity="1" stroke="#000000" stroke-opacity="1" stroke-width="3.2"/>
<circle clip-path="url(#clip362)" cx="1082.21" cy="1270.74" r="14" fill="#009af9" fill-rule="evenodd" fill-opacity="1" stroke="#000000" stroke-opacity="1" stroke-width="3.2"/>
<circle clip-path="url(#clip362)" cx="1105.71" cy="1313.06" r="14" fill="#009af9" fill-rule="evenodd" fill-opacity="1" stroke="#000000" stroke-opacity="1" stroke-width="3.2"/>
<circle clip-path="url(#clip362)" cx="1128.93" cy="1279.2" r="14" fill="#009af9" fill-rule="evenodd" fill-opacity="1" stroke="#000000" stroke-opacity="1" stroke-width="3.2"/>
<circle clip-path="url(#clip362)" cx="1152.14" cy="1338.45" r="14" fill="#009af9" fill-rule="evenodd" fill-opacity="1" stroke="#000000" stroke-opacity="1" stroke-width="3.2"/>
<circle clip-path="url(#clip362)" cx="1175.55" cy="1143.79" r="14" fill="#009af9" fill-rule="evenodd" fill-opacity="1" stroke="#000000" stroke-opacity="1" stroke-width="3.2"/>
<circle clip-path="url(#clip362)" cx="1198.91" cy="1355.38" r="14" fill="#009af9" fill-rule="evenodd" fill-opacity="1" stroke="#000000" stroke-opacity="1" stroke-width="3.2"/>
<circle clip-path="url(#clip362)" cx="1222.05" cy="1194.57" r="14" fill="#009af9" fill-rule="evenodd" fill-opacity="1" stroke="#000000" stroke-opacity="1" stroke-width="3.2"/>
<circle clip-path="url(#clip362)" cx="1245.39" cy="1304.59" r="14" fill="#009af9" fill-rule="evenodd" fill-opacity="1" stroke="#000000" stroke-opacity="1" stroke-width="3.2"/>
<circle clip-path="url(#clip362)" cx="1268.7" cy="1287.67" r="14" fill="#009af9" fill-rule="evenodd" fill-opacity="1" stroke="#000000" stroke-opacity="1" stroke-width="3.2"/>
<circle clip-path="url(#clip362)" cx="1292.02" cy="1211.49" r="14" fill="#009af9" fill-rule="evenodd" fill-opacity="1" stroke="#000000" stroke-opacity="1" stroke-width="3.2"/>
<circle clip-path="url(#clip362)" cx="1315.18" cy="1279.2" r="14" fill="#009af9" fill-rule="evenodd" fill-opacity="1" stroke="#000000" stroke-opacity="1" stroke-width="3.2"/>
<circle clip-path="url(#clip362)" cx="1338.4" cy="1304.59" r="14" fill="#009af9" fill-rule="evenodd" fill-opacity="1" stroke="#000000" stroke-opacity="1" stroke-width="3.2"/>
<circle clip-path="url(#clip362)" cx="1361.66" cy="1228.42" r="14" fill="#009af9" fill-rule="evenodd" fill-opacity="1" stroke="#000000" stroke-opacity="1" stroke-width="3.2"/>
<circle clip-path="url(#clip362)" cx="1384.92" cy="1245.35" r="14" fill="#e26f46" fill-rule="evenodd" fill-opacity="1" stroke="#000000" stroke-opacity="1" stroke-width="3.2"/>
<circle clip-path="url(#clip362)" cx="1408.14" cy="1262.28" r="14" fill="#e26f46" fill-rule="evenodd" fill-opacity="1" stroke="#000000" stroke-opacity="1" stroke-width="3.2"/>
<circle clip-path="url(#clip362)" cx="1431.4" cy="1262.28" r="14" fill="#e26f46" fill-rule="evenodd" fill-opacity="1" stroke="#000000" stroke-opacity="1" stroke-width="3.2"/>
<circle clip-path="url(#clip362)" cx="1454.62" cy="1067.61" r="14" fill="#e26f46" fill-rule="evenodd" fill-opacity="1" stroke="#000000" stroke-opacity="1" stroke-width="3.2"/>
<circle clip-path="url(#clip362)" cx="1477.85" cy="1304.59" r="14" fill="#e26f46" fill-rule="evenodd" fill-opacity="1" stroke="#000000" stroke-opacity="1" stroke-width="3.2"/>
<circle clip-path="url(#clip362)" cx="1501.09" cy="1270.74" r="14" fill="#e26f46" fill-rule="evenodd" fill-opacity="1" stroke="#000000" stroke-opacity="1" stroke-width="3.2"/>
<circle clip-path="url(#clip362)" cx="1524.33" cy="1296.13" r="14" fill="#e26f46" fill-rule="evenodd" fill-opacity="1" stroke="#000000" stroke-opacity="1" stroke-width="3.2"/>
<circle clip-path="url(#clip362)" cx="1547.63" cy="1101.47" r="14" fill="#e26f46" fill-rule="evenodd" fill-opacity="1" stroke="#000000" stroke-opacity="1" stroke-width="3.2"/>
<circle clip-path="url(#clip362)" cx="1570.86" cy="1296.13" r="14" fill="#e26f46" fill-rule="evenodd" fill-opacity="1" stroke="#000000" stroke-opacity="1" stroke-width="3.2"/>
<circle clip-path="url(#clip362)" cx="1594.12" cy="1262.28" r="14" fill="#e26f46" fill-rule="evenodd" fill-opacity="1" stroke="#000000" stroke-opacity="1" stroke-width="3.2"/>
<circle clip-path="url(#clip362)" cx="1617.39" cy="1126.86" r="14" fill="#e26f46" fill-rule="evenodd" fill-opacity="1" stroke="#000000" stroke-opacity="1" stroke-width="3.2"/>
<circle clip-path="url(#clip362)" cx="1640.66" cy="1169.18" r="14" fill="#e26f46" fill-rule="evenodd" fill-opacity="1" stroke="#000000" stroke-opacity="1" stroke-width="3.2"/>
<circle clip-path="url(#clip362)" cx="1663.94" cy="1203.03" r="14" fill="#e26f46" fill-rule="evenodd" fill-opacity="1" stroke="#000000" stroke-opacity="1" stroke-width="3.2"/>
<circle clip-path="url(#clip362)" cx="1687.18" cy="1203.03" r="14" fill="#e26f46" fill-rule="evenodd" fill-opacity="1" stroke="#000000" stroke-opacity="1" stroke-width="3.2"/>
<circle clip-path="url(#clip362)" cx="1710.45" cy="1109.93" r="14" fill="#e26f46" fill-rule="evenodd" fill-opacity="1" stroke="#000000" stroke-opacity="1" stroke-width="3.2"/>
<circle clip-path="url(#clip362)" cx="1733.7" cy="1143.79" r="14" fill="#e26f46" fill-rule="evenodd" fill-opacity="1" stroke="#000000" stroke-opacity="1" stroke-width="3.2"/>
<circle clip-path="url(#clip362)" cx="1756.97" cy="1050.69" r="14" fill="#e26f46" fill-rule="evenodd" fill-opacity="1" stroke="#000000" stroke-opacity="1" stroke-width="3.2"/>
<circle clip-path="url(#clip362)" cx="1780.24" cy="1160.71" r="14" fill="#e26f46" fill-rule="evenodd" fill-opacity="1" stroke="#000000" stroke-opacity="1" stroke-width="3.2"/>
<circle clip-path="url(#clip362)" cx="1803.51" cy="1084.54" r="14" fill="#e26f46" fill-rule="evenodd" fill-opacity="1" stroke="#000000" stroke-opacity="1" stroke-width="3.2"/>
<circle clip-path="url(#clip362)" cx="1826.76" cy="999.905" r="14" fill="#e26f46" fill-rule="evenodd" fill-opacity="1" stroke="#000000" stroke-opacity="1" stroke-width="3.2"/>
<circle clip-path="url(#clip362)" cx="1850.02" cy="1067.61" r="14" fill="#e26f46" fill-rule="evenodd" fill-opacity="1" stroke="#000000" stroke-opacity="1" stroke-width="3.2"/>
<circle clip-path="url(#clip362)" cx="1873.28" cy="982.978" r="14" fill="#e26f46" fill-rule="evenodd" fill-opacity="1" stroke="#000000" stroke-opacity="1" stroke-width="3.2"/>
<circle clip-path="url(#clip362)" cx="1896.55" cy="627.507" r="14" fill="#e26f46" fill-rule="evenodd" fill-opacity="1" stroke="#000000" stroke-opacity="1" stroke-width="3.2"/>
<circle clip-path="url(#clip362)" cx="1919.81" cy="1033.76" r="14" fill="#e26f46" fill-rule="evenodd" fill-opacity="1" stroke="#000000" stroke-opacity="1" stroke-width="3.2"/>
<circle clip-path="url(#clip362)" cx="1943.06" cy="991.441" r="14" fill="#e26f46" fill-rule="evenodd" fill-opacity="1" stroke="#000000" stroke-opacity="1" stroke-width="3.2"/>
<circle clip-path="url(#clip362)" cx="1966.32" cy="1059.15" r="14" fill="#e26f46" fill-rule="evenodd" fill-opacity="1" stroke="#000000" stroke-opacity="1" stroke-width="3.2"/>
<circle clip-path="url(#clip362)" cx="1989.59" cy="1016.83" r="14" fill="#e26f46" fill-rule="evenodd" fill-opacity="1" stroke="#000000" stroke-opacity="1" stroke-width="3.2"/>
<circle clip-path="url(#clip362)" cx="2012.84" cy="822.17" r="14" fill="#e26f46" fill-rule="evenodd" fill-opacity="1" stroke="#000000" stroke-opacity="1" stroke-width="3.2"/>
<circle clip-path="url(#clip362)" cx="2036.11" cy="932.196" r="14" fill="#e26f46" fill-rule="evenodd" fill-opacity="1" stroke="#000000" stroke-opacity="1" stroke-width="3.2"/>
<circle clip-path="url(#clip362)" cx="2059.37" cy="856.024" r="14" fill="#e26f46" fill-rule="evenodd" fill-opacity="1" stroke="#000000" stroke-opacity="1" stroke-width="3.2"/>
<circle clip-path="url(#clip362)" cx="2082.63" cy="822.17" r="14" fill="#e26f46" fill-rule="evenodd" fill-opacity="1" stroke="#000000" stroke-opacity="1" stroke-width="3.2"/>
<circle clip-path="url(#clip362)" cx="2105.89" cy="762.925" r="14" fill="#e26f46" fill-rule="evenodd" fill-opacity="1" stroke="#000000" stroke-opacity="1" stroke-width="3.2"/>
<circle clip-path="url(#clip362)" cx="2129.15" cy="737.534" r="14" fill="#e26f46" fill-rule="evenodd" fill-opacity="1" stroke="#000000" stroke-opacity="1" stroke-width="3.2"/>
<circle clip-path="url(#clip362)" cx="2152.41" cy="745.998" r="14" fill="#e26f46" fill-rule="evenodd" fill-opacity="1" stroke="#000000" stroke-opacity="1" stroke-width="3.2"/>
<circle clip-path="url(#clip362)" cx="2175.66" cy="661.362" r="14" fill="#e26f46" fill-rule="evenodd" fill-opacity="1" stroke="#000000" stroke-opacity="1" stroke-width="3.2"/>
<circle clip-path="url(#clip362)" cx="2198.92" cy="568.262" r="14" fill="#e26f46" fill-rule="evenodd" fill-opacity="1" stroke="#000000" stroke-opacity="1" stroke-width="3.2"/>
<circle clip-path="url(#clip362)" cx="2222.18" cy="424.381" r="14" fill="#e26f46" fill-rule="evenodd" fill-opacity="1" stroke="#000000" stroke-opacity="1" stroke-width="3.2"/>
<circle clip-path="url(#clip362)" cx="2245.44" cy="390.527" r="14" fill="#e26f46" fill-rule="evenodd" fill-opacity="1" stroke="#000000" stroke-opacity="1" stroke-width="3.2"/>
<circle clip-path="url(#clip362)" cx="2268.7" cy="212.792" r="14" fill="#e26f46" fill-rule="evenodd" fill-opacity="1" stroke="#000000" stroke-opacity="1" stroke-width="3.2"/>
<circle clip-path="url(#clip362)" cx="2291.95" cy="85.838" r="14" fill="#e26f46" fill-rule="evenodd" fill-opacity="1" stroke="#000000" stroke-opacity="1" stroke-width="3.2"/>
<path clip-path="url(#clip360)" d="
M276.06 248.219 L943.856 248.219 L943.856 92.6992 L276.06 92.6992  Z
  " fill="#ffffff" fill-rule="evenodd" fill-opacity="1"/>
<polyline clip-path="url(#clip360)" style="stroke:#000000; stroke-linecap:butt; stroke-linejoin:round; stroke-width:4; stroke-opacity:1; fill:none" points="
  276.06,248.219 943.856,248.219 943.856,92.6992 276.06,92.6992 276.06,248.219 
  "/>
<circle clip-path="url(#clip360)" cx="371.54" cy="144.539" r="23" fill="#009af9" fill-rule="evenodd" fill-opacity="1" stroke="#000000" stroke-opacity="1" stroke-width="5.12"/>
<path clip-path="url(#clip360)" d="M474.127 127.259 L478.803 127.259 L478.803 159.412 Q478.803 165.662 476.419 168.486 Q474.057 171.31 468.803 171.31 L467.02 171.31 L467.02 167.375 L468.479 167.375 Q471.581 167.375 472.854 165.639 Q474.127 163.903 474.127 159.412 L474.127 127.259 Z" fill="#000000" fill-rule="evenodd" fill-opacity="1" /><path clip-path="url(#clip360)" d="M510.099 147.791 L510.099 149.875 L490.516 149.875 Q490.793 154.273 493.155 156.588 Q495.539 158.879 499.775 158.879 Q502.229 158.879 504.52 158.278 Q506.835 157.676 509.104 156.472 L509.104 160.5 Q506.812 161.472 504.405 161.981 Q501.997 162.49 499.52 162.49 Q493.317 162.49 489.682 158.879 Q486.071 155.268 486.071 149.111 Q486.071 142.745 489.497 139.018 Q492.946 135.268 498.78 135.268 Q504.011 135.268 507.043 138.648 Q510.099 142.004 510.099 147.791 M505.84 146.541 Q505.793 143.046 503.872 140.963 Q501.974 138.879 498.826 138.879 Q495.261 138.879 493.108 140.893 Q490.979 142.907 490.655 146.565 L505.84 146.541 Z" fill="#000000" fill-rule="evenodd" fill-opacity="1" /><path clip-path="url(#clip360)" d="M534.15 139.829 L534.15 125.801 L538.409 125.801 L538.409 161.819 L534.15 161.819 L534.15 157.93 Q532.807 160.245 530.747 161.379 Q528.71 162.49 525.84 162.49 Q521.141 162.49 518.178 158.74 Q515.238 154.991 515.238 148.879 Q515.238 142.768 518.178 139.018 Q521.141 135.268 525.84 135.268 Q528.71 135.268 530.747 136.403 Q532.807 137.514 534.15 139.829 M519.636 148.879 Q519.636 153.578 521.557 156.264 Q523.502 158.926 526.881 158.926 Q530.261 158.926 532.205 156.264 Q534.15 153.578 534.15 148.879 Q534.15 144.18 532.205 141.518 Q530.261 138.833 526.881 138.833 Q523.502 138.833 521.557 141.518 Q519.636 144.18 519.636 148.879 Z" fill="#000000" fill-rule="evenodd" fill-opacity="1" /><path clip-path="url(#clip360)" d="M569.358 147.791 L569.358 149.875 L549.775 149.875 Q550.052 154.273 552.414 156.588 Q554.798 158.879 559.034 158.879 Q561.488 158.879 563.779 158.278 Q566.094 157.676 568.362 156.472 L568.362 160.5 Q566.071 161.472 563.663 161.981 Q561.256 162.49 558.779 162.49 Q552.576 162.49 548.941 158.879 Q545.33 155.268 545.33 149.111 Q545.33 142.745 548.756 139.018 Q552.205 135.268 558.038 135.268 Q563.27 135.268 566.302 138.648 Q569.358 142.004 569.358 147.791 M565.099 146.541 Q565.052 143.046 563.131 140.963 Q561.233 138.879 558.085 138.879 Q554.52 138.879 552.367 140.893 Q550.238 142.907 549.914 146.565 L565.099 146.541 Z" fill="#000000" fill-rule="evenodd" fill-opacity="1" /><path clip-path="url(#clip360)" d="M597.899 146.171 L597.899 161.819 L593.64 161.819 L593.64 146.31 Q593.64 142.629 592.205 140.801 Q590.77 138.972 587.899 138.972 Q584.45 138.972 582.46 141.171 Q580.469 143.37 580.469 147.166 L580.469 161.819 L576.187 161.819 L576.187 135.893 L580.469 135.893 L580.469 139.921 Q581.997 137.583 584.057 136.426 Q586.14 135.268 588.848 135.268 Q593.316 135.268 595.608 138.046 Q597.899 140.801 597.899 146.171 Z" fill="#000000" fill-rule="evenodd" fill-opacity="1" /><path clip-path="url(#clip360)" d="M634.589 125.801 L634.589 129.343 L630.515 129.343 Q628.223 129.343 627.321 130.268 Q626.441 131.194 626.441 133.602 L626.441 135.893 L633.455 135.893 L633.455 139.204 L626.441 139.204 L626.441 161.819 L622.159 161.819 L622.159 139.204 L618.084 139.204 L618.084 135.893 L622.159 135.893 L622.159 134.088 Q622.159 129.759 624.172 127.792 Q626.186 125.801 630.561 125.801 L634.589 125.801 Z" fill="#000000" fill-rule="evenodd" fill-opacity="1" /><path clip-path="url(#clip360)" d="M653.177 139.875 Q652.459 139.458 651.603 139.273 Q650.769 139.065 649.751 139.065 Q646.14 139.065 644.195 141.426 Q642.274 143.764 642.274 148.162 L642.274 161.819 L637.992 161.819 L637.992 135.893 L642.274 135.893 L642.274 139.921 Q643.617 137.56 645.769 136.426 Q647.922 135.268 651.001 135.268 Q651.441 135.268 651.973 135.338 Q652.506 135.384 653.154 135.5 L653.177 139.875 Z" fill="#000000" fill-rule="evenodd" fill-opacity="1" /><path clip-path="url(#clip360)" d="M669.427 148.787 Q664.265 148.787 662.274 149.967 Q660.283 151.148 660.283 153.995 Q660.283 156.264 661.765 157.606 Q663.269 158.926 665.839 158.926 Q669.38 158.926 671.51 156.426 Q673.663 153.903 673.663 149.736 L673.663 148.787 L669.427 148.787 M677.922 147.028 L677.922 161.819 L673.663 161.819 L673.663 157.884 Q672.205 160.245 670.029 161.379 Q667.853 162.49 664.705 162.49 Q660.723 162.49 658.362 160.268 Q656.024 158.023 656.024 154.273 Q656.024 149.898 658.941 147.676 Q661.881 145.454 667.691 145.454 L673.663 145.454 L673.663 145.037 Q673.663 142.097 671.718 140.5 Q669.797 138.879 666.302 138.879 Q664.08 138.879 661.973 139.412 Q659.867 139.944 657.922 141.009 L657.922 137.074 Q660.26 136.171 662.459 135.731 Q664.658 135.268 666.742 135.268 Q672.367 135.268 675.144 138.185 Q677.922 141.102 677.922 147.028 Z" fill="#000000" fill-rule="evenodd" fill-opacity="1" /><path clip-path="url(#clip360)" d="M703.755 148.555 Q703.755 143.926 701.834 141.379 Q699.936 138.833 696.487 138.833 Q693.061 138.833 691.14 141.379 Q689.241 143.926 689.241 148.555 Q689.241 153.162 691.14 155.708 Q693.061 158.254 696.487 158.254 Q699.936 158.254 701.834 155.708 Q703.755 153.162 703.755 148.555 M708.015 158.602 Q708.015 165.222 705.075 168.44 Q702.135 171.68 696.07 171.68 Q693.825 171.68 691.834 171.333 Q689.843 171.009 687.968 170.315 L687.968 166.171 Q689.843 167.19 691.672 167.676 Q693.501 168.162 695.399 168.162 Q699.589 168.162 701.672 165.963 Q703.755 163.787 703.755 159.365 L703.755 157.259 Q702.436 159.551 700.376 160.685 Q698.315 161.819 695.445 161.819 Q690.677 161.819 687.76 158.185 Q684.843 154.551 684.843 148.555 Q684.843 142.537 687.76 138.903 Q690.677 135.268 695.445 135.268 Q698.315 135.268 700.376 136.403 Q702.436 137.537 703.755 139.829 L703.755 135.893 L708.015 135.893 L708.015 158.602 Z" fill="#000000" fill-rule="evenodd" fill-opacity="1" /><path clip-path="url(#clip360)" d="M736.973 140.87 Q738.57 138 740.792 136.634 Q743.014 135.268 746.024 135.268 Q750.074 135.268 752.274 138.116 Q754.473 140.94 754.473 146.171 L754.473 161.819 L750.19 161.819 L750.19 146.31 Q750.19 142.583 748.871 140.778 Q747.551 138.972 744.843 138.972 Q741.533 138.972 739.612 141.171 Q737.69 143.37 737.69 147.166 L737.69 161.819 L733.408 161.819 L733.408 146.31 Q733.408 142.56 732.088 140.778 Q730.769 138.972 728.014 138.972 Q724.751 138.972 722.829 141.194 Q720.908 143.393 720.908 147.166 L720.908 161.819 L716.626 161.819 L716.626 135.893 L720.908 135.893 L720.908 139.921 Q722.366 137.537 724.403 136.403 Q726.44 135.268 729.241 135.268 Q732.065 135.268 734.033 136.704 Q736.024 138.139 736.973 140.87 Z" fill="#000000" fill-rule="evenodd" fill-opacity="1" /><path clip-path="url(#clip360)" d="M785.144 147.791 L785.144 149.875 L765.561 149.875 Q765.838 154.273 768.199 156.588 Q770.584 158.879 774.82 158.879 Q777.273 158.879 779.565 158.278 Q781.88 157.676 784.148 156.472 L784.148 160.5 Q781.857 161.472 779.449 161.981 Q777.042 162.49 774.565 162.49 Q768.361 162.49 764.727 158.879 Q761.116 155.268 761.116 149.111 Q761.116 142.745 764.542 139.018 Q767.991 135.268 773.824 135.268 Q779.056 135.268 782.088 138.648 Q785.144 142.004 785.144 147.791 M780.885 146.541 Q780.838 143.046 778.917 140.963 Q777.019 138.879 773.871 138.879 Q770.306 138.879 768.153 140.893 Q766.023 142.907 765.699 146.565 L780.885 146.541 Z" fill="#000000" fill-rule="evenodd" fill-opacity="1" /><path clip-path="url(#clip360)" d="M813.685 146.171 L813.685 161.819 L809.426 161.819 L809.426 146.31 Q809.426 142.629 807.991 140.801 Q806.556 138.972 803.685 138.972 Q800.236 138.972 798.246 141.171 Q796.255 143.37 796.255 147.166 L796.255 161.819 L791.972 161.819 L791.972 135.893 L796.255 135.893 L796.255 139.921 Q797.783 137.583 799.843 136.426 Q801.926 135.268 804.634 135.268 Q809.102 135.268 811.394 138.046 Q813.685 140.801 813.685 146.171 Z" fill="#000000" fill-rule="evenodd" fill-opacity="1" /><path clip-path="url(#clip360)" d="M826.394 128.532 L826.394 135.893 L835.167 135.893 L835.167 139.204 L826.394 139.204 L826.394 153.278 Q826.394 156.449 827.25 157.352 Q828.13 158.254 830.792 158.254 L835.167 158.254 L835.167 161.819 L830.792 161.819 Q825.861 161.819 823.986 159.99 Q822.111 158.139 822.111 153.278 L822.111 139.204 L818.986 139.204 L818.986 135.893 L822.111 135.893 L822.111 128.532 L826.394 128.532 Z" fill="#000000" fill-rule="evenodd" fill-opacity="1" /><circle clip-path="url(#clip360)" cx="371.54" cy="196.379" r="23" fill="#e26f46" fill-rule="evenodd" fill-opacity="1" stroke="#000000" stroke-opacity="1" stroke-width="5.12"/>
<path clip-path="url(#clip360)" d="M467.02 179.099 L471.743 179.099 L479.011 208.312 L486.256 179.099 L491.511 179.099 L498.78 208.312 L506.025 179.099 L510.77 179.099 L502.09 213.659 L496.21 213.659 L488.918 183.659 L481.557 213.659 L475.678 213.659 L467.02 179.099 Z" fill="#000000" fill-rule="evenodd" fill-opacity="1" /><path clip-path="url(#clip360)" d="M515.747 187.733 L520.006 187.733 L520.006 213.659 L515.747 213.659 L515.747 187.733 M515.747 177.641 L520.006 177.641 L520.006 183.034 L515.747 183.034 L515.747 177.641 Z" fill="#000000" fill-rule="evenodd" fill-opacity="1" /><path clip-path="url(#clip360)" d="M551.094 199.631 L551.094 201.715 L531.511 201.715 Q531.789 206.113 534.15 208.428 Q536.534 210.719 540.77 210.719 Q543.224 210.719 545.515 210.118 Q547.83 209.516 550.099 208.312 L550.099 212.34 Q547.807 213.312 545.4 213.821 Q542.992 214.33 540.515 214.33 Q534.312 214.33 530.678 210.719 Q527.066 207.108 527.066 200.951 Q527.066 194.585 530.492 190.858 Q533.941 187.108 539.775 187.108 Q545.006 187.108 548.039 190.488 Q551.094 193.844 551.094 199.631 M546.835 198.381 Q546.789 194.886 544.867 192.803 Q542.969 190.719 539.821 190.719 Q536.256 190.719 534.103 192.733 Q531.974 194.747 531.65 198.405 L546.835 198.381 Z" fill="#000000" fill-rule="evenodd" fill-opacity="1" /><path clip-path="url(#clip360)" d="M558.085 177.641 L562.344 177.641 L562.344 213.659 L558.085 213.659 L558.085 177.641 Z" fill="#000000" fill-rule="evenodd" fill-opacity="1" /><path clip-path="url(#clip360)" d="M593.432 199.631 L593.432 201.715 L573.849 201.715 Q574.126 206.113 576.487 208.428 Q578.872 210.719 583.108 210.719 Q585.561 210.719 587.853 210.118 Q590.168 209.516 592.436 208.312 L592.436 212.34 Q590.145 213.312 587.737 213.821 Q585.33 214.33 582.853 214.33 Q576.649 214.33 573.015 210.719 Q569.404 207.108 569.404 200.951 Q569.404 194.585 572.83 190.858 Q576.279 187.108 582.112 187.108 Q587.344 187.108 590.376 190.488 Q593.432 193.844 593.432 199.631 M589.173 198.381 Q589.126 194.886 587.205 192.803 Q585.307 190.719 582.159 190.719 Q578.594 190.719 576.441 192.733 Q574.312 194.747 573.987 198.405 L589.173 198.381 Z" fill="#000000" fill-rule="evenodd" fill-opacity="1" /><path clip-path="url(#clip360)" d="M628.617 177.641 L628.617 181.183 L624.543 181.183 Q622.251 181.183 621.348 182.108 Q620.469 183.034 620.469 185.442 L620.469 187.733 L627.483 187.733 L627.483 191.044 L620.469 191.044 L620.469 213.659 L616.186 213.659 L616.186 191.044 L612.112 191.044 L612.112 187.733 L616.186 187.733 L616.186 185.928 Q616.186 181.599 618.2 179.632 Q620.214 177.641 624.589 177.641 L628.617 177.641 Z" fill="#000000" fill-rule="evenodd" fill-opacity="1" /><path clip-path="url(#clip360)" d="M647.205 191.715 Q646.487 191.298 645.631 191.113 Q644.797 190.905 643.779 190.905 Q640.168 190.905 638.223 193.266 Q636.302 195.604 636.302 200.002 L636.302 213.659 L632.02 213.659 L632.02 187.733 L636.302 187.733 L636.302 191.761 Q637.645 189.4 639.797 188.266 Q641.95 187.108 645.029 187.108 Q645.469 187.108 646.001 187.178 Q646.533 187.224 647.182 187.34 L647.205 191.715 Z" fill="#000000" fill-rule="evenodd" fill-opacity="1" /><path clip-path="url(#clip360)" d="M663.455 200.627 Q658.293 200.627 656.302 201.807 Q654.311 202.988 654.311 205.835 Q654.311 208.104 655.793 209.446 Q657.297 210.766 659.867 210.766 Q663.408 210.766 665.538 208.266 Q667.691 205.743 667.691 201.576 L667.691 200.627 L663.455 200.627 M671.95 198.868 L671.95 213.659 L667.691 213.659 L667.691 209.724 Q666.232 212.085 664.056 213.219 Q661.881 214.33 658.732 214.33 Q654.751 214.33 652.39 212.108 Q650.052 209.863 650.052 206.113 Q650.052 201.738 652.969 199.516 Q655.908 197.294 661.718 197.294 L667.691 197.294 L667.691 196.877 Q667.691 193.937 665.746 192.34 Q663.825 190.719 660.33 190.719 Q658.107 190.719 656.001 191.252 Q653.894 191.784 651.95 192.849 L651.95 188.914 Q654.288 188.011 656.487 187.571 Q658.686 187.108 660.769 187.108 Q666.394 187.108 669.172 190.025 Q671.95 192.942 671.95 198.868 Z" fill="#000000" fill-rule="evenodd" fill-opacity="1" /><path clip-path="url(#clip360)" d="M697.783 200.395 Q697.783 195.766 695.862 193.219 Q693.964 190.673 690.515 190.673 Q687.089 190.673 685.167 193.219 Q683.269 195.766 683.269 200.395 Q683.269 205.002 685.167 207.548 Q687.089 210.094 690.515 210.094 Q693.964 210.094 695.862 207.548 Q697.783 205.002 697.783 200.395 M702.042 210.442 Q702.042 217.062 699.103 220.28 Q696.163 223.52 690.098 223.52 Q687.853 223.52 685.862 223.173 Q683.871 222.849 681.996 222.155 L681.996 218.011 Q683.871 219.03 685.7 219.516 Q687.529 220.002 689.427 220.002 Q693.616 220.002 695.7 217.803 Q697.783 215.627 697.783 211.205 L697.783 209.099 Q696.464 211.391 694.403 212.525 Q692.343 213.659 689.473 213.659 Q684.704 213.659 681.788 210.025 Q678.871 206.391 678.871 200.395 Q678.871 194.377 681.788 190.743 Q684.704 187.108 689.473 187.108 Q692.343 187.108 694.403 188.243 Q696.464 189.377 697.783 191.669 L697.783 187.733 L702.042 187.733 L702.042 210.442 Z" fill="#000000" fill-rule="evenodd" fill-opacity="1" /><path clip-path="url(#clip360)" d="M731.001 192.71 Q732.598 189.84 734.82 188.474 Q737.042 187.108 740.051 187.108 Q744.102 187.108 746.301 189.956 Q748.5 192.78 748.5 198.011 L748.5 213.659 L744.218 213.659 L744.218 198.15 Q744.218 194.423 742.899 192.618 Q741.579 190.812 738.871 190.812 Q735.561 190.812 733.639 193.011 Q731.718 195.21 731.718 199.006 L731.718 213.659 L727.436 213.659 L727.436 198.15 Q727.436 194.4 726.116 192.618 Q724.797 190.812 722.042 190.812 Q718.778 190.812 716.857 193.034 Q714.936 195.233 714.936 199.006 L714.936 213.659 L710.653 213.659 L710.653 187.733 L714.936 187.733 L714.936 191.761 Q716.394 189.377 718.431 188.243 Q720.468 187.108 723.269 187.108 Q726.093 187.108 728.061 188.544 Q730.051 189.979 731.001 192.71 Z" fill="#000000" fill-rule="evenodd" fill-opacity="1" /><path clip-path="url(#clip360)" d="M779.172 199.631 L779.172 201.715 L759.588 201.715 Q759.866 206.113 762.227 208.428 Q764.611 210.719 768.848 210.719 Q771.301 210.719 773.593 210.118 Q775.908 209.516 778.176 208.312 L778.176 212.34 Q775.885 213.312 773.477 213.821 Q771.07 214.33 768.593 214.33 Q762.389 214.33 758.755 210.719 Q755.144 207.108 755.144 200.951 Q755.144 194.585 758.57 190.858 Q762.019 187.108 767.852 187.108 Q773.084 187.108 776.116 190.488 Q779.172 193.844 779.172 199.631 M774.912 198.381 Q774.866 194.886 772.945 192.803 Q771.047 190.719 767.898 190.719 Q764.334 190.719 762.181 192.733 Q760.051 194.747 759.727 198.405 L774.912 198.381 Z" fill="#000000" fill-rule="evenodd" fill-opacity="1" /><path clip-path="url(#clip360)" d="M807.713 198.011 L807.713 213.659 L803.454 213.659 L803.454 198.15 Q803.454 194.469 802.019 192.641 Q800.583 190.812 797.713 190.812 Q794.264 190.812 792.273 193.011 Q790.283 195.21 790.283 199.006 L790.283 213.659 L786 213.659 L786 187.733 L790.283 187.733 L790.283 191.761 Q791.81 189.423 793.871 188.266 Q795.954 187.108 798.662 187.108 Q803.13 187.108 805.421 189.886 Q807.713 192.641 807.713 198.011 Z" fill="#000000" fill-rule="evenodd" fill-opacity="1" /><path clip-path="url(#clip360)" d="M820.421 180.372 L820.421 187.733 L829.194 187.733 L829.194 191.044 L820.421 191.044 L820.421 205.118 Q820.421 208.289 821.278 209.192 Q822.157 210.094 824.819 210.094 L829.194 210.094 L829.194 213.659 L824.819 213.659 Q819.889 213.659 818.014 211.83 Q816.139 209.979 816.139 205.118 L816.139 191.044 L813.014 191.044 L813.014 187.733 L816.139 187.733 L816.139 180.372 L820.421 180.372 Z" fill="#000000" fill-rule="evenodd" fill-opacity="1" /><path clip-path="url(#clip360)" d="M844.842 190.719 Q841.417 190.719 839.426 193.405 Q837.435 196.067 837.435 200.719 Q837.435 205.372 839.403 208.057 Q841.393 210.719 844.842 210.719 Q848.245 210.719 850.236 208.034 Q852.227 205.349 852.227 200.719 Q852.227 196.113 850.236 193.428 Q848.245 190.719 844.842 190.719 M844.842 187.108 Q850.398 187.108 853.569 190.719 Q856.741 194.331 856.741 200.719 Q856.741 207.085 853.569 210.719 Q850.398 214.33 844.842 214.33 Q839.264 214.33 836.093 210.719 Q832.944 207.085 832.944 200.719 Q832.944 194.331 836.093 190.719 Q839.264 187.108 844.842 187.108 M848.06 175.743 L852.667 175.743 L845.12 184.446 L841.579 184.446 L848.06 175.743 Z" fill="#000000" fill-rule="evenodd" fill-opacity="1" /><path clip-path="url(#clip360)" d="M861.324 187.733 L865.583 187.733 L870.907 207.965 L876.208 187.733 L881.231 187.733 L886.555 207.965 L891.856 187.733 L896.115 187.733 L889.333 213.659 L884.31 213.659 L878.731 192.409 L873.129 213.659 L868.106 213.659 L861.324 187.733 Z" fill="#000000" fill-rule="evenodd" fill-opacity="1" /></svg>
