<?xml version="1.0" encoding="utf-8"?>
<svg xmlns="http://www.w3.org/2000/svg" xmlns:xlink="http://www.w3.org/1999/xlink" width="600" height="400" viewBox="0 0 2400 1600">
<defs>
  <clipPath id="clip450">
    <rect x="0" y="0" width="2400" height="1600"/>
  </clipPath>
</defs>
<path clip-path="url(#clip450)" d="
M0 1600 L2400 1600 L2400 0 L0 0  Z
  " fill="#ffffff" fill-rule="evenodd" fill-opacity="1"/>
<defs>
  <clipPath id="clip451">
    <rect x="480" y="0" width="1681" height="1600"/>
  </clipPath>
</defs>
<path clip-path="url(#clip450)" d="
M235.283 1410.9 L2352.76 1410.9 L2352.76 47.2441 L235.283 47.2441  Z
  " fill="#ffffff" fill-rule="evenodd" fill-opacity="1"/>
<defs>
  <clipPath id="clip452">
    <rect x="235" y="47" width="2118" height="1365"/>
  </clipPath>
</defs>
<polyline clip-path="url(#clip452)" style="stroke:#000000; stroke-linecap:butt; stroke-linejoin:round; stroke-width:2; stroke-opacity:0.1; fill:none" points="
  736.007,1410.9 736.007,47.2441 
  "/>
<polyline clip-path="url(#clip452)" style="stroke:#000000; stroke-linecap:butt; stroke-linejoin:round; stroke-width:2; stroke-opacity:0.1; fill:none" points="
  1289.85,1410.9 1289.85,47.2441 
  "/>
<polyline clip-path="url(#clip452)" style="stroke:#000000; stroke-linecap:butt; stroke-linejoin:round; stroke-width:2; stroke-opacity:0.1; fill:none" points="
  1843.7,1410.9 1843.7,47.2441 
  "/>
<polyline clip-path="url(#clip450)" style="stroke:#000000; stroke-linecap:butt; stroke-linejoin:round; stroke-width:4; stroke-opacity:1; fill:none" points="
  235.283,1410.9 2352.76,1410.9 
  "/>
<polyline clip-path="url(#clip450)" style="stroke:#000000; stroke-linecap:butt; stroke-linejoin:round; stroke-width:4; stroke-opacity:1; fill:none" points="
  736.007,1410.9 736.007,1392 
  "/>
<polyline clip-path="url(#clip450)" style="stroke:#000000; stroke-linecap:butt; stroke-linejoin:round; stroke-width:4; stroke-opacity:1; fill:none" points="
  1289.85,1410.9 1289.85,1392 
  "/>
<polyline clip-path="url(#clip450)" style="stroke:#000000; stroke-linecap:butt; stroke-linejoin:round; stroke-width:4; stroke-opacity:1; fill:none" points="
  1843.7,1410.9 1843.7,1392 
  "/>
<path clip-path="url(#clip450)" d="M701.779 1485.02 L709.418 1485.02 L709.418 1458.66 L701.108 1460.32 L701.108 1456.06 L709.372 1454.4 L714.048 1454.4 L714.048 1485.02 L721.687 1485.02 L721.687 1488.96 L701.779 1488.96 L701.779 1485.02 Z" fill="#000000" fill-rule="evenodd" fill-opacity="1" /><path clip-path="url(#clip450)" d="M741.131 1457.48 Q737.52 1457.48 735.691 1461.04 Q733.886 1464.58 733.886 1471.71 Q733.886 1478.82 735.691 1482.38 Q737.52 1485.92 741.131 1485.92 Q744.765 1485.92 746.571 1482.38 Q748.4 1478.82 748.4 1471.71 Q748.4 1464.58 746.571 1461.04 Q744.765 1457.48 741.131 1457.48 M741.131 1453.77 Q746.941 1453.77 749.997 1458.38 Q753.075 1462.96 753.075 1471.71 Q753.075 1480.44 749.997 1485.04 Q746.941 1489.63 741.131 1489.63 Q735.321 1489.63 732.242 1485.04 Q729.187 1480.44 729.187 1471.71 Q729.187 1462.96 732.242 1458.38 Q735.321 1453.77 741.131 1453.77 Z" fill="#000000" fill-rule="evenodd" fill-opacity="1" /><path clip-path="url(#clip450)" d="M757.646 1458.35 L770.905 1458.35 L770.905 1461.55 L753.075 1461.55 L753.075 1458.35 Q755.238 1456.11 758.962 1452.35 Q762.705 1448.57 763.664 1447.48 Q765.489 1445.43 766.203 1444.02 Q766.937 1442.59 766.937 1441.22 Q766.937 1438.98 765.357 1437.57 Q763.796 1436.16 761.276 1436.16 Q759.489 1436.16 757.495 1436.78 Q755.52 1437.4 753.264 1438.66 L753.264 1434.82 Q755.558 1433.9 757.552 1433.43 Q759.545 1432.96 761.2 1432.96 Q765.564 1432.96 768.159 1435.14 Q770.755 1437.32 770.755 1440.97 Q770.755 1442.7 770.097 1444.26 Q769.457 1445.8 767.746 1447.91 Q767.275 1448.46 764.755 1451.07 Q762.235 1453.67 757.646 1458.35 Z" fill="#000000" fill-rule="evenodd" fill-opacity="1" /><path clip-path="url(#clip450)" d="M1255.3 1485.02 L1262.94 1485.02 L1262.94 1458.66 L1254.63 1460.32 L1254.63 1456.06 L1262.89 1454.4 L1267.57 1454.4 L1267.57 1485.02 L1275.2 1485.02 L1275.2 1488.96 L1255.3 1488.96 L1255.3 1485.02 Z" fill="#000000" fill-rule="evenodd" fill-opacity="1" /><path clip-path="url(#clip450)" d="M1294.65 1457.48 Q1291.04 1457.48 1289.21 1461.04 Q1287.4 1464.58 1287.4 1471.71 Q1287.4 1478.82 1289.21 1482.38 Q1291.04 1485.92 1294.65 1485.92 Q1298.28 1485.92 1300.09 1482.38 Q1301.92 1478.82 1301.92 1471.71 Q1301.92 1464.58 1300.09 1461.04 Q1298.28 1457.48 1294.65 1457.48 M1294.65 1453.77 Q1300.46 1453.77 1303.51 1458.38 Q1306.59 1462.96 1306.59 1471.71 Q1306.59 1480.44 1303.51 1485.04 Q1300.46 1489.63 1294.65 1489.63 Q1288.84 1489.63 1285.76 1485.04 Q1282.7 1480.44 1282.7 1471.71 Q1282.7 1462.96 1285.76 1458.38 Q1288.84 1453.77 1294.65 1453.77 Z" fill="#000000" fill-rule="evenodd" fill-opacity="1" /><path clip-path="url(#clip450)" d="M1319.29 1446.41 Q1322.02 1446.99 1323.54 1448.83 Q1325.08 1450.68 1325.08 1453.38 Q1325.08 1457.54 1322.22 1459.82 Q1319.36 1462.09 1314.1 1462.09 Q1312.33 1462.09 1310.45 1461.73 Q1308.59 1461.4 1306.59 1460.7 L1306.59 1457.03 Q1308.17 1457.95 1310.05 1458.42 Q1311.93 1458.89 1313.98 1458.89 Q1317.56 1458.89 1319.42 1457.48 Q1321.3 1456.07 1321.3 1453.38 Q1321.3 1450.9 1319.55 1449.51 Q1317.82 1448.1 1314.72 1448.1 L1311.45 1448.1 L1311.45 1444.98 L1314.87 1444.98 Q1317.67 1444.98 1319.16 1443.87 Q1320.64 1442.74 1320.64 1440.63 Q1320.64 1438.47 1319.1 1437.32 Q1317.58 1436.16 1314.72 1436.16 Q1313.16 1436.16 1311.37 1436.49 Q1309.58 1436.83 1307.44 1437.55 L1307.44 1434.16 Q1309.6 1433.56 1311.48 1433.26 Q1313.38 1432.96 1315.06 1432.96 Q1319.38 1432.96 1321.9 1434.93 Q1324.42 1436.89 1324.42 1440.24 Q1324.42 1442.57 1323.09 1444.19 Q1321.75 1445.79 1319.29 1446.41 Z" fill="#000000" fill-rule="evenodd" fill-opacity="1" /><path clip-path="url(#clip450)" d="M1808.16 1485.02 L1815.79 1485.02 L1815.79 1458.66 L1807.48 1460.32 L1807.48 1456.06 L1815.75 1454.4 L1820.42 1454.4 L1820.42 1485.02 L1828.06 1485.02 L1828.06 1488.96 L1808.16 1488.96 L1808.16 1485.02 Z" fill="#000000" fill-rule="evenodd" fill-opacity="1" /><path clip-path="url(#clip450)" d="M1847.51 1457.48 Q1843.9 1457.48 1842.07 1461.04 Q1840.26 1464.58 1840.26 1471.71 Q1840.26 1478.82 1842.07 1482.38 Q1843.9 1485.92 1847.51 1485.92 Q1851.14 1485.92 1852.95 1482.38 Q1854.78 1478.82 1854.78 1471.71 Q1854.78 1464.58 1852.95 1461.04 Q1851.14 1457.48 1847.51 1457.48 M1847.51 1453.77 Q1853.32 1453.77 1856.37 1458.38 Q1859.45 1462.96 1859.45 1471.71 Q1859.45 1480.44 1856.37 1485.04 Q1853.32 1489.63 1847.51 1489.63 Q1841.7 1489.63 1838.62 1485.04 Q1835.56 1480.44 1835.56 1471.71 Q1835.56 1462.96 1838.62 1458.38 Q1841.7 1453.77 1847.51 1453.77 Z" fill="#000000" fill-rule="evenodd" fill-opacity="1" /><path clip-path="url(#clip450)" d="M1872.13 1436.78 L1862.54 1451.77 L1872.13 1451.77 L1872.13 1436.78 M1871.13 1433.47 L1875.91 1433.47 L1875.91 1451.77 L1879.91 1451.77 L1879.91 1454.93 L1875.91 1454.93 L1875.91 1461.55 L1872.13 1461.55 L1872.13 1454.93 L1859.45 1454.93 L1859.45 1451.26 L1871.13 1433.47 Z" fill="#000000" fill-rule="evenodd" fill-opacity="1" /><path clip-path="url(#clip450)" d="M932.447 1551.91 Q934.516 1552.61 936.458 1554.9 Q938.431 1557.19 940.404 1561.2 L946.929 1574.19 L940.022 1574.19 L933.943 1562 Q931.588 1557.22 929.36 1555.66 Q927.164 1554.1 923.344 1554.1 L916.342 1554.1 L916.342 1574.19 L909.913 1574.19 L909.913 1526.67 L924.426 1526.67 Q932.575 1526.67 936.585 1530.07 Q940.595 1533.48 940.595 1540.35 Q940.595 1544.84 938.495 1547.8 Q936.426 1550.76 932.447 1551.91 M916.342 1531.95 L916.342 1548.82 L924.426 1548.82 Q929.073 1548.82 931.429 1546.69 Q933.816 1544.52 933.816 1540.35 Q933.816 1536.18 931.429 1534.08 Q929.073 1531.95 924.426 1531.95 L916.342 1531.95 Z" fill="#000000" fill-rule="evenodd" fill-opacity="1" /><path clip-path="url(#clip450)" d="M965.835 1542.64 Q961.125 1542.64 958.387 1546.34 Q955.65 1550 955.65 1556.39 Q955.65 1562.79 958.356 1566.48 Q961.093 1570.14 965.835 1570.14 Q970.514 1570.14 973.251 1566.45 Q975.989 1562.76 975.989 1556.39 Q975.989 1550.06 973.251 1546.37 Q970.514 1542.64 965.835 1542.64 M965.835 1537.68 Q973.474 1537.68 977.835 1542.64 Q982.195 1547.61 982.195 1556.39 Q982.195 1565.15 977.835 1570.14 Q973.474 1575.11 965.835 1575.11 Q958.165 1575.11 953.804 1570.14 Q949.476 1565.15 949.476 1556.39 Q949.476 1547.61 953.804 1542.64 Q958.165 1537.68 965.835 1537.68 Z" fill="#000000" fill-rule="evenodd" fill-opacity="1" /><path clip-path="url(#clip450)" d="M989.357 1538.54 L1017.17 1538.54 L1017.17 1543.88 L995.149 1569.51 L1017.17 1569.51 L1017.17 1574.19 L988.561 1574.19 L988.561 1568.84 L1010.59 1543.22 L989.357 1543.22 L989.357 1538.54 Z" fill="#000000" fill-rule="evenodd" fill-opacity="1" /><path clip-path="url(#clip450)" d="M1053.87 1545.38 Q1056.07 1541.43 1059.12 1539.56 Q1062.18 1537.68 1066.32 1537.68 Q1071.89 1537.68 1074.91 1541.59 Q1077.94 1545.48 1077.94 1552.67 L1077.94 1574.19 L1072.05 1574.19 L1072.05 1552.86 Q1072.05 1547.74 1070.23 1545.25 Q1068.42 1542.77 1064.69 1542.77 Q1060.14 1542.77 1057.5 1545.79 Q1054.86 1548.82 1054.86 1554.04 L1054.86 1574.19 L1048.97 1574.19 L1048.97 1552.86 Q1048.97 1547.7 1047.16 1545.25 Q1045.34 1542.77 1041.56 1542.77 Q1037.07 1542.77 1034.43 1545.83 Q1031.78 1548.85 1031.78 1554.04 L1031.78 1574.19 L1025.9 1574.19 L1025.9 1538.54 L1031.78 1538.54 L1031.78 1544.08 Q1033.79 1540.8 1036.59 1539.24 Q1039.39 1537.68 1043.24 1537.68 Q1047.13 1537.68 1049.83 1539.65 Q1052.57 1541.62 1053.87 1545.38 Z" fill="#000000" fill-rule="evenodd" fill-opacity="1" /><path clip-path="url(#clip450)" d="M1089.62 1538.54 L1095.47 1538.54 L1095.47 1574.19 L1089.62 1574.19 L1089.62 1538.54 M1089.62 1524.66 L1095.47 1524.66 L1095.47 1532.08 L1089.62 1532.08 L1089.62 1524.66 Z" fill="#000000" fill-rule="evenodd" fill-opacity="1" /><path clip-path="url(#clip450)" d="M1123.93 1556.27 Q1116.83 1556.27 1114.09 1557.89 Q1111.36 1559.51 1111.36 1563.43 Q1111.36 1566.55 1113.39 1568.39 Q1115.46 1570.21 1118.99 1570.21 Q1123.86 1570.21 1126.79 1566.77 Q1129.75 1563.3 1129.75 1557.57 L1129.75 1556.27 L1123.93 1556.27 M1135.61 1553.85 L1135.61 1574.19 L1129.75 1574.19 L1129.75 1568.77 Q1127.75 1572.02 1124.76 1573.58 Q1121.76 1575.11 1117.43 1575.11 Q1111.96 1575.11 1108.71 1572.05 Q1105.5 1568.97 1105.5 1563.81 Q1105.5 1557.79 1109.51 1554.74 Q1113.55 1551.68 1121.54 1551.68 L1129.75 1551.68 L1129.75 1551.11 Q1129.75 1547.07 1127.08 1544.87 Q1124.44 1542.64 1119.63 1542.64 Q1116.58 1542.64 1113.68 1543.38 Q1110.78 1544.11 1108.11 1545.57 L1108.11 1540.16 Q1111.32 1538.92 1114.35 1538.31 Q1117.37 1537.68 1120.24 1537.68 Q1127.97 1537.68 1131.79 1541.69 Q1135.61 1545.7 1135.61 1553.85 Z" fill="#000000" fill-rule="evenodd" fill-opacity="1" /><path clip-path="url(#clip450)" d="M1168.33 1544.01 Q1167.34 1543.44 1166.16 1543.18 Q1165.02 1542.9 1163.62 1542.9 Q1158.65 1542.9 1155.98 1546.14 Q1153.34 1549.36 1153.34 1555.41 L1153.34 1574.19 L1147.45 1574.19 L1147.45 1538.54 L1153.34 1538.54 L1153.34 1544.08 Q1155.18 1540.83 1158.14 1539.27 Q1161.1 1537.68 1165.34 1537.68 Q1165.94 1537.68 1166.67 1537.77 Q1167.41 1537.84 1168.3 1538 L1168.33 1544.01 Z" fill="#000000" fill-rule="evenodd" fill-opacity="1" /><path clip-path="url(#clip450)" d="M1195.38 1524.66 L1201.24 1524.66 L1201.24 1543.82 L1205.22 1540.96 L1207.64 1544.33 L1201.24 1548.82 L1201.24 1574.19 L1195.38 1574.19 L1195.38 1552.99 L1191.47 1555.79 L1189.11 1552.41 L1195.38 1547.93 L1195.38 1524.66 Z" fill="#000000" fill-rule="evenodd" fill-opacity="1" /><path clip-path="url(#clip450)" d="M1229.92 1556.27 Q1222.82 1556.27 1220.08 1557.89 Q1217.34 1559.51 1217.34 1563.43 Q1217.34 1566.55 1219.38 1568.39 Q1221.45 1570.21 1224.98 1570.21 Q1229.85 1570.21 1232.78 1566.77 Q1235.74 1563.3 1235.74 1557.57 L1235.74 1556.27 L1229.92 1556.27 M1241.6 1553.85 L1241.6 1574.19 L1235.74 1574.19 L1235.74 1568.77 Q1233.74 1572.02 1230.74 1573.58 Q1227.75 1575.11 1223.42 1575.11 Q1217.95 1575.11 1214.7 1572.05 Q1211.49 1568.97 1211.49 1563.81 Q1211.49 1557.79 1215.5 1554.74 Q1219.54 1551.68 1227.53 1551.68 L1235.74 1551.68 L1235.74 1551.11 Q1235.74 1547.07 1233.07 1544.87 Q1230.43 1542.64 1225.62 1542.64 Q1222.56 1542.64 1219.67 1543.38 Q1216.77 1544.11 1214.1 1545.57 L1214.1 1540.16 Q1217.31 1538.92 1220.34 1538.31 Q1223.36 1537.68 1226.22 1537.68 Q1233.96 1537.68 1237.78 1541.69 Q1241.6 1545.7 1241.6 1553.85 Z" fill="#000000" fill-rule="evenodd" fill-opacity="1" /><path clip-path="url(#clip450)" d="M1277.12 1543.95 L1277.12 1524.66 L1282.97 1524.66 L1282.97 1574.19 L1277.12 1574.19 L1277.12 1568.84 Q1275.27 1572.02 1272.44 1573.58 Q1269.64 1575.11 1265.69 1575.11 Q1259.23 1575.11 1255.16 1569.95 Q1251.11 1564.8 1251.11 1556.39 Q1251.11 1547.99 1255.16 1542.83 Q1259.23 1537.68 1265.69 1537.68 Q1269.64 1537.68 1272.44 1539.24 Q1275.27 1540.77 1277.12 1543.95 M1257.16 1556.39 Q1257.16 1562.85 1259.8 1566.55 Q1262.48 1570.21 1267.12 1570.21 Q1271.77 1570.21 1274.44 1566.55 Q1277.12 1562.85 1277.12 1556.39 Q1277.12 1549.93 1274.44 1546.27 Q1271.77 1542.58 1267.12 1542.58 Q1262.48 1542.58 1259.8 1546.27 Q1257.16 1549.93 1257.16 1556.39 Z" fill="#000000" fill-rule="evenodd" fill-opacity="1" /><path clip-path="url(#clip450)" d="M1294.43 1560.12 L1294.43 1538.54 L1300.29 1538.54 L1300.29 1559.89 Q1300.29 1564.96 1302.26 1567.5 Q1304.24 1570.02 1308.18 1570.02 Q1312.93 1570.02 1315.66 1566.99 Q1318.43 1563.97 1318.43 1558.75 L1318.43 1538.54 L1324.29 1538.54 L1324.29 1574.19 L1318.43 1574.19 L1318.43 1568.71 Q1316.3 1571.96 1313.47 1573.55 Q1310.67 1575.11 1306.94 1575.11 Q1300.8 1575.11 1297.62 1571.29 Q1294.43 1567.47 1294.43 1560.12 M1309.17 1537.68 L1309.17 1537.68 Z" fill="#000000" fill-rule="evenodd" fill-opacity="1" /><path clip-path="url(#clip450)" d="M1365.98 1552.67 L1365.98 1574.19 L1360.13 1574.19 L1360.13 1552.86 Q1360.13 1547.8 1358.15 1545.29 Q1356.18 1542.77 1352.23 1542.77 Q1347.49 1542.77 1344.75 1545.79 Q1342.02 1548.82 1342.02 1554.04 L1342.02 1574.19 L1336.13 1574.19 L1336.13 1538.54 L1342.02 1538.54 L1342.02 1544.08 Q1344.12 1540.86 1346.95 1539.27 Q1349.81 1537.68 1353.54 1537.68 Q1359.68 1537.68 1362.83 1541.5 Q1365.98 1545.29 1365.98 1552.67 Z" fill="#000000" fill-rule="evenodd" fill-opacity="1" /><path clip-path="url(#clip450)" d="M1377.44 1524.66 L1383.33 1524.66 L1383.33 1553.91 L1400.8 1538.54 L1408.28 1538.54 L1389.38 1555.22 L1409.08 1574.19 L1401.44 1574.19 L1383.33 1556.78 L1383.33 1574.19 L1377.44 1574.19 L1377.44 1524.66 Z" fill="#000000" fill-rule="evenodd" fill-opacity="1" /><path clip-path="url(#clip450)" d="M1412.8 1560.12 L1412.8 1538.54 L1418.66 1538.54 L1418.66 1559.89 Q1418.66 1564.96 1420.63 1567.5 Q1422.61 1570.02 1426.55 1570.02 Q1431.3 1570.02 1434.03 1566.99 Q1436.8 1563.97 1436.8 1558.75 L1436.8 1538.54 L1442.66 1538.54 L1442.66 1574.19 L1436.8 1574.19 L1436.8 1568.71 Q1434.67 1571.96 1431.84 1573.55 Q1429.04 1575.11 1425.31 1575.11 Q1419.17 1575.11 1415.99 1571.29 Q1412.8 1567.47 1412.8 1560.12 M1427.54 1537.68 L1427.54 1537.68 Z" fill="#000000" fill-rule="evenodd" fill-opacity="1" /><path clip-path="url(#clip450)" d="M1474.9 1524.66 L1488.4 1524.66 L1488.4 1529.21 L1480.76 1529.21 L1480.76 1578.23 L1488.4 1578.23 L1488.4 1582.78 L1474.9 1582.78 L1474.9 1524.66 Z" fill="#000000" fill-rule="evenodd" fill-opacity="1" /><path clip-path="url(#clip450)" d="M1526.46 1556.39 Q1526.46 1549.93 1523.79 1546.27 Q1521.15 1542.58 1516.5 1542.58 Q1511.85 1542.58 1509.18 1546.27 Q1506.54 1549.93 1506.54 1556.39 Q1506.54 1562.85 1509.18 1566.55 Q1511.85 1570.21 1516.5 1570.21 Q1521.15 1570.21 1523.79 1566.55 Q1526.46 1562.85 1526.46 1556.39 M1506.54 1543.95 Q1508.38 1540.77 1511.19 1539.24 Q1514.02 1537.68 1517.93 1537.68 Q1524.43 1537.68 1528.47 1542.83 Q1532.54 1547.99 1532.54 1556.39 Q1532.54 1564.8 1528.47 1569.95 Q1524.43 1575.11 1517.93 1575.11 Q1514.02 1575.11 1511.19 1573.58 Q1508.38 1572.02 1506.54 1568.84 L1506.54 1574.19 L1500.65 1574.19 L1500.65 1524.66 L1506.54 1524.66 L1506.54 1543.95 Z" fill="#000000" fill-rule="evenodd" fill-opacity="1" /><path clip-path="url(#clip450)" d="M1558.45 1556.27 Q1551.35 1556.27 1548.62 1557.89 Q1545.88 1559.51 1545.88 1563.43 Q1545.88 1566.55 1547.92 1568.39 Q1549.98 1570.21 1553.52 1570.21 Q1558.39 1570.21 1561.32 1566.77 Q1564.28 1563.3 1564.28 1557.57 L1564.28 1556.27 L1558.45 1556.27 M1570.13 1553.85 L1570.13 1574.19 L1564.28 1574.19 L1564.28 1568.77 Q1562.27 1572.02 1559.28 1573.58 Q1556.29 1575.11 1551.96 1575.11 Q1546.48 1575.11 1543.24 1572.05 Q1540.02 1568.97 1540.02 1563.81 Q1540.02 1557.79 1544.03 1554.74 Q1548.07 1551.68 1556.06 1551.68 L1564.28 1551.68 L1564.28 1551.11 Q1564.28 1547.07 1561.6 1544.87 Q1558.96 1542.64 1554.15 1542.64 Q1551.1 1542.64 1548.2 1543.38 Q1545.31 1544.11 1542.63 1545.57 L1542.63 1540.16 Q1545.85 1538.92 1548.87 1538.31 Q1551.89 1537.68 1554.76 1537.68 Q1562.49 1537.68 1566.31 1541.69 Q1570.13 1545.7 1570.13 1553.85 Z" fill="#000000" fill-rule="evenodd" fill-opacity="1" /><path clip-path="url(#clip450)" d="M1582.19 1538.54 L1588.05 1538.54 L1588.05 1574.82 Q1588.05 1581.63 1585.44 1584.69 Q1582.86 1587.74 1577.1 1587.74 L1574.87 1587.74 L1574.87 1582.78 L1576.43 1582.78 Q1579.78 1582.78 1580.99 1581.22 Q1582.19 1579.69 1582.19 1574.82 L1582.19 1538.54 M1582.19 1524.66 L1588.05 1524.66 L1588.05 1532.08 L1582.19 1532.08 L1582.19 1524.66 Z" fill="#000000" fill-rule="evenodd" fill-opacity="1" /><path clip-path="url(#clip450)" d="M1606.1 1528.42 L1606.1 1538.54 L1618.16 1538.54 L1618.16 1543.09 L1606.1 1543.09 L1606.1 1562.44 Q1606.1 1566.8 1607.28 1568.04 Q1608.49 1569.28 1612.15 1569.28 L1618.16 1569.28 L1618.16 1574.19 L1612.15 1574.19 Q1605.37 1574.19 1602.79 1571.67 Q1600.21 1569.12 1600.21 1562.44 L1600.21 1543.09 L1595.91 1543.09 L1595.91 1538.54 L1600.21 1538.54 L1600.21 1528.42 L1606.1 1528.42 Z" fill="#000000" fill-rule="evenodd" fill-opacity="1" /><path clip-path="url(#clip450)" d="M1640.7 1577.5 Q1638.21 1583.86 1635.86 1585.8 Q1633.5 1587.74 1629.56 1587.74 L1624.88 1587.74 L1624.88 1582.84 L1628.31 1582.84 Q1630.73 1582.84 1632.07 1581.7 Q1633.41 1580.55 1635.03 1576.29 L1636.08 1573.61 L1621.66 1538.54 L1627.87 1538.54 L1639.01 1566.42 L1650.15 1538.54 L1656.36 1538.54 L1640.7 1577.5 Z" fill="#000000" fill-rule="evenodd" fill-opacity="1" /><path clip-path="url(#clip450)" d="M1678.13 1524.66 L1678.13 1582.78 L1664.63 1582.78 L1664.63 1578.23 L1672.24 1578.23 L1672.24 1529.21 L1664.63 1529.21 L1664.63 1524.66 L1678.13 1524.66 Z" fill="#000000" fill-rule="evenodd" fill-opacity="1" /><polyline clip-path="url(#clip452)" style="stroke:#000000; stroke-linecap:butt; stroke-linejoin:round; stroke-width:2; stroke-opacity:0.1; fill:none" points="
  235.283,1392.4 2352.76,1392.4 
  "/>
<polyline clip-path="url(#clip452)" style="stroke:#000000; stroke-linecap:butt; stroke-linejoin:round; stroke-width:2; stroke-opacity:0.1; fill:none" points="
  235.283,1191.39 2352.76,1191.39 
  "/>
<polyline clip-path="url(#clip452)" style="stroke:#000000; stroke-linecap:butt; stroke-linejoin:round; stroke-width:2; stroke-opacity:0.1; fill:none" points="
  235.283,990.384 2352.76,990.384 
  "/>
<polyline clip-path="url(#clip452)" style="stroke:#000000; stroke-linecap:butt; stroke-linejoin:round; stroke-width:2; stroke-opacity:0.1; fill:none" points="
  235.283,789.373 2352.76,789.373 
  "/>
<polyline clip-path="url(#clip452)" style="stroke:#000000; stroke-linecap:butt; stroke-linejoin:round; stroke-width:2; stroke-opacity:0.1; fill:none" points="
  235.283,588.363 2352.76,588.363 
  "/>
<polyline clip-path="url(#clip452)" style="stroke:#000000; stroke-linecap:butt; stroke-linejoin:round; stroke-width:2; stroke-opacity:0.1; fill:none" points="
  235.283,387.353 2352.76,387.353 
  "/>
<polyline clip-path="url(#clip452)" style="stroke:#000000; stroke-linecap:butt; stroke-linejoin:round; stroke-width:2; stroke-opacity:0.1; fill:none" points="
  235.283,186.343 2352.76,186.343 
  "/>
<polyline clip-path="url(#clip450)" style="stroke:#000000; stroke-linecap:butt; stroke-linejoin:round; stroke-width:4; stroke-opacity:1; fill:none" points="
  235.283,1410.9 235.283,47.2441 
  "/>
<polyline clip-path="url(#clip450)" style="stroke:#000000; stroke-linecap:butt; stroke-linejoin:round; stroke-width:4; stroke-opacity:1; fill:none" points="
  235.283,1392.4 254.18,1392.4 
  "/>
<polyline clip-path="url(#clip450)" style="stroke:#000000; stroke-linecap:butt; stroke-linejoin:round; stroke-width:4; stroke-opacity:1; fill:none" points="
  235.283,1191.39 254.18,1191.39 
  "/>
<polyline clip-path="url(#clip450)" style="stroke:#000000; stroke-linecap:butt; stroke-linejoin:round; stroke-width:4; stroke-opacity:1; fill:none" points="
  235.283,990.384 254.18,990.384 
  "/>
<polyline clip-path="url(#clip450)" style="stroke:#000000; stroke-linecap:butt; stroke-linejoin:round; stroke-width:4; stroke-opacity:1; fill:none" points="
  235.283,789.373 254.18,789.373 
  "/>
<polyline clip-path="url(#clip450)" style="stroke:#000000; stroke-linecap:butt; stroke-linejoin:round; stroke-width:4; stroke-opacity:1; fill:none" points="
  235.283,588.363 254.18,588.363 
  "/>
<polyline clip-path="url(#clip450)" style="stroke:#000000; stroke-linecap:butt; stroke-linejoin:round; stroke-width:4; stroke-opacity:1; fill:none" points="
  235.283,387.353 254.18,387.353 
  "/>
<polyline clip-path="url(#clip450)" style="stroke:#000000; stroke-linecap:butt; stroke-linejoin:round; stroke-width:4; stroke-opacity:1; fill:none" points="
  235.283,186.343 254.18,186.343 
  "/>
<path clip-path="url(#clip450)" d="M131.181 1391.05 Q134.538 1391.77 136.413 1394.04 Q138.311 1396.3 138.311 1399.64 Q138.311 1404.75 134.792 1407.55 Q131.274 1410.36 124.793 1410.36 Q122.617 1410.36 120.302 1409.92 Q118.01 1409.5 115.556 1408.64 L115.556 1404.13 Q117.501 1405.26 119.816 1405.84 Q122.13 1406.42 124.654 1406.42 Q129.052 1406.42 131.343 1404.68 Q133.658 1402.95 133.658 1399.64 Q133.658 1396.58 131.505 1394.87 Q129.376 1393.13 125.556 1393.13 L121.529 1393.13 L121.529 1389.29 L125.742 1389.29 Q129.191 1389.29 131.019 1387.92 Q132.848 1386.54 132.848 1383.94 Q132.848 1381.28 130.95 1379.87 Q129.075 1378.43 125.556 1378.43 Q123.635 1378.43 121.436 1378.85 Q119.237 1379.27 116.598 1380.15 L116.598 1375.98 Q119.26 1375.24 121.575 1374.87 Q123.913 1374.5 125.973 1374.5 Q131.297 1374.5 134.399 1376.93 Q137.501 1379.34 137.501 1383.46 Q137.501 1386.33 135.857 1388.32 Q134.214 1390.29 131.181 1391.05 Z" fill="#000000" fill-rule="evenodd" fill-opacity="1" /><path clip-path="url(#clip450)" d="M160.024 1379.2 L148.218 1397.65 L160.024 1397.65 L160.024 1379.2 M158.797 1375.12 L164.677 1375.12 L164.677 1397.65 L169.607 1397.65 L169.607 1401.54 L164.677 1401.54 L164.677 1409.68 L160.024 1409.68 L160.024 1401.54 L144.422 1401.54 L144.422 1397.02 L158.797 1375.12 Z" fill="#000000" fill-rule="evenodd" fill-opacity="1" /><path clip-path="url(#clip450)" d="M187.338 1378.2 Q183.727 1378.2 181.899 1381.77 Q180.093 1385.31 180.093 1392.44 Q180.093 1399.54 181.899 1403.11 Q183.727 1406.65 187.338 1406.65 Q190.973 1406.65 192.778 1403.11 Q194.607 1399.54 194.607 1392.44 Q194.607 1385.31 192.778 1381.77 Q190.973 1378.2 187.338 1378.2 M187.338 1374.5 Q193.149 1374.5 196.204 1379.11 Q199.283 1383.69 199.283 1392.44 Q199.283 1401.17 196.204 1405.77 Q193.149 1410.36 187.338 1410.36 Q181.528 1410.36 178.45 1405.77 Q175.394 1401.17 175.394 1392.44 Q175.394 1383.69 178.45 1379.11 Q181.528 1374.5 187.338 1374.5 Z" fill="#000000" fill-rule="evenodd" fill-opacity="1" /><path clip-path="url(#clip450)" d="M131.181 1190.04 Q134.538 1190.76 136.413 1193.03 Q138.311 1195.29 138.311 1198.63 Q138.311 1203.74 134.792 1206.54 Q131.274 1209.34 124.793 1209.34 Q122.617 1209.34 120.302 1208.91 Q118.01 1208.49 115.556 1207.63 L115.556 1203.12 Q117.501 1204.25 119.816 1204.83 Q122.13 1205.41 124.654 1205.41 Q129.052 1205.41 131.343 1203.67 Q133.658 1201.94 133.658 1198.63 Q133.658 1195.57 131.505 1193.86 Q129.376 1192.12 125.556 1192.12 L121.529 1192.12 L121.529 1188.28 L125.742 1188.28 Q129.191 1188.28 131.019 1186.91 Q132.848 1185.53 132.848 1182.93 Q132.848 1180.27 130.95 1178.86 Q129.075 1177.42 125.556 1177.42 Q123.635 1177.42 121.436 1177.84 Q119.237 1178.26 116.598 1179.14 L116.598 1174.97 Q119.26 1174.23 121.575 1173.86 Q123.913 1173.49 125.973 1173.49 Q131.297 1173.49 134.399 1175.92 Q137.501 1178.33 137.501 1182.45 Q137.501 1185.32 135.857 1187.31 Q134.214 1189.28 131.181 1190.04 Z" fill="#000000" fill-rule="evenodd" fill-opacity="1" /><path clip-path="url(#clip450)" d="M147.223 1174.11 L165.579 1174.11 L165.579 1178.05 L151.505 1178.05 L151.505 1186.52 Q152.524 1186.17 153.542 1186.01 Q154.561 1185.83 155.579 1185.83 Q161.366 1185.83 164.746 1189 Q168.126 1192.17 168.126 1197.59 Q168.126 1203.16 164.653 1206.27 Q161.181 1209.34 154.862 1209.34 Q152.686 1209.34 150.417 1208.97 Q148.172 1208.6 145.765 1207.86 L145.765 1203.16 Q147.848 1204.3 150.07 1204.85 Q152.292 1205.41 154.769 1205.41 Q158.774 1205.41 161.112 1203.3 Q163.45 1201.2 163.45 1197.59 Q163.45 1193.97 161.112 1191.87 Q158.774 1189.76 154.769 1189.76 Q152.894 1189.76 151.019 1190.18 Q149.167 1190.6 147.223 1191.47 L147.223 1174.11 Z" fill="#000000" fill-rule="evenodd" fill-opacity="1" /><path clip-path="url(#clip450)" d="M187.338 1177.19 Q183.727 1177.19 181.899 1180.76 Q180.093 1184.3 180.093 1191.43 Q180.093 1198.53 181.899 1202.1 Q183.727 1205.64 187.338 1205.64 Q190.973 1205.64 192.778 1202.1 Q194.607 1198.53 194.607 1191.43 Q194.607 1184.3 192.778 1180.76 Q190.973 1177.19 187.338 1177.19 M187.338 1173.49 Q193.149 1173.49 196.204 1178.1 Q199.283 1182.68 199.283 1191.43 Q199.283 1200.16 196.204 1204.76 Q193.149 1209.34 187.338 1209.34 Q181.528 1209.34 178.45 1204.76 Q175.394 1200.16 175.394 1191.43 Q175.394 1182.68 178.45 1178.1 Q181.528 1173.49 187.338 1173.49 Z" fill="#000000" fill-rule="evenodd" fill-opacity="1" /><path clip-path="url(#clip450)" d="M131.181 989.029 Q134.538 989.747 136.413 992.015 Q138.311 994.284 138.311 997.617 Q138.311 1002.73 134.792 1005.53 Q131.274 1008.33 124.793 1008.33 Q122.617 1008.33 120.302 1007.89 Q118.01 1007.48 115.556 1006.62 L115.556 1002.11 Q117.501 1003.24 119.816 1003.82 Q122.13 1004.4 124.654 1004.4 Q129.052 1004.4 131.343 1002.66 Q133.658 1000.93 133.658 997.617 Q133.658 994.562 131.505 992.849 Q129.376 991.113 125.556 991.113 L121.529 991.113 L121.529 987.27 L125.742 987.27 Q129.191 987.27 131.019 985.904 Q132.848 984.515 132.848 981.923 Q132.848 979.261 130.95 977.849 Q129.075 976.414 125.556 976.414 Q123.635 976.414 121.436 976.83 Q119.237 977.247 116.598 978.127 L116.598 973.96 Q119.26 973.219 121.575 972.849 Q123.913 972.479 125.973 972.479 Q131.297 972.479 134.399 974.909 Q137.501 977.316 137.501 981.437 Q137.501 984.307 135.857 986.298 Q134.214 988.265 131.181 989.029 Z" fill="#000000" fill-rule="evenodd" fill-opacity="1" /><path clip-path="url(#clip450)" d="M157.755 988.52 Q154.607 988.52 152.755 990.673 Q150.927 992.826 150.927 996.576 Q150.927 1000.3 152.755 1002.48 Q154.607 1004.63 157.755 1004.63 Q160.903 1004.63 162.732 1002.48 Q164.584 1000.3 164.584 996.576 Q164.584 992.826 162.732 990.673 Q160.903 988.52 157.755 988.52 M167.038 973.867 L167.038 978.127 Q165.278 977.293 163.473 976.853 Q161.69 976.414 159.931 976.414 Q155.302 976.414 152.848 979.539 Q150.417 982.664 150.07 988.983 Q151.436 986.969 153.496 985.904 Q155.556 984.816 158.033 984.816 Q163.241 984.816 166.251 987.988 Q169.283 991.136 169.283 996.576 Q169.283 1001.9 166.135 1005.12 Q162.987 1008.33 157.755 1008.33 Q151.76 1008.33 148.589 1003.75 Q145.417 999.145 145.417 990.418 Q145.417 982.224 149.306 977.363 Q153.195 972.479 159.746 972.479 Q161.505 972.479 163.288 972.826 Q165.093 973.173 167.038 973.867 Z" fill="#000000" fill-rule="evenodd" fill-opacity="1" /><path clip-path="url(#clip450)" d="M187.338 976.182 Q183.727 976.182 181.899 979.747 Q180.093 983.289 180.093 990.418 Q180.093 997.525 181.899 1001.09 Q183.727 1004.63 187.338 1004.63 Q190.973 1004.63 192.778 1001.09 Q194.607 997.525 194.607 990.418 Q194.607 983.289 192.778 979.747 Q190.973 976.182 187.338 976.182 M187.338 972.479 Q193.149 972.479 196.204 977.085 Q199.283 981.668 199.283 990.418 Q199.283 999.145 196.204 1003.75 Q193.149 1008.33 187.338 1008.33 Q181.528 1008.33 178.45 1003.75 Q175.394 999.145 175.394 990.418 Q175.394 981.668 178.45 977.085 Q181.528 972.479 187.338 972.479 Z" fill="#000000" fill-rule="evenodd" fill-opacity="1" /><path clip-path="url(#clip450)" d="M131.181 788.019 Q134.538 788.737 136.413 791.005 Q138.311 793.274 138.311 796.607 Q138.311 801.723 134.792 804.524 Q131.274 807.325 124.793 807.325 Q122.617 807.325 120.302 806.885 Q118.01 806.468 115.556 805.612 L115.556 801.098 Q117.501 802.232 119.816 802.811 Q122.13 803.39 124.654 803.39 Q129.052 803.39 131.343 801.653 Q133.658 799.917 133.658 796.607 Q133.658 793.552 131.505 791.839 Q129.376 790.103 125.556 790.103 L121.529 790.103 L121.529 786.26 L125.742 786.26 Q129.191 786.26 131.019 784.894 Q132.848 783.505 132.848 780.913 Q132.848 778.251 130.95 776.839 Q129.075 775.404 125.556 775.404 Q123.635 775.404 121.436 775.82 Q119.237 776.237 116.598 777.117 L116.598 772.95 Q119.26 772.209 121.575 771.839 Q123.913 771.468 125.973 771.468 Q131.297 771.468 134.399 773.899 Q137.501 776.306 137.501 780.427 Q137.501 783.297 135.857 785.288 Q134.214 787.255 131.181 788.019 Z" fill="#000000" fill-rule="evenodd" fill-opacity="1" /><path clip-path="url(#clip450)" d="M145.996 772.093 L168.218 772.093 L168.218 774.084 L155.672 806.653 L150.788 806.653 L162.593 776.029 L145.996 776.029 L145.996 772.093 Z" fill="#000000" fill-rule="evenodd" fill-opacity="1" /><path clip-path="url(#clip450)" d="M187.338 775.172 Q183.727 775.172 181.899 778.737 Q180.093 782.279 180.093 789.408 Q180.093 796.515 181.899 800.079 Q183.727 803.621 187.338 803.621 Q190.973 803.621 192.778 800.079 Q194.607 796.515 194.607 789.408 Q194.607 782.279 192.778 778.737 Q190.973 775.172 187.338 775.172 M187.338 771.468 Q193.149 771.468 196.204 776.075 Q199.283 780.658 199.283 789.408 Q199.283 798.135 196.204 802.741 Q193.149 807.325 187.338 807.325 Q181.528 807.325 178.45 802.741 Q175.394 798.135 175.394 789.408 Q175.394 780.658 178.45 776.075 Q181.528 771.468 187.338 771.468 Z" fill="#000000" fill-rule="evenodd" fill-opacity="1" /><path clip-path="url(#clip450)" d="M131.181 587.009 Q134.538 587.727 136.413 589.995 Q138.311 592.264 138.311 595.597 Q138.311 600.713 134.792 603.514 Q131.274 606.315 124.793 606.315 Q122.617 606.315 120.302 605.875 Q118.01 605.458 115.556 604.602 L115.556 600.088 Q117.501 601.222 119.816 601.801 Q122.13 602.379 124.654 602.379 Q129.052 602.379 131.343 600.643 Q133.658 598.907 133.658 595.597 Q133.658 592.542 131.505 590.829 Q129.376 589.092 125.556 589.092 L121.529 589.092 L121.529 585.25 L125.742 585.25 Q129.191 585.25 131.019 583.884 Q132.848 582.495 132.848 579.903 Q132.848 577.241 130.95 575.829 Q129.075 574.393 125.556 574.393 Q123.635 574.393 121.436 574.81 Q119.237 575.227 116.598 576.106 L116.598 571.94 Q119.26 571.199 121.575 570.829 Q123.913 570.458 125.973 570.458 Q131.297 570.458 134.399 572.889 Q137.501 575.296 137.501 579.417 Q137.501 582.287 135.857 584.278 Q134.214 586.245 131.181 587.009 Z" fill="#000000" fill-rule="evenodd" fill-opacity="1" /><path clip-path="url(#clip450)" d="M157.177 589.231 Q153.843 589.231 151.922 591.014 Q150.024 592.796 150.024 595.921 Q150.024 599.046 151.922 600.829 Q153.843 602.611 157.177 602.611 Q160.51 602.611 162.431 600.829 Q164.352 599.023 164.352 595.921 Q164.352 592.796 162.431 591.014 Q160.533 589.231 157.177 589.231 M152.501 587.241 Q149.491 586.5 147.802 584.44 Q146.135 582.38 146.135 579.417 Q146.135 575.273 149.075 572.866 Q152.038 570.458 157.177 570.458 Q162.339 570.458 165.278 572.866 Q168.218 575.273 168.218 579.417 Q168.218 582.38 166.528 584.44 Q164.862 586.5 161.876 587.241 Q165.255 588.028 167.13 590.319 Q169.028 592.611 169.028 595.921 Q169.028 600.944 165.95 603.629 Q162.894 606.315 157.177 606.315 Q151.459 606.315 148.38 603.629 Q145.325 600.944 145.325 595.921 Q145.325 592.611 147.223 590.319 Q149.121 588.028 152.501 587.241 M150.788 579.856 Q150.788 582.542 152.454 584.046 Q154.144 585.551 157.177 585.551 Q160.186 585.551 161.876 584.046 Q163.589 582.542 163.589 579.856 Q163.589 577.171 161.876 575.667 Q160.186 574.162 157.177 574.162 Q154.144 574.162 152.454 575.667 Q150.788 577.171 150.788 579.856 Z" fill="#000000" fill-rule="evenodd" fill-opacity="1" /><path clip-path="url(#clip450)" d="M187.338 574.162 Q183.727 574.162 181.899 577.727 Q180.093 581.268 180.093 588.398 Q180.093 595.504 181.899 599.069 Q183.727 602.611 187.338 602.611 Q190.973 602.611 192.778 599.069 Q194.607 595.504 194.607 588.398 Q194.607 581.268 192.778 577.727 Q190.973 574.162 187.338 574.162 M187.338 570.458 Q193.149 570.458 196.204 575.065 Q199.283 579.648 199.283 588.398 Q199.283 597.125 196.204 601.731 Q193.149 606.315 187.338 606.315 Q181.528 606.315 178.45 601.731 Q175.394 597.125 175.394 588.398 Q175.394 579.648 178.45 575.065 Q181.528 570.458 187.338 570.458 Z" fill="#000000" fill-rule="evenodd" fill-opacity="1" /><path clip-path="url(#clip450)" d="M131.181 385.999 Q134.538 386.717 136.413 388.985 Q138.311 391.254 138.311 394.587 Q138.311 399.703 134.792 402.504 Q131.274 405.304 124.793 405.304 Q122.617 405.304 120.302 404.865 Q118.01 404.448 115.556 403.592 L115.556 399.078 Q117.501 400.212 119.816 400.791 Q122.13 401.369 124.654 401.369 Q129.052 401.369 131.343 399.633 Q133.658 397.897 133.658 394.587 Q133.658 391.531 131.505 389.818 Q129.376 388.082 125.556 388.082 L121.529 388.082 L121.529 384.24 L125.742 384.24 Q129.191 384.24 131.019 382.874 Q132.848 381.485 132.848 378.893 Q132.848 376.231 130.95 374.819 Q129.075 373.383 125.556 373.383 Q123.635 373.383 121.436 373.8 Q119.237 374.217 116.598 375.096 L116.598 370.93 Q119.26 370.189 121.575 369.819 Q123.913 369.448 125.973 369.448 Q131.297 369.448 134.399 371.879 Q137.501 374.286 137.501 378.406 Q137.501 381.277 135.857 383.268 Q134.214 385.235 131.181 385.999 Z" fill="#000000" fill-rule="evenodd" fill-opacity="1" /><path clip-path="url(#clip450)" d="M147.316 403.916 L147.316 399.656 Q149.075 400.49 150.88 400.93 Q152.686 401.369 154.422 401.369 Q159.052 401.369 161.482 398.267 Q163.936 395.143 164.283 388.8 Q162.94 390.791 160.88 391.855 Q158.82 392.92 156.32 392.92 Q151.135 392.92 148.103 389.795 Q145.093 386.647 145.093 381.207 Q145.093 375.883 148.241 372.666 Q151.39 369.448 156.621 369.448 Q162.616 369.448 165.765 374.055 Q168.936 378.638 168.936 387.388 Q168.936 395.559 165.047 400.443 Q161.181 405.304 154.63 405.304 Q152.871 405.304 151.066 404.957 Q149.26 404.61 147.316 403.916 M156.621 389.263 Q159.769 389.263 161.598 387.11 Q163.45 384.957 163.45 381.207 Q163.45 377.481 161.598 375.328 Q159.769 373.152 156.621 373.152 Q153.473 373.152 151.621 375.328 Q149.792 377.481 149.792 381.207 Q149.792 384.957 151.621 387.11 Q153.473 389.263 156.621 389.263 Z" fill="#000000" fill-rule="evenodd" fill-opacity="1" /><path clip-path="url(#clip450)" d="M187.338 373.152 Q183.727 373.152 181.899 376.717 Q180.093 380.258 180.093 387.388 Q180.093 394.494 181.899 398.059 Q183.727 401.601 187.338 401.601 Q190.973 401.601 192.778 398.059 Q194.607 394.494 194.607 387.388 Q194.607 380.258 192.778 376.717 Q190.973 373.152 187.338 373.152 M187.338 369.448 Q193.149 369.448 196.204 374.055 Q199.283 378.638 199.283 387.388 Q199.283 396.115 196.204 400.721 Q193.149 405.304 187.338 405.304 Q181.528 405.304 178.45 400.721 Q175.394 396.115 175.394 387.388 Q175.394 378.638 178.45 374.055 Q181.528 369.448 187.338 369.448 Z" fill="#000000" fill-rule="evenodd" fill-opacity="1" /><path clip-path="url(#clip450)" d="M129.862 173.137 L118.056 191.586 L129.862 191.586 L129.862 173.137 M128.635 169.063 L134.515 169.063 L134.515 191.586 L139.445 191.586 L139.445 195.475 L134.515 195.475 L134.515 203.623 L129.862 203.623 L129.862 195.475 L114.26 195.475 L114.26 190.961 L128.635 169.063 Z" fill="#000000" fill-rule="evenodd" fill-opacity="1" /><path clip-path="url(#clip450)" d="M157.177 172.142 Q153.566 172.142 151.737 175.707 Q149.931 179.248 149.931 186.378 Q149.931 193.484 151.737 197.049 Q153.566 200.591 157.177 200.591 Q160.811 200.591 162.616 197.049 Q164.445 193.484 164.445 186.378 Q164.445 179.248 162.616 175.707 Q160.811 172.142 157.177 172.142 M157.177 168.438 Q162.987 168.438 166.042 173.045 Q169.121 177.628 169.121 186.378 Q169.121 195.105 166.042 199.711 Q162.987 204.294 157.177 204.294 Q151.366 204.294 148.288 199.711 Q145.232 195.105 145.232 186.378 Q145.232 177.628 148.288 173.045 Q151.366 168.438 157.177 168.438 Z" fill="#000000" fill-rule="evenodd" fill-opacity="1" /><path clip-path="url(#clip450)" d="M187.338 172.142 Q183.727 172.142 181.899 175.707 Q180.093 179.248 180.093 186.378 Q180.093 193.484 181.899 197.049 Q183.727 200.591 187.338 200.591 Q190.973 200.591 192.778 197.049 Q194.607 193.484 194.607 186.378 Q194.607 179.248 192.778 175.707 Q190.973 172.142 187.338 172.142 M187.338 168.438 Q193.149 168.438 196.204 173.045 Q199.283 177.628 199.283 186.378 Q199.283 195.105 196.204 199.711 Q193.149 204.294 187.338 204.294 Q181.528 204.294 178.45 199.711 Q175.394 195.105 175.394 186.378 Q175.394 177.628 178.45 173.045 Q181.528 168.438 187.338 168.438 Z" fill="#000000" fill-rule="evenodd" fill-opacity="1" /><path clip-path="url(#clip450)" d="M20.1444 847.457 L26.9239 847.457 Q23.9002 850.703 22.4043 854.395 Q20.9083 858.055 20.9083 862.193 Q20.9083 870.341 25.9054 874.67 Q30.8707 878.999 40.2919 878.999 Q49.6813 878.999 54.6784 874.67 Q59.6436 870.341 59.6436 862.193 Q59.6436 858.055 58.1477 854.395 Q56.6518 850.703 53.6281 847.457 L60.3439 847.457 Q62.6355 850.83 63.7814 854.618 Q64.9272 858.374 64.9272 862.575 Q64.9272 873.365 58.3387 879.572 Q51.7183 885.778 40.2919 885.778 Q28.8336 885.778 22.2451 879.572 Q15.6248 873.365 15.6248 862.575 Q15.6248 858.31 16.7706 854.554 Q17.8846 850.767 20.1444 847.457 Z" fill="#000000" fill-rule="evenodd" fill-opacity="1" /><path clip-path="url(#clip450)" d="M28.3562 840.327 L28.3562 812.509 L33.7034 812.509 L59.3254 834.534 L59.3254 812.509 L64.0042 812.509 L64.0042 841.123 L58.657 841.123 L33.035 819.097 L33.035 840.327 L28.3562 840.327 Z" fill="#000000" fill-rule="evenodd" fill-opacity="1" /><path clip-path="url(#clip450)" d="M46.0847 787.364 Q46.0847 794.462 47.7079 797.199 Q49.3312 799.937 53.2461 799.937 Q56.3653 799.937 58.2114 797.9 Q60.0256 795.831 60.0256 792.298 Q60.0256 787.428 56.5881 784.5 Q53.1188 781.54 47.3897 781.54 L46.0847 781.54 L46.0847 787.364 M43.6657 775.683 L64.0042 775.683 L64.0042 781.54 L58.5933 781.54 Q61.8398 783.545 63.3994 786.537 Q64.9272 789.529 64.9272 793.857 Q64.9272 799.332 61.8716 802.578 Q58.7843 805.793 53.6281 805.793 Q47.6125 805.793 44.5569 801.783 Q41.5014 797.74 41.5014 789.751 L41.5014 781.54 L40.9285 781.54 Q36.8862 781.54 34.6901 784.213 Q32.4621 786.855 32.4621 791.661 Q32.4621 794.717 33.1941 797.613 Q33.9262 800.51 35.3903 803.183 L29.9795 803.183 Q28.7381 799.968 28.1334 796.945 Q27.4968 793.921 27.4968 791.056 Q27.4968 783.322 31.5072 779.503 Q35.5176 775.683 43.6657 775.683 Z" fill="#000000" fill-rule="evenodd" fill-opacity="1" /><path clip-path="url(#clip450)" d="M29.4065 740.895 L34.9447 740.895 Q33.6716 743.377 33.035 746.051 Q32.3984 748.724 32.3984 751.589 Q32.3984 755.95 33.7352 758.146 Q35.072 760.31 37.7456 760.31 Q39.7826 760.31 40.9603 758.75 Q42.1061 757.191 43.1565 752.48 L43.6021 750.475 Q44.9389 744.237 47.3897 741.627 Q49.8086 738.985 54.1691 738.985 Q59.1344 738.985 62.0308 742.932 Q64.9272 746.847 64.9272 753.722 Q64.9272 756.586 64.3543 759.705 Q63.8132 762.793 62.6992 766.23 L56.6518 766.23 Q58.3387 762.984 59.198 759.833 Q60.0256 756.682 60.0256 753.594 Q60.0256 749.457 58.6251 747.229 Q57.1929 745.001 54.6147 745.001 Q52.2276 745.001 50.9545 746.624 Q49.6813 748.215 48.5037 753.658 L48.0262 755.695 Q46.8804 761.138 44.5251 763.557 Q42.138 765.976 38.0002 765.976 Q32.9713 765.976 30.2341 762.411 Q27.4968 758.846 27.4968 752.289 Q27.4968 749.043 27.9743 746.178 Q28.4517 743.314 29.4065 740.895 Z" fill="#000000" fill-rule="evenodd" fill-opacity="1" /><path clip-path="url(#clip450)" d="M14.479 709.48 L14.479 695.985 L19.0304 695.985 L19.0304 703.623 L68.0464 703.623 L68.0464 695.985 L72.5979 695.985 L72.5979 709.48 L14.479 709.48 Z" fill="#000000" fill-rule="evenodd" fill-opacity="1" /><path clip-path="url(#clip450)" d="M35.1993 655.753 Q31.2526 653.557 29.3747 650.502 Q27.4968 647.446 27.4968 643.308 Q27.4968 637.738 31.4117 634.715 Q35.2948 631.691 42.4881 631.691 L64.0042 631.691 L64.0042 637.579 L42.679 637.579 Q37.5546 637.579 35.072 639.393 Q32.5894 641.208 32.5894 644.932 Q32.5894 649.483 35.6131 652.125 Q38.6368 654.767 43.8567 654.767 L64.0042 654.767 L64.0042 660.655 L42.679 660.655 Q37.5228 660.655 35.072 662.469 Q32.5894 664.283 32.5894 668.071 Q32.5894 672.559 35.6449 675.201 Q38.6686 677.842 43.8567 677.842 L64.0042 677.842 L64.0042 683.731 L28.3562 683.731 L28.3562 677.842 L33.8944 677.842 Q30.616 675.837 29.0564 673.036 Q27.4968 670.235 27.4968 666.384 Q27.4968 662.501 29.4702 659.796 Q31.4436 657.058 35.1993 655.753 Z" fill="#000000" fill-rule="evenodd" fill-opacity="1" /><path clip-path="url(#clip450)" d="M29.4065 597.284 L34.9447 597.284 Q33.6716 599.767 33.035 602.441 Q32.3984 605.114 32.3984 607.979 Q32.3984 612.339 33.7352 614.535 Q35.072 616.7 37.7456 616.7 Q39.7826 616.7 40.9603 615.14 Q42.1061 613.581 43.1565 608.87 L43.6021 606.865 Q44.9389 600.626 47.3897 598.016 Q49.8086 595.375 54.1691 595.375 Q59.1344 595.375 62.0308 599.321 Q64.9272 603.236 64.9272 610.111 Q64.9272 612.976 64.3543 616.095 Q63.8132 619.182 62.6992 622.62 L56.6518 622.62 Q58.3387 619.373 59.198 616.222 Q60.0256 613.071 60.0256 609.984 Q60.0256 605.846 58.6251 603.618 Q57.1929 601.39 54.6147 601.39 Q52.2276 601.39 50.9545 603.013 Q49.6813 604.605 48.5037 610.048 L48.0262 612.085 Q46.8804 617.527 44.5251 619.946 Q42.138 622.365 38.0002 622.365 Q32.9713 622.365 30.2341 618.8 Q27.4968 615.236 27.4968 608.679 Q27.4968 605.432 27.9743 602.568 Q28.4517 599.703 29.4065 597.284 Z" fill="#000000" fill-rule="evenodd" fill-opacity="1" /><path clip-path="url(#clip450)" d="M14.479 572.363 L72.5979 572.363 L72.5979 585.858 L68.0464 585.858 L68.0464 578.251 L19.0304 578.251 L19.0304 585.858 L14.479 585.858 L14.479 572.363 Z" fill="#000000" fill-rule="evenodd" fill-opacity="1" /><circle clip-path="url(#clip452)" cx="295.211" cy="1372.3" r="14" fill="#009af9" fill-rule="evenodd" fill-opacity="1" stroke="#000000" stroke-opacity="1" stroke-width="3.2"/>
<circle clip-path="url(#clip452)" cx="323.542" cy="1372.3" r="14" fill="#009af9" fill-rule="evenodd" fill-opacity="1" stroke="#000000" stroke-opacity="1" stroke-width="3.2"/>
<circle clip-path="url(#clip452)" cx="348.885" cy="1352.2" r="14" fill="#009af9" fill-rule="evenodd" fill-opacity="1" stroke="#000000" stroke-opacity="1" stroke-width="3.2"/>
<circle clip-path="url(#clip452)" cx="371.81" cy="1352.2" r="14" fill="#009af9" fill-rule="evenodd" fill-opacity="1" stroke="#000000" stroke-opacity="1" stroke-width="3.2"/>
<circle clip-path="url(#clip452)" cx="392.739" cy="1372.3" r="14" fill="#009af9" fill-rule="evenodd" fill-opacity="1" stroke="#000000" stroke-opacity="1" stroke-width="3.2"/>
<circle clip-path="url(#clip452)" cx="411.992" cy="1372.3" r="14" fill="#009af9" fill-rule="evenodd" fill-opacity="1" stroke="#000000" stroke-opacity="1" stroke-width="3.2"/>
<circle clip-path="url(#clip452)" cx="438.258" cy="1332.1" r="14" fill="#009af9" fill-rule="evenodd" fill-opacity="1" stroke="#000000" stroke-opacity="1" stroke-width="3.2"/>
<circle clip-path="url(#clip452)" cx="461.936" cy="1352.2" r="14" fill="#009af9" fill-rule="evenodd" fill-opacity="1" stroke="#000000" stroke-opacity="1" stroke-width="3.2"/>
<circle clip-path="url(#clip452)" cx="483.49" cy="1352.2" r="14" fill="#009af9" fill-rule="evenodd" fill-opacity="1" stroke="#000000" stroke-opacity="1" stroke-width="3.2"/>
<circle clip-path="url(#clip452)" cx="503.271" cy="1352.2" r="14" fill="#009af9" fill-rule="evenodd" fill-opacity="1" stroke="#000000" stroke-opacity="1" stroke-width="3.2"/>
<circle clip-path="url(#clip452)" cx="527.345" cy="1352.2" r="14" fill="#009af9" fill-rule="evenodd" fill-opacity="1" stroke="#000000" stroke-opacity="1" stroke-width="3.2"/>
<circle clip-path="url(#clip452)" cx="549.226" cy="1352.2" r="14" fill="#009af9" fill-rule="evenodd" fill-opacity="1" stroke="#000000" stroke-opacity="1" stroke-width="3.2"/>
<circle clip-path="url(#clip452)" cx="574.045" cy="1372.3" r="14" fill="#009af9" fill-rule="evenodd" fill-opacity="1" stroke="#000000" stroke-opacity="1" stroke-width="3.2"/>
<circle clip-path="url(#clip452)" cx="596.542" cy="1372.3" r="14" fill="#009af9" fill-rule="evenodd" fill-opacity="1" stroke="#000000" stroke-opacity="1" stroke-width="3.2"/>
<circle clip-path="url(#clip452)" cx="621.024" cy="1332.1" r="14" fill="#009af9" fill-rule="evenodd" fill-opacity="1" stroke="#000000" stroke-opacity="1" stroke-width="3.2"/>
<circle clip-path="url(#clip452)" cx="643.242" cy="1352.2" r="14" fill="#009af9" fill-rule="evenodd" fill-opacity="1" stroke="#000000" stroke-opacity="1" stroke-width="3.2"/>
<circle clip-path="url(#clip452)" cx="666.81" cy="1372.3" r="14" fill="#009af9" fill-rule="evenodd" fill-opacity="1" stroke="#000000" stroke-opacity="1" stroke-width="3.2"/>
<circle clip-path="url(#clip452)" cx="688.273" cy="1352.2" r="14" fill="#009af9" fill-rule="evenodd" fill-opacity="1" stroke="#000000" stroke-opacity="1" stroke-width="3.2"/>
<circle clip-path="url(#clip452)" cx="710.664" cy="1352.2" r="14" fill="#009af9" fill-rule="evenodd" fill-opacity="1" stroke="#000000" stroke-opacity="1" stroke-width="3.2"/>
<circle clip-path="url(#clip452)" cx="733.589" cy="1332.1" r="14" fill="#009af9" fill-rule="evenodd" fill-opacity="1" stroke="#000000" stroke-opacity="1" stroke-width="3.2"/>
<circle clip-path="url(#clip452)" cx="756.735" cy="1352.2" r="14" fill="#009af9" fill-rule="evenodd" fill-opacity="1" stroke="#000000" stroke-opacity="1" stroke-width="3.2"/>
<circle clip-path="url(#clip452)" cx="779.861" cy="1372.3" r="14" fill="#009af9" fill-rule="evenodd" fill-opacity="1" stroke="#000000" stroke-opacity="1" stroke-width="3.2"/>
<circle clip-path="url(#clip452)" cx="802.786" cy="1332.1" r="14" fill="#009af9" fill-rule="evenodd" fill-opacity="1" stroke="#000000" stroke-opacity="1" stroke-width="3.2"/>
<circle clip-path="url(#clip452)" cx="825.38" cy="1372.3" r="14" fill="#009af9" fill-rule="evenodd" fill-opacity="1" stroke="#000000" stroke-opacity="1" stroke-width="3.2"/>
<circle clip-path="url(#clip452)" cx="849.058" cy="1291.9" r="14" fill="#009af9" fill-rule="evenodd" fill-opacity="1" stroke="#000000" stroke-opacity="1" stroke-width="3.2"/>
<circle clip-path="url(#clip452)" cx="871.983" cy="1352.2" r="14" fill="#009af9" fill-rule="evenodd" fill-opacity="1" stroke="#000000" stroke-opacity="1" stroke-width="3.2"/>
<circle clip-path="url(#clip452)" cx="895.405" cy="1352.2" r="14" fill="#009af9" fill-rule="evenodd" fill-opacity="1" stroke="#000000" stroke-opacity="1" stroke-width="3.2"/>
<circle clip-path="url(#clip452)" cx="917.879" cy="1332.1" r="14" fill="#009af9" fill-rule="evenodd" fill-opacity="1" stroke="#000000" stroke-opacity="1" stroke-width="3.2"/>
<circle clip-path="url(#clip452)" cx="940.496" cy="1372.3" r="14" fill="#009af9" fill-rule="evenodd" fill-opacity="1" stroke="#000000" stroke-opacity="1" stroke-width="3.2"/>
<circle clip-path="url(#clip452)" cx="963.047" cy="1352.2" r="14" fill="#009af9" fill-rule="evenodd" fill-opacity="1" stroke="#000000" stroke-opacity="1" stroke-width="3.2"/>
<circle clip-path="url(#clip452)" cx="986.227" cy="1352.2" r="14" fill="#009af9" fill-rule="evenodd" fill-opacity="1" stroke="#000000" stroke-opacity="1" stroke-width="3.2"/>
<circle clip-path="url(#clip452)" cx="1008.92" cy="1352.2" r="14" fill="#009af9" fill-rule="evenodd" fill-opacity="1" stroke="#000000" stroke-opacity="1" stroke-width="3.2"/>
<circle clip-path="url(#clip452)" cx="1031.78" cy="1352.2" r="14" fill="#009af9" fill-rule="evenodd" fill-opacity="1" stroke="#000000" stroke-opacity="1" stroke-width="3.2"/>
<circle clip-path="url(#clip452)" cx="1054.57" cy="1151.19" r="14" fill="#009af9" fill-rule="evenodd" fill-opacity="1" stroke="#000000" stroke-opacity="1" stroke-width="3.2"/>
<circle clip-path="url(#clip452)" cx="1077.73" cy="1332.1" r="14" fill="#009af9" fill-rule="evenodd" fill-opacity="1" stroke="#000000" stroke-opacity="1" stroke-width="3.2"/>
<circle clip-path="url(#clip452)" cx="1100.44" cy="1332.1" r="14" fill="#009af9" fill-rule="evenodd" fill-opacity="1" stroke="#000000" stroke-opacity="1" stroke-width="3.2"/>
<circle clip-path="url(#clip452)" cx="1123.61" cy="1352.2" r="14" fill="#009af9" fill-rule="evenodd" fill-opacity="1" stroke="#000000" stroke-opacity="1" stroke-width="3.2"/>
<circle clip-path="url(#clip452)" cx="1146.49" cy="1372.3" r="14" fill="#009af9" fill-rule="evenodd" fill-opacity="1" stroke="#000000" stroke-opacity="1" stroke-width="3.2"/>
<circle clip-path="url(#clip452)" cx="1169.38" cy="1372.3" r="14" fill="#009af9" fill-rule="evenodd" fill-opacity="1" stroke="#000000" stroke-opacity="1" stroke-width="3.2"/>
<circle clip-path="url(#clip452)" cx="1192.45" cy="1352.2" r="14" fill="#009af9" fill-rule="evenodd" fill-opacity="1" stroke="#000000" stroke-opacity="1" stroke-width="3.2"/>
<circle clip-path="url(#clip452)" cx="1215.47" cy="1352.2" r="14" fill="#009af9" fill-rule="evenodd" fill-opacity="1" stroke="#000000" stroke-opacity="1" stroke-width="3.2"/>
<circle clip-path="url(#clip452)" cx="1238.28" cy="1372.3" r="14" fill="#009af9" fill-rule="evenodd" fill-opacity="1" stroke="#000000" stroke-opacity="1" stroke-width="3.2"/>
<circle clip-path="url(#clip452)" cx="1261.28" cy="1131.09" r="14" fill="#009af9" fill-rule="evenodd" fill-opacity="1" stroke="#000000" stroke-opacity="1" stroke-width="3.2"/>
<circle clip-path="url(#clip452)" cx="1284.26" cy="970.282" r="14" fill="#009af9" fill-rule="evenodd" fill-opacity="1" stroke="#000000" stroke-opacity="1" stroke-width="3.2"/>
<circle clip-path="url(#clip452)" cx="1307.25" cy="1131.09" r="14" fill="#009af9" fill-rule="evenodd" fill-opacity="1" stroke="#000000" stroke-opacity="1" stroke-width="3.2"/>
<circle clip-path="url(#clip452)" cx="1330.07" cy="1131.09" r="14" fill="#009af9" fill-rule="evenodd" fill-opacity="1" stroke="#000000" stroke-opacity="1" stroke-width="3.2"/>
<circle clip-path="url(#clip452)" cx="1352.96" cy="970.282" r="14" fill="#009af9" fill-rule="evenodd" fill-opacity="1" stroke="#000000" stroke-opacity="1" stroke-width="3.2"/>
<circle clip-path="url(#clip452)" cx="1375.89" cy="950.181" r="14" fill="#009af9" fill-rule="evenodd" fill-opacity="1" stroke="#000000" stroke-opacity="1" stroke-width="3.2"/>
<circle clip-path="url(#clip452)" cx="1398.81" cy="909.979" r="14" fill="#e26f46" fill-rule="evenodd" fill-opacity="1" stroke="#000000" stroke-opacity="1" stroke-width="3.2"/>
<circle clip-path="url(#clip452)" cx="1421.69" cy="869.777" r="14" fill="#e26f46" fill-rule="evenodd" fill-opacity="1" stroke="#000000" stroke-opacity="1" stroke-width="3.2"/>
<circle clip-path="url(#clip452)" cx="1444.62" cy="970.282" r="14" fill="#e26f46" fill-rule="evenodd" fill-opacity="1" stroke="#000000" stroke-opacity="1" stroke-width="3.2"/>
<circle clip-path="url(#clip452)" cx="1467.51" cy="990.384" r="14" fill="#e26f46" fill-rule="evenodd" fill-opacity="1" stroke="#000000" stroke-opacity="1" stroke-width="3.2"/>
<circle clip-path="url(#clip452)" cx="1490.4" cy="1191.39" r="14" fill="#e26f46" fill-rule="evenodd" fill-opacity="1" stroke="#000000" stroke-opacity="1" stroke-width="3.2"/>
<circle clip-path="url(#clip452)" cx="1513.31" cy="950.181" r="14" fill="#e26f46" fill-rule="evenodd" fill-opacity="1" stroke="#000000" stroke-opacity="1" stroke-width="3.2"/>
<circle clip-path="url(#clip452)" cx="1536.22" cy="1251.7" r="14" fill="#e26f46" fill-rule="evenodd" fill-opacity="1" stroke="#000000" stroke-opacity="1" stroke-width="3.2"/>
<circle clip-path="url(#clip452)" cx="1559.18" cy="809.474" r="14" fill="#e26f46" fill-rule="evenodd" fill-opacity="1" stroke="#000000" stroke-opacity="1" stroke-width="3.2"/>
<circle clip-path="url(#clip452)" cx="1582.08" cy="950.181" r="14" fill="#e26f46" fill-rule="evenodd" fill-opacity="1" stroke="#000000" stroke-opacity="1" stroke-width="3.2"/>
<circle clip-path="url(#clip452)" cx="1605" cy="930.08" r="14" fill="#e26f46" fill-rule="evenodd" fill-opacity="1" stroke="#000000" stroke-opacity="1" stroke-width="3.2"/>
<circle clip-path="url(#clip452)" cx="1627.95" cy="1110.99" r="14" fill="#e26f46" fill-rule="evenodd" fill-opacity="1" stroke="#000000" stroke-opacity="1" stroke-width="3.2"/>
<circle clip-path="url(#clip452)" cx="1650.88" cy="889.878" r="14" fill="#e26f46" fill-rule="evenodd" fill-opacity="1" stroke="#000000" stroke-opacity="1" stroke-width="3.2"/>
<circle clip-path="url(#clip452)" cx="1673.83" cy="769.272" r="14" fill="#e26f46" fill-rule="evenodd" fill-opacity="1" stroke="#000000" stroke-opacity="1" stroke-width="3.2"/>
<circle clip-path="url(#clip452)" cx="1696.73" cy="1010.48" r="14" fill="#e26f46" fill-rule="evenodd" fill-opacity="1" stroke="#000000" stroke-opacity="1" stroke-width="3.2"/>
<circle clip-path="url(#clip452)" cx="1719.66" cy="869.777" r="14" fill="#e26f46" fill-rule="evenodd" fill-opacity="1" stroke="#000000" stroke-opacity="1" stroke-width="3.2"/>
<circle clip-path="url(#clip452)" cx="1742.59" cy="648.666" r="14" fill="#e26f46" fill-rule="evenodd" fill-opacity="1" stroke="#000000" stroke-opacity="1" stroke-width="3.2"/>
<circle clip-path="url(#clip452)" cx="1765.52" cy="688.868" r="14" fill="#e26f46" fill-rule="evenodd" fill-opacity="1" stroke="#000000" stroke-opacity="1" stroke-width="3.2"/>
<circle clip-path="url(#clip452)" cx="1788.46" cy="668.767" r="14" fill="#e26f46" fill-rule="evenodd" fill-opacity="1" stroke="#000000" stroke-opacity="1" stroke-width="3.2"/>
<circle clip-path="url(#clip452)" cx="1811.39" cy="729.07" r="14" fill="#e26f46" fill-rule="evenodd" fill-opacity="1" stroke="#000000" stroke-opacity="1" stroke-width="3.2"/>
<circle clip-path="url(#clip452)" cx="1834.31" cy="869.777" r="14" fill="#e26f46" fill-rule="evenodd" fill-opacity="1" stroke="#000000" stroke-opacity="1" stroke-width="3.2"/>
<circle clip-path="url(#clip452)" cx="1857.24" cy="708.969" r="14" fill="#e26f46" fill-rule="evenodd" fill-opacity="1" stroke="#000000" stroke-opacity="1" stroke-width="3.2"/>
<circle clip-path="url(#clip452)" cx="1880.17" cy="668.767" r="14" fill="#e26f46" fill-rule="evenodd" fill-opacity="1" stroke="#000000" stroke-opacity="1" stroke-width="3.2"/>
<circle clip-path="url(#clip452)" cx="1903.1" cy="688.868" r="14" fill="#e26f46" fill-rule="evenodd" fill-opacity="1" stroke="#000000" stroke-opacity="1" stroke-width="3.2"/>
<circle clip-path="url(#clip452)" cx="1926.02" cy="869.777" r="14" fill="#e26f46" fill-rule="evenodd" fill-opacity="1" stroke="#000000" stroke-opacity="1" stroke-width="3.2"/>
<circle clip-path="url(#clip452)" cx="1948.94" cy="769.272" r="14" fill="#e26f46" fill-rule="evenodd" fill-opacity="1" stroke="#000000" stroke-opacity="1" stroke-width="3.2"/>
<circle clip-path="url(#clip452)" cx="1971.87" cy="889.878" r="14" fill="#e26f46" fill-rule="evenodd" fill-opacity="1" stroke="#000000" stroke-opacity="1" stroke-width="3.2"/>
<circle clip-path="url(#clip452)" cx="1994.8" cy="487.858" r="14" fill="#e26f46" fill-rule="evenodd" fill-opacity="1" stroke="#000000" stroke-opacity="1" stroke-width="3.2"/>
<circle clip-path="url(#clip452)" cx="2017.72" cy="528.06" r="14" fill="#e26f46" fill-rule="evenodd" fill-opacity="1" stroke="#000000" stroke-opacity="1" stroke-width="3.2"/>
<circle clip-path="url(#clip452)" cx="2040.65" cy="507.959" r="14" fill="#e26f46" fill-rule="evenodd" fill-opacity="1" stroke="#000000" stroke-opacity="1" stroke-width="3.2"/>
<circle clip-path="url(#clip452)" cx="2063.58" cy="628.565" r="14" fill="#e26f46" fill-rule="evenodd" fill-opacity="1" stroke="#000000" stroke-opacity="1" stroke-width="3.2"/>
<circle clip-path="url(#clip452)" cx="2086.51" cy="568.262" r="14" fill="#e26f46" fill-rule="evenodd" fill-opacity="1" stroke="#000000" stroke-opacity="1" stroke-width="3.2"/>
<circle clip-path="url(#clip452)" cx="2109.43" cy="688.868" r="14" fill="#e26f46" fill-rule="evenodd" fill-opacity="1" stroke="#000000" stroke-opacity="1" stroke-width="3.2"/>
<circle clip-path="url(#clip452)" cx="2132.36" cy="487.858" r="14" fill="#e26f46" fill-rule="evenodd" fill-opacity="1" stroke="#000000" stroke-opacity="1" stroke-width="3.2"/>
<circle clip-path="url(#clip452)" cx="2155.28" cy="407.454" r="14" fill="#e26f46" fill-rule="evenodd" fill-opacity="1" stroke="#000000" stroke-opacity="1" stroke-width="3.2"/>
<circle clip-path="url(#clip452)" cx="2178.2" cy="507.959" r="14" fill="#e26f46" fill-rule="evenodd" fill-opacity="1" stroke="#000000" stroke-opacity="1" stroke-width="3.2"/>
<circle clip-path="url(#clip452)" cx="2201.13" cy="327.05" r="14" fill="#e26f46" fill-rule="evenodd" fill-opacity="1" stroke="#000000" stroke-opacity="1" stroke-width="3.2"/>
<circle clip-path="url(#clip452)" cx="2224.06" cy="85.838" r="14" fill="#e26f46" fill-rule="evenodd" fill-opacity="1" stroke="#000000" stroke-opacity="1" stroke-width="3.2"/>
<circle clip-path="url(#clip452)" cx="2246.98" cy="166.242" r="14" fill="#e26f46" fill-rule="evenodd" fill-opacity="1" stroke="#000000" stroke-opacity="1" stroke-width="3.2"/>
<circle clip-path="url(#clip452)" cx="2269.9" cy="166.242" r="14" fill="#e26f46" fill-rule="evenodd" fill-opacity="1" stroke="#000000" stroke-opacity="1" stroke-width="3.2"/>
<circle clip-path="url(#clip452)" cx="2292.83" cy="146.141" r="14" fill="#e26f46" fill-rule="evenodd" fill-opacity="1" stroke="#000000" stroke-opacity="1" stroke-width="3.2"/>
<path clip-path="url(#clip450)" d="
M305.865 248.219 L970.235 248.219 L970.235 92.6992 L305.865 92.6992  Z
  " fill="#ffffff" fill-rule="evenodd" fill-opacity="1"/>
<polyline clip-path="url(#clip450)" style="stroke:#000000; stroke-linecap:butt; stroke-linejoin:round; stroke-width:4; stroke-opacity:1; fill:none" points="
  305.865,248.219 970.235,248.219 970.235,92.6992 305.865,92.6992 305.865,248.219 
  "/>
<circle clip-path="url(#clip450)" cx="399.975" cy="144.539" r="23" fill="#009af9" fill-rule="evenodd" fill-opacity="1" stroke="#000000" stroke-opacity="1" stroke-width="5.12"/>
<path clip-path="url(#clip450)" d="M501.192 127.259 L505.867 127.259 L505.867 159.412 Q505.867 165.662 503.483 168.486 Q501.122 171.31 495.868 171.31 L494.085 171.31 L494.085 167.375 L495.543 167.375 Q498.645 167.375 499.918 165.639 Q501.192 163.903 501.192 159.412 L501.192 127.259 Z" fill="#000000" fill-rule="evenodd" fill-opacity="1" /><path clip-path="url(#clip450)" d="M537.164 147.791 L537.164 149.875 L517.58 149.875 Q517.858 154.273 520.219 156.588 Q522.603 158.879 526.84 158.879 Q529.293 158.879 531.585 158.278 Q533.9 157.676 536.168 156.472 L536.168 160.5 Q533.877 161.472 531.469 161.981 Q529.062 162.49 526.585 162.49 Q520.381 162.49 516.747 158.879 Q513.136 155.268 513.136 149.111 Q513.136 142.745 516.562 139.018 Q520.011 135.268 525.844 135.268 Q531.076 135.268 534.108 138.648 Q537.164 142.004 537.164 147.791 M532.904 146.541 Q532.858 143.046 530.937 140.963 Q529.039 138.879 525.89 138.879 Q522.326 138.879 520.173 140.893 Q518.043 142.907 517.719 146.565 L532.904 146.541 Z" fill="#000000" fill-rule="evenodd" fill-opacity="1" /><path clip-path="url(#clip450)" d="M561.214 139.829 L561.214 125.801 L565.474 125.801 L565.474 161.819 L561.214 161.819 L561.214 157.93 Q559.872 160.245 557.812 161.379 Q555.775 162.49 552.904 162.49 Q548.205 162.49 545.242 158.74 Q542.302 154.991 542.302 148.879 Q542.302 142.768 545.242 139.018 Q548.205 135.268 552.904 135.268 Q555.775 135.268 557.812 136.403 Q559.872 137.514 561.214 139.829 M546.701 148.879 Q546.701 153.578 548.622 156.264 Q550.566 158.926 553.946 158.926 Q557.326 158.926 559.27 156.264 Q561.214 153.578 561.214 148.879 Q561.214 144.18 559.27 141.518 Q557.326 138.833 553.946 138.833 Q550.566 138.833 548.622 141.518 Q546.701 144.18 546.701 148.879 Z" fill="#000000" fill-rule="evenodd" fill-opacity="1" /><path clip-path="url(#clip450)" d="M596.423 147.791 L596.423 149.875 L576.839 149.875 Q577.117 154.273 579.478 156.588 Q581.862 158.879 586.099 158.879 Q588.552 158.879 590.844 158.278 Q593.159 157.676 595.427 156.472 L595.427 160.5 Q593.136 161.472 590.728 161.981 Q588.321 162.49 585.844 162.49 Q579.64 162.49 576.006 158.879 Q572.395 155.268 572.395 149.111 Q572.395 142.745 575.821 139.018 Q579.27 135.268 585.103 135.268 Q590.335 135.268 593.367 138.648 Q596.423 142.004 596.423 147.791 M592.163 146.541 Q592.117 143.046 590.196 140.963 Q588.298 138.879 585.149 138.879 Q581.585 138.879 579.432 140.893 Q577.302 142.907 576.978 146.565 L592.163 146.541 Z" fill="#000000" fill-rule="evenodd" fill-opacity="1" /><path clip-path="url(#clip450)" d="M624.964 146.171 L624.964 161.819 L620.705 161.819 L620.705 146.31 Q620.705 142.629 619.27 140.801 Q617.834 138.972 614.964 138.972 Q611.515 138.972 609.524 141.171 Q607.534 143.37 607.534 147.166 L607.534 161.819 L603.251 161.819 L603.251 135.893 L607.534 135.893 L607.534 139.921 Q609.061 137.583 611.122 136.426 Q613.205 135.268 615.913 135.268 Q620.381 135.268 622.672 138.046 Q624.964 140.801 624.964 146.171 Z" fill="#000000" fill-rule="evenodd" fill-opacity="1" /><path clip-path="url(#clip450)" d="M661.654 125.801 L661.654 129.343 L657.58 129.343 Q655.288 129.343 654.385 130.268 Q653.506 131.194 653.506 133.602 L653.506 135.893 L660.519 135.893 L660.519 139.204 L653.506 139.204 L653.506 161.819 L649.223 161.819 L649.223 139.204 L645.149 139.204 L645.149 135.893 L649.223 135.893 L649.223 134.088 Q649.223 129.759 651.237 127.792 Q653.251 125.801 657.626 125.801 L661.654 125.801 Z" fill="#000000" fill-rule="evenodd" fill-opacity="1" /><path clip-path="url(#clip450)" d="M680.242 139.875 Q679.524 139.458 678.667 139.273 Q677.834 139.065 676.816 139.065 Q673.205 139.065 671.26 141.426 Q669.339 143.764 669.339 148.162 L669.339 161.819 L665.056 161.819 L665.056 135.893 L669.339 135.893 L669.339 139.921 Q670.681 137.56 672.834 136.426 Q674.987 135.268 678.066 135.268 Q678.505 135.268 679.038 135.338 Q679.57 135.384 680.218 135.5 L680.242 139.875 Z" fill="#000000" fill-rule="evenodd" fill-opacity="1" /><path clip-path="url(#clip450)" d="M696.491 148.787 Q691.329 148.787 689.339 149.967 Q687.348 151.148 687.348 153.995 Q687.348 156.264 688.829 157.606 Q690.334 158.926 692.903 158.926 Q696.445 158.926 698.575 156.426 Q700.728 153.903 700.728 149.736 L700.728 148.787 L696.491 148.787 M704.987 147.028 L704.987 161.819 L700.728 161.819 L700.728 157.884 Q699.269 160.245 697.093 161.379 Q694.917 162.49 691.769 162.49 Q687.788 162.49 685.427 160.268 Q683.089 158.023 683.089 154.273 Q683.089 149.898 686.005 147.676 Q688.945 145.454 694.755 145.454 L700.728 145.454 L700.728 145.037 Q700.728 142.097 698.783 140.5 Q696.862 138.879 693.366 138.879 Q691.144 138.879 689.038 139.412 Q686.931 139.944 684.987 141.009 L684.987 137.074 Q687.325 136.171 689.524 135.731 Q691.723 135.268 693.806 135.268 Q699.431 135.268 702.209 138.185 Q704.987 141.102 704.987 147.028 Z" fill="#000000" fill-rule="evenodd" fill-opacity="1" /><path clip-path="url(#clip450)" d="M730.82 148.555 Q730.82 143.926 728.899 141.379 Q727.001 138.833 723.551 138.833 Q720.126 138.833 718.204 141.379 Q716.306 143.926 716.306 148.555 Q716.306 153.162 718.204 155.708 Q720.126 158.254 723.551 158.254 Q727.001 158.254 728.899 155.708 Q730.82 153.162 730.82 148.555 M735.079 158.602 Q735.079 165.222 732.139 168.44 Q729.2 171.68 723.135 171.68 Q720.889 171.68 718.899 171.333 Q716.908 171.009 715.033 170.315 L715.033 166.171 Q716.908 167.19 718.737 167.676 Q720.565 168.162 722.464 168.162 Q726.653 168.162 728.737 165.963 Q730.82 163.787 730.82 159.365 L730.82 157.259 Q729.501 159.551 727.44 160.685 Q725.38 161.819 722.51 161.819 Q717.741 161.819 714.825 158.185 Q711.908 154.551 711.908 148.555 Q711.908 142.537 714.825 138.903 Q717.741 135.268 722.51 135.268 Q725.38 135.268 727.44 136.403 Q729.501 137.537 730.82 139.829 L730.82 135.893 L735.079 135.893 L735.079 158.602 Z" fill="#000000" fill-rule="evenodd" fill-opacity="1" /><path clip-path="url(#clip450)" d="M764.037 140.87 Q765.635 138 767.857 136.634 Q770.079 135.268 773.088 135.268 Q777.139 135.268 779.338 138.116 Q781.537 140.94 781.537 146.171 L781.537 161.819 L777.255 161.819 L777.255 146.31 Q777.255 142.583 775.935 140.778 Q774.616 138.972 771.908 138.972 Q768.598 138.972 766.676 141.171 Q764.755 143.37 764.755 147.166 L764.755 161.819 L760.473 161.819 L760.473 146.31 Q760.473 142.56 759.153 140.778 Q757.834 138.972 755.079 138.972 Q751.815 138.972 749.894 141.194 Q747.973 143.393 747.973 147.166 L747.973 161.819 L743.69 161.819 L743.69 135.893 L747.973 135.893 L747.973 139.921 Q749.431 137.537 751.468 136.403 Q753.505 135.268 756.306 135.268 Q759.13 135.268 761.098 136.704 Q763.088 138.139 764.037 140.87 Z" fill="#000000" fill-rule="evenodd" fill-opacity="1" /><path clip-path="url(#clip450)" d="M812.208 147.791 L812.208 149.875 L792.625 149.875 Q792.903 154.273 795.264 156.588 Q797.648 158.879 801.884 158.879 Q804.338 158.879 806.63 158.278 Q808.945 157.676 811.213 156.472 L811.213 160.5 Q808.921 161.472 806.514 161.981 Q804.107 162.49 801.63 162.49 Q795.426 162.49 791.792 158.879 Q788.181 155.268 788.181 149.111 Q788.181 142.745 791.607 139.018 Q795.056 135.268 800.889 135.268 Q806.12 135.268 809.153 138.648 Q812.208 142.004 812.208 147.791 M807.949 146.541 Q807.903 143.046 805.982 140.963 Q804.083 138.879 800.935 138.879 Q797.371 138.879 795.218 140.893 Q793.088 142.907 792.764 146.565 L807.949 146.541 Z" fill="#000000" fill-rule="evenodd" fill-opacity="1" /><path clip-path="url(#clip450)" d="M840.75 146.171 L840.75 161.819 L836.491 161.819 L836.491 146.31 Q836.491 142.629 835.056 140.801 Q833.62 138.972 830.75 138.972 Q827.301 138.972 825.31 141.171 Q823.319 143.37 823.319 147.166 L823.319 161.819 L819.037 161.819 L819.037 135.893 L823.319 135.893 L823.319 139.921 Q824.847 137.583 826.907 136.426 Q828.991 135.268 831.699 135.268 Q836.167 135.268 838.458 138.046 Q840.75 140.801 840.75 146.171 Z" fill="#000000" fill-rule="evenodd" fill-opacity="1" /><path clip-path="url(#clip450)" d="M853.458 128.532 L853.458 135.893 L862.231 135.893 L862.231 139.204 L853.458 139.204 L853.458 153.278 Q853.458 156.449 854.315 157.352 Q855.194 158.254 857.856 158.254 L862.231 158.254 L862.231 161.819 L857.856 161.819 Q852.926 161.819 851.051 159.99 Q849.176 158.139 849.176 153.278 L849.176 139.204 L846.051 139.204 L846.051 135.893 L849.176 135.893 L849.176 128.532 L853.458 128.532 Z" fill="#000000" fill-rule="evenodd" fill-opacity="1" /><circle clip-path="url(#clip450)" cx="399.975" cy="196.379" r="23" fill="#e26f46" fill-rule="evenodd" fill-opacity="1" stroke="#000000" stroke-opacity="1" stroke-width="5.12"/>
<path clip-path="url(#clip450)" d="M494.085 179.099 L498.807 179.099 L506.076 208.312 L513.321 179.099 L518.576 179.099 L525.844 208.312 L533.09 179.099 L537.835 179.099 L529.154 213.659 L523.275 213.659 L515.983 183.659 L508.622 213.659 L502.742 213.659 L494.085 179.099 Z" fill="#000000" fill-rule="evenodd" fill-opacity="1" /><path clip-path="url(#clip450)" d="M542.812 187.733 L547.071 187.733 L547.071 213.659 L542.812 213.659 L542.812 187.733 M542.812 177.641 L547.071 177.641 L547.071 183.034 L542.812 183.034 L542.812 177.641 Z" fill="#000000" fill-rule="evenodd" fill-opacity="1" /><path clip-path="url(#clip450)" d="M578.159 199.631 L578.159 201.715 L558.576 201.715 Q558.853 206.113 561.214 208.428 Q563.599 210.719 567.835 210.719 Q570.288 210.719 572.58 210.118 Q574.895 209.516 577.163 208.312 L577.163 212.34 Q574.872 213.312 572.464 213.821 Q570.057 214.33 567.58 214.33 Q561.376 214.33 557.742 210.719 Q554.131 207.108 554.131 200.951 Q554.131 194.585 557.557 190.858 Q561.006 187.108 566.839 187.108 Q572.071 187.108 575.103 190.488 Q578.159 193.844 578.159 199.631 M573.899 198.381 Q573.853 194.886 571.932 192.803 Q570.034 190.719 566.886 190.719 Q563.321 190.719 561.168 192.733 Q559.038 194.747 558.714 198.405 L573.899 198.381 Z" fill="#000000" fill-rule="evenodd" fill-opacity="1" /><path clip-path="url(#clip450)" d="M585.149 177.641 L589.409 177.641 L589.409 213.659 L585.149 213.659 L585.149 177.641 Z" fill="#000000" fill-rule="evenodd" fill-opacity="1" /><path clip-path="url(#clip450)" d="M620.496 199.631 L620.496 201.715 L600.913 201.715 Q601.191 206.113 603.552 208.428 Q605.936 210.719 610.172 210.719 Q612.626 210.719 614.918 210.118 Q617.233 209.516 619.501 208.312 L619.501 212.34 Q617.209 213.312 614.802 213.821 Q612.395 214.33 609.918 214.33 Q603.714 214.33 600.08 210.719 Q596.469 207.108 596.469 200.951 Q596.469 194.585 599.895 190.858 Q603.344 187.108 609.177 187.108 Q614.409 187.108 617.441 190.488 Q620.496 193.844 620.496 199.631 M616.237 198.381 Q616.191 194.886 614.27 192.803 Q612.372 190.719 609.223 190.719 Q605.659 190.719 603.506 192.733 Q601.376 194.747 601.052 198.405 L616.237 198.381 Z" fill="#000000" fill-rule="evenodd" fill-opacity="1" /><path clip-path="url(#clip450)" d="M655.681 177.641 L655.681 181.183 L651.607 181.183 Q649.316 181.183 648.413 182.108 Q647.533 183.034 647.533 185.442 L647.533 187.733 L654.547 187.733 L654.547 191.044 L647.533 191.044 L647.533 213.659 L643.251 213.659 L643.251 191.044 L639.177 191.044 L639.177 187.733 L643.251 187.733 L643.251 185.928 Q643.251 181.599 645.265 179.632 Q647.279 177.641 651.654 177.641 L655.681 177.641 Z" fill="#000000" fill-rule="evenodd" fill-opacity="1" /><path clip-path="url(#clip450)" d="M674.269 191.715 Q673.552 191.298 672.695 191.113 Q671.862 190.905 670.843 190.905 Q667.232 190.905 665.288 193.266 Q663.367 195.604 663.367 200.002 L663.367 213.659 L659.084 213.659 L659.084 187.733 L663.367 187.733 L663.367 191.761 Q664.709 189.4 666.862 188.266 Q669.015 187.108 672.093 187.108 Q672.533 187.108 673.066 187.178 Q673.598 187.224 674.246 187.34 L674.269 191.715 Z" fill="#000000" fill-rule="evenodd" fill-opacity="1" /><path clip-path="url(#clip450)" d="M690.519 200.627 Q685.357 200.627 683.367 201.807 Q681.376 202.988 681.376 205.835 Q681.376 208.104 682.857 209.446 Q684.362 210.766 686.931 210.766 Q690.473 210.766 692.603 208.266 Q694.755 205.743 694.755 201.576 L694.755 200.627 L690.519 200.627 M699.015 198.868 L699.015 213.659 L694.755 213.659 L694.755 209.724 Q693.297 212.085 691.121 213.219 Q688.945 214.33 685.797 214.33 Q681.816 214.33 679.454 212.108 Q677.117 209.863 677.117 206.113 Q677.117 201.738 680.033 199.516 Q682.973 197.294 688.783 197.294 L694.755 197.294 L694.755 196.877 Q694.755 193.937 692.811 192.34 Q690.89 190.719 687.394 190.719 Q685.172 190.719 683.066 191.252 Q680.959 191.784 679.015 192.849 L679.015 188.914 Q681.353 188.011 683.552 187.571 Q685.751 187.108 687.834 187.108 Q693.459 187.108 696.237 190.025 Q699.015 192.942 699.015 198.868 Z" fill="#000000" fill-rule="evenodd" fill-opacity="1" /><path clip-path="url(#clip450)" d="M724.848 200.395 Q724.848 195.766 722.926 193.219 Q721.028 190.673 717.579 190.673 Q714.153 190.673 712.232 193.219 Q710.334 195.766 710.334 200.395 Q710.334 205.002 712.232 207.548 Q714.153 210.094 717.579 210.094 Q721.028 210.094 722.926 207.548 Q724.848 205.002 724.848 200.395 M729.107 210.442 Q729.107 217.062 726.167 220.28 Q723.227 223.52 717.163 223.52 Q714.917 223.52 712.927 223.173 Q710.936 222.849 709.061 222.155 L709.061 218.011 Q710.936 219.03 712.764 219.516 Q714.593 220.002 716.491 220.002 Q720.681 220.002 722.764 217.803 Q724.848 215.627 724.848 211.205 L724.848 209.099 Q723.528 211.391 721.468 212.525 Q719.408 213.659 716.538 213.659 Q711.769 213.659 708.852 210.025 Q705.936 206.391 705.936 200.395 Q705.936 194.377 708.852 190.743 Q711.769 187.108 716.538 187.108 Q719.408 187.108 721.468 188.243 Q723.528 189.377 724.848 191.669 L724.848 187.733 L729.107 187.733 L729.107 210.442 Z" fill="#000000" fill-rule="evenodd" fill-opacity="1" /><path clip-path="url(#clip450)" d="M758.065 192.71 Q759.662 189.84 761.885 188.474 Q764.107 187.108 767.116 187.108 Q771.167 187.108 773.366 189.956 Q775.565 192.78 775.565 198.011 L775.565 213.659 L771.283 213.659 L771.283 198.15 Q771.283 194.423 769.963 192.618 Q768.644 190.812 765.936 190.812 Q762.625 190.812 760.704 193.011 Q758.783 195.21 758.783 199.006 L758.783 213.659 L754.5 213.659 L754.5 198.15 Q754.5 194.4 753.181 192.618 Q751.862 190.812 749.107 190.812 Q745.843 190.812 743.922 193.034 Q742 195.233 742 199.006 L742 213.659 L737.718 213.659 L737.718 187.733 L742 187.733 L742 191.761 Q743.459 189.377 745.496 188.243 Q747.533 187.108 750.334 187.108 Q753.158 187.108 755.125 188.544 Q757.116 189.979 758.065 192.71 Z" fill="#000000" fill-rule="evenodd" fill-opacity="1" /><path clip-path="url(#clip450)" d="M806.236 199.631 L806.236 201.715 L786.653 201.715 Q786.931 206.113 789.292 208.428 Q791.676 210.719 795.912 210.719 Q798.366 210.719 800.658 210.118 Q802.972 209.516 805.241 208.312 L805.241 212.34 Q802.949 213.312 800.542 213.821 Q798.134 214.33 795.658 214.33 Q789.454 214.33 785.82 210.719 Q782.209 207.108 782.209 200.951 Q782.209 194.585 785.634 190.858 Q789.084 187.108 794.917 187.108 Q800.148 187.108 803.181 190.488 Q806.236 193.844 806.236 199.631 M801.977 198.381 Q801.931 194.886 800.009 192.803 Q798.111 190.719 794.963 190.719 Q791.398 190.719 789.246 192.733 Q787.116 194.747 786.792 198.405 L801.977 198.381 Z" fill="#000000" fill-rule="evenodd" fill-opacity="1" /><path clip-path="url(#clip450)" d="M834.778 198.011 L834.778 213.659 L830.518 213.659 L830.518 198.15 Q830.518 194.469 829.083 192.641 Q827.648 190.812 824.778 190.812 Q821.329 190.812 819.338 193.011 Q817.347 195.21 817.347 199.006 L817.347 213.659 L813.065 213.659 L813.065 187.733 L817.347 187.733 L817.347 191.761 Q818.875 189.423 820.935 188.266 Q823.019 187.108 825.727 187.108 Q830.194 187.108 832.486 189.886 Q834.778 192.641 834.778 198.011 Z" fill="#000000" fill-rule="evenodd" fill-opacity="1" /><path clip-path="url(#clip450)" d="M847.486 180.372 L847.486 187.733 L856.259 187.733 L856.259 191.044 L847.486 191.044 L847.486 205.118 Q847.486 208.289 848.342 209.192 Q849.222 210.094 851.884 210.094 L856.259 210.094 L856.259 213.659 L851.884 213.659 Q846.954 213.659 845.079 211.83 Q843.204 209.979 843.204 205.118 L843.204 191.044 L840.079 191.044 L840.079 187.733 L843.204 187.733 L843.204 180.372 L847.486 180.372 Z" fill="#000000" fill-rule="evenodd" fill-opacity="1" /><path clip-path="url(#clip450)" d="M871.907 190.719 Q868.481 190.719 866.491 193.405 Q864.5 196.067 864.5 200.719 Q864.5 205.372 866.467 208.057 Q868.458 210.719 871.907 210.719 Q875.31 210.719 877.301 208.034 Q879.291 205.349 879.291 200.719 Q879.291 196.113 877.301 193.428 Q875.31 190.719 871.907 190.719 M871.907 187.108 Q877.463 187.108 880.634 190.719 Q883.805 194.331 883.805 200.719 Q883.805 207.085 880.634 210.719 Q877.463 214.33 871.907 214.33 Q866.328 214.33 863.157 210.719 Q860.009 207.085 860.009 200.719 Q860.009 194.331 863.157 190.719 Q866.328 187.108 871.907 187.108 M875.125 175.743 L879.731 175.743 L872.185 184.446 L868.643 184.446 L875.125 175.743 Z" fill="#000000" fill-rule="evenodd" fill-opacity="1" /><path clip-path="url(#clip450)" d="M888.389 187.733 L892.648 187.733 L897.972 207.965 L903.273 187.733 L908.296 187.733 L913.62 207.965 L918.921 187.733 L923.18 187.733 L916.398 213.659 L911.375 213.659 L905.796 192.409 L900.194 213.659 L895.171 213.659 L888.389 187.733 Z" fill="#000000" fill-rule="evenodd" fill-opacity="1" /></svg>
