<?xml version="1.0" encoding="utf-8"?>
<svg xmlns="http://www.w3.org/2000/svg" xmlns:xlink="http://www.w3.org/1999/xlink" width="600" height="400" viewBox="0 0 2400 1600">
<defs>
  <clipPath id="clip060">
    <rect x="0" y="0" width="2400" height="1600"/>
  </clipPath>
</defs>
<path clip-path="url(#clip060)" d="
M0 1600 L2400 1600 L2400 0 L0 0  Z
  " fill="#ffffff" fill-rule="evenodd" fill-opacity="1"/>
<defs>
  <clipPath id="clip061">
    <rect x="480" y="0" width="1681" height="1600"/>
  </clipPath>
</defs>
<path clip-path="url(#clip060)" d="
M249.542 1423.18 L2352.76 1423.18 L2352.76 47.2441 L249.542 47.2441  Z
  " fill="#ffffff" fill-rule="evenodd" fill-opacity="1"/>
<defs>
  <clipPath id="clip062">
    <rect x="249" y="47" width="2104" height="1377"/>
  </clipPath>
</defs>
<polyline clip-path="url(#clip062)" style="stroke:#000000; stroke-linecap:butt; stroke-linejoin:round; stroke-width:2; stroke-opacity:0.1; fill:none" points="
  309.067,1423.18 309.067,47.2441 
  "/>
<polyline clip-path="url(#clip062)" style="stroke:#000000; stroke-linecap:butt; stroke-linejoin:round; stroke-width:2; stroke-opacity:0.1; fill:none" points="
  805.108,1423.18 805.108,47.2441 
  "/>
<polyline clip-path="url(#clip062)" style="stroke:#000000; stroke-linecap:butt; stroke-linejoin:round; stroke-width:2; stroke-opacity:0.1; fill:none" points="
  1301.15,1423.18 1301.15,47.2441 
  "/>
<polyline clip-path="url(#clip062)" style="stroke:#000000; stroke-linecap:butt; stroke-linejoin:round; stroke-width:2; stroke-opacity:0.1; fill:none" points="
  1797.19,1423.18 1797.19,47.2441 
  "/>
<polyline clip-path="url(#clip062)" style="stroke:#000000; stroke-linecap:butt; stroke-linejoin:round; stroke-width:2; stroke-opacity:0.1; fill:none" points="
  2293.23,1423.18 2293.23,47.2441 
  "/>
<polyline clip-path="url(#clip060)" style="stroke:#000000; stroke-linecap:butt; stroke-linejoin:round; stroke-width:4; stroke-opacity:1; fill:none" points="
  249.542,1423.18 2352.76,1423.18 
  "/>
<polyline clip-path="url(#clip060)" style="stroke:#000000; stroke-linecap:butt; stroke-linejoin:round; stroke-width:4; stroke-opacity:1; fill:none" points="
  309.067,1423.18 309.067,1404.28 
  "/>
<polyline clip-path="url(#clip060)" style="stroke:#000000; stroke-linecap:butt; stroke-linejoin:round; stroke-width:4; stroke-opacity:1; fill:none" points="
  805.108,1423.18 805.108,1404.28 
  "/>
<polyline clip-path="url(#clip060)" style="stroke:#000000; stroke-linecap:butt; stroke-linejoin:round; stroke-width:4; stroke-opacity:1; fill:none" points="
  1301.15,1423.18 1301.15,1404.28 
  "/>
<polyline clip-path="url(#clip060)" style="stroke:#000000; stroke-linecap:butt; stroke-linejoin:round; stroke-width:4; stroke-opacity:1; fill:none" points="
  1797.19,1423.18 1797.19,1404.28 
  "/>
<polyline clip-path="url(#clip060)" style="stroke:#000000; stroke-linecap:butt; stroke-linejoin:round; stroke-width:4; stroke-opacity:1; fill:none" points="
  2293.23,1423.18 2293.23,1404.28 
  "/>
<path clip-path="url(#clip060)" d="M256.289 1454.1 Q252.678 1454.1 250.85 1457.66 Q249.044 1461.2 249.044 1468.33 Q249.044 1475.44 250.85 1479.01 Q252.678 1482.55 256.289 1482.55 Q259.924 1482.55 261.729 1479.01 Q263.558 1475.44 263.558 1468.33 Q263.558 1461.2 261.729 1457.66 Q259.924 1454.1 256.289 1454.1 M256.289 1450.39 Q262.1 1450.39 265.155 1455 Q268.234 1459.58 268.234 1468.33 Q268.234 1477.06 265.155 1481.67 Q262.1 1486.25 256.289 1486.25 Q250.479 1486.25 247.401 1481.67 Q244.345 1477.06 244.345 1468.33 Q244.345 1459.58 247.401 1455 Q250.479 1450.39 256.289 1450.39 Z" fill="#000000" fill-rule="evenodd" fill-opacity="1" /><path clip-path="url(#clip060)" d="M276.451 1479.7 L281.336 1479.7 L281.336 1485.58 L276.451 1485.58 L276.451 1479.7 Z" fill="#000000" fill-rule="evenodd" fill-opacity="1" /><path clip-path="url(#clip060)" d="M291.66 1484.86 L291.66 1480.6 Q293.419 1481.44 295.224 1481.88 Q297.03 1482.32 298.766 1482.32 Q303.396 1482.32 305.826 1479.21 Q308.28 1476.09 308.627 1469.75 Q307.285 1471.74 305.224 1472.8 Q303.164 1473.87 300.664 1473.87 Q295.479 1473.87 292.447 1470.74 Q289.437 1467.59 289.437 1462.15 Q289.437 1456.83 292.586 1453.61 Q295.734 1450.39 300.965 1450.39 Q306.96 1450.39 310.109 1455 Q313.28 1459.58 313.28 1468.33 Q313.28 1476.51 309.391 1481.39 Q305.525 1486.25 298.974 1486.25 Q297.215 1486.25 295.41 1485.9 Q293.604 1485.56 291.66 1484.86 M300.965 1470.21 Q304.113 1470.21 305.942 1468.06 Q307.794 1465.9 307.794 1462.15 Q307.794 1458.43 305.942 1456.27 Q304.113 1454.1 300.965 1454.1 Q297.817 1454.1 295.965 1456.27 Q294.136 1458.43 294.136 1462.15 Q294.136 1465.9 295.965 1468.06 Q297.817 1470.21 300.965 1470.21 Z" fill="#000000" fill-rule="evenodd" fill-opacity="1" /><path clip-path="url(#clip060)" d="M331.683 1454.1 Q328.071 1454.1 326.243 1457.66 Q324.437 1461.2 324.437 1468.33 Q324.437 1475.44 326.243 1479.01 Q328.071 1482.55 331.683 1482.55 Q335.317 1482.55 337.122 1479.01 Q338.951 1475.44 338.951 1468.33 Q338.951 1461.2 337.122 1457.66 Q335.317 1454.1 331.683 1454.1 M331.683 1450.39 Q337.493 1450.39 340.548 1455 Q343.627 1459.58 343.627 1468.33 Q343.627 1477.06 340.548 1481.67 Q337.493 1486.25 331.683 1486.25 Q325.872 1486.25 322.794 1481.67 Q319.738 1477.06 319.738 1468.33 Q319.738 1459.58 322.794 1455 Q325.872 1450.39 331.683 1450.39 Z" fill="#000000" fill-rule="evenodd" fill-opacity="1" /><path clip-path="url(#clip060)" d="M361.844 1454.1 Q358.233 1454.1 356.405 1457.66 Q354.599 1461.2 354.599 1468.33 Q354.599 1475.44 356.405 1479.01 Q358.233 1482.55 361.844 1482.55 Q365.479 1482.55 367.284 1479.01 Q369.113 1475.44 369.113 1468.33 Q369.113 1461.2 367.284 1457.66 Q365.479 1454.1 361.844 1454.1 M361.844 1450.39 Q367.655 1450.39 370.71 1455 Q373.789 1459.58 373.789 1468.33 Q373.789 1477.06 370.71 1481.67 Q367.655 1486.25 361.844 1486.25 Q356.034 1486.25 352.956 1481.67 Q349.9 1477.06 349.9 1468.33 Q349.9 1459.58 352.956 1455 Q356.034 1450.39 361.844 1450.39 Z" fill="#000000" fill-rule="evenodd" fill-opacity="1" /><path clip-path="url(#clip060)" d="M752.828 1454.1 Q749.217 1454.1 747.388 1457.66 Q745.583 1461.2 745.583 1468.33 Q745.583 1475.44 747.388 1479.01 Q749.217 1482.55 752.828 1482.55 Q756.462 1482.55 758.268 1479.01 Q760.097 1475.44 760.097 1468.33 Q760.097 1461.2 758.268 1457.66 Q756.462 1454.1 752.828 1454.1 M752.828 1450.39 Q758.638 1450.39 761.694 1455 Q764.773 1459.58 764.773 1468.33 Q764.773 1477.06 761.694 1481.67 Q758.638 1486.25 752.828 1486.25 Q747.018 1486.25 743.939 1481.67 Q740.884 1477.06 740.884 1468.33 Q740.884 1459.58 743.939 1455 Q747.018 1450.39 752.828 1450.39 Z" fill="#000000" fill-rule="evenodd" fill-opacity="1" /><path clip-path="url(#clip060)" d="M772.99 1479.7 L777.874 1479.7 L777.874 1485.58 L772.99 1485.58 L772.99 1479.7 Z" fill="#000000" fill-rule="evenodd" fill-opacity="1" /><path clip-path="url(#clip060)" d="M788.198 1484.86 L788.198 1480.6 Q789.958 1481.44 791.763 1481.88 Q793.569 1482.32 795.305 1482.32 Q799.934 1482.32 802.365 1479.21 Q804.819 1476.09 805.166 1469.75 Q803.823 1471.74 801.763 1472.8 Q799.703 1473.87 797.203 1473.87 Q792.018 1473.87 788.985 1470.74 Q785.976 1467.59 785.976 1462.15 Q785.976 1456.83 789.124 1453.61 Q792.272 1450.39 797.504 1450.39 Q803.499 1450.39 806.647 1455 Q809.819 1459.58 809.819 1468.33 Q809.819 1476.51 805.93 1481.39 Q802.064 1486.25 795.513 1486.25 Q793.754 1486.25 791.948 1485.9 Q790.143 1485.56 788.198 1484.86 M797.504 1470.21 Q800.652 1470.21 802.481 1468.06 Q804.333 1465.9 804.333 1462.15 Q804.333 1458.43 802.481 1456.27 Q800.652 1454.1 797.504 1454.1 Q794.356 1454.1 792.504 1456.27 Q790.675 1458.43 790.675 1462.15 Q790.675 1465.9 792.504 1468.06 Q794.356 1470.21 797.504 1470.21 Z" fill="#000000" fill-rule="evenodd" fill-opacity="1" /><path clip-path="url(#clip060)" d="M822.249 1481.64 L838.568 1481.64 L838.568 1485.58 L816.624 1485.58 L816.624 1481.64 Q819.286 1478.89 823.869 1474.26 Q828.476 1469.61 829.656 1468.27 Q831.902 1465.74 832.781 1464.01 Q833.684 1462.25 833.684 1460.56 Q833.684 1457.8 831.74 1456.07 Q829.818 1454.33 826.717 1454.33 Q824.518 1454.33 822.064 1455.09 Q819.633 1455.86 816.856 1457.41 L816.856 1452.69 Q819.68 1451.55 822.133 1450.97 Q824.587 1450.39 826.624 1450.39 Q831.994 1450.39 835.189 1453.08 Q838.383 1455.77 838.383 1460.26 Q838.383 1462.39 837.573 1464.31 Q836.786 1466.2 834.68 1468.8 Q834.101 1469.47 830.999 1472.69 Q827.897 1475.88 822.249 1481.64 Z" fill="#000000" fill-rule="evenodd" fill-opacity="1" /><path clip-path="url(#clip060)" d="M848.429 1451.02 L866.786 1451.02 L866.786 1454.96 L852.712 1454.96 L852.712 1463.43 Q853.73 1463.08 854.749 1462.92 Q855.767 1462.73 856.786 1462.73 Q862.573 1462.73 865.953 1465.9 Q869.332 1469.08 869.332 1474.49 Q869.332 1480.07 865.86 1483.17 Q862.388 1486.25 856.068 1486.25 Q853.892 1486.25 851.624 1485.88 Q849.379 1485.51 846.971 1484.77 L846.971 1480.07 Q849.054 1481.2 851.277 1481.76 Q853.499 1482.32 855.976 1482.32 Q859.98 1482.32 862.318 1480.21 Q864.656 1478.1 864.656 1474.49 Q864.656 1470.88 862.318 1468.77 Q859.98 1466.67 855.976 1466.67 Q854.101 1466.67 852.226 1467.08 Q850.374 1467.5 848.429 1468.38 L848.429 1451.02 Z" fill="#000000" fill-rule="evenodd" fill-opacity="1" /><path clip-path="url(#clip060)" d="M1248.37 1454.1 Q1244.76 1454.1 1242.93 1457.66 Q1241.13 1461.2 1241.13 1468.33 Q1241.13 1475.44 1242.93 1479.01 Q1244.76 1482.55 1248.37 1482.55 Q1252.01 1482.55 1253.81 1479.01 Q1255.64 1475.44 1255.64 1468.33 Q1255.64 1461.2 1253.81 1457.66 Q1252.01 1454.1 1248.37 1454.1 M1248.37 1450.39 Q1254.18 1450.39 1257.24 1455 Q1260.32 1459.58 1260.32 1468.33 Q1260.32 1477.06 1257.24 1481.67 Q1254.18 1486.25 1248.37 1486.25 Q1242.56 1486.25 1239.48 1481.67 Q1236.43 1477.06 1236.43 1468.33 Q1236.43 1459.58 1239.48 1455 Q1242.56 1450.39 1248.37 1450.39 Z" fill="#000000" fill-rule="evenodd" fill-opacity="1" /><path clip-path="url(#clip060)" d="M1268.53 1479.7 L1273.42 1479.7 L1273.42 1485.58 L1268.53 1485.58 L1268.53 1479.7 Z" fill="#000000" fill-rule="evenodd" fill-opacity="1" /><path clip-path="url(#clip060)" d="M1283.74 1484.86 L1283.74 1480.6 Q1285.5 1481.44 1287.31 1481.88 Q1289.11 1482.32 1290.85 1482.32 Q1295.48 1482.32 1297.91 1479.21 Q1300.36 1476.09 1300.71 1469.75 Q1299.37 1471.74 1297.31 1472.8 Q1295.25 1473.87 1292.75 1473.87 Q1287.56 1473.87 1284.53 1470.74 Q1281.52 1467.59 1281.52 1462.15 Q1281.52 1456.83 1284.67 1453.61 Q1287.82 1450.39 1293.05 1450.39 Q1299.04 1450.39 1302.19 1455 Q1305.36 1459.58 1305.36 1468.33 Q1305.36 1476.51 1301.47 1481.39 Q1297.61 1486.25 1291.06 1486.25 Q1289.3 1486.25 1287.49 1485.9 Q1285.69 1485.56 1283.74 1484.86 M1293.05 1470.21 Q1296.2 1470.21 1298.02 1468.06 Q1299.88 1465.9 1299.88 1462.15 Q1299.88 1458.43 1298.02 1456.27 Q1296.2 1454.1 1293.05 1454.1 Q1289.9 1454.1 1288.05 1456.27 Q1286.22 1458.43 1286.22 1462.15 Q1286.22 1465.9 1288.05 1468.06 Q1289.9 1470.21 1293.05 1470.21 Z" fill="#000000" fill-rule="evenodd" fill-opacity="1" /><path clip-path="url(#clip060)" d="M1313.81 1451.02 L1332.17 1451.02 L1332.17 1454.96 L1318.09 1454.96 L1318.09 1463.43 Q1319.11 1463.08 1320.13 1462.92 Q1321.15 1462.73 1322.17 1462.73 Q1327.95 1462.73 1331.33 1465.9 Q1334.71 1469.08 1334.71 1474.49 Q1334.71 1480.07 1331.24 1483.17 Q1327.77 1486.25 1321.45 1486.25 Q1319.27 1486.25 1317.01 1485.88 Q1314.76 1485.51 1312.35 1484.77 L1312.35 1480.07 Q1314.44 1481.2 1316.66 1481.76 Q1318.88 1482.32 1321.36 1482.32 Q1325.36 1482.32 1327.7 1480.21 Q1330.04 1478.1 1330.04 1474.49 Q1330.04 1470.88 1327.7 1468.77 Q1325.36 1466.67 1321.36 1466.67 Q1319.48 1466.67 1317.61 1467.08 Q1315.76 1467.5 1313.81 1468.38 L1313.81 1451.02 Z" fill="#000000" fill-rule="evenodd" fill-opacity="1" /><path clip-path="url(#clip060)" d="M1353.93 1454.1 Q1350.32 1454.1 1348.49 1457.66 Q1346.68 1461.2 1346.68 1468.33 Q1346.68 1475.44 1348.49 1479.01 Q1350.32 1482.55 1353.93 1482.55 Q1357.56 1482.55 1359.37 1479.01 Q1361.19 1475.44 1361.19 1468.33 Q1361.19 1461.2 1359.37 1457.66 Q1357.56 1454.1 1353.93 1454.1 M1353.93 1450.39 Q1359.74 1450.39 1362.79 1455 Q1365.87 1459.58 1365.87 1468.33 Q1365.87 1477.06 1362.79 1481.67 Q1359.74 1486.25 1353.93 1486.25 Q1348.12 1486.25 1345.04 1481.67 Q1341.98 1477.06 1341.98 1468.33 Q1341.98 1459.58 1345.04 1455 Q1348.12 1450.39 1353.93 1450.39 Z" fill="#000000" fill-rule="evenodd" fill-opacity="1" /><path clip-path="url(#clip060)" d="M1744.91 1454.1 Q1741.3 1454.1 1739.47 1457.66 Q1737.66 1461.2 1737.66 1468.33 Q1737.66 1475.44 1739.47 1479.01 Q1741.3 1482.55 1744.91 1482.55 Q1748.54 1482.55 1750.35 1479.01 Q1752.18 1475.44 1752.18 1468.33 Q1752.18 1461.2 1750.35 1457.66 Q1748.54 1454.1 1744.91 1454.1 M1744.91 1450.39 Q1750.72 1450.39 1753.78 1455 Q1756.85 1459.58 1756.85 1468.33 Q1756.85 1477.06 1753.78 1481.67 Q1750.72 1486.25 1744.91 1486.25 Q1739.1 1486.25 1736.02 1481.67 Q1732.97 1477.06 1732.97 1468.33 Q1732.97 1459.58 1736.02 1455 Q1739.1 1450.39 1744.91 1450.39 Z" fill="#000000" fill-rule="evenodd" fill-opacity="1" /><path clip-path="url(#clip060)" d="M1765.07 1479.7 L1769.96 1479.7 L1769.96 1485.58 L1765.07 1485.58 L1765.07 1479.7 Z" fill="#000000" fill-rule="evenodd" fill-opacity="1" /><path clip-path="url(#clip060)" d="M1780.28 1484.86 L1780.28 1480.6 Q1782.04 1481.44 1783.85 1481.88 Q1785.65 1482.32 1787.39 1482.32 Q1792.02 1482.32 1794.45 1479.21 Q1796.9 1476.09 1797.25 1469.75 Q1795.91 1471.74 1793.85 1472.8 Q1791.78 1473.87 1789.28 1473.87 Q1784.1 1473.87 1781.07 1470.74 Q1778.06 1467.59 1778.06 1462.15 Q1778.06 1456.83 1781.21 1453.61 Q1784.35 1450.39 1789.59 1450.39 Q1795.58 1450.39 1798.73 1455 Q1801.9 1459.58 1801.9 1468.33 Q1801.9 1476.51 1798.01 1481.39 Q1794.15 1486.25 1787.6 1486.25 Q1785.84 1486.25 1784.03 1485.9 Q1782.22 1485.56 1780.28 1484.86 M1789.59 1470.21 Q1792.73 1470.21 1794.56 1468.06 Q1796.41 1465.9 1796.41 1462.15 Q1796.41 1458.43 1794.56 1456.27 Q1792.73 1454.1 1789.59 1454.1 Q1786.44 1454.1 1784.59 1456.27 Q1782.76 1458.43 1782.76 1462.15 Q1782.76 1465.9 1784.59 1468.06 Q1786.44 1470.21 1789.59 1470.21 Z" fill="#000000" fill-rule="evenodd" fill-opacity="1" /><path clip-path="url(#clip060)" d="M1809.12 1451.02 L1831.34 1451.02 L1831.34 1453.01 L1818.8 1485.58 L1813.91 1485.58 L1825.72 1454.96 L1809.12 1454.96 L1809.12 1451.02 Z" fill="#000000" fill-rule="evenodd" fill-opacity="1" /><path clip-path="url(#clip060)" d="M1840.51 1451.02 L1858.87 1451.02 L1858.87 1454.96 L1844.79 1454.96 L1844.79 1463.43 Q1845.81 1463.08 1846.83 1462.92 Q1847.85 1462.73 1848.87 1462.73 Q1854.65 1462.73 1858.03 1465.9 Q1861.41 1469.08 1861.41 1474.49 Q1861.41 1480.07 1857.94 1483.17 Q1854.47 1486.25 1848.15 1486.25 Q1845.97 1486.25 1843.71 1485.88 Q1841.46 1485.51 1839.05 1484.77 L1839.05 1480.07 Q1841.14 1481.2 1843.36 1481.76 Q1845.58 1482.32 1848.06 1482.32 Q1852.06 1482.32 1854.4 1480.21 Q1856.74 1478.1 1856.74 1474.49 Q1856.74 1470.88 1854.4 1468.77 Q1852.06 1466.67 1848.06 1466.67 Q1846.18 1466.67 1844.31 1467.08 Q1842.46 1467.5 1840.51 1468.38 L1840.51 1451.02 Z" fill="#000000" fill-rule="evenodd" fill-opacity="1" /><path clip-path="url(#clip060)" d="M2230.22 1481.64 L2237.86 1481.64 L2237.86 1455.28 L2229.55 1456.95 L2229.55 1452.69 L2237.81 1451.02 L2242.49 1451.02 L2242.49 1481.64 L2250.13 1481.64 L2250.13 1485.58 L2230.22 1485.58 L2230.22 1481.64 Z" fill="#000000" fill-rule="evenodd" fill-opacity="1" /><path clip-path="url(#clip060)" d="M2259.57 1479.7 L2264.46 1479.7 L2264.46 1485.58 L2259.57 1485.58 L2259.57 1479.7 Z" fill="#000000" fill-rule="evenodd" fill-opacity="1" /><path clip-path="url(#clip060)" d="M2284.64 1454.1 Q2281.03 1454.1 2279.2 1457.66 Q2277.4 1461.2 2277.4 1468.33 Q2277.4 1475.44 2279.2 1479.01 Q2281.03 1482.55 2284.64 1482.55 Q2288.28 1482.55 2290.08 1479.01 Q2291.91 1475.44 2291.91 1468.33 Q2291.91 1461.2 2290.08 1457.66 Q2288.28 1454.1 2284.64 1454.1 M2284.64 1450.39 Q2290.45 1450.39 2293.51 1455 Q2296.59 1459.58 2296.59 1468.33 Q2296.59 1477.06 2293.51 1481.67 Q2290.45 1486.25 2284.64 1486.25 Q2278.83 1486.25 2275.75 1481.67 Q2272.7 1477.06 2272.7 1468.33 Q2272.7 1459.58 2275.75 1455 Q2278.83 1450.39 2284.64 1450.39 Z" fill="#000000" fill-rule="evenodd" fill-opacity="1" /><path clip-path="url(#clip060)" d="M2314.8 1454.1 Q2311.19 1454.1 2309.37 1457.66 Q2307.56 1461.2 2307.56 1468.33 Q2307.56 1475.44 2309.37 1479.01 Q2311.19 1482.55 2314.8 1482.55 Q2318.44 1482.55 2320.24 1479.01 Q2322.07 1475.44 2322.07 1468.33 Q2322.07 1461.2 2320.24 1457.66 Q2318.44 1454.1 2314.8 1454.1 M2314.8 1450.39 Q2320.62 1450.39 2323.67 1455 Q2326.75 1459.58 2326.75 1468.33 Q2326.75 1477.06 2323.67 1481.67 Q2320.62 1486.25 2314.8 1486.25 Q2308.99 1486.25 2305.92 1481.67 Q2302.86 1477.06 2302.86 1468.33 Q2302.86 1459.58 2305.92 1455 Q2308.99 1450.39 2314.8 1450.39 Z" fill="#000000" fill-rule="evenodd" fill-opacity="1" /><path clip-path="url(#clip060)" d="M2344.97 1454.1 Q2341.36 1454.1 2339.53 1457.66 Q2337.72 1461.2 2337.72 1468.33 Q2337.72 1475.44 2339.53 1479.01 Q2341.36 1482.55 2344.97 1482.55 Q2348.6 1482.55 2350.41 1479.01 Q2352.24 1475.44 2352.24 1468.33 Q2352.24 1461.2 2350.41 1457.66 Q2348.6 1454.1 2344.97 1454.1 M2344.97 1450.39 Q2350.78 1450.39 2353.83 1455 Q2356.91 1459.58 2356.91 1468.33 Q2356.91 1477.06 2353.83 1481.67 Q2350.78 1486.25 2344.97 1486.25 Q2339.16 1486.25 2336.08 1481.67 Q2333.02 1477.06 2333.02 1468.33 Q2333.02 1459.58 2336.08 1455 Q2339.16 1450.39 2344.97 1450.39 Z" fill="#000000" fill-rule="evenodd" fill-opacity="1" /><path clip-path="url(#clip060)" d="M1291.09 1562.7 L1291.09 1581.6 L1285.2 1581.6 L1285.2 1532.4 L1291.09 1532.4 L1291.09 1537.81 Q1292.94 1534.62 1295.74 1533.1 Q1298.57 1531.54 1302.49 1531.54 Q1308.98 1531.54 1313.02 1536.69 Q1317.1 1541.85 1317.1 1550.25 Q1317.1 1558.65 1313.02 1563.81 Q1308.98 1568.97 1302.49 1568.97 Q1298.57 1568.97 1295.74 1567.44 Q1292.94 1565.88 1291.09 1562.7 M1311.02 1550.25 Q1311.02 1543.79 1308.34 1540.13 Q1305.7 1536.44 1301.05 1536.44 Q1296.41 1536.44 1293.73 1540.13 Q1291.09 1543.79 1291.09 1550.25 Q1291.09 1556.71 1293.73 1560.4 Q1296.41 1564.07 1301.05 1564.07 Q1305.7 1564.07 1308.34 1560.4 Q1311.02 1556.71 1311.02 1550.25 Z" fill="#000000" fill-rule="evenodd" fill-opacity="1" /><polyline clip-path="url(#clip062)" style="stroke:#000000; stroke-linecap:butt; stroke-linejoin:round; stroke-width:2; stroke-opacity:0.1; fill:none" points="
  249.542,1384.24 2352.76,1384.24 
  "/>
<polyline clip-path="url(#clip062)" style="stroke:#000000; stroke-linecap:butt; stroke-linejoin:round; stroke-width:2; stroke-opacity:0.1; fill:none" points="
  249.542,1059.73 2352.76,1059.73 
  "/>
<polyline clip-path="url(#clip062)" style="stroke:#000000; stroke-linecap:butt; stroke-linejoin:round; stroke-width:2; stroke-opacity:0.1; fill:none" points="
  249.542,735.212 2352.76,735.212 
  "/>
<polyline clip-path="url(#clip062)" style="stroke:#000000; stroke-linecap:butt; stroke-linejoin:round; stroke-width:2; stroke-opacity:0.1; fill:none" points="
  249.542,410.699 2352.76,410.699 
  "/>
<polyline clip-path="url(#clip062)" style="stroke:#000000; stroke-linecap:butt; stroke-linejoin:round; stroke-width:2; stroke-opacity:0.1; fill:none" points="
  249.542,86.1857 2352.76,86.1857 
  "/>
<polyline clip-path="url(#clip060)" style="stroke:#000000; stroke-linecap:butt; stroke-linejoin:round; stroke-width:4; stroke-opacity:1; fill:none" points="
  249.542,1423.18 249.542,47.2441 
  "/>
<polyline clip-path="url(#clip060)" style="stroke:#000000; stroke-linecap:butt; stroke-linejoin:round; stroke-width:4; stroke-opacity:1; fill:none" points="
  249.542,1384.24 268.44,1384.24 
  "/>
<polyline clip-path="url(#clip060)" style="stroke:#000000; stroke-linecap:butt; stroke-linejoin:round; stroke-width:4; stroke-opacity:1; fill:none" points="
  249.542,1059.73 268.44,1059.73 
  "/>
<polyline clip-path="url(#clip060)" style="stroke:#000000; stroke-linecap:butt; stroke-linejoin:round; stroke-width:4; stroke-opacity:1; fill:none" points="
  249.542,735.212 268.44,735.212 
  "/>
<polyline clip-path="url(#clip060)" style="stroke:#000000; stroke-linecap:butt; stroke-linejoin:round; stroke-width:4; stroke-opacity:1; fill:none" points="
  249.542,410.699 268.44,410.699 
  "/>
<polyline clip-path="url(#clip060)" style="stroke:#000000; stroke-linecap:butt; stroke-linejoin:round; stroke-width:4; stroke-opacity:1; fill:none" points="
  249.542,86.1857 268.44,86.1857 
  "/>
<path clip-path="url(#clip060)" d="M126.205 1370.04 Q122.593 1370.04 120.765 1373.6 Q118.959 1377.14 118.959 1384.27 Q118.959 1391.38 120.765 1394.94 Q122.593 1398.49 126.205 1398.49 Q129.839 1398.49 131.644 1394.94 Q133.473 1391.38 133.473 1384.27 Q133.473 1377.14 131.644 1373.6 Q129.839 1370.04 126.205 1370.04 M126.205 1366.33 Q132.015 1366.33 135.07 1370.94 Q138.149 1375.52 138.149 1384.27 Q138.149 1393 135.07 1397.61 Q132.015 1402.19 126.205 1402.19 Q120.394 1402.19 117.316 1397.61 Q114.26 1393 114.26 1384.27 Q114.26 1375.52 117.316 1370.94 Q120.394 1366.33 126.205 1366.33 Z" fill="#000000" fill-rule="evenodd" fill-opacity="1" /><path clip-path="url(#clip060)" d="M146.366 1395.64 L151.251 1395.64 L151.251 1401.52 L146.366 1401.52 L146.366 1395.64 Z" fill="#000000" fill-rule="evenodd" fill-opacity="1" /><path clip-path="url(#clip060)" d="M171.436 1370.04 Q167.825 1370.04 165.996 1373.6 Q164.19 1377.14 164.19 1384.27 Q164.19 1391.38 165.996 1394.94 Q167.825 1398.49 171.436 1398.49 Q175.07 1398.49 176.876 1394.94 Q178.704 1391.38 178.704 1384.27 Q178.704 1377.14 176.876 1373.6 Q175.07 1370.04 171.436 1370.04 M171.436 1366.33 Q177.246 1366.33 180.301 1370.94 Q183.38 1375.52 183.38 1384.27 Q183.38 1393 180.301 1397.61 Q177.246 1402.19 171.436 1402.19 Q165.626 1402.19 162.547 1397.61 Q159.491 1393 159.491 1384.27 Q159.491 1375.52 162.547 1370.94 Q165.626 1366.33 171.436 1366.33 Z" fill="#000000" fill-rule="evenodd" fill-opacity="1" /><path clip-path="url(#clip060)" d="M201.598 1370.04 Q197.987 1370.04 196.158 1373.6 Q194.352 1377.14 194.352 1384.27 Q194.352 1391.38 196.158 1394.94 Q197.987 1398.49 201.598 1398.49 Q205.232 1398.49 207.037 1394.94 Q208.866 1391.38 208.866 1384.27 Q208.866 1377.14 207.037 1373.6 Q205.232 1370.04 201.598 1370.04 M201.598 1366.33 Q207.408 1366.33 210.463 1370.94 Q213.542 1375.52 213.542 1384.27 Q213.542 1393 210.463 1397.61 Q207.408 1402.19 201.598 1402.19 Q195.787 1402.19 192.709 1397.61 Q189.653 1393 189.653 1384.27 Q189.653 1375.52 192.709 1370.94 Q195.787 1366.33 201.598 1366.33 Z" fill="#000000" fill-rule="evenodd" fill-opacity="1" /><path clip-path="url(#clip060)" d="M127.2 1045.52 Q123.589 1045.52 121.76 1049.09 Q119.955 1052.63 119.955 1059.76 Q119.955 1066.87 121.76 1070.43 Q123.589 1073.97 127.2 1073.97 Q130.834 1073.97 132.64 1070.43 Q134.468 1066.87 134.468 1059.76 Q134.468 1052.63 132.64 1049.09 Q130.834 1045.52 127.2 1045.52 M127.2 1041.82 Q133.01 1041.82 136.066 1046.43 Q139.144 1051.01 139.144 1059.76 Q139.144 1068.49 136.066 1073.09 Q133.01 1077.68 127.2 1077.68 Q121.39 1077.68 118.311 1073.09 Q115.256 1068.49 115.256 1059.76 Q115.256 1051.01 118.311 1046.43 Q121.39 1041.82 127.2 1041.82 Z" fill="#000000" fill-rule="evenodd" fill-opacity="1" /><path clip-path="url(#clip060)" d="M147.362 1071.13 L152.246 1071.13 L152.246 1077.01 L147.362 1077.01 L147.362 1071.13 Z" fill="#000000" fill-rule="evenodd" fill-opacity="1" /><path clip-path="url(#clip060)" d="M166.459 1073.07 L182.778 1073.07 L182.778 1077.01 L160.834 1077.01 L160.834 1073.07 Q163.496 1070.32 168.079 1065.69 Q172.686 1061.03 173.866 1059.69 Q176.112 1057.17 176.991 1055.43 Q177.894 1053.67 177.894 1051.98 Q177.894 1049.23 175.95 1047.49 Q174.028 1045.76 170.927 1045.76 Q168.727 1045.76 166.274 1046.52 Q163.843 1047.28 161.065 1048.83 L161.065 1044.11 Q163.89 1042.98 166.343 1042.4 Q168.797 1041.82 170.834 1041.82 Q176.204 1041.82 179.399 1044.51 Q182.593 1047.19 182.593 1051.68 Q182.593 1053.81 181.783 1055.73 Q180.996 1057.63 178.889 1060.22 Q178.311 1060.89 175.209 1064.11 Q172.107 1067.31 166.459 1073.07 Z" fill="#000000" fill-rule="evenodd" fill-opacity="1" /><path clip-path="url(#clip060)" d="M192.639 1042.45 L210.996 1042.45 L210.996 1046.38 L196.922 1046.38 L196.922 1054.85 Q197.94 1054.51 198.959 1054.34 Q199.977 1054.16 200.996 1054.16 Q206.783 1054.16 210.162 1057.33 Q213.542 1060.5 213.542 1065.92 Q213.542 1071.5 210.07 1074.6 Q206.598 1077.68 200.278 1077.68 Q198.102 1077.68 195.834 1077.31 Q193.588 1076.94 191.181 1076.19 L191.181 1071.5 Q193.264 1072.63 195.487 1073.19 Q197.709 1073.74 200.186 1073.74 Q204.19 1073.74 206.528 1071.63 Q208.866 1069.53 208.866 1065.92 Q208.866 1062.31 206.528 1060.2 Q204.19 1058.09 200.186 1058.09 Q198.311 1058.09 196.436 1058.51 Q194.584 1058.93 192.639 1059.81 L192.639 1042.45 Z" fill="#000000" fill-rule="evenodd" fill-opacity="1" /><path clip-path="url(#clip060)" d="M126.205 721.011 Q122.593 721.011 120.765 724.575 Q118.959 728.117 118.959 735.247 Q118.959 742.353 120.765 745.918 Q122.593 749.46 126.205 749.46 Q129.839 749.46 131.644 745.918 Q133.473 742.353 133.473 735.247 Q133.473 728.117 131.644 724.575 Q129.839 721.011 126.205 721.011 M126.205 717.307 Q132.015 717.307 135.07 721.913 Q138.149 726.497 138.149 735.247 Q138.149 743.973 135.07 748.58 Q132.015 753.163 126.205 753.163 Q120.394 753.163 117.316 748.58 Q114.26 743.973 114.26 735.247 Q114.26 726.497 117.316 721.913 Q120.394 717.307 126.205 717.307 Z" fill="#000000" fill-rule="evenodd" fill-opacity="1" /><path clip-path="url(#clip060)" d="M146.366 746.612 L151.251 746.612 L151.251 752.492 L146.366 752.492 L146.366 746.612 Z" fill="#000000" fill-rule="evenodd" fill-opacity="1" /><path clip-path="url(#clip060)" d="M161.482 717.932 L179.839 717.932 L179.839 721.867 L165.765 721.867 L165.765 730.339 Q166.783 729.992 167.802 729.83 Q168.82 729.645 169.839 729.645 Q175.626 729.645 179.005 732.816 Q182.385 735.987 182.385 741.404 Q182.385 746.983 178.913 750.085 Q175.44 753.163 169.121 753.163 Q166.945 753.163 164.677 752.793 Q162.431 752.423 160.024 751.682 L160.024 746.983 Q162.107 748.117 164.329 748.673 Q166.552 749.228 169.028 749.228 Q173.033 749.228 175.371 747.122 Q177.709 745.015 177.709 741.404 Q177.709 737.793 175.371 735.687 Q173.033 733.58 169.028 733.58 Q167.153 733.58 165.278 733.997 Q163.427 734.413 161.482 735.293 L161.482 717.932 Z" fill="#000000" fill-rule="evenodd" fill-opacity="1" /><path clip-path="url(#clip060)" d="M201.598 721.011 Q197.987 721.011 196.158 724.575 Q194.352 728.117 194.352 735.247 Q194.352 742.353 196.158 745.918 Q197.987 749.46 201.598 749.46 Q205.232 749.46 207.037 745.918 Q208.866 742.353 208.866 735.247 Q208.866 728.117 207.037 724.575 Q205.232 721.011 201.598 721.011 M201.598 717.307 Q207.408 717.307 210.463 721.913 Q213.542 726.497 213.542 735.247 Q213.542 743.973 210.463 748.58 Q207.408 753.163 201.598 753.163 Q195.787 753.163 192.709 748.58 Q189.653 743.973 189.653 735.247 Q189.653 726.497 192.709 721.913 Q195.787 717.307 201.598 717.307 Z" fill="#000000" fill-rule="evenodd" fill-opacity="1" /><path clip-path="url(#clip060)" d="M127.2 396.498 Q123.589 396.498 121.76 400.062 Q119.955 403.604 119.955 410.734 Q119.955 417.84 121.76 421.405 Q123.589 424.946 127.2 424.946 Q130.834 424.946 132.64 421.405 Q134.468 417.84 134.468 410.734 Q134.468 403.604 132.64 400.062 Q130.834 396.498 127.2 396.498 M127.2 392.794 Q133.01 392.794 136.066 397.4 Q139.144 401.984 139.144 410.734 Q139.144 419.46 136.066 424.067 Q133.01 428.65 127.2 428.65 Q121.39 428.65 118.311 424.067 Q115.256 419.46 115.256 410.734 Q115.256 401.984 118.311 397.4 Q121.39 392.794 127.2 392.794 Z" fill="#000000" fill-rule="evenodd" fill-opacity="1" /><path clip-path="url(#clip060)" d="M147.362 422.099 L152.246 422.099 L152.246 427.979 L147.362 427.979 L147.362 422.099 Z" fill="#000000" fill-rule="evenodd" fill-opacity="1" /><path clip-path="url(#clip060)" d="M161.251 393.419 L183.473 393.419 L183.473 395.41 L170.927 427.979 L166.042 427.979 L177.848 397.354 L161.251 397.354 L161.251 393.419 Z" fill="#000000" fill-rule="evenodd" fill-opacity="1" /><path clip-path="url(#clip060)" d="M192.639 393.419 L210.996 393.419 L210.996 397.354 L196.922 397.354 L196.922 405.826 Q197.94 405.479 198.959 405.317 Q199.977 405.132 200.996 405.132 Q206.783 405.132 210.162 408.303 Q213.542 411.474 213.542 416.891 Q213.542 422.47 210.07 425.571 Q206.598 428.65 200.278 428.65 Q198.102 428.65 195.834 428.28 Q193.588 427.909 191.181 427.169 L191.181 422.47 Q193.264 423.604 195.487 424.159 Q197.709 424.715 200.186 424.715 Q204.19 424.715 206.528 422.608 Q208.866 420.502 208.866 416.891 Q208.866 413.28 206.528 411.173 Q204.19 409.067 200.186 409.067 Q198.311 409.067 196.436 409.484 Q194.584 409.9 192.639 410.78 L192.639 393.419 Z" fill="#000000" fill-rule="evenodd" fill-opacity="1" /><path clip-path="url(#clip060)" d="M117.015 99.5305 L124.654 99.5305 L124.654 73.1649 L116.343 74.8316 L116.343 70.5723 L124.607 68.9057 L129.283 68.9057 L129.283 99.5305 L136.922 99.5305 L136.922 103.466 L117.015 103.466 L117.015 99.5305 Z" fill="#000000" fill-rule="evenodd" fill-opacity="1" /><path clip-path="url(#clip060)" d="M146.366 97.5861 L151.251 97.5861 L151.251 103.466 L146.366 103.466 L146.366 97.5861 Z" fill="#000000" fill-rule="evenodd" fill-opacity="1" /><path clip-path="url(#clip060)" d="M171.436 71.9844 Q167.825 71.9844 165.996 75.5492 Q164.19 79.0908 164.19 86.2204 Q164.19 93.3268 165.996 96.8916 Q167.825 100.433 171.436 100.433 Q175.07 100.433 176.876 96.8916 Q178.704 93.3268 178.704 86.2204 Q178.704 79.0908 176.876 75.5492 Q175.07 71.9844 171.436 71.9844 M171.436 68.2807 Q177.246 68.2807 180.301 72.8871 Q183.38 77.4704 183.38 86.2204 Q183.38 94.9472 180.301 99.5537 Q177.246 104.137 171.436 104.137 Q165.626 104.137 162.547 99.5537 Q159.491 94.9472 159.491 86.2204 Q159.491 77.4704 162.547 72.8871 Q165.626 68.2807 171.436 68.2807 Z" fill="#000000" fill-rule="evenodd" fill-opacity="1" /><path clip-path="url(#clip060)" d="M201.598 71.9844 Q197.987 71.9844 196.158 75.5492 Q194.352 79.0908 194.352 86.2204 Q194.352 93.3268 196.158 96.8916 Q197.987 100.433 201.598 100.433 Q205.232 100.433 207.037 96.8916 Q208.866 93.3268 208.866 86.2204 Q208.866 79.0908 207.037 75.5492 Q205.232 71.9844 201.598 71.9844 M201.598 68.2807 Q207.408 68.2807 210.463 72.8871 Q213.542 77.4704 213.542 86.2204 Q213.542 94.9472 210.463 99.5537 Q207.408 104.137 201.598 104.137 Q195.787 104.137 192.709 99.5537 Q189.653 94.9472 189.653 86.2204 Q189.653 77.4704 192.709 72.8871 Q195.787 68.2807 201.598 68.2807 Z" fill="#000000" fill-rule="evenodd" fill-opacity="1" /><path clip-path="url(#clip060)" d="M21.7677 1071.61 L39.6235 1071.61 L39.6235 1063.52 Q39.6235 1059.04 37.3 1056.58 Q34.9765 1054.13 30.6797 1054.13 Q26.4147 1054.13 24.0912 1056.58 Q21.7677 1059.04 21.7677 1063.52 L21.7677 1071.61 M16.4842 1078.04 L16.4842 1063.52 Q16.4842 1055.53 20.1126 1051.46 Q23.7092 1047.35 30.6797 1047.35 Q37.7138 1047.35 41.3104 1051.46 Q44.907 1055.53 44.907 1063.52 L44.907 1071.61 L64.0042 1071.61 L64.0042 1078.04 L16.4842 1078.04 Z" fill="#000000" fill-rule="evenodd" fill-opacity="1" /><path clip-path="url(#clip060)" d="M33.8307 1019.47 Q33.2578 1020.46 33.0032 1021.64 Q32.7167 1022.78 32.7167 1024.18 Q32.7167 1029.15 35.9632 1031.82 Q39.1779 1034.46 45.2253 1034.46 L64.0042 1034.46 L64.0042 1040.35 L28.3562 1040.35 L28.3562 1034.46 L33.8944 1034.46 Q30.6479 1032.62 29.0883 1029.66 Q27.4968 1026.7 27.4968 1022.46 Q27.4968 1021.86 27.5923 1021.13 Q27.656 1020.4 27.8151 1019.5 L33.8307 1019.47 Z" fill="#000000" fill-rule="evenodd" fill-opacity="1" /><path clip-path="url(#clip060)" d="M46.0847 997.129 Q46.0847 1004.23 47.7079 1006.96 Q49.3312 1009.7 53.2461 1009.7 Q56.3653 1009.7 58.2114 1007.66 Q60.0256 1005.6 60.0256 1002.06 Q60.0256 997.193 56.5881 994.264 Q53.1188 991.304 47.3897 991.304 L46.0847 991.304 L46.0847 997.129 M43.6657 985.448 L64.0042 985.448 L64.0042 991.304 L58.5933 991.304 Q61.8398 993.31 63.3994 996.301 Q64.9272 999.293 64.9272 1003.62 Q64.9272 1009.1 61.8716 1012.34 Q58.7843 1015.56 53.6281 1015.56 Q47.6125 1015.56 44.5569 1011.55 Q41.5014 1007.51 41.5014 999.516 L41.5014 991.304 L40.9285 991.304 Q36.8862 991.304 34.6901 993.978 Q32.4621 996.62 32.4621 1001.43 Q32.4621 1004.48 33.1941 1007.38 Q33.9262 1010.27 35.3903 1012.95 L29.9795 1012.95 Q28.7381 1009.73 28.1334 1006.71 Q27.4968 1003.69 27.4968 1000.82 Q27.4968 993.087 31.5072 989.267 Q35.5176 985.448 43.6657 985.448 Z" fill="#000000" fill-rule="evenodd" fill-opacity="1" /><path clip-path="url(#clip060)" d="M28.3562 976.791 L28.3562 970.934 L56.1743 963.614 L28.3562 956.325 L28.3562 949.418 L56.1743 942.097 L28.3562 934.809 L28.3562 928.952 L64.0042 938.278 L64.0042 945.185 L34.7856 952.855 L64.0042 960.558 L64.0042 967.465 L28.3562 976.791 Z" fill="#000000" fill-rule="evenodd" fill-opacity="1" /><path clip-path="url(#clip060)" d="M33.7671 896.614 L14.479 896.614 L14.479 890.758 L64.0042 890.758 L64.0042 896.614 L58.657 896.614 Q61.8398 898.461 63.3994 901.293 Q64.9272 904.094 64.9272 908.041 Q64.9272 914.502 59.771 918.576 Q54.6147 922.618 46.212 922.618 Q37.8093 922.618 32.6531 918.576 Q27.4968 914.502 27.4968 908.041 Q27.4968 904.094 29.0564 901.293 Q30.5842 898.461 33.7671 896.614 M46.212 916.571 Q52.6732 916.571 56.3653 913.929 Q60.0256 911.256 60.0256 906.609 Q60.0256 901.962 56.3653 899.288 Q52.6732 896.614 46.212 896.614 Q39.7508 896.614 36.0905 899.288 Q32.3984 901.962 32.3984 906.609 Q32.3984 911.256 36.0905 913.929 Q39.7508 916.571 46.212 916.571 Z" fill="#000000" fill-rule="evenodd" fill-opacity="1" /><path clip-path="url(#clip060)" d="M32.4621 864.881 Q32.4621 869.592 36.1542 872.329 Q39.8145 875.067 46.212 875.067 Q52.6095 875.067 56.3017 872.361 Q59.9619 869.624 59.9619 864.881 Q59.9619 860.203 56.2698 857.465 Q52.5777 854.728 46.212 854.728 Q39.8781 854.728 36.186 857.465 Q32.4621 860.203 32.4621 864.881 M27.4968 864.881 Q27.4968 857.243 32.4621 852.882 Q37.4273 848.522 46.212 848.522 Q54.9649 848.522 59.9619 852.882 Q64.9272 857.243 64.9272 864.881 Q64.9272 872.552 59.9619 876.913 Q54.9649 881.241 46.212 881.241 Q37.4273 881.241 32.4621 876.913 Q27.4968 872.552 27.4968 864.881 Z" fill="#000000" fill-rule="evenodd" fill-opacity="1" /><path clip-path="url(#clip060)" d="M58.657 833.148 L77.5631 833.148 L77.5631 839.037 L28.3562 839.037 L28.3562 833.148 L33.7671 833.148 Q30.5842 831.302 29.0564 828.501 Q27.4968 825.669 27.4968 821.754 Q27.4968 815.261 32.6531 811.219 Q37.8093 807.144 46.212 807.144 Q54.6147 807.144 59.771 811.219 Q64.9272 815.261 64.9272 821.754 Q64.9272 825.669 63.3994 828.501 Q61.8398 831.302 58.657 833.148 M46.212 813.224 Q39.7508 813.224 36.0905 815.897 Q32.3984 818.539 32.3984 823.186 Q32.3984 827.833 36.0905 830.507 Q39.7508 833.148 46.212 833.148 Q52.6732 833.148 56.3653 830.507 Q60.0256 827.833 60.0256 823.186 Q60.0256 818.539 56.3653 815.897 Q52.6732 813.224 46.212 813.224 Z" fill="#000000" fill-rule="evenodd" fill-opacity="1" /><path clip-path="url(#clip060)" d="M32.4621 783.623 Q32.4621 788.334 36.1542 791.071 Q39.8145 793.808 46.212 793.808 Q52.6095 793.808 56.3017 791.103 Q59.9619 788.366 59.9619 783.623 Q59.9619 778.944 56.2698 776.207 Q52.5777 773.47 46.212 773.47 Q39.8781 773.47 36.186 776.207 Q32.4621 778.944 32.4621 783.623 M27.4968 783.623 Q27.4968 775.984 32.4621 771.624 Q37.4273 767.263 46.212 767.263 Q54.9649 767.263 59.9619 771.624 Q64.9272 775.984 64.9272 783.623 Q64.9272 791.294 59.9619 795.654 Q54.9649 799.983 46.212 799.983 Q37.4273 799.983 32.4621 795.654 Q27.4968 791.294 27.4968 783.623 Z" fill="#000000" fill-rule="evenodd" fill-opacity="1" /><path clip-path="url(#clip060)" d="M33.7671 734.098 L14.479 734.098 L14.479 728.242 L64.0042 728.242 L64.0042 734.098 L58.657 734.098 Q61.8398 735.944 63.3994 738.777 Q64.9272 741.578 64.9272 745.524 Q64.9272 751.986 59.771 756.06 Q54.6147 760.102 46.212 760.102 Q37.8093 760.102 32.6531 756.06 Q27.4968 751.986 27.4968 745.524 Q27.4968 741.578 29.0564 738.777 Q30.5842 735.944 33.7671 734.098 M46.212 754.054 Q52.6732 754.054 56.3653 751.413 Q60.0256 748.739 60.0256 744.092 Q60.0256 739.445 56.3653 736.772 Q52.6732 734.098 46.212 734.098 Q39.7508 734.098 36.0905 736.772 Q32.3984 739.445 32.3984 744.092 Q32.3984 748.739 36.0905 751.413 Q39.7508 754.054 46.212 754.054 Z" fill="#000000" fill-rule="evenodd" fill-opacity="1" /><path clip-path="url(#clip060)" d="M32.4621 702.365 Q32.4621 707.076 36.1542 709.813 Q39.8145 712.55 46.212 712.55 Q52.6095 712.55 56.3017 709.845 Q59.9619 707.107 59.9619 702.365 Q59.9619 697.686 56.2698 694.949 Q52.5777 692.212 46.212 692.212 Q39.8781 692.212 36.186 694.949 Q32.4621 697.686 32.4621 702.365 M27.4968 702.365 Q27.4968 694.726 32.4621 690.366 Q37.4273 686.005 46.212 686.005 Q54.9649 686.005 59.9619 690.366 Q64.9272 694.726 64.9272 702.365 Q64.9272 710.036 59.9619 714.396 Q54.9649 718.725 46.212 718.725 Q37.4273 718.725 32.4621 714.396 Q27.4968 710.036 27.4968 702.365 Z" fill="#000000" fill-rule="evenodd" fill-opacity="1" /><path clip-path="url(#clip060)" d="M46.212 650.707 Q39.7508 650.707 36.0905 653.381 Q32.3984 656.023 32.3984 660.67 Q32.3984 665.317 36.0905 667.99 Q39.7508 670.632 46.212 670.632 Q52.6732 670.632 56.3653 667.99 Q60.0256 665.317 60.0256 660.67 Q60.0256 656.023 56.3653 653.381 Q52.6732 650.707 46.212 650.707 M33.7671 670.632 Q30.5842 668.786 29.0564 665.985 Q27.4968 663.152 27.4968 659.237 Q27.4968 652.744 32.6531 648.702 Q37.8093 644.628 46.212 644.628 Q54.6147 644.628 59.771 648.702 Q64.9272 652.744 64.9272 659.237 Q64.9272 663.152 63.3994 665.985 Q61.8398 668.786 58.657 670.632 L64.0042 670.632 L64.0042 676.52 L14.479 676.52 L14.479 670.632 L33.7671 670.632 Z" fill="#000000" fill-rule="evenodd" fill-opacity="1" /><path clip-path="url(#clip060)" d="M28.3562 634.92 L28.3562 629.064 L64.0042 629.064 L64.0042 634.92 L28.3562 634.92 M14.479 634.92 L14.479 629.064 L21.895 629.064 L21.895 634.92 L14.479 634.92 Z" fill="#000000" fill-rule="evenodd" fill-opacity="1" /><path clip-path="url(#clip060)" d="M44.7161 586.318 L47.5806 586.318 L47.5806 613.245 Q53.6281 612.863 56.8109 609.617 Q59.9619 606.338 59.9619 600.514 Q59.9619 597.14 59.1344 593.989 Q58.3069 590.806 56.6518 587.687 L62.1899 587.687 Q63.5267 590.838 64.227 594.148 Q64.9272 597.458 64.9272 600.864 Q64.9272 609.394 59.9619 614.391 Q54.9967 619.356 46.5303 619.356 Q37.7774 619.356 32.6531 614.645 Q27.4968 609.903 27.4968 601.882 Q27.4968 594.689 32.1438 590.519 Q36.7589 586.318 44.7161 586.318 M42.9973 592.175 Q38.1912 592.238 35.3266 594.88 Q32.4621 597.49 32.4621 601.819 Q32.4621 606.72 35.2312 609.68 Q38.0002 612.608 43.0292 613.054 L42.9973 592.175 Z" fill="#000000" fill-rule="evenodd" fill-opacity="1" /><path clip-path="url(#clip060)" d="M11.6462 560.028 L11.6462 553.694 L23.6137 564.07 L23.6137 568.94 L11.6462 560.028 M42.4881 547.074 L64.0042 547.074 L64.0042 552.93 L42.679 552.93 Q37.6183 552.93 35.1038 554.903 Q32.5894 556.877 32.5894 560.823 Q32.5894 565.566 35.6131 568.303 Q38.6368 571.04 43.8567 571.04 L64.0042 571.04 L64.0042 576.929 L28.3562 576.929 L28.3562 571.04 L33.8944 571.04 Q30.6797 568.94 29.0883 566.107 Q27.4968 563.242 27.4968 559.518 Q27.4968 553.376 31.3163 550.225 Q35.1038 547.074 42.4881 547.074 Z" fill="#000000" fill-rule="evenodd" fill-opacity="1" /><path clip-path="url(#clip060)" d="M29.4065 512.667 L34.9447 512.667 Q33.6716 515.149 33.035 517.823 Q32.3984 520.497 32.3984 523.361 Q32.3984 527.722 33.7352 529.918 Q35.072 532.082 37.7456 532.082 Q39.7826 532.082 40.9603 530.523 Q42.1061 528.963 43.1565 524.252 L43.6021 522.247 Q44.9389 516.009 47.3897 513.399 Q49.8086 510.757 54.1691 510.757 Q59.1344 510.757 62.0308 514.704 Q64.9272 518.619 64.9272 525.494 Q64.9272 528.358 64.3543 531.478 Q63.8132 534.565 62.6992 538.002 L56.6518 538.002 Q58.3387 534.756 59.198 531.605 Q60.0256 528.454 60.0256 525.366 Q60.0256 521.229 58.6251 519.001 Q57.1929 516.773 54.6147 516.773 Q52.2276 516.773 50.9545 518.396 Q49.6813 519.987 48.5037 525.43 L48.0262 527.467 Q46.8804 532.91 44.5251 535.329 Q42.138 537.748 38.0002 537.748 Q32.9713 537.748 30.2341 534.183 Q27.4968 530.618 27.4968 524.061 Q27.4968 520.815 27.9743 517.95 Q28.4517 515.086 29.4065 512.667 Z" fill="#000000" fill-rule="evenodd" fill-opacity="1" /><path clip-path="url(#clip060)" d="M18.2347 495.639 L28.3562 495.639 L28.3562 483.576 L32.9077 483.576 L32.9077 495.639 L52.2594 495.639 Q56.6199 495.639 57.8613 494.461 Q59.1026 493.251 59.1026 489.591 L59.1026 483.576 L64.0042 483.576 L64.0042 489.591 Q64.0042 496.371 61.4897 498.949 Q58.9434 501.527 52.2594 501.527 L32.9077 501.527 L32.9077 505.824 L28.3562 505.824 L28.3562 501.527 L18.2347 501.527 L18.2347 495.639 Z" fill="#000000" fill-rule="evenodd" fill-opacity="1" /><path clip-path="url(#clip060)" d="M28.3562 479.279 L28.3562 473.422 L56.1743 466.102 L28.3562 458.813 L28.3562 451.906 L56.1743 444.586 L28.3562 437.297 L28.3562 431.44 L64.0042 440.766 L64.0042 447.673 L34.7856 455.344 L64.0042 463.046 L64.0042 469.953 L28.3562 479.279 Z" fill="#000000" fill-rule="evenodd" fill-opacity="1" /><path clip-path="url(#clip060)" d="M32.4621 408.747 Q32.4621 413.457 36.1542 416.195 Q39.8145 418.932 46.212 418.932 Q52.6095 418.932 56.3017 416.226 Q59.9619 413.489 59.9619 408.747 Q59.9619 404.068 56.2698 401.331 Q52.5777 398.593 46.212 398.593 Q39.8781 398.593 36.186 401.331 Q32.4621 404.068 32.4621 408.747 M27.4968 408.747 Q27.4968 401.108 32.4621 396.747 Q37.4273 392.387 46.212 392.387 Q54.9649 392.387 59.9619 396.747 Q64.9272 401.108 64.9272 408.747 Q64.9272 416.417 59.9619 420.778 Q54.9649 425.107 46.212 425.107 Q37.4273 425.107 32.4621 420.778 Q27.4968 416.417 27.4968 408.747 Z" fill="#000000" fill-rule="evenodd" fill-opacity="1" /><path clip-path="url(#clip062)" d="
M309.067 1290.78 L408.275 1298.57 L507.483 1258.33 L606.692 1275.2 L705.9 1240.15 L805.108 1218.09 L904.316 1194.72 L1003.52 1157.08 L1102.73 1131.12 L1201.94 1118.14 
  L1301.15 1058.43 L1400.36 988.332 L1499.57 933.814 L1598.77 876.7 L1697.98 780.644 L1797.19 700.165 L1896.4 610.599 L1995.61 508.053 L2094.81 348.392 L2194.02 218.587 
  L2293.23 86.1857 L2293.23 1384.24 L2194.02 1384.24 L2094.81 1384.24 L1995.61 1384.24 L1896.4 1384.24 L1797.19 1384.24 L1697.98 1384.24 L1598.77 1384.24 L1499.57 1384.24 
  L1400.36 1384.24 L1301.15 1384.24 L1201.94 1384.24 L1102.73 1384.24 L1003.52 1384.24 L904.316 1384.24 L805.108 1384.24 L705.9 1384.24 L606.692 1384.24 L507.483 1384.24 
  L408.275 1384.24 L309.067 1384.24 L309.067 1290.78  Z
  " fill="#009af9" fill-rule="evenodd" fill-opacity="1"/>
<polyline clip-path="url(#clip062)" style="stroke:#000000; stroke-linecap:butt; stroke-linejoin:round; stroke-width:4; stroke-opacity:1; fill:none" points="
  309.067,1290.78 408.275,1298.57 507.483,1258.33 606.692,1275.2 705.9,1240.15 805.108,1218.09 904.316,1194.72 1003.52,1157.08 1102.73,1131.12 1201.94,1118.14 
  1301.15,1058.43 1400.36,988.332 1499.57,933.814 1598.77,876.7 1697.98,780.644 1797.19,700.165 1896.4,610.599 1995.61,508.053 2094.81,348.392 2194.02,218.587 
  2293.23,86.1857 2293.23,1384.24 2194.02,1384.24 2094.81,1384.24 1995.61,1384.24 1896.4,1384.24 1797.19,1384.24 1697.98,1384.24 1598.77,1384.24 1499.57,1384.24 
  1400.36,1384.24 1301.15,1384.24 1201.94,1384.24 1102.73,1384.24 1003.52,1384.24 904.316,1384.24 805.108,1384.24 705.9,1384.24 606.692,1384.24 507.483,1384.24 
  408.275,1384.24 309.067,1384.24 309.067,1290.78 
  "/>
<path clip-path="url(#clip062)" d="
M309.067 373.055 L408.275 423.679 L507.483 395.122 L606.692 408.103 L705.9 374.353 L805.108 421.083 L904.316 401.612 L1003.52 363.969 L1102.73 391.228 L1201.94 389.93 
  L1301.15 383.44 L1400.36 396.42 L1499.57 380.844 L1598.77 334.114 L1697.98 357.479 L1797.19 328.922 L1896.4 286.086 L1995.61 252.336 L2094.81 199.116 L2194.02 139.406 
  L2293.23 86.1857 L2293.23 86.1857 L2194.02 218.587 L2094.81 348.392 L1995.61 508.053 L1896.4 610.599 L1797.19 700.165 L1697.98 780.644 L1598.77 876.7 L1499.57 933.814 
  L1400.36 988.332 L1301.15 1058.43 L1201.94 1118.14 L1102.73 1131.12 L1003.52 1157.08 L904.316 1194.72 L805.108 1218.09 L705.9 1240.15 L606.692 1275.2 L507.483 1258.33 
  L408.275 1298.57 L309.067 1290.78 L309.067 373.055  Z
  " fill="#e26f46" fill-rule="evenodd" fill-opacity="1"/>
<polyline clip-path="url(#clip062)" style="stroke:#000000; stroke-linecap:butt; stroke-linejoin:round; stroke-width:4; stroke-opacity:1; fill:none" points="
  309.067,373.055 408.275,423.679 507.483,395.122 606.692,408.103 705.9,374.353 805.108,421.083 904.316,401.612 1003.52,363.969 1102.73,391.228 1201.94,389.93 
  1301.15,383.44 1400.36,396.42 1499.57,380.844 1598.77,334.114 1697.98,357.479 1797.19,328.922 1896.4,286.086 1995.61,252.336 2094.81,199.116 2194.02,139.406 
  2293.23,86.1857 2194.02,218.587 2094.81,348.392 1995.61,508.053 1896.4,610.599 1797.19,700.165 1697.98,780.644 1598.77,876.7 1499.57,933.814 
  1400.36,988.332 1301.15,1058.43 1201.94,1118.14 1102.73,1131.12 1003.52,1157.08 904.316,1194.72 805.108,1218.09 705.9,1240.15 606.692,1275.2 507.483,1258.33 
  408.275,1298.57 309.067,1290.78 309.067,373.055 
  "/>
<path clip-path="url(#clip062)" d="
M309.067 217.289 L408.275 265.317 L507.483 205.607 L606.692 217.289 L705.9 164.069 L805.108 199.116 L904.316 161.473 L1003.52 162.771 L1102.73 143.3 L1201.94 123.829 
  L1301.15 117.339 L1400.36 116.041 L1499.57 113.445 L1598.77 96.5701 L1697.98 101.762 L1797.19 99.1662 L1896.4 91.3779 L1995.61 92.6759 L2094.81 86.1857 L2194.02 86.1857 
  L2293.23 86.1857 L2293.23 86.1857 L2194.02 139.406 L2094.81 199.116 L1995.61 252.336 L1896.4 286.086 L1797.19 328.922 L1697.98 357.479 L1598.77 334.114 L1499.57 380.844 
  L1400.36 396.42 L1301.15 383.44 L1201.94 389.93 L1102.73 391.228 L1003.52 363.969 L904.316 401.612 L805.108 421.083 L705.9 374.353 L606.692 408.103 L507.483 395.122 
  L408.275 423.679 L309.067 373.055 L309.067 217.289  Z
  " fill="#3da44d" fill-rule="evenodd" fill-opacity="1"/>
<polyline clip-path="url(#clip062)" style="stroke:#000000; stroke-linecap:butt; stroke-linejoin:round; stroke-width:4; stroke-opacity:1; fill:none" points="
  309.067,217.289 408.275,265.317 507.483,205.607 606.692,217.289 705.9,164.069 805.108,199.116 904.316,161.473 1003.52,162.771 1102.73,143.3 1201.94,123.829 
  1301.15,117.339 1400.36,116.041 1499.57,113.445 1598.77,96.5701 1697.98,101.762 1797.19,99.1662 1896.4,91.3779 1995.61,92.6759 2094.81,86.1857 2194.02,86.1857 
  2293.23,86.1857 2194.02,139.406 2094.81,199.116 1995.61,252.336 1896.4,286.086 1797.19,328.922 1697.98,357.479 1598.77,334.114 1499.57,380.844 
  1400.36,396.42 1301.15,383.44 1201.94,389.93 1102.73,391.228 1003.52,363.969 904.316,401.612 805.108,421.083 705.9,374.353 606.692,408.103 507.483,395.122 
  408.275,423.679 309.067,373.055 309.067,217.289 
  "/>
<path clip-path="url(#clip062)" d="
M309.067 86.1857 L408.275 86.1857 L507.483 86.1857 L606.692 86.1857 L705.9 86.1857 L805.108 86.1857 L904.316 86.1857 L1003.52 86.1857 L1102.73 86.1857 L1201.94 86.1857 
  L1301.15 86.1857 L1400.36 86.1857 L1499.57 86.1857 L1598.77 86.1857 L1697.98 86.1857 L1797.19 86.1857 L1896.4 86.1857 L1995.61 86.1857 L2094.81 86.1857 L2194.02 86.1857 
  L2293.23 86.1857 L2293.23 86.1857 L2194.02 86.1857 L2094.81 86.1857 L1995.61 92.6759 L1896.4 91.3779 L1797.19 99.1662 L1697.98 101.762 L1598.77 96.5701 L1499.57 113.445 
  L1400.36 116.041 L1301.15 117.339 L1201.94 123.829 L1102.73 143.3 L1003.52 162.771 L904.316 161.473 L805.108 199.116 L705.9 164.069 L606.692 217.289 L507.483 205.607 
  L408.275 265.317 L309.067 217.289 L309.067 86.1857  Z
  " fill="#c271d2" fill-rule="evenodd" fill-opacity="1"/>
<polyline clip-path="url(#clip062)" style="stroke:#000000; stroke-linecap:butt; stroke-linejoin:round; stroke-width:4; stroke-opacity:1; fill:none" points="
  309.067,86.1857 408.275,86.1857 507.483,86.1857 606.692,86.1857 705.9,86.1857 805.108,86.1857 904.316,86.1857 1003.52,86.1857 1102.73,86.1857 1201.94,86.1857 
  1301.15,86.1857 1400.36,86.1857 1499.57,86.1857 1598.77,86.1857 1697.98,86.1857 1797.19,86.1857 1896.4,86.1857 1995.61,86.1857 2094.81,86.1857 2194.02,86.1857 
  2293.23,86.1857 2194.02,86.1857 2094.81,86.1857 1995.61,92.6759 1896.4,91.3779 1797.19,99.1662 1697.98,101.762 1598.77,96.5701 1499.57,113.445 
  1400.36,116.041 1301.15,117.339 1201.94,123.829 1102.73,143.3 1003.52,162.771 904.316,161.473 805.108,199.116 705.9,164.069 606.692,217.289 507.483,205.607 
  408.275,265.317 309.067,217.289 309.067,86.1857 
  "/>
<path clip-path="url(#clip060)" d="
M1667.69 1377.32 L2282.65 1377.32 L2282.65 1118.12 L1667.69 1118.12  Z
  " fill="#ffffff" fill-rule="evenodd" fill-opacity="1"/>
<polyline clip-path="url(#clip060)" style="stroke:#000000; stroke-linecap:butt; stroke-linejoin:round; stroke-width:4; stroke-opacity:1; fill:none" points="
  1667.69,1377.32 2282.65,1377.32 2282.65,1118.12 1667.69,1118.12 1667.69,1377.32 
  "/>
<path clip-path="url(#clip060)" d="
M1691.06 1190.69 L1831.27 1190.69 L1831.27 1149.22 L1691.06 1149.22 L1691.06 1190.69  Z
  " fill="#009af9" fill-rule="evenodd" fill-opacity="1"/>
<polyline clip-path="url(#clip060)" style="stroke:#000000; stroke-linecap:butt; stroke-linejoin:round; stroke-width:4; stroke-opacity:1; fill:none" points="
  1691.06,1190.69 1831.27,1190.69 1831.27,1149.22 1691.06,1149.22 1691.06,1190.69 
  "/>
<path clip-path="url(#clip060)" d="M1870.66 1155.85 Q1865.57 1155.85 1862.56 1159.64 Q1859.57 1163.44 1859.57 1169.99 Q1859.57 1176.52 1862.56 1180.31 Q1865.57 1184.11 1870.66 1184.11 Q1875.75 1184.11 1878.71 1180.31 Q1881.7 1176.52 1881.7 1169.99 Q1881.7 1163.44 1878.71 1159.64 Q1875.75 1155.85 1870.66 1155.85 M1870.66 1152.05 Q1877.93 1152.05 1882.28 1156.93 Q1886.63 1161.8 1886.63 1169.99 Q1886.63 1178.16 1882.28 1183.05 Q1877.93 1187.91 1870.66 1187.91 Q1863.37 1187.91 1858.99 1183.05 Q1854.64 1178.18 1854.64 1169.99 Q1854.64 1161.8 1858.99 1156.93 Q1863.37 1152.05 1870.66 1152.05 Z" fill="#000000" fill-rule="evenodd" fill-opacity="1" /><path clip-path="url(#clip060)" d="M1893.94 1152.68 L1898.62 1152.68 L1898.62 1167.28 L1914.13 1152.68 L1920.15 1152.68 L1903 1168.79 L1921.38 1187.24 L1915.22 1187.24 L1898.62 1170.59 L1898.62 1187.24 L1893.94 1187.24 L1893.94 1152.68 Z" fill="#000000" fill-rule="evenodd" fill-opacity="1" /><path clip-path="url(#clip060)" d="
M1691.06 1242.53 L1831.27 1242.53 L1831.27 1201.06 L1691.06 1201.06 L1691.06 1242.53  Z
  " fill="#e26f46" fill-rule="evenodd" fill-opacity="1"/>
<polyline clip-path="url(#clip060)" style="stroke:#000000; stroke-linecap:butt; stroke-linejoin:round; stroke-width:4; stroke-opacity:1; fill:none" points="
  1691.06,1242.53 1831.27,1242.53 1831.27,1201.06 1691.06,1201.06 1691.06,1242.53 
  "/>
<path clip-path="url(#clip060)" d="M1854.64 1204.52 L1859.32 1204.52 L1859.32 1235.14 L1876.14 1235.14 L1876.14 1239.08 L1854.64 1239.08 L1854.64 1204.52 Z" fill="#000000" fill-rule="evenodd" fill-opacity="1" /><path clip-path="url(#clip060)" d="M1880.87 1213.15 L1885.13 1213.15 L1885.13 1239.08 L1880.87 1239.08 L1880.87 1213.15 M1880.87 1203.06 L1885.13 1203.06 L1885.13 1208.45 L1880.87 1208.45 L1880.87 1203.06 Z" fill="#000000" fill-rule="evenodd" fill-opacity="1" /><path clip-path="url(#clip060)" d="M1914.22 1218.13 Q1915.82 1215.26 1918.04 1213.89 Q1920.26 1212.52 1923.27 1212.52 Q1927.32 1212.52 1929.52 1215.37 Q1931.72 1218.2 1931.72 1223.43 L1931.72 1239.08 L1927.44 1239.08 L1927.44 1223.57 Q1927.44 1219.84 1926.12 1218.03 Q1924.8 1216.23 1922.09 1216.23 Q1918.78 1216.23 1916.86 1218.43 Q1914.94 1220.63 1914.94 1224.42 L1914.94 1239.08 L1910.66 1239.08 L1910.66 1223.57 Q1910.66 1219.82 1909.34 1218.03 Q1908.02 1216.23 1905.26 1216.23 Q1902 1216.23 1900.08 1218.45 Q1898.16 1220.65 1898.16 1224.42 L1898.16 1239.08 L1893.88 1239.08 L1893.88 1213.15 L1898.16 1213.15 L1898.16 1217.18 Q1899.62 1214.79 1901.65 1213.66 Q1903.69 1212.52 1906.49 1212.52 Q1909.32 1212.52 1911.28 1213.96 Q1913.27 1215.39 1914.22 1218.13 Z" fill="#000000" fill-rule="evenodd" fill-opacity="1" /><path clip-path="url(#clip060)" d="M1940.22 1213.15 L1944.48 1213.15 L1944.48 1239.08 L1940.22 1239.08 L1940.22 1213.15 M1940.22 1203.06 L1944.48 1203.06 L1944.48 1208.45 L1940.22 1208.45 L1940.22 1203.06 Z" fill="#000000" fill-rule="evenodd" fill-opacity="1" /><path clip-path="url(#clip060)" d="M1957.6 1205.79 L1957.6 1213.15 L1966.38 1213.15 L1966.38 1216.46 L1957.6 1216.46 L1957.6 1230.53 Q1957.6 1233.7 1958.46 1234.61 Q1959.34 1235.51 1962 1235.51 L1966.38 1235.51 L1966.38 1239.08 L1962 1239.08 Q1957.07 1239.08 1955.19 1237.25 Q1953.32 1235.39 1953.32 1230.53 L1953.32 1216.46 L1950.19 1216.46 L1950.19 1213.15 L1953.32 1213.15 L1953.32 1205.79 L1957.6 1205.79 Z" fill="#000000" fill-rule="evenodd" fill-opacity="1" /><path clip-path="url(#clip060)" d="M1997.09 1216.14 Q1993.67 1216.14 1991.68 1218.82 Q1989.69 1221.48 1989.69 1226.14 Q1989.69 1230.79 1991.65 1233.47 Q1993.64 1236.14 1997.09 1236.14 Q2000.5 1236.14 2002.49 1233.45 Q2004.48 1230.77 2004.48 1226.14 Q2004.48 1221.53 2002.49 1218.84 Q2000.5 1216.14 1997.09 1216.14 M1997.09 1212.52 Q2002.65 1212.52 2005.82 1216.14 Q2008.99 1219.75 2008.99 1226.14 Q2008.99 1232.5 2005.82 1236.14 Q2002.65 1239.75 1997.09 1239.75 Q1991.51 1239.75 1988.34 1236.14 Q1985.19 1232.5 1985.19 1226.14 Q1985.19 1219.75 1988.34 1216.14 Q1991.51 1212.52 1997.09 1212.52 Z" fill="#000000" fill-rule="evenodd" fill-opacity="1" /><path clip-path="url(#clip060)" d="M2034.66 1226.14 Q2034.66 1221.44 2032.72 1218.77 Q2030.8 1216.09 2027.42 1216.09 Q2024.04 1216.09 2022.09 1218.77 Q2020.17 1221.44 2020.17 1226.14 Q2020.17 1230.83 2022.09 1233.52 Q2024.04 1236.18 2027.42 1236.18 Q2030.8 1236.18 2032.72 1233.52 Q2034.66 1230.83 2034.66 1226.14 M2020.17 1217.08 Q2021.51 1214.77 2023.55 1213.66 Q2025.61 1212.52 2028.46 1212.52 Q2033.18 1212.52 2036.12 1216.27 Q2039.08 1220.02 2039.08 1226.14 Q2039.08 1232.25 2036.12 1236 Q2033.18 1239.75 2028.46 1239.75 Q2025.61 1239.75 2023.55 1238.64 Q2021.51 1237.5 2020.17 1235.19 L2020.17 1239.08 L2015.89 1239.08 L2015.89 1203.06 L2020.17 1203.06 L2020.17 1217.08 Z" fill="#000000" fill-rule="evenodd" fill-opacity="1" /><path clip-path="url(#clip060)" d="M2064.8 1214.14 L2064.8 1218.13 Q2062.99 1217.13 2061.17 1216.64 Q2059.36 1216.14 2057.51 1216.14 Q2053.37 1216.14 2051.07 1218.77 Q2048.78 1221.39 2048.78 1226.14 Q2048.78 1230.88 2051.07 1233.52 Q2053.37 1236.14 2057.51 1236.14 Q2059.36 1236.14 2061.17 1235.65 Q2062.99 1235.14 2064.8 1234.14 L2064.8 1238.08 Q2063.02 1238.91 2061.1 1239.33 Q2059.2 1239.75 2057.05 1239.75 Q2051.19 1239.75 2047.74 1236.07 Q2044.29 1232.39 2044.29 1226.14 Q2044.29 1219.79 2047.76 1216.16 Q2051.26 1212.52 2057.32 1212.52 Q2059.29 1212.52 2061.17 1212.94 Q2063.04 1213.33 2064.8 1214.14 Z" fill="#000000" fill-rule="evenodd" fill-opacity="1" /><path clip-path="url(#clip060)" d="M2072.21 1213.15 L2076.47 1213.15 L2076.47 1239.08 L2072.21 1239.08 L2072.21 1213.15 M2072.21 1203.06 L2076.47 1203.06 L2076.47 1208.45 L2072.21 1208.45 L2072.21 1203.06 Z" fill="#000000" fill-rule="evenodd" fill-opacity="1" /><path clip-path="url(#clip060)" d="M2097.16 1226.04 Q2092 1226.04 2090.01 1227.22 Q2088.02 1228.4 2088.02 1231.25 Q2088.02 1233.52 2089.5 1234.86 Q2091 1236.18 2093.57 1236.18 Q2097.12 1236.18 2099.24 1233.68 Q2101.4 1231.16 2101.4 1226.99 L2101.4 1226.04 L2097.16 1226.04 M2105.66 1224.28 L2105.66 1239.08 L2101.4 1239.08 L2101.4 1235.14 Q2099.94 1237.5 2097.76 1238.64 Q2095.59 1239.75 2092.44 1239.75 Q2088.46 1239.75 2086.1 1237.52 Q2083.76 1235.28 2083.76 1231.53 Q2083.76 1227.15 2086.68 1224.93 Q2089.62 1222.71 2095.43 1222.71 L2101.4 1222.71 L2101.4 1222.29 Q2101.4 1219.35 2099.45 1217.76 Q2097.53 1216.14 2094.04 1216.14 Q2091.81 1216.14 2089.71 1216.67 Q2087.6 1217.2 2085.66 1218.27 L2085.66 1214.33 Q2087.99 1213.43 2090.19 1212.99 Q2092.39 1212.52 2094.48 1212.52 Q2100.1 1212.52 2102.88 1215.44 Q2105.66 1218.36 2105.66 1224.28 M2101.44 1239.08 L2104.2 1239.08 Q2103.16 1240.49 2102.65 1241.51 Q2102.16 1242.52 2102.16 1243.24 Q2102.16 1244.31 2102.79 1244.84 Q2103.43 1245.37 2104.68 1245.37 Q2105.43 1245.37 2106.14 1245.19 Q2106.86 1245.02 2107.58 1244.68 L2107.58 1247.76 Q2106.7 1247.99 2105.91 1248.1 Q2105.12 1248.22 2104.43 1248.22 Q2101.61 1248.22 2100.26 1247.2 Q2098.94 1246.2 2098.94 1244.05 Q2098.94 1242.94 2099.55 1241.71 Q2100.17 1240.51 2101.44 1239.08 Z" fill="#000000" fill-rule="evenodd" fill-opacity="1" /><path clip-path="url(#clip060)" d="M2120.17 1203.06 L2124.43 1203.06 L2124.43 1208.45 L2120.17 1208.45 L2120.17 1203.06 M2122.35 1212.52 L2122.35 1212.52 M2112.58 1213.15 L2132.81 1213.15 L2132.81 1217.04 L2116.79 1235.67 L2132.81 1235.67 L2132.81 1239.08 L2112 1239.08 L2112 1235.19 L2128.02 1216.55 L2112.58 1216.55 L2112.58 1213.15 Z" fill="#000000" fill-rule="evenodd" fill-opacity="1" /><path clip-path="url(#clip060)" d="M2161.49 1225.05 L2161.49 1227.13 L2141.91 1227.13 Q2142.18 1231.53 2144.55 1233.84 Q2146.93 1236.14 2151.17 1236.14 Q2153.62 1236.14 2155.91 1235.53 Q2158.23 1234.93 2160.49 1233.73 L2160.49 1237.76 Q2158.2 1238.73 2155.8 1239.24 Q2153.39 1239.75 2150.91 1239.75 Q2144.71 1239.75 2141.07 1236.14 Q2137.46 1232.52 2137.46 1226.37 Q2137.46 1220 2140.89 1216.27 Q2144.34 1212.52 2150.17 1212.52 Q2155.4 1212.52 2158.43 1215.9 Q2161.49 1219.26 2161.49 1225.05 M2157.23 1223.8 Q2157.18 1220.3 2155.26 1218.22 Q2153.36 1216.14 2150.22 1216.14 Q2146.65 1216.14 2144.5 1218.15 Q2142.37 1220.16 2142.05 1223.82 L2157.23 1223.8 Z" fill="#000000" fill-rule="evenodd" fill-opacity="1" /><path clip-path="url(#clip060)" d="M2190.03 1223.43 L2190.03 1239.08 L2185.77 1239.08 L2185.77 1223.57 Q2185.77 1219.89 2184.34 1218.06 Q2182.9 1216.23 2180.03 1216.23 Q2176.58 1216.23 2174.59 1218.43 Q2172.6 1220.63 2172.6 1224.42 L2172.6 1239.08 L2168.32 1239.08 L2168.32 1213.15 L2172.6 1213.15 L2172.6 1217.18 Q2174.13 1214.84 2176.19 1213.68 Q2178.27 1212.52 2180.98 1212.52 Q2185.45 1212.52 2187.74 1215.3 Q2190.03 1218.06 2190.03 1223.43 Z" fill="#000000" fill-rule="evenodd" fill-opacity="1" /><path clip-path="url(#clip060)" d="M2198.53 1213.15 L2202.79 1213.15 L2202.79 1239.08 L2198.53 1239.08 L2198.53 1213.15 M2198.53 1203.06 L2202.79 1203.06 L2202.79 1208.45 L2198.53 1208.45 L2198.53 1203.06 Z" fill="#000000" fill-rule="evenodd" fill-opacity="1" /><path clip-path="url(#clip060)" d="M2223.48 1226.04 Q2218.32 1226.04 2216.33 1227.22 Q2214.34 1228.4 2214.34 1231.25 Q2214.34 1233.52 2215.82 1234.86 Q2217.32 1236.18 2219.89 1236.18 Q2223.43 1236.18 2225.56 1233.68 Q2227.72 1231.16 2227.72 1226.99 L2227.72 1226.04 L2223.48 1226.04 M2231.98 1224.28 L2231.98 1239.08 L2227.72 1239.08 L2227.72 1235.14 Q2226.26 1237.5 2224.08 1238.64 Q2221.91 1239.75 2218.76 1239.75 Q2214.78 1239.75 2212.42 1237.52 Q2210.08 1235.28 2210.08 1231.53 Q2210.08 1227.15 2212.99 1224.93 Q2215.93 1222.71 2221.74 1222.71 L2227.72 1222.71 L2227.72 1222.29 Q2227.72 1219.35 2225.77 1217.76 Q2223.85 1216.14 2220.36 1216.14 Q2218.13 1216.14 2216.03 1216.67 Q2213.92 1217.2 2211.98 1218.27 L2211.98 1214.33 Q2214.31 1213.43 2216.51 1212.99 Q2218.71 1212.52 2220.8 1212.52 Q2226.42 1212.52 2229.2 1215.44 Q2231.98 1218.36 2231.98 1224.28 Z" fill="#000000" fill-rule="evenodd" fill-opacity="1" /><path clip-path="url(#clip060)" d="
M1691.06 1294.37 L1831.27 1294.37 L1831.27 1252.9 L1691.06 1252.9 L1691.06 1294.37  Z
  " fill="#3da44d" fill-rule="evenodd" fill-opacity="1"/>
<polyline clip-path="url(#clip060)" style="stroke:#000000; stroke-linecap:butt; stroke-linejoin:round; stroke-width:4; stroke-opacity:1; fill:none" points="
  1691.06,1294.37 1831.27,1294.37 1831.27,1252.9 1691.06,1252.9 1691.06,1294.37 
  "/>
<path clip-path="url(#clip060)" d="M1854.64 1256.36 L1859.32 1256.36 L1859.32 1286.98 L1876.14 1286.98 L1876.14 1290.92 L1854.64 1290.92 L1854.64 1256.36 Z" fill="#000000" fill-rule="evenodd" fill-opacity="1" /><path clip-path="url(#clip060)" d="M1880.87 1264.99 L1885.13 1264.99 L1885.13 1290.92 L1880.87 1290.92 L1880.87 1264.99 M1880.87 1254.9 L1885.13 1254.9 L1885.13 1260.29 L1880.87 1260.29 L1880.87 1254.9 Z" fill="#000000" fill-rule="evenodd" fill-opacity="1" /><path clip-path="url(#clip060)" d="M1914.22 1269.97 Q1915.82 1267.1 1918.04 1265.73 Q1920.26 1264.36 1923.27 1264.36 Q1927.32 1264.36 1929.52 1267.21 Q1931.72 1270.04 1931.72 1275.27 L1931.72 1290.92 L1927.44 1290.92 L1927.44 1275.41 Q1927.44 1271.68 1926.12 1269.87 Q1924.8 1268.07 1922.09 1268.07 Q1918.78 1268.07 1916.86 1270.27 Q1914.94 1272.47 1914.94 1276.26 L1914.94 1290.92 L1910.66 1290.92 L1910.66 1275.41 Q1910.66 1271.66 1909.34 1269.87 Q1908.02 1268.07 1905.26 1268.07 Q1902 1268.07 1900.08 1270.29 Q1898.16 1272.49 1898.16 1276.26 L1898.16 1290.92 L1893.88 1290.92 L1893.88 1264.99 L1898.16 1264.99 L1898.16 1269.02 Q1899.62 1266.63 1901.65 1265.5 Q1903.69 1264.36 1906.49 1264.36 Q1909.32 1264.36 1911.28 1265.8 Q1913.27 1267.23 1914.22 1269.97 Z" fill="#000000" fill-rule="evenodd" fill-opacity="1" /><path clip-path="url(#clip060)" d="M1940.22 1264.99 L1944.48 1264.99 L1944.48 1290.92 L1940.22 1290.92 L1940.22 1264.99 M1940.22 1254.9 L1944.48 1254.9 L1944.48 1260.29 L1940.22 1260.29 L1940.22 1254.9 Z" fill="#000000" fill-rule="evenodd" fill-opacity="1" /><path clip-path="url(#clip060)" d="M1957.6 1257.63 L1957.6 1264.99 L1966.38 1264.99 L1966.38 1268.3 L1957.6 1268.3 L1957.6 1282.37 Q1957.6 1285.54 1958.46 1286.45 Q1959.34 1287.35 1962 1287.35 L1966.38 1287.35 L1966.38 1290.92 L1962 1290.92 Q1957.07 1290.92 1955.19 1289.09 Q1953.32 1287.23 1953.32 1282.37 L1953.32 1268.3 L1950.19 1268.3 L1950.19 1264.99 L1953.32 1264.99 L1953.32 1257.63 L1957.6 1257.63 Z" fill="#000000" fill-rule="evenodd" fill-opacity="1" /><path clip-path="url(#clip060)" d="M1997.09 1267.98 Q1993.67 1267.98 1991.68 1270.66 Q1989.69 1273.32 1989.69 1277.98 Q1989.69 1282.63 1991.65 1285.31 Q1993.64 1287.98 1997.09 1287.98 Q2000.5 1287.98 2002.49 1285.29 Q2004.48 1282.61 2004.48 1277.98 Q2004.48 1273.37 2002.49 1270.68 Q2000.5 1267.98 1997.09 1267.98 M1997.09 1264.36 Q2002.65 1264.36 2005.82 1267.98 Q2008.99 1271.59 2008.99 1277.98 Q2008.99 1284.34 2005.82 1287.98 Q2002.65 1291.59 1997.09 1291.59 Q1991.51 1291.59 1988.34 1287.98 Q1985.19 1284.34 1985.19 1277.98 Q1985.19 1271.59 1988.34 1267.98 Q1991.51 1264.36 1997.09 1264.36 Z" fill="#000000" fill-rule="evenodd" fill-opacity="1" /><path clip-path="url(#clip060)" d="M2020.17 1287.03 L2020.17 1300.78 L2015.89 1300.78 L2015.89 1264.99 L2020.17 1264.99 L2020.17 1268.92 Q2021.51 1266.61 2023.55 1265.5 Q2025.61 1264.36 2028.46 1264.36 Q2033.18 1264.36 2036.12 1268.11 Q2039.08 1271.86 2039.08 1277.98 Q2039.08 1284.09 2036.12 1287.84 Q2033.18 1291.59 2028.46 1291.59 Q2025.61 1291.59 2023.55 1290.48 Q2021.51 1289.34 2020.17 1287.03 M2034.66 1277.98 Q2034.66 1273.28 2032.72 1270.61 Q2030.8 1267.93 2027.42 1267.93 Q2024.04 1267.93 2022.09 1270.61 Q2020.17 1273.28 2020.17 1277.98 Q2020.17 1282.67 2022.09 1285.36 Q2024.04 1288.02 2027.42 1288.02 Q2030.8 1288.02 2032.72 1285.36 Q2034.66 1282.67 2034.66 1277.98 Z" fill="#000000" fill-rule="evenodd" fill-opacity="1" /><path clip-path="url(#clip060)" d="M2056.19 1267.98 Q2052.76 1267.98 2050.77 1270.66 Q2048.78 1273.32 2048.78 1277.98 Q2048.78 1282.63 2050.75 1285.31 Q2052.74 1287.98 2056.19 1287.98 Q2059.59 1287.98 2061.58 1285.29 Q2063.57 1282.61 2063.57 1277.98 Q2063.57 1273.37 2061.58 1270.68 Q2059.59 1267.98 2056.19 1267.98 M2056.19 1264.36 Q2061.74 1264.36 2064.92 1267.98 Q2068.09 1271.59 2068.09 1277.98 Q2068.09 1284.34 2064.92 1287.98 Q2061.74 1291.59 2056.19 1291.59 Q2050.61 1291.59 2047.44 1287.98 Q2044.29 1284.34 2044.29 1277.98 Q2044.29 1271.59 2047.44 1267.98 Q2050.61 1264.36 2056.19 1264.36 M2059.41 1253 L2064.01 1253 L2056.47 1261.7 L2052.93 1261.7 L2059.41 1253 Z" fill="#000000" fill-rule="evenodd" fill-opacity="1" /><path clip-path="url(#clip060)" d="M2087.28 1252.84 L2091.88 1252.84 L2084.34 1261.54 L2080.8 1261.54 L2087.28 1252.84 M2073.3 1264.99 L2093.53 1264.99 L2093.53 1268.88 L2077.51 1287.51 L2093.53 1287.51 L2093.53 1290.92 L2072.72 1290.92 L2072.72 1287.03 L2088.74 1268.39 L2073.3 1268.39 L2073.3 1264.99 Z" fill="#000000" fill-rule="evenodd" fill-opacity="1" /><path clip-path="url(#clip060)" d="M2121.58 1275.27 L2121.58 1290.92 L2117.32 1290.92 L2117.32 1275.41 Q2117.32 1271.73 2115.89 1269.9 Q2114.45 1268.07 2111.58 1268.07 Q2108.13 1268.07 2106.14 1270.27 Q2104.15 1272.47 2104.15 1276.26 L2104.15 1290.92 L2099.87 1290.92 L2099.87 1264.99 L2104.15 1264.99 L2104.15 1269.02 Q2105.68 1266.68 2107.74 1265.52 Q2109.82 1264.36 2112.53 1264.36 Q2117 1264.36 2119.29 1267.14 Q2121.58 1269.9 2121.58 1275.27 Z" fill="#000000" fill-rule="evenodd" fill-opacity="1" /><path clip-path="url(#clip060)" d="M2130.08 1264.99 L2134.34 1264.99 L2134.34 1290.92 L2130.08 1290.92 L2130.08 1264.99 M2130.08 1254.9 L2134.34 1254.9 L2134.34 1260.29 L2130.08 1260.29 L2130.08 1254.9 Z" fill="#000000" fill-rule="evenodd" fill-opacity="1" /><path clip-path="url(#clip060)" d="M2165.42 1276.89 L2165.42 1278.97 L2145.84 1278.97 Q2146.12 1283.37 2148.48 1285.68 Q2150.86 1287.98 2155.1 1287.98 Q2157.55 1287.98 2159.85 1287.37 Q2162.16 1286.77 2164.43 1285.57 L2164.43 1289.6 Q2162.14 1290.57 2159.73 1291.08 Q2157.32 1291.59 2154.85 1291.59 Q2148.64 1291.59 2145.01 1287.98 Q2141.4 1284.36 2141.4 1278.21 Q2141.4 1271.84 2144.82 1268.11 Q2148.27 1264.36 2154.11 1264.36 Q2159.34 1264.36 2162.37 1267.74 Q2165.42 1271.1 2165.42 1276.89 M2161.17 1275.64 Q2161.12 1272.14 2159.2 1270.06 Q2157.3 1267.98 2154.15 1267.98 Q2150.59 1267.98 2148.43 1269.99 Q2146.3 1272 2145.98 1275.66 L2161.17 1275.64 Z" fill="#000000" fill-rule="evenodd" fill-opacity="1" /><path clip-path="url(#clip060)" d="M2193.97 1275.27 L2193.97 1290.92 L2189.71 1290.92 L2189.71 1275.41 Q2189.71 1271.73 2188.27 1269.9 Q2186.84 1268.07 2183.97 1268.07 Q2180.52 1268.07 2178.53 1270.27 Q2176.54 1272.47 2176.54 1276.26 L2176.54 1290.92 L2172.25 1290.92 L2172.25 1264.99 L2176.54 1264.99 L2176.54 1269.02 Q2178.06 1266.68 2180.12 1265.52 Q2182.21 1264.36 2184.92 1264.36 Q2189.38 1264.36 2191.67 1267.14 Q2193.97 1269.9 2193.97 1275.27 Z" fill="#000000" fill-rule="evenodd" fill-opacity="1" /><path clip-path="url(#clip060)" d="M2202.46 1264.99 L2206.72 1264.99 L2206.72 1290.92 L2202.46 1290.92 L2202.46 1264.99 M2202.46 1254.9 L2206.72 1254.9 L2206.72 1260.29 L2202.46 1260.29 L2202.46 1254.9 Z" fill="#000000" fill-rule="evenodd" fill-opacity="1" /><path clip-path="url(#clip060)" d="M2227.42 1277.88 Q2222.25 1277.88 2220.26 1279.06 Q2218.27 1280.24 2218.27 1283.09 Q2218.27 1285.36 2219.75 1286.7 Q2221.26 1288.02 2223.83 1288.02 Q2227.37 1288.02 2229.5 1285.52 Q2231.65 1283 2231.65 1278.83 L2231.65 1277.88 L2227.42 1277.88 M2235.91 1276.12 L2235.91 1290.92 L2231.65 1290.92 L2231.65 1286.98 Q2230.19 1289.34 2228.02 1290.48 Q2225.84 1291.59 2222.69 1291.59 Q2218.71 1291.59 2216.35 1289.36 Q2214.01 1287.12 2214.01 1283.37 Q2214.01 1278.99 2216.93 1276.77 Q2219.87 1274.55 2225.68 1274.55 L2231.65 1274.55 L2231.65 1274.13 Q2231.65 1271.19 2229.71 1269.6 Q2227.79 1267.98 2224.29 1267.98 Q2222.07 1267.98 2219.96 1268.51 Q2217.86 1269.04 2215.91 1270.11 L2215.91 1266.17 Q2218.25 1265.27 2220.45 1264.83 Q2222.65 1264.36 2224.73 1264.36 Q2230.36 1264.36 2233.13 1267.28 Q2235.91 1270.2 2235.91 1276.12 Z" fill="#000000" fill-rule="evenodd" fill-opacity="1" /><path clip-path="url(#clip060)" d="
M1691.06 1346.21 L1831.27 1346.21 L1831.27 1304.74 L1691.06 1304.74 L1691.06 1346.21  Z
  " fill="#c271d2" fill-rule="evenodd" fill-opacity="1"/>
<polyline clip-path="url(#clip060)" style="stroke:#000000; stroke-linecap:butt; stroke-linejoin:round; stroke-width:4; stroke-opacity:1; fill:none" points="
  1691.06,1346.21 1831.27,1346.21 1831.27,1304.74 1691.06,1304.74 1691.06,1346.21 
  "/>
<path clip-path="url(#clip060)" d="M1854.64 1308.2 L1860.94 1308.2 L1876.26 1337.11 L1876.26 1308.2 L1880.8 1308.2 L1880.8 1342.76 L1874.5 1342.76 L1859.18 1313.84 L1859.18 1342.76 L1854.64 1342.76 L1854.64 1308.2 Z" fill="#000000" fill-rule="evenodd" fill-opacity="1" /><path clip-path="url(#clip060)" d="M1889.92 1316.83 L1894.18 1316.83 L1894.18 1342.76 L1889.92 1342.76 L1889.92 1316.83 M1889.92 1306.74 L1894.18 1306.74 L1894.18 1312.13 L1889.92 1312.13 L1889.92 1306.74 Z" fill="#000000" fill-rule="evenodd" fill-opacity="1" /><path clip-path="url(#clip060)" d="M1925.26 1328.73 L1925.26 1330.81 L1905.68 1330.81 Q1905.96 1335.21 1908.32 1337.52 Q1910.7 1339.82 1914.94 1339.82 Q1917.39 1339.82 1919.69 1339.21 Q1922 1338.61 1924.27 1337.41 L1924.27 1341.44 Q1921.98 1342.41 1919.57 1342.92 Q1917.16 1343.43 1914.69 1343.43 Q1908.48 1343.43 1904.85 1339.82 Q1901.24 1336.2 1901.24 1330.05 Q1901.24 1323.68 1904.66 1319.95 Q1908.11 1316.2 1913.94 1316.2 Q1919.18 1316.2 1922.21 1319.58 Q1925.26 1322.94 1925.26 1328.73 M1921 1327.48 Q1920.96 1323.98 1919.04 1321.9 Q1917.14 1319.82 1913.99 1319.82 Q1910.43 1319.82 1908.27 1321.83 Q1906.14 1323.84 1905.82 1327.5 L1921 1327.48 Z" fill="#000000" fill-rule="evenodd" fill-opacity="1" /><path clip-path="url(#clip060)" d="M1951.44 1338.87 L1951.44 1352.62 L1947.16 1352.62 L1947.16 1316.83 L1951.44 1316.83 L1951.44 1320.76 Q1952.79 1318.45 1954.82 1317.34 Q1956.88 1316.2 1959.73 1316.2 Q1964.45 1316.2 1967.39 1319.95 Q1970.36 1323.7 1970.36 1329.82 Q1970.36 1335.93 1967.39 1339.68 Q1964.45 1343.43 1959.73 1343.43 Q1956.88 1343.43 1954.82 1342.32 Q1952.79 1341.18 1951.44 1338.87 M1965.94 1329.82 Q1965.94 1325.12 1963.99 1322.45 Q1962.07 1319.77 1958.69 1319.77 Q1955.31 1319.77 1953.37 1322.45 Q1951.44 1325.12 1951.44 1329.82 Q1951.44 1334.51 1953.37 1337.2 Q1955.31 1339.86 1958.69 1339.86 Q1962.07 1339.86 1963.99 1337.2 Q1965.94 1334.51 1965.94 1329.82 Z" fill="#000000" fill-rule="evenodd" fill-opacity="1" /><path clip-path="url(#clip060)" d="M1987.46 1319.82 Q1984.04 1319.82 1982.05 1322.5 Q1980.06 1325.16 1980.06 1329.82 Q1980.06 1334.47 1982.02 1337.15 Q1984.01 1339.82 1987.46 1339.82 Q1990.87 1339.82 1992.86 1337.13 Q1994.85 1334.45 1994.85 1329.82 Q1994.85 1325.21 1992.86 1322.52 Q1990.87 1319.82 1987.46 1319.82 M1987.46 1316.2 Q1993.02 1316.2 1996.19 1319.82 Q1999.36 1323.43 1999.36 1329.82 Q1999.36 1336.18 1996.19 1339.82 Q1993.02 1343.43 1987.46 1343.43 Q1981.88 1343.43 1978.71 1339.82 Q1975.56 1336.18 1975.56 1329.82 Q1975.56 1323.43 1978.71 1319.82 Q1981.88 1316.2 1987.46 1316.2 Z" fill="#000000" fill-rule="evenodd" fill-opacity="1" /><path clip-path="url(#clip060)" d="M2006.56 1306.74 L2010.82 1306.74 L2010.82 1320.67 L2013.71 1318.59 L2015.47 1321.04 L2010.82 1324.31 L2010.82 1342.76 L2006.56 1342.76 L2006.56 1327.34 L2003.71 1329.38 L2002 1326.92 L2006.56 1323.66 L2006.56 1306.74 Z" fill="#000000" fill-rule="evenodd" fill-opacity="1" /><path clip-path="url(#clip060)" d="M2031.68 1329.72 Q2026.51 1329.72 2024.52 1330.9 Q2022.53 1332.08 2022.53 1334.93 Q2022.53 1337.2 2024.01 1338.54 Q2025.52 1339.86 2028.09 1339.86 Q2031.63 1339.86 2033.76 1337.36 Q2035.91 1334.84 2035.91 1330.67 L2035.91 1329.72 L2031.68 1329.72 M2040.17 1327.96 L2040.17 1342.76 L2035.91 1342.76 L2035.91 1338.82 Q2034.45 1341.18 2032.28 1342.32 Q2030.1 1343.43 2026.95 1343.43 Q2022.97 1343.43 2020.61 1341.2 Q2018.27 1338.96 2018.27 1335.21 Q2018.27 1330.83 2021.19 1328.61 Q2024.13 1326.39 2029.94 1326.39 L2035.91 1326.39 L2035.91 1325.97 Q2035.91 1323.03 2033.97 1321.44 Q2032.05 1319.82 2028.55 1319.82 Q2026.33 1319.82 2024.22 1320.35 Q2022.12 1320.88 2020.17 1321.95 L2020.17 1318.01 Q2022.51 1317.11 2024.71 1316.67 Q2026.91 1316.2 2028.99 1316.2 Q2034.62 1316.2 2037.39 1319.12 Q2040.17 1322.04 2040.17 1327.96 M2035.96 1342.76 L2038.71 1342.76 Q2037.67 1344.17 2037.16 1345.19 Q2036.68 1346.2 2036.68 1346.92 Q2036.68 1347.99 2037.3 1348.52 Q2037.95 1349.05 2039.2 1349.05 Q2039.94 1349.05 2040.66 1348.87 Q2041.37 1348.7 2042.09 1348.36 L2042.09 1351.44 Q2041.21 1351.67 2040.43 1351.78 Q2039.64 1351.9 2038.94 1351.9 Q2036.12 1351.9 2034.78 1350.88 Q2033.46 1349.88 2033.46 1347.73 Q2033.46 1346.62 2034.06 1345.39 Q2034.68 1344.19 2035.96 1342.76 Z" fill="#000000" fill-rule="evenodd" fill-opacity="1" /><path clip-path="url(#clip060)" d="M2067.6 1317.82 L2067.6 1321.81 Q2065.8 1320.81 2063.97 1320.32 Q2062.16 1319.82 2060.31 1319.82 Q2056.17 1319.82 2053.87 1322.45 Q2051.58 1325.07 2051.58 1329.82 Q2051.58 1334.56 2053.87 1337.2 Q2056.17 1339.82 2060.31 1339.82 Q2062.16 1339.82 2063.97 1339.33 Q2065.8 1338.82 2067.6 1337.82 L2067.6 1341.76 Q2065.82 1342.59 2063.9 1343.01 Q2062 1343.43 2059.85 1343.43 Q2053.99 1343.43 2050.54 1339.75 Q2047.09 1336.07 2047.09 1329.82 Q2047.09 1323.47 2050.56 1319.84 Q2054.06 1316.2 2060.12 1316.2 Q2062.09 1316.2 2063.97 1316.62 Q2065.84 1317.01 2067.6 1317.82 Z" fill="#000000" fill-rule="evenodd" fill-opacity="1" /><path clip-path="url(#clip060)" d="M2073.16 1316.83 L2093.39 1316.83 L2093.39 1320.72 L2077.37 1339.35 L2093.39 1339.35 L2093.39 1342.76 L2072.58 1342.76 L2072.58 1338.87 L2088.6 1320.23 L2073.16 1320.23 L2073.16 1316.83 Z" fill="#000000" fill-rule="evenodd" fill-opacity="1" /><path clip-path="url(#clip060)" d="M2109.94 1319.82 Q2106.51 1319.82 2104.52 1322.5 Q2102.53 1325.16 2102.53 1329.82 Q2102.53 1334.47 2104.5 1337.15 Q2106.49 1339.82 2109.94 1339.82 Q2113.34 1339.82 2115.33 1337.13 Q2117.32 1334.45 2117.32 1329.82 Q2117.32 1325.21 2115.33 1322.52 Q2113.34 1319.82 2109.94 1319.82 M2109.94 1316.2 Q2115.49 1316.2 2118.67 1319.82 Q2121.84 1323.43 2121.84 1329.82 Q2121.84 1336.18 2118.67 1339.82 Q2115.49 1343.43 2109.94 1343.43 Q2104.36 1343.43 2101.19 1339.82 Q2098.04 1336.18 2098.04 1329.82 Q2098.04 1323.43 2101.19 1319.82 Q2104.36 1316.2 2109.94 1316.2 Z" fill="#000000" fill-rule="evenodd" fill-opacity="1" /><path clip-path="url(#clip060)" d="M2150.45 1327.11 L2150.45 1342.76 L2146.19 1342.76 L2146.19 1327.25 Q2146.19 1323.57 2144.75 1321.74 Q2143.32 1319.91 2140.45 1319.91 Q2137 1319.91 2135.01 1322.11 Q2133.02 1324.31 2133.02 1328.1 L2133.02 1342.76 L2128.74 1342.76 L2128.74 1316.83 L2133.02 1316.83 L2133.02 1320.86 Q2134.55 1318.52 2136.61 1317.36 Q2138.69 1316.2 2141.4 1316.2 Q2145.86 1316.2 2148.16 1318.98 Q2150.45 1321.74 2150.45 1327.11 Z" fill="#000000" fill-rule="evenodd" fill-opacity="1" /><path clip-path="url(#clip060)" d="M2181.12 1328.73 L2181.12 1330.81 L2161.54 1330.81 Q2161.81 1335.21 2164.17 1337.52 Q2166.56 1339.82 2170.8 1339.82 Q2173.25 1339.82 2175.54 1339.21 Q2177.86 1338.61 2180.12 1337.41 L2180.12 1341.44 Q2177.83 1342.41 2175.42 1342.92 Q2173.02 1343.43 2170.54 1343.43 Q2164.34 1343.43 2160.7 1339.82 Q2157.09 1336.2 2157.09 1330.05 Q2157.09 1323.68 2160.52 1319.95 Q2163.97 1316.2 2169.8 1316.2 Q2175.03 1316.2 2178.06 1319.58 Q2181.12 1322.94 2181.12 1328.73 M2176.86 1327.48 Q2176.81 1323.98 2174.89 1321.9 Q2172.99 1319.82 2169.85 1319.82 Q2166.28 1319.82 2164.13 1321.83 Q2162 1323.84 2161.67 1327.5 L2176.86 1327.48 Z" fill="#000000" fill-rule="evenodd" fill-opacity="1" /></svg>
